<svg width="70" height="70" viewBox="0 0 70 70" fill="none" xmlns="http://www.w3.org/2000/svg">
<path d="M66.4907 31.1352V20.7241C66.4907 18.8679 65.7533 17.0876 64.4408 15.7751C63.1282 14.4625 61.348 13.7251 59.4917 13.7251H38.4946V9.13373C39.562 8.17486 40.2444 6.79605 40.2444 5.24927C40.2444 3.85708 39.6913 2.5219 38.7069 1.53748C37.7225 0.553046 36.3873 0 34.9951 0C33.6029 0 32.2678 0.553046 31.2833 1.53748C30.2989 2.5219 29.7459 3.85708 29.7459 5.24927C29.7459 6.79605 30.4283 8.17486 31.4956 9.13373V13.7251H10.4985C8.64228 13.7251 6.86205 14.4625 5.54948 15.7751C4.23691 17.0876 3.49951 18.8679 3.49951 20.7241V31.2156L3.24755 31.2331C2.36528 31.296 1.53963 31.691 0.936993 32.3384C0.334357 32.9858 -0.000465415 33.8377 4.85566e-07 34.7222V41.7212C4.85566e-07 42.6493 0.368698 43.5394 1.02498 44.1957C1.68127 44.852 2.57138 45.2207 3.49951 45.2207V62.7183C3.49951 64.5745 4.23691 66.3547 5.54948 67.6673C6.86205 68.9799 8.64228 69.7173 10.4985 69.7173H59.4917C61.348 69.7173 63.1282 68.9799 64.4408 67.6673C65.7533 66.3547 66.4907 64.5745 66.4907 62.7183V45.2207C67.4189 45.2207 68.309 44.852 68.9653 44.1957C69.6215 43.5394 69.9902 42.6493 69.9902 41.7212V34.9391C70.0308 34.396 69.9445 33.8509 69.7383 33.3469C69.0314 31.6391 67.5161 31.2296 66.4907 31.1352ZM17.4976 34.7222C17.4976 30.8587 19.8492 27.7231 22.7468 27.7231C25.6444 27.7231 27.9961 30.8587 27.9961 34.7222C27.9961 38.5856 25.6444 41.7212 22.7468 41.7212C19.8492 41.7212 17.4976 38.5856 17.4976 34.7222ZM48.9862 55.7192C45.4832 55.7087 21.0006 55.7192 20.9971 55.7192V48.7202C20.9971 48.7202 45.4972 48.7132 49.0002 48.7202L48.9862 55.7192ZM47.2434 41.7212C44.3458 41.7212 41.9941 38.5856 41.9941 34.7222C41.9941 30.8587 44.3458 27.7231 47.2434 27.7231C50.141 27.7231 52.4927 30.8587 52.4927 34.7222C52.4927 38.5856 50.141 41.7212 47.2434 41.7212Z" fill="#AEB8FE"/>
</svg>
