<svg width="350" height="350" viewBox="0 0 350 350" fill="none" xmlns="http://www.w3.org/2000/svg">
<g clip-path="url(#clip0_36_537)">
<path d="M293.758 59.3375C273.751 27.1033 240.277 5.30761 202.607 0.79194C184.083 -1.42196 162.243 -0.04232 139.756 10.0575C76.6814 38.3791 52.2078 77.4849 60.6194 123.158C69.031 168.83 15.7555 201.952 51.8951 263.674C88.0347 325.396 174.139 356.649 240.881 309.351C307.622 262.053 274.151 236.659 298.38 195.257C316.924 163.595 323.623 107.442 293.758 59.3375Z" fill="#AEB8FE"/>
<path opacity="0.7" d="M293.758 59.3375C273.751 27.1033 240.277 5.30761 202.607 0.79194C184.083 -1.42196 162.243 -0.04232 139.756 10.0575C76.6814 38.3791 52.2078 77.4849 60.6194 123.158C69.031 168.83 15.7555 201.952 51.8951 263.674C88.0347 325.396 174.139 356.649 240.881 309.351C307.622 262.053 274.151 236.659 298.38 195.257C316.924 163.595 323.623 107.442 293.758 59.3375Z" fill="white"/>
<path d="M178.08 323.295C178.159 321.895 177.681 320.521 176.75 319.473C175.763 318.437 174.65 318.164 174.65 316.134C174.713 312.998 177.261 310.856 180.817 310.926C184.373 310.996 186.844 313.236 186.781 316.372C186.746 318.395 184.268 318.92 183.771 320.264C183.401 321.272 183.165 322.324 183.071 323.393C183.063 323.822 183.139 324.249 183.296 324.649C183.452 325.049 183.686 325.414 183.984 325.723C184.281 326.033 184.637 326.28 185.031 326.452C185.424 326.624 185.848 326.717 186.277 326.725L207.095 326.529L207.053 293.881L207.025 271.6H187.229C185.423 271.6 184.135 273.301 184.1 275.1C184.088 275.546 184.168 275.989 184.336 276.402C184.503 276.815 184.754 277.189 185.073 277.501C186.109 278.488 187.551 280.238 187.516 282.261C187.453 285.397 184.898 287.546 181.342 287.476C177.786 287.406 175.322 285.159 175.378 282.023C175.42 280 176.932 278.306 178.003 277.361C178.335 277.064 178.602 276.7 178.787 276.294C178.971 275.888 179.069 275.448 179.074 275.002C179.082 274.573 179.006 274.146 178.849 273.746C178.693 273.346 178.459 272.981 178.161 272.672C177.864 272.362 177.508 272.115 177.114 271.943C176.721 271.771 176.297 271.678 175.868 271.67L152.558 271.593V326.074L174.748 326.522C175.179 326.53 175.607 326.453 176.009 326.295C176.41 326.138 176.776 325.902 177.085 325.602C177.395 325.302 177.643 324.944 177.813 324.548C177.984 324.152 178.075 323.726 178.08 323.295Z" fill="#E0E0E0"/>
<g opacity="0.3">
<path d="M178.08 323.295C178.159 321.895 177.681 320.521 176.75 319.473C175.763 318.437 174.65 318.164 174.65 316.134C174.713 312.998 177.261 310.856 180.817 310.926C184.373 310.996 186.844 313.236 186.781 316.372C186.746 318.395 184.268 318.92 183.771 320.264C183.401 321.272 183.165 322.324 183.071 323.393C183.063 323.822 183.139 324.249 183.296 324.649C183.452 325.049 183.686 325.414 183.984 325.723C184.281 326.033 184.637 326.28 185.031 326.452C185.424 326.624 185.848 326.717 186.277 326.725L207.095 326.529L207.053 293.881L207.025 271.6H187.229C185.423 271.6 184.135 273.301 184.1 275.1C184.088 275.546 184.168 275.989 184.336 276.402C184.503 276.815 184.754 277.189 185.073 277.501C186.109 278.488 187.551 280.238 187.516 282.261C187.453 285.397 184.898 287.546 181.342 287.476C177.786 287.406 175.322 285.159 175.378 282.023C175.42 280 176.932 278.306 178.003 277.361C178.335 277.064 178.602 276.7 178.787 276.294C178.971 275.888 179.069 275.448 179.074 275.002C179.082 274.573 179.006 274.146 178.849 273.746C178.693 273.346 178.459 272.981 178.161 272.672C177.864 272.362 177.508 272.115 177.114 271.943C176.721 271.771 176.297 271.678 175.868 271.67L152.558 271.593V326.074L174.748 326.522C175.179 326.53 175.607 326.453 176.009 326.295C176.41 326.138 176.776 325.902 177.085 325.602C177.395 325.302 177.643 324.944 177.813 324.548C177.984 324.152 178.075 323.726 178.08 323.295Z" fill="black"/>
</g>
<path d="M173.971 323.295C173.982 322.85 173.901 322.407 173.733 321.995C173.564 321.583 173.311 321.21 172.991 320.901C171.962 319.914 170.513 318.164 170.555 316.134C170.618 312.998 173.166 310.856 176.722 310.926C180.278 310.996 182.749 313.236 182.686 316.372C182.651 318.395 181.132 320.089 180.068 321.034C179.584 321.472 179.243 322.044 179.087 322.678C178.932 323.311 178.969 323.977 179.195 324.589C179.421 325.201 179.825 325.732 180.355 326.112C180.884 326.493 181.516 326.706 182.168 326.725L202.986 326.529L203 293.881L202.916 271.6H183.12C181.314 271.6 180.026 273.301 179.991 275.1C179.979 275.546 180.059 275.99 180.228 276.404C180.397 276.817 180.65 277.191 180.971 277.501C182 278.488 183.449 280.238 183.407 282.261C183.344 285.397 180.789 287.546 177.233 287.476C173.677 287.406 171.213 285.159 171.269 282.023C171.311 280 172.823 278.306 173.894 277.361C174.226 277.064 174.493 276.7 174.678 276.294C174.862 275.888 174.96 275.448 174.965 275.002C174.973 274.573 174.897 274.146 174.74 273.746C174.584 273.346 174.35 272.981 174.052 272.672C173.755 272.362 173.399 272.115 173.005 271.943C172.612 271.771 172.188 271.678 171.759 271.67L148.449 271.593V326.074L170.639 326.522C171.07 326.53 171.498 326.453 171.9 326.295C172.301 326.138 172.667 325.902 172.976 325.602C173.286 325.302 173.534 324.944 173.704 324.548C173.875 324.152 173.966 323.726 173.971 323.295Z" fill="#EBEBEB"/>
<path d="M173.971 323.295C173.987 323.449 173.987 323.603 173.971 323.757C173.906 324.216 173.741 324.656 173.488 325.045C173.07 325.685 172.445 326.162 171.717 326.396C171.25 326.536 170.761 326.585 170.275 326.543H168.623L148.477 326.186H148.372V326.081C148.372 312.291 148.372 293.482 148.316 271.6V271.439H148.484H162.596H169.953H171.822C172.323 271.453 172.814 271.576 173.263 271.799C173.711 272.023 174.105 272.341 174.418 272.732C174.732 273.123 174.956 273.577 175.075 274.063C175.195 274.55 175.208 275.056 175.112 275.548C174.986 276.214 174.661 276.826 174.181 277.305C173.705 277.725 173.263 278.181 172.858 278.67C172.01 279.609 171.515 280.815 171.458 282.079C171.447 282.709 171.561 283.335 171.793 283.922C172.025 284.508 172.37 285.043 172.809 285.495C173.724 286.401 174.912 286.98 176.19 287.14C177.475 287.352 178.793 287.222 180.012 286.762C181.245 286.304 182.25 285.382 182.812 284.193C183.083 283.601 183.231 282.959 183.245 282.308C183.259 281.657 183.141 281.01 182.896 280.406C182.642 279.796 182.305 279.223 181.895 278.705C181.689 278.442 181.469 278.19 181.237 277.949C181.02 277.704 180.747 277.487 180.537 277.186C180.153 276.699 179.911 276.115 179.837 275.499C179.777 274.892 179.854 274.28 180.061 273.707C180.245 273.122 180.583 272.598 181.04 272.19C181.497 271.782 182.056 271.506 182.658 271.39C183.281 271.327 183.82 271.39 184.408 271.355H203.098V271.6C203.098 291.837 203.154 310.485 203.175 326.557V326.704H203L189.889 326.816L183.827 326.865H182.371C181.872 326.879 181.377 326.788 180.915 326.599C180.466 326.405 180.064 326.117 179.736 325.755C179.408 325.393 179.16 324.964 179.011 324.499C178.868 324.05 178.82 323.575 178.871 323.106C178.921 322.638 179.069 322.184 179.305 321.776C179.538 321.385 179.839 321.039 180.194 320.754C180.508 320.463 180.802 320.152 181.076 319.823C181.621 319.193 182.043 318.466 182.322 317.681C182.577 316.924 182.633 316.114 182.483 315.329C182.354 314.589 182.056 313.888 181.613 313.281C181.17 312.674 180.594 312.177 179.928 311.829C178.708 311.191 177.331 310.914 175.959 311.031C174.726 311.091 173.538 311.512 172.543 312.242C171.676 312.9 171.053 313.829 170.772 314.881C170.52 315.781 170.537 316.735 170.821 317.625C171.074 318.362 171.445 319.052 171.92 319.669C172.299 320.162 172.711 320.63 173.152 321.069C173.466 321.404 173.705 321.803 173.852 322.238C173.929 322.502 173.976 322.775 173.992 323.05C174 323.141 174 323.232 173.992 323.323C173.981 322.959 173.92 322.599 173.81 322.252C173.661 321.826 173.422 321.437 173.11 321.111C172.661 320.686 172.242 320.23 171.857 319.746C171.366 319.129 170.982 318.433 170.723 317.688C170.428 316.781 170.403 315.808 170.653 314.888C170.931 313.803 171.568 312.844 172.459 312.165C173.476 311.409 174.694 310.971 175.959 310.905C177.364 310.775 178.776 311.055 180.026 311.71C180.717 312.07 181.316 312.584 181.778 313.211C182.24 313.838 182.553 314.563 182.693 315.329C182.848 316.148 182.795 316.993 182.539 317.786C182.251 318.596 181.817 319.346 181.258 319.998C180.977 320.336 180.676 320.656 180.355 320.957C180.02 321.229 179.734 321.556 179.508 321.923C179.288 322.311 179.152 322.741 179.11 323.184C179.068 323.628 179.119 324.076 179.262 324.498C179.405 324.92 179.635 325.308 179.938 325.635C180.241 325.962 180.61 326.221 181.02 326.396C181.867 326.774 182.861 326.599 183.82 326.627L189.875 326.557L202.979 326.424L202.832 326.571C202.797 310.471 202.748 291.851 202.699 271.614L202.881 271.796H189.525C187.271 271.796 184.94 271.796 182.707 271.796C180.502 272.125 179.396 275.254 180.789 277.011C181.01 277.257 181.243 277.49 181.489 277.711C181.727 277.963 181.951 278.222 182.189 278.495C182.62 279.041 182.974 279.644 183.239 280.287C183.502 280.937 183.629 281.633 183.613 282.333C183.598 283.034 183.439 283.724 183.148 284.361C182.555 285.63 181.49 286.617 180.18 287.112C178.901 287.596 177.518 287.733 176.169 287.511C174.814 287.339 173.554 286.723 172.585 285.761C171.635 284.778 171.111 283.46 171.129 282.093C171.18 280.75 171.694 279.466 172.585 278.46C172.995 277.956 173.447 277.488 173.936 277.06C174.366 276.631 174.657 276.082 174.769 275.485C174.853 275.044 174.841 274.591 174.733 274.155C174.625 273.72 174.424 273.313 174.144 272.962C173.864 272.612 173.512 272.326 173.111 272.125C172.71 271.923 172.27 271.811 171.822 271.796H169.96H162.596L148.484 271.747L148.652 271.579C148.652 293.461 148.61 312.27 148.596 326.06L148.491 325.955L168.637 326.41L170.282 326.452C170.753 326.494 171.228 326.449 171.682 326.319C172.398 326.1 173.017 325.64 173.432 325.017C173.683 324.638 173.854 324.211 173.936 323.764C173.964 323.456 173.964 323.295 173.971 323.295Z" fill="#263238"/>
<path d="M255.437 289.87C255.431 290.337 255.332 290.797 255.148 291.226C254.963 291.655 254.695 292.043 254.36 292.368C254.026 292.693 253.63 292.949 253.196 293.121C252.762 293.293 252.299 293.377 251.832 293.37C251.348 293.365 250.871 293.26 250.43 293.061C249.989 292.862 249.594 292.574 249.27 292.215C248.234 291.06 246.393 289.415 244.195 289.415C240.786 289.366 238.364 292.061 238.308 295.918C238.252 299.775 240.59 302.547 243.999 302.596C246.197 302.631 248.087 301.049 249.151 299.922C249.648 299.414 250.286 299.067 250.982 298.925C251.678 298.783 252.401 298.853 253.057 299.126C253.713 299.398 254.273 299.861 254.663 300.455C255.054 301.049 255.257 301.745 255.248 302.456L254.87 326.55L308.441 326.305V300.993C308.451 300.282 308.675 299.591 309.082 299.008C309.49 298.426 310.064 297.979 310.728 297.726C311.393 297.474 312.118 297.426 312.81 297.591C313.502 297.755 314.128 298.123 314.608 298.648C315.644 299.803 317.485 301.448 319.683 301.448C323.092 301.497 325.514 298.809 325.577 294.945C325.64 291.081 323.295 288.316 319.886 288.267C317.688 288.232 315.791 289.814 314.727 290.941C314.391 291.29 313.986 291.566 313.537 291.75C313.089 291.934 312.608 292.023 312.123 292.012C310.163 292.012 308.273 290.612 308.301 288.631L308.203 267.134L255.15 267.379L255.437 289.87Z" fill="#AEB8FE"/>
<g opacity="0.3">
<path d="M255.437 289.87C255.431 290.337 255.332 290.797 255.148 291.226C254.963 291.655 254.695 292.043 254.36 292.368C254.026 292.693 253.63 292.949 253.196 293.121C252.762 293.293 252.299 293.377 251.832 293.37C251.348 293.365 250.871 293.26 250.43 293.061C249.989 292.862 249.594 292.574 249.27 292.215C248.234 291.06 246.393 289.415 244.195 289.415C240.786 289.366 238.364 292.061 238.308 295.918C238.252 299.775 240.59 302.547 243.999 302.596C246.197 302.631 248.087 301.049 249.151 299.922C249.648 299.414 250.286 299.067 250.982 298.925C251.678 298.783 252.401 298.853 253.057 299.126C253.713 299.398 254.273 299.861 254.663 300.455C255.054 301.049 255.257 301.745 255.248 302.456L254.87 326.55L308.441 326.305V300.993C308.451 300.282 308.675 299.591 309.082 299.008C309.49 298.426 310.064 297.979 310.728 297.726C311.393 297.474 312.118 297.426 312.81 297.591C313.502 297.755 314.128 298.123 314.608 298.648C315.644 299.803 317.485 301.448 319.683 301.448C323.092 301.497 325.514 298.809 325.577 294.945C325.64 291.081 323.295 288.316 319.886 288.267C317.688 288.232 315.791 289.814 314.727 290.941C314.391 291.29 313.986 291.566 313.537 291.75C313.089 291.934 312.608 292.023 312.123 292.012C310.163 292.012 308.273 290.612 308.301 288.631L308.203 267.134L255.15 267.379L255.437 289.87Z" fill="black"/>
</g>
<path d="M251.482 289.87C251.467 290.812 251.079 291.709 250.403 292.366C249.728 293.022 248.819 293.383 247.877 293.37C247.393 293.365 246.916 293.26 246.475 293.061C246.034 292.862 245.639 292.574 245.315 292.215C244.279 291.06 242.438 289.415 240.24 289.415C236.831 289.366 234.409 292.061 234.346 295.918C234.283 299.775 236.635 302.547 240.037 302.596C242.235 302.631 244.132 301.049 245.196 299.922C245.689 299.415 246.322 299.067 247.015 298.922C247.707 298.777 248.426 298.842 249.082 299.108C249.737 299.374 250.298 299.829 250.693 300.415C251.088 301.002 251.299 301.693 251.3 302.4L250.922 326.494L304.493 326.249V300.937C304.503 300.226 304.727 299.535 305.134 298.952C305.542 298.37 306.116 297.923 306.78 297.67C307.445 297.418 308.17 297.37 308.862 297.535C309.554 297.699 310.18 298.067 310.66 298.592C311.696 299.747 313.537 301.392 315.735 301.392C319.144 301.441 321.566 298.753 321.629 294.889C321.692 291.025 319.34 288.26 315.938 288.211C313.74 288.176 311.843 289.758 310.779 290.885C310.443 291.234 310.038 291.51 309.589 291.694C309.141 291.878 308.66 291.968 308.175 291.956C306.215 291.956 304.325 290.556 304.353 288.575L304.255 267.078L251.202 267.323L251.482 289.87Z" fill="#AEB8FE"/>
<path d="M251.482 289.87C251.482 289.87 251.482 289.744 251.482 289.492C251.482 289.24 251.482 288.862 251.447 288.372C251.447 287.371 251.405 285.908 251.363 283.997C251.3 280.154 251.202 274.533 251.083 267.379V267.281H251.181L304.234 266.98H304.395V267.134C304.395 272.461 304.451 278.019 304.479 283.78C304.479 285.222 304.479 286.671 304.479 288.141C304.465 288.494 304.484 288.848 304.535 289.198C304.602 289.541 304.732 289.869 304.92 290.164C305.317 290.756 305.879 291.219 306.537 291.494C307.197 291.783 307.921 291.894 308.637 291.816C309.353 291.727 310.02 291.405 310.534 290.899C311.566 289.73 312.879 288.843 314.349 288.323C314.73 288.208 315.122 288.136 315.518 288.106C316.722 288.041 317.916 288.346 318.941 288.981C320.29 289.892 321.229 291.293 321.559 292.887C321.909 294.475 321.817 296.129 321.293 297.668C321.025 298.447 320.596 299.162 320.034 299.765C319.472 300.368 318.79 300.846 318.031 301.168C317.255 301.477 316.423 301.623 315.588 301.595C314.748 301.545 313.929 301.305 313.194 300.895C312.463 300.497 311.79 300.003 311.192 299.425C310.891 299.145 310.604 298.816 310.338 298.543C309.915 298.134 309.391 297.844 308.819 297.702C308.247 297.561 307.648 297.573 307.083 297.738C306.325 297.959 305.667 298.437 305.221 299.089C304.782 299.758 304.578 300.553 304.64 301.35V303.849C304.64 311.465 304.64 318.948 304.64 326.249V326.431H304.5L250.929 326.648H250.768V326.487C250.857 321.036 250.943 315.821 251.027 310.842C251.069 308.355 251.109 305.935 251.146 303.583C251.181 303.007 251.181 302.43 251.146 301.854C251.069 301.303 250.855 300.781 250.523 300.335C250.045 299.676 249.347 299.209 248.556 299.017C247.764 298.826 246.93 298.924 246.204 299.292C245.745 299.552 245.336 299.893 245 300.3C244.244 301.055 243.366 301.677 242.403 302.141C241.477 302.573 240.449 302.74 239.433 302.624C238.418 302.508 237.454 302.113 236.649 301.483C235.935 300.877 235.357 300.127 234.952 299.283C234.547 298.439 234.324 297.519 234.297 296.583C234.161 294.882 234.587 293.183 235.508 291.746C236.32 290.546 237.57 289.711 238.99 289.422C240.41 289.133 241.886 289.412 243.103 290.199C244.062 290.824 244.929 291.58 245.679 292.446C246.317 293.003 247.135 293.31 247.982 293.31C248.829 293.31 249.647 293.003 250.285 292.446C250.696 292.093 251.019 291.65 251.23 291.151C251.399 290.741 251.496 290.306 251.517 289.863C251.517 289.863 251.517 289.975 251.517 290.199C251.484 290.533 251.403 290.86 251.279 291.172C251.075 291.683 250.754 292.139 250.341 292.502C249.692 293.083 248.854 293.407 247.983 293.415C247.112 293.423 246.268 293.113 245.609 292.544C244.857 291.692 243.993 290.945 243.04 290.325C241.845 289.557 240.395 289.291 239.006 289.586C237.617 289.881 236.4 290.713 235.62 291.9C234.749 293.301 234.356 294.947 234.5 296.59C234.527 297.495 234.745 298.383 235.138 299.199C235.531 300.014 236.091 300.737 236.782 301.322C237.556 301.925 238.481 302.302 239.456 302.411C240.431 302.52 241.417 302.356 242.305 301.938C243.242 301.485 244.094 300.874 244.825 300.132C245.186 299.712 245.62 299.361 246.106 299.096C246.613 298.835 247.174 298.699 247.744 298.697C248.635 298.689 249.498 299.004 250.175 299.583C250.851 300.162 251.296 300.966 251.426 301.847C251.461 302.437 251.461 303.028 251.426 303.618C251.393 305.951 251.358 308.371 251.321 310.877C251.242 315.847 251.162 321.062 251.083 326.522L250.929 326.368L304.5 326.102L304.325 326.277C304.325 318.99 304.325 311.507 304.29 303.877V301.385C304.229 300.513 304.455 299.645 304.934 298.914C305.426 298.192 306.155 297.664 306.995 297.424C307.836 297.184 308.733 297.245 309.533 297.598C309.929 297.765 310.292 298.002 310.604 298.298C310.905 298.613 311.157 298.9 311.451 299.18C312.028 299.73 312.675 300.201 313.376 300.58C314.065 300.96 314.83 301.181 315.616 301.224C316.398 301.251 317.178 301.115 317.905 300.825C318.62 300.519 319.262 300.065 319.789 299.493C320.317 298.921 320.717 298.244 320.964 297.507C321.472 296.037 321.562 294.454 321.223 292.936C320.921 291.429 320.035 290.103 318.759 289.247C318.123 288.842 317.406 288.579 316.659 288.477C315.922 288.357 315.168 288.408 314.454 288.624C313.04 289.127 311.778 289.982 310.786 291.109C310.217 291.669 309.479 292.026 308.686 292.124C307.908 292.21 307.121 292.089 306.404 291.774C305.684 291.471 305.071 290.962 304.64 290.311C304.431 289.981 304.284 289.616 304.206 289.233C304.151 288.858 304.13 288.478 304.143 288.099C304.143 286.634 304.143 285.182 304.143 283.745C304.143 277.984 304.101 272.426 304.08 267.106L304.234 267.26L251.181 267.435L251.3 267.4C251.377 274.561 251.44 280.182 251.489 284.025C251.489 285.936 251.489 287.399 251.489 288.4V289.52C251.489 289.744 251.482 289.87 251.482 289.87Z" fill="#263238"/>
<path d="M261.751 295.05C260.645 295.05 257.145 294.546 256.375 295.351C255.157 296.618 255.423 299.313 252.924 299.264C249.053 299.187 246.407 296.044 246.498 291.655C246.589 287.266 249.347 284.228 253.218 284.305C255.71 284.347 254.961 288.183 256.613 288.792C257.593 289.149 260.764 288.834 261.877 288.855C262.408 288.868 262.936 288.776 263.431 288.584C263.926 288.392 264.379 288.104 264.762 287.736C265.145 287.368 265.452 286.928 265.664 286.442C265.877 285.955 265.991 285.431 266 284.9L265.755 259.224L225.491 259.28L197.981 259.35V283.759C197.939 285.985 200.081 287.581 202.307 287.623C202.856 287.637 203.402 287.537 203.91 287.33C204.418 287.123 204.878 286.813 205.261 286.419C206.479 285.145 208.642 283.36 211.134 283.409C215.005 283.486 217.651 286.636 217.567 291.018C217.483 295.4 214.711 298.445 210.847 298.375C208.348 298.326 206.262 296.457 205.093 295.141C204.727 294.731 204.279 294.402 203.779 294.175C203.279 293.947 202.737 293.825 202.188 293.818C201.659 293.807 201.133 293.9 200.64 294.093C200.147 294.285 199.696 294.573 199.315 294.94C198.933 295.306 198.627 295.745 198.415 296.23C198.203 296.715 198.089 297.237 198.079 297.766L197.981 326.515H265.181L265.734 299.152C265.743 298.621 265.647 298.093 265.452 297.599C265.257 297.105 264.965 296.654 264.595 296.273C264.225 295.892 263.783 295.587 263.295 295.378C262.807 295.168 262.282 295.056 261.751 295.05Z" fill="#263238"/>
<path d="M257.509 295.05C256.96 295.037 256.414 295.138 255.905 295.346C255.397 295.554 254.937 295.866 254.555 296.261C253.337 297.528 251.181 299.313 248.682 299.264C244.811 299.187 242.172 296.044 242.256 291.655C242.34 287.266 245.105 284.228 248.976 284.305C251.475 284.347 253.561 286.216 254.723 287.532C255.09 287.942 255.539 288.272 256.04 288.499C256.541 288.727 257.084 288.848 257.635 288.855C258.164 288.866 258.69 288.773 259.183 288.58C259.676 288.388 260.127 288.1 260.508 287.733C260.89 287.367 261.196 286.928 261.408 286.443C261.62 285.958 261.734 285.436 261.744 284.907L261.499 259.231L221.235 259.287L193.725 259.357V283.766C193.683 285.992 195.825 287.588 198.051 287.63C198.601 287.643 199.147 287.543 199.657 287.336C200.166 287.129 200.628 286.819 201.012 286.426C202.23 285.152 204.386 283.367 206.878 283.416C210.749 283.493 213.395 286.643 213.311 291.025C213.227 295.407 210.462 298.452 206.591 298.382C204.092 298.333 202.006 296.464 200.837 295.148C200.471 294.738 200.024 294.409 199.524 294.181C199.024 293.953 198.482 293.832 197.932 293.825C197.403 293.814 196.877 293.907 196.384 294.1C195.891 294.292 195.44 294.58 195.059 294.947C194.677 295.313 194.371 295.752 194.159 296.237C193.947 296.722 193.833 297.244 193.823 297.773L193.725 326.522H260.925L261.478 299.159C261.488 298.628 261.394 298.101 261.199 297.607C261.005 297.113 260.716 296.662 260.347 296.28C259.978 295.899 259.538 295.593 259.051 295.382C258.564 295.171 258.04 295.058 257.509 295.05Z" fill="#455A64"/>
<path d="M257.509 295.05C257.701 295.045 257.893 295.059 258.083 295.092C258.648 295.171 259.188 295.374 259.665 295.687C260.453 296.202 261.039 296.974 261.324 297.871C261.494 298.445 261.555 299.045 261.506 299.642C261.506 300.279 261.506 300.958 261.471 301.679C261.366 307.44 261.212 315.861 261.016 326.522V326.627H260.911L193.711 326.683H193.55V326.522C193.55 320.894 193.566 315.091 193.599 309.113C193.599 306.131 193.599 303.1 193.599 300.013C193.599 299.243 193.599 298.473 193.599 297.703C193.622 296.891 193.88 296.103 194.341 295.435C194.805 294.76 195.457 294.235 196.215 293.925C196.974 293.615 197.807 293.534 198.611 293.692C199.425 293.846 200.174 294.241 200.76 294.826C201.278 295.416 201.842 295.963 202.447 296.464C203.609 297.499 205.093 298.1 206.647 298.165C208.228 298.189 209.754 297.585 210.889 296.485C212.017 295.35 212.736 293.873 212.933 292.285C213.058 291.493 213.081 290.689 213.003 289.891C212.945 289.088 212.761 288.299 212.457 287.553C211.886 286.036 210.746 284.8 209.279 284.109C208.542 283.772 207.744 283.589 206.934 283.571C206.124 283.553 205.319 283.7 204.568 284.004C203.813 284.32 203.107 284.739 202.468 285.25C202.146 285.502 201.831 285.775 201.53 286.055C201.236 286.364 200.926 286.656 200.599 286.93C199.998 287.386 199.284 287.67 198.534 287.749C197.792 287.82 197.044 287.727 196.343 287.476C195.682 287.217 195.087 286.816 194.6 286.3C194.078 285.759 193.736 285.069 193.62 284.326C193.582 283.966 193.568 283.603 193.578 283.241V275.87C193.578 270.27 193.578 264.766 193.578 259.357V259.182H193.753L261.527 259.084H261.674V259.231C261.723 264.873 261.772 270.27 261.814 275.394C261.814 277.949 261.856 280.448 261.877 282.863C261.877 283.474 261.877 284.076 261.877 284.669C261.889 285.278 261.775 285.884 261.541 286.447C261.309 286.986 260.965 287.47 260.532 287.867C260.099 288.264 259.587 288.564 259.029 288.749C258.472 288.933 257.881 288.997 257.297 288.937C256.713 288.877 256.148 288.694 255.64 288.4C255.163 288.111 254.739 287.741 254.387 287.308C254.027 286.921 253.644 286.556 253.239 286.216C252.461 285.54 251.564 285.015 250.593 284.669C249.653 284.363 248.652 284.298 247.681 284.48C246.767 284.642 245.902 285.01 245.152 285.557C244.403 286.105 243.788 286.816 243.355 287.637C242.566 289.143 242.224 290.843 242.368 292.537C242.449 294.053 242.969 295.512 243.866 296.737C244.628 297.725 245.675 298.456 246.865 298.831C248.055 299.206 249.332 299.209 250.523 298.837C251.433 298.526 252.285 298.065 253.043 297.472C253.643 297.007 254.209 296.499 254.737 295.953C255.154 295.582 255.646 295.306 256.179 295.141C256.5 295.035 256.835 294.976 257.173 294.966C257.285 294.957 257.397 294.957 257.509 294.966H257.173C256.84 294.992 256.511 295.057 256.193 295.162C255.674 295.334 255.197 295.613 254.793 295.981C254.27 296.535 253.708 297.052 253.113 297.528C252.35 298.133 251.491 298.606 250.572 298.928C249.452 299.291 248.25 299.32 247.114 299.012C245.78 298.668 244.599 297.886 243.761 296.793C242.849 295.574 242.307 294.119 242.2 292.6C242.041 290.869 242.384 289.129 243.187 287.588C243.632 286.741 244.264 286.006 245.036 285.44C245.807 284.873 246.697 284.49 247.639 284.319C248.644 284.123 249.683 284.188 250.656 284.508C251.654 284.858 252.578 285.392 253.379 286.083C253.794 286.428 254.187 286.8 254.555 287.196C254.891 287.613 255.299 287.966 255.759 288.239C256.24 288.512 256.773 288.68 257.324 288.733C257.875 288.785 258.43 288.721 258.955 288.544C259.479 288.367 259.959 288.081 260.365 287.705C260.771 287.329 261.093 286.872 261.31 286.363C261.779 285.313 261.562 284.081 261.597 282.863C261.597 280.448 261.541 277.963 261.52 275.394C261.464 270.27 261.408 264.894 261.345 259.231L261.499 259.378L193.725 259.539L193.907 259.357V283.255C193.899 283.601 193.913 283.947 193.949 284.291C194.081 284.959 194.392 285.58 194.848 286.086C195.304 286.593 195.888 286.966 196.539 287.168C197.189 287.4 197.882 287.488 198.569 287.427C199.252 287.35 199.902 287.091 200.452 286.678C200.766 286.41 201.065 286.125 201.348 285.824C201.656 285.537 201.978 285.257 202.314 284.998C202.981 284.463 203.721 284.027 204.512 283.703C205.308 283.381 206.161 283.224 207.019 283.244C207.877 283.263 208.723 283.457 209.503 283.815C211.059 284.543 212.269 285.849 212.877 287.455C213.187 288.234 213.378 289.055 213.444 289.891C213.523 290.719 213.498 291.554 213.367 292.376C213.158 294.039 212.402 295.586 211.218 296.772C210.015 297.937 208.399 298.579 206.724 298.557C205.091 298.497 203.529 297.877 202.3 296.8C201.683 296.296 201.109 295.741 200.585 295.141C200.051 294.606 199.368 294.245 198.625 294.105C198.076 293.997 197.51 294.01 196.966 294.143C196.422 294.276 195.914 294.525 195.476 294.874C195.039 295.223 194.682 295.663 194.432 296.164C194.181 296.664 194.043 297.214 194.026 297.773C194.026 298.543 194.026 299.313 194.026 300.076C194.026 303.142 194.014 306.175 193.991 309.176C193.991 315.145 193.97 320.945 193.928 326.578L193.76 326.41L260.96 326.473L260.855 326.578C261.086 315.917 261.275 307.496 261.408 301.728C261.408 301.028 261.408 300.328 261.457 299.698C261.508 299.112 261.451 298.521 261.289 297.955C261.075 297.24 260.665 296.598 260.106 296.104C259.547 295.609 258.861 295.28 258.125 295.155C257.705 295.057 257.509 295.064 257.509 295.05Z" fill="#263238"/>
<path d="M192.066 123.641C190.925 123.641 187.313 123.123 186.522 123.949C185.269 125.258 185.542 128.037 182.966 127.988C178.976 127.911 176.253 124.663 176.344 120.141C176.435 115.619 179.277 112.483 183.267 112.56C185.843 112.616 185.066 116.564 186.767 117.187C187.775 117.558 191.044 117.236 192.192 117.257C192.738 117.268 193.28 117.172 193.789 116.973C194.297 116.774 194.761 116.477 195.154 116.098C195.548 115.72 195.863 115.268 196.081 114.767C196.299 114.267 196.417 113.729 196.427 113.183L196.175 86.723L154.7 86.8L126.343 86.877V112C126.301 114.296 128.506 115.934 130.802 115.983C131.368 115.996 131.931 115.892 132.455 115.678C132.979 115.464 133.453 115.143 133.847 114.737C135.1 113.421 137.347 111.587 139.902 111.636C143.892 111.713 146.615 114.961 146.524 119.483C146.433 124.005 143.591 127.134 139.601 127.057C137.025 127.008 134.876 125.083 133.672 123.725C133.114 123.107 132.383 122.671 131.574 122.474C130.765 122.277 129.915 122.328 129.135 122.62C128.355 122.912 127.681 123.432 127.201 124.112C126.72 124.792 126.456 125.601 126.441 126.434L126.322 156.1H195.566L196.14 127.897C196.153 127.35 196.058 126.805 195.86 126.295C195.662 125.785 195.365 125.318 194.987 124.923C194.608 124.527 194.155 124.211 193.654 123.991C193.153 123.771 192.613 123.652 192.066 123.641Z" fill="#263238"/>
<path d="M187.306 123.641C186.74 123.628 186.177 123.731 185.653 123.946C185.129 124.16 184.655 124.481 184.261 124.887C183.008 126.196 180.761 128.037 178.206 127.988C174.223 127.911 171.493 124.663 171.584 120.141C171.675 115.619 174.524 112.483 178.507 112.56C181.083 112.616 183.232 114.541 184.436 115.899C184.815 116.32 185.276 116.658 185.792 116.891C186.308 117.125 186.866 117.25 187.432 117.257C187.978 117.268 188.52 117.172 189.029 116.973C189.537 116.774 190.001 116.477 190.395 116.098C190.788 115.72 191.103 115.268 191.321 114.767C191.539 114.267 191.657 113.729 191.667 113.183L191.415 86.723L149.919 86.779L121.562 86.856V112C121.52 114.296 123.725 115.934 126.021 115.983C126.588 115.996 127.152 115.893 127.677 115.678C128.202 115.464 128.677 115.143 129.073 114.737C130.326 113.421 132.573 111.587 135.121 111.636C139.111 111.713 141.834 114.961 141.75 119.483C141.666 124.005 138.81 127.134 134.82 127.057C132.244 127.008 130.095 125.083 128.891 123.725C128.333 123.107 127.602 122.671 126.793 122.474C125.984 122.277 125.134 122.328 124.354 122.62C123.574 122.912 122.9 123.432 122.42 124.112C121.939 124.792 121.675 125.601 121.66 126.434L121.562 156.1H190.813L191.38 127.897C191.393 127.35 191.298 126.805 191.1 126.295C190.902 125.785 190.605 125.318 190.227 124.923C189.848 124.527 189.395 124.211 188.894 123.991C188.393 123.771 187.853 123.652 187.306 123.641Z" fill="#455A64"/>
<path d="M187.306 123.641C187.505 123.636 187.704 123.65 187.901 123.683C188.482 123.769 189.036 123.981 189.525 124.306C190.339 124.832 190.944 125.627 191.233 126.553C191.412 127.144 191.476 127.765 191.422 128.38C191.422 129.031 191.422 129.731 191.422 130.48C191.31 136.423 191.156 145.103 190.953 156.086V156.191H190.848L121.597 156.254H121.436V156.1C121.436 150.304 121.452 144.324 121.485 138.159C121.485 135.084 121.485 131.966 121.485 128.807C121.485 128.016 121.485 127.225 121.485 126.427C121.516 125.592 121.78 124.782 122.248 124.089C122.731 123.398 123.404 122.861 124.185 122.543C124.966 122.225 125.822 122.14 126.651 122.297C127.488 122.459 128.257 122.866 128.863 123.466C129.394 124.075 129.975 124.64 130.599 125.153C131.807 126.224 133.347 126.845 134.96 126.91C136.591 126.932 138.166 126.311 139.342 125.181C140.499 124.006 141.236 122.484 141.442 120.848C141.567 120.03 141.59 119.2 141.512 118.377C141.45 117.55 141.261 116.738 140.952 115.969C140.362 114.401 139.181 113.127 137.662 112.42C136.904 112.071 136.082 111.882 135.248 111.863C134.414 111.843 133.584 111.995 132.811 112.308C132.031 112.635 131.298 113.066 130.634 113.589C130.298 113.855 129.976 114.135 129.668 114.422C129.365 114.743 129.045 115.046 128.709 115.332C128.095 115.792 127.371 116.082 126.609 116.172C125.843 116.242 125.072 116.144 124.348 115.885C123.627 115.629 122.976 115.21 122.444 114.66C121.905 114.102 121.553 113.39 121.436 112.623C121.398 112.251 121.384 111.877 121.394 111.503V103.866C121.394 98.1073 121.394 92.4373 121.394 86.856V86.674H121.569L191.422 86.576H191.569V86.723C191.625 92.5377 191.674 98.0886 191.716 103.376C191.744 106.022 191.767 108.589 191.786 111.076C191.786 111.699 191.786 112.322 191.786 112.938C191.805 113.564 191.69 114.187 191.45 114.765C191.212 115.321 190.859 115.821 190.414 116.231C189.969 116.642 189.443 116.954 188.869 117.147C188.296 117.34 187.688 117.409 187.086 117.351C186.483 117.293 185.9 117.108 185.374 116.809C184.882 116.512 184.446 116.13 184.086 115.682C183.715 115.28 183.318 114.903 182.896 114.555C182.095 113.857 181.169 113.317 180.166 112.966C179.198 112.645 178.165 112.575 177.163 112.763C176.221 112.932 175.329 113.314 174.557 113.879C173.784 114.444 173.151 115.178 172.704 116.025C171.89 117.578 171.538 119.332 171.689 121.079C171.765 122.653 172.303 124.17 173.236 125.44C174.073 126.547 175.26 127.339 176.603 127.687C177.75 128.012 178.968 127.99 180.103 127.624C181.039 127.306 181.914 126.832 182.693 126.224C183.312 125.742 183.896 125.218 184.443 124.656C184.871 124.271 185.377 123.985 185.927 123.816C186.258 123.711 186.602 123.65 186.949 123.634C187.065 123.625 187.183 123.625 187.299 123.634C187.299 123.634 187.18 123.634 186.949 123.634C186.606 123.66 186.267 123.728 185.941 123.837C185.4 124.011 184.904 124.3 184.485 124.684C183.946 125.255 183.366 125.786 182.749 126.273C181.962 126.881 181.08 127.354 180.138 127.673C178.982 128.053 177.74 128.083 176.568 127.757C175.194 127.406 173.978 126.602 173.117 125.475C172.163 124.206 171.601 122.685 171.5 121.1C171.34 119.318 171.694 117.527 172.522 115.941C172.979 115.067 173.63 114.308 174.424 113.724C175.219 113.139 176.136 112.743 177.107 112.567C178.143 112.371 179.212 112.439 180.215 112.763C181.24 113.128 182.189 113.678 183.015 114.387C183.442 114.744 183.847 115.127 184.226 115.535C184.572 115.965 184.991 116.33 185.465 116.613C185.961 116.895 186.512 117.069 187.08 117.124C187.649 117.178 188.222 117.111 188.763 116.928C189.304 116.745 189.8 116.45 190.218 116.061C190.637 115.673 190.968 115.2 191.191 114.674C191.681 113.596 191.45 112.322 191.485 111.083C191.485 108.591 191.459 106.024 191.408 103.383C191.352 98.0957 191.294 92.5423 191.233 86.723L191.38 86.87L121.527 87.031L121.709 86.856V111.482C121.698 111.84 121.712 112.197 121.751 112.553C121.895 113.243 122.222 113.881 122.699 114.4C123.176 114.919 123.785 115.299 124.46 115.5C125.132 115.742 125.849 115.833 126.56 115.766C127.266 115.688 127.938 115.422 128.506 114.996C128.828 114.758 129.101 114.422 129.43 114.121C129.759 113.82 130.081 113.533 130.424 113.26C131.114 112.716 131.874 112.268 132.685 111.93C133.505 111.598 134.384 111.436 135.269 111.455C136.154 111.475 137.025 111.674 137.83 112.042C139.442 112.788 140.698 114.134 141.33 115.794C141.651 116.595 141.849 117.44 141.918 118.3C141.998 119.154 141.972 120.014 141.841 120.862C141.619 122.575 140.842 124.168 139.629 125.398C138.385 126.593 136.72 127.25 134.995 127.225C133.299 127.163 131.678 126.512 130.41 125.384C129.773 124.865 129.18 124.294 128.639 123.676C128.088 123.124 127.383 122.75 126.616 122.605C126.05 122.494 125.466 122.508 124.905 122.645C124.344 122.782 123.82 123.04 123.369 123.401C122.918 123.761 122.551 124.215 122.293 124.732C122.036 125.248 121.894 125.815 121.877 126.392C121.877 127.19 121.877 127.981 121.877 128.765C121.877 131.924 121.877 135.044 121.877 138.124C121.877 144.275 121.856 150.253 121.814 156.058L121.646 155.897L190.897 155.953L190.785 156.058C191.03 145.068 191.226 136.388 191.359 130.452C191.359 129.71 191.394 129.01 191.408 128.352C191.463 127.747 191.404 127.136 191.233 126.553C190.955 125.643 190.368 124.858 189.574 124.334C189.094 124.009 188.55 123.791 187.978 123.697C187.509 123.648 187.306 123.655 187.306 123.641Z" fill="#263238"/>
<path d="M334.397 123.641C333.256 123.641 329.651 123.123 328.86 123.949C327.6 125.258 327.873 128.037 325.297 127.988C321.314 127.911 318.584 124.663 318.675 120.141C318.766 115.619 321.615 112.483 325.598 112.56C328.174 112.616 327.397 116.564 329.098 117.187C330.099 117.558 333.375 117.236 334.516 117.257C335.062 117.268 335.604 117.172 336.113 116.973C336.621 116.774 337.085 116.477 337.478 116.098C337.872 115.72 338.187 115.268 338.405 114.767C338.623 114.267 338.741 113.729 338.751 113.183L338.499 86.723L297.01 86.8L268.653 86.877V112C268.611 114.296 270.816 115.934 273.112 115.983C273.679 115.996 274.243 115.893 274.768 115.678C275.293 115.464 275.768 115.143 276.164 114.737C277.417 113.421 279.664 111.587 282.212 111.636C286.202 111.713 288.925 114.961 288.841 119.483C288.757 124.005 285.901 127.134 281.911 127.057C279.342 127.008 277.186 125.083 275.982 123.725C275.424 123.107 274.693 122.671 273.884 122.474C273.075 122.277 272.225 122.328 271.445 122.62C270.665 122.912 269.991 123.432 269.511 124.112C269.03 124.792 268.766 125.601 268.751 126.434L268.653 156.1H337.904L338.471 127.897C338.484 127.35 338.389 126.805 338.191 126.295C337.993 125.785 337.696 125.318 337.318 124.923C336.939 124.527 336.486 124.211 335.985 123.991C335.484 123.771 334.944 123.652 334.397 123.641Z" fill="#263238"/>
<path d="M330.029 123.641C329.463 123.627 328.9 123.73 328.376 123.945C327.852 124.159 327.378 124.48 326.984 124.887C325.724 126.196 323.484 128.037 320.929 127.988C316.939 127.911 314.216 124.663 314.3 120.141C314.384 115.619 317.24 112.483 321.23 112.56C323.806 112.616 325.955 114.541 327.159 115.899C327.537 116.32 327.999 116.659 328.514 116.893C329.03 117.126 329.589 117.25 330.155 117.257C330.701 117.268 331.243 117.172 331.752 116.973C332.26 116.774 332.724 116.477 333.117 116.098C333.511 115.72 333.826 115.268 334.044 114.767C334.262 114.267 334.38 113.729 334.39 113.183L334.138 86.723L292.642 86.779L264.285 86.856V112C264.236 114.296 266.448 115.934 268.744 115.983C269.31 115.996 269.873 115.892 270.397 115.678C270.921 115.464 271.395 115.143 271.789 114.737C273.042 113.421 275.289 111.587 277.844 111.636C281.834 111.713 284.557 114.961 284.466 119.483C284.375 124.005 281.526 127.134 277.543 127.057C274.967 127.008 272.818 125.083 271.614 123.725C271.056 123.107 270.325 122.671 269.516 122.474C268.707 122.277 267.857 122.328 267.077 122.62C266.297 122.912 265.623 123.432 265.143 124.112C264.662 124.792 264.398 125.601 264.383 126.434L264.285 156.1H333.529L334.103 127.897C334.118 126.795 333.7 125.731 332.937 124.935C332.175 124.139 331.131 123.674 330.029 123.641Z" fill="#455A64"/>
<path d="M330.029 123.641C330.226 123.636 330.423 123.65 330.617 123.683C331.198 123.768 331.753 123.98 332.241 124.306C333.06 124.83 333.667 125.625 333.956 126.553C334.128 127.146 334.192 127.765 334.145 128.38C334.145 129.031 334.145 129.731 334.11 130.48C333.998 136.423 333.837 145.103 333.634 156.086V156.191H333.529L264.285 156.254H264.117V156.1C264.117 150.304 264.136 144.324 264.173 138.159C264.173 135.084 264.173 131.966 264.173 128.807C264.173 128.016 264.173 127.225 264.173 126.427C264.19 125.798 264.343 125.18 264.623 124.617C264.903 124.053 265.303 123.558 265.794 123.165C266.285 122.771 266.856 122.49 267.467 122.34C268.078 122.19 268.715 122.176 269.332 122.297C270.169 122.458 270.939 122.865 271.544 123.466C272.077 124.074 272.657 124.638 273.28 125.153C274.489 126.225 276.033 126.846 277.648 126.91C279.277 126.934 280.85 126.312 282.023 125.181C283.182 124.008 283.921 122.485 284.123 120.848C284.25 120.031 284.276 119.201 284.2 118.377C284.135 117.55 283.944 116.738 283.633 115.969C283.046 114.401 281.867 113.127 280.35 112.42C279.59 112.072 278.768 111.882 277.933 111.863C277.097 111.844 276.267 111.995 275.492 112.308C274.714 112.635 273.984 113.066 273.322 113.589C272.986 113.855 272.664 114.135 272.356 114.422C272.048 114.709 271.768 115.052 271.397 115.332C270.783 115.791 270.059 116.081 269.297 116.172C268.534 116.242 267.764 116.144 267.043 115.885C266.322 115.629 265.671 115.21 265.139 114.66C264.6 114.102 264.248 113.39 264.131 112.623C264.09 112.251 264.076 111.877 264.089 111.503V86.674H264.271L334.124 86.576H334.271V86.723C334.318 92.5377 334.367 98.0886 334.418 103.376C334.418 106.022 334.439 108.589 334.481 111.076V112.938C334.498 113.564 334.381 114.187 334.138 114.765C333.901 115.321 333.548 115.821 333.104 116.231C332.66 116.641 332.134 116.953 331.561 117.146C330.988 117.339 330.381 117.409 329.779 117.351C329.177 117.293 328.594 117.108 328.069 116.809C327.575 116.514 327.139 116.132 326.781 115.682C326.409 115.281 326.011 114.905 325.591 114.555C324.788 113.859 323.862 113.32 322.861 112.966C321.893 112.645 320.86 112.575 319.858 112.763C318.916 112.932 318.024 113.314 317.252 113.879C316.479 114.444 315.846 115.178 315.399 116.025C314.585 117.578 314.233 119.332 314.384 121.079C314.46 122.653 314.998 124.17 315.931 125.44C316.766 126.546 317.95 127.338 319.291 127.687C320.438 128.012 321.656 127.99 322.791 127.624C323.729 127.306 324.607 126.832 325.388 126.224C326.006 125.744 326.589 125.22 327.131 124.656C327.827 124.038 328.714 123.677 329.644 123.634C329.76 123.625 329.878 123.625 329.994 123.634C329.994 123.634 329.875 123.634 329.644 123.634C329.299 123.66 328.958 123.728 328.629 123.837C328.091 124.013 327.597 124.302 327.18 124.684C326.639 125.254 326.059 125.785 325.444 126.273C324.655 126.881 323.77 127.354 322.826 127.673C321.673 128.054 320.433 128.083 319.263 127.757C317.887 127.41 316.67 126.605 315.812 125.475C314.855 124.185 314.297 122.641 314.209 121.037C314.055 119.255 314.41 117.467 315.231 115.878C315.69 115.004 316.342 114.246 317.138 113.661C317.933 113.077 318.852 112.681 319.823 112.504C320.859 112.308 321.928 112.376 322.931 112.7C323.956 113.064 324.906 113.615 325.731 114.324C326.161 114.677 326.566 115.061 326.942 115.472C327.29 115.9 327.709 116.265 328.181 116.55C328.67 116.826 329.211 116.998 329.77 117.056C330.329 117.114 330.894 117.056 331.429 116.886C331.981 116.707 332.488 116.411 332.916 116.019C333.344 115.626 333.682 115.146 333.907 114.611C334.397 113.533 334.173 112.259 334.208 111.02C334.18 108.528 334.152 105.961 334.124 103.32C334.068 98.0327 334.012 92.4793 333.956 86.66L334.103 86.807L264.25 86.968L264.425 86.793C264.425 92.365 264.425 98.0373 264.425 103.81V111.419C264.412 111.776 264.423 112.134 264.46 112.49C264.599 113.18 264.921 113.82 265.393 114.342C265.864 114.865 266.468 115.25 267.141 115.458C267.813 115.701 268.53 115.792 269.241 115.724C269.947 115.648 270.62 115.382 271.187 114.954C271.513 114.679 271.824 114.387 272.118 114.079C272.435 113.776 272.766 113.488 273.112 113.218C273.802 112.674 274.562 112.226 275.373 111.888C276.192 111.556 277.07 111.394 277.954 111.414C278.837 111.433 279.707 111.632 280.511 112C282.124 112.744 283.381 114.091 284.011 115.752C284.335 116.552 284.533 117.397 284.599 118.258C284.682 119.112 284.656 119.973 284.522 120.82C284.306 122.535 283.528 124.13 282.31 125.356C281.068 126.55 279.406 127.207 277.683 127.183C275.985 127.122 274.361 126.471 273.091 125.342C272.458 124.821 271.868 124.25 271.327 123.634C270.775 123.083 270.07 122.71 269.304 122.563C268.737 122.453 268.153 122.468 267.593 122.606C267.032 122.744 266.508 123.001 266.057 123.361C265.606 123.722 265.238 124.175 264.979 124.691C264.721 125.207 264.577 125.773 264.558 126.35C264.558 127.148 264.558 127.939 264.558 128.723C264.558 131.882 264.546 135.002 264.523 138.082C264.523 144.233 264.5 150.211 264.453 156.016L264.292 155.855L333.536 155.911L333.431 156.016C333.676 145.026 333.865 136.346 333.998 130.41C333.998 129.668 334.033 128.968 334.047 128.31C334.101 127.705 334.044 127.095 333.879 126.511C333.599 125.602 333.012 124.818 332.22 124.292C331.738 123.966 331.191 123.749 330.617 123.655C330.232 123.648 330.029 123.655 330.029 123.641Z" fill="#263238"/>
<path d="M59.689 113.12C59.6687 114.216 59.2157 115.26 58.4289 116.023C57.642 116.786 56.5851 117.207 55.489 117.194C54.9222 117.187 54.3631 117.062 53.8472 116.827C53.3314 116.592 52.8702 116.252 52.493 115.829C51.289 114.471 49.14 112.546 46.564 112.497C42.581 112.42 39.725 115.556 39.641 120.078C39.557 124.6 42.273 127.841 46.263 127.918C48.839 127.974 51.065 126.133 52.318 124.824C52.704 124.424 53.1676 124.107 53.6804 123.893C54.1932 123.679 54.7443 123.572 55.3 123.578C55.8457 123.588 56.3842 123.706 56.8844 123.924C57.3847 124.142 57.837 124.457 58.2154 124.851C58.5938 125.244 58.8909 125.708 59.0897 126.216C59.2885 126.725 59.3851 127.267 59.374 127.813L58.807 156.016H121.513L121.611 126.385C121.631 125.289 122.084 124.245 122.871 123.482C123.658 122.719 124.715 122.298 125.811 122.311C126.38 122.322 126.941 122.453 127.457 122.694C127.973 122.935 128.433 123.281 128.807 123.711C130.011 125.069 132.16 126.994 134.736 127.043C138.719 127.12 141.575 123.984 141.659 119.462C141.743 114.94 139.02 111.699 135.037 111.622C132.461 111.566 130.235 113.407 128.982 114.716C128.589 115.124 128.115 115.445 127.591 115.659C127.066 115.874 126.503 115.977 125.937 115.962C123.641 115.92 121.429 114.275 121.478 111.979V86.8H59.437L59.689 113.12Z" fill="#455A64"/>
<path d="M59.689 113.12C59.689 113.12 59.689 112.973 59.689 112.679C59.689 112.385 59.689 111.937 59.689 111.363C59.689 110.201 59.647 108.479 59.619 106.246C59.5 101.752 59.444 95.2 59.346 86.8V86.702H59.444L121.548 86.639H121.702V86.8C121.702 93.0346 121.702 99.5283 121.702 106.281V111.384C121.684 111.803 121.705 112.222 121.765 112.637C121.841 113.04 121.993 113.425 122.213 113.771C122.676 114.471 123.336 115.019 124.11 115.346C124.882 115.691 125.732 115.827 126.574 115.738C127.421 115.64 128.211 115.263 128.821 114.667C130.029 113.31 131.564 112.284 133.28 111.685C133.736 111.549 134.205 111.465 134.68 111.433C135.148 111.413 135.616 111.437 136.08 111.503C137.006 111.636 137.892 111.968 138.677 112.476C140.245 113.543 141.333 115.181 141.708 117.04C142.112 118.902 141.996 120.84 141.372 122.64C141.058 123.553 140.556 124.389 139.897 125.094C139.239 125.8 138.439 126.359 137.55 126.735C136.646 127.091 135.679 127.256 134.708 127.218C133.725 127.163 132.768 126.886 131.908 126.406C131.061 125.934 130.279 125.353 129.584 124.677C129.234 124.348 128.884 123.977 128.59 123.641C128.26 123.32 127.876 123.059 127.456 122.871C126.604 122.495 125.648 122.429 124.753 122.685C123.858 122.941 123.08 123.502 122.556 124.271C122.033 125.055 121.787 125.991 121.856 126.931C121.856 127.904 121.856 128.884 121.856 129.857C121.856 138.775 121.8 147.539 121.765 156.065V156.247H121.59H58.884H58.723V156.086C58.8583 149.702 58.9867 143.598 59.108 137.774C59.1687 134.871 59.2293 132.041 59.29 129.283C59.3322 128.607 59.3322 127.929 59.29 127.253C59.2124 126.606 58.9715 125.989 58.59 125.461C58.2182 124.939 57.7266 124.514 57.1565 124.222C56.5865 123.93 55.9546 123.779 55.314 123.781C54.6891 123.779 54.0726 123.926 53.515 124.208C53.2391 124.345 52.9806 124.514 52.745 124.712C52.514 124.908 52.304 125.146 52.045 125.37C51.1615 126.252 50.1341 126.976 49.007 127.512C47.9219 128.01 46.7204 128.199 45.5347 128.058C44.3491 127.918 43.2253 127.452 42.287 126.714C41.423 126.004 40.7394 125.1 40.292 124.075C39.8742 123.094 39.637 122.046 39.592 120.981C39.4277 118.995 39.9196 117.011 40.992 115.332C41.9448 113.931 43.4097 112.96 45.0712 112.629C46.7327 112.298 48.4578 112.633 49.875 113.561C50.9942 114.299 52.0049 115.19 52.878 116.207C53.6285 116.856 54.5877 117.214 55.58 117.214C56.5723 117.214 57.5315 116.856 58.282 116.207C58.7652 115.795 59.1441 115.274 59.388 114.688C59.5883 114.21 59.7043 113.701 59.731 113.183C59.731 113.183 59.731 113.316 59.731 113.575C59.6901 113.964 59.5958 114.346 59.451 114.709C59.182 115.288 58.7846 115.798 58.289 116.2C57.5235 116.87 56.541 117.239 55.524 117.239C54.507 117.239 53.5245 116.87 52.759 116.2C51.8847 115.196 50.8766 114.318 49.763 113.589C48.3777 112.687 46.6937 112.366 45.0739 112.695C43.4541 113.024 42.0283 113.976 41.104 115.346C40.0464 116.987 39.5547 118.929 39.704 120.876C39.7277 121.943 39.9763 122.994 40.4334 123.959C40.8905 124.924 41.546 125.781 42.357 126.476C43.2654 127.182 44.3498 127.625 45.4925 127.759C46.6352 127.892 47.7925 127.71 48.839 127.232C49.94 126.705 50.9435 125.995 51.807 125.132C52.031 124.922 52.234 124.684 52.507 124.467C52.7571 124.255 53.0321 124.074 53.326 123.928C53.9181 123.627 54.573 123.471 55.237 123.473C56.2709 123.466 57.2724 123.833 58.0561 124.508C58.8399 125.182 59.3528 126.118 59.5 127.141C59.5397 127.84 59.5397 128.542 59.5 129.241C59.444 131.999 59.388 134.832 59.332 137.739C59.22 143.558 59.101 149.662 58.975 156.051L58.821 155.89H121.527L121.345 156.072C121.345 147.539 121.401 138.782 121.429 129.857C121.429 128.884 121.429 127.911 121.429 126.938C121.364 125.926 121.632 124.921 122.192 124.075C122.766 123.235 123.617 122.624 124.595 122.348C125.574 122.072 126.619 122.148 127.547 122.563C128.008 122.765 128.428 123.05 128.786 123.403C129.136 123.767 129.43 124.103 129.78 124.432C130.448 125.09 131.205 125.653 132.027 126.105C132.836 126.555 133.735 126.819 134.659 126.875C135.579 126.911 136.497 126.756 137.354 126.42C138.197 126.063 138.954 125.533 139.578 124.864C140.202 124.194 140.677 123.401 140.973 122.535C141.572 120.806 141.683 118.947 141.295 117.159C140.942 115.389 139.909 113.829 138.418 112.812C137.674 112.334 136.836 112.022 135.961 111.895C135.528 111.833 135.09 111.81 134.652 111.825C134.218 111.858 133.788 111.938 133.371 112.063C131.706 112.642 130.219 113.64 129.052 114.961C128.386 115.604 127.528 116.012 126.609 116.123C125.704 116.22 124.789 116.078 123.956 115.71C123.119 115.355 122.407 114.757 121.912 113.995C121.671 113.612 121.502 113.187 121.415 112.742C121.351 112.306 121.327 111.866 121.345 111.426C121.345 109.713 121.345 108.012 121.345 106.323C121.345 99.5843 121.345 93.0906 121.345 86.842L121.506 87.003L59.402 86.94L59.5 86.842C59.563 95.242 59.612 101.808 59.64 106.302C59.64 108.535 59.64 110.257 59.64 111.419V112.7C59.696 112.973 59.689 113.12 59.689 113.12Z" fill="#263238"/>
<path d="M55.65 123.641C55.1203 123.63 54.5947 123.736 54.1107 123.951C53.6267 124.166 53.1962 124.486 52.85 124.887C51.702 126.196 49.672 128.037 47.32 127.988C43.673 127.911 41.181 124.663 41.258 120.141C41.335 115.619 43.96 112.483 47.6 112.56C49.952 112.616 51.919 114.541 53.018 115.899C53.3476 116.311 53.7634 116.646 54.2362 116.881C54.709 117.116 55.2274 117.244 55.755 117.257C56.2772 117.244 56.7918 117.129 57.2693 116.917C57.7468 116.705 58.178 116.402 58.5381 116.023C58.8983 115.645 59.1803 115.2 59.3682 114.712C59.556 114.225 59.646 113.705 59.633 113.183L59.402 86.723L21.462 86.779L10.262 86.856V156.1H58.842L59.367 127.897C59.4343 126.841 59.0814 125.801 58.3852 125.003C57.6889 124.206 56.7058 123.716 55.65 123.641Z" fill="#455A64"/>
<path d="M55.65 123.641H55.804C55.9547 123.641 56.1049 123.658 56.252 123.69C56.834 123.787 57.3826 124.027 57.848 124.39C58.6055 125.008 59.1271 125.868 59.325 126.826C59.4274 127.434 59.4579 128.052 59.416 128.667C59.416 129.325 59.416 130.025 59.416 130.767C59.318 136.703 59.178 145.313 59.003 156.051V156.163H58.884L10.304 156.212H10.136V156.1C10.136 139.356 10.136 120.813 10.136 101.332V86.674H10.318C19.166 86.597 27.755 86.59 35.973 86.583H59.458H59.612V86.744C59.654 92.274 59.696 97.587 59.738 102.641C59.738 105.175 59.738 107.639 59.794 110.033C59.794 111.237 59.836 112.406 59.794 113.589C59.7308 114.18 59.5481 114.753 59.2568 115.271C58.9656 115.79 58.5721 116.244 58.1 116.606C57.4177 117.139 56.5698 117.414 55.7048 117.385C54.8397 117.355 54.0125 117.023 53.368 116.445C52.948 116.067 52.668 115.619 52.29 115.248C51.6023 114.487 50.7963 113.841 49.903 113.337C49.0534 112.851 48.0794 112.627 47.103 112.693C46.1823 112.754 45.2909 113.041 44.5081 113.53C43.7253 114.018 43.0753 114.693 42.616 115.493C41.7574 116.983 41.3263 118.681 41.37 120.4C41.3414 121.933 41.6976 123.45 42.406 124.81C43.0284 126.012 44.0473 126.962 45.29 127.498C46.3621 127.956 47.5558 128.048 48.685 127.757C49.6169 127.48 50.4835 127.018 51.233 126.399C51.8356 125.919 52.3932 125.384 52.899 124.803C53.2883 124.388 53.7671 124.067 54.299 123.865C54.6206 123.746 54.9579 123.676 55.3 123.655C55.4165 123.646 55.5335 123.646 55.65 123.655C55.1927 123.664 54.7404 123.751 54.313 123.914C53.7955 124.124 53.3316 124.447 52.955 124.859C52.451 125.448 51.8958 125.992 51.296 126.483C50.5402 127.118 49.664 127.594 48.72 127.883C47.559 128.191 46.3286 128.108 45.22 127.645C43.9411 127.102 42.8898 126.132 42.245 124.901C41.5171 123.514 41.1511 121.966 41.181 120.4C41.1355 118.659 41.5664 116.938 42.427 115.423C42.9033 114.614 43.5537 113.92 44.331 113.393C45.1467 112.841 46.0983 112.524 47.082 112.476C48.1057 112.397 49.1295 112.627 50.022 113.134C50.9489 113.643 51.7861 114.3 52.5 115.08C52.878 115.458 53.2 115.92 53.564 116.256C53.9695 116.606 54.4476 116.862 54.964 117.005C55.4815 117.149 56.0257 117.169 56.5523 117.063C57.079 116.957 57.5732 116.729 57.995 116.396C58.4269 116.047 58.7831 115.614 59.0419 115.123C59.3007 114.632 59.4566 114.093 59.5 113.54C59.542 112.406 59.5 111.202 59.5 110.04C59.5 107.646 59.451 105.182 59.423 102.648C59.3763 97.594 59.3273 92.295 59.276 86.751L59.437 86.912L35.952 86.961C27.734 86.961 19.152 86.961 10.297 87.066L10.479 86.884V101.339C10.479 120.82 10.479 139.363 10.479 156.107L10.311 155.939L58.891 155.988L58.772 156.107C58.996 145.376 59.178 136.759 59.297 130.823C59.297 130.081 59.297 129.381 59.346 128.723C59.3924 128.115 59.3666 127.504 59.269 126.903C59.0921 125.966 58.5977 125.118 57.869 124.502C57.416 124.13 56.8809 123.871 56.308 123.746C55.853 123.648 55.65 123.655 55.65 123.641Z" fill="#263238"/>
<path opacity="0.3" d="M59.423 156.1C59.423 156.1 63.371 113.26 65.24 107.8C67.109 102.34 83.839 97.37 83.839 97.37L88.291 93.373L89.957 89.439V86.8H102.9L104.538 156.1H59.423Z" fill="black"/>
<path d="M140.784 61.152L143.297 56C141.713 51.6909 141.798 46.945 143.535 42.6953C145.272 38.4456 148.537 34.9996 152.686 33.0346C156.835 31.0696 161.57 30.7279 165.958 32.0766C170.347 33.4253 174.072 36.3669 176.402 40.323C178.732 44.2791 179.497 48.9636 178.548 53.4556C177.599 57.9475 175.004 61.922 171.273 64.5977C167.542 67.2733 162.946 68.4566 158.386 67.9148C153.827 67.373 149.636 65.1455 146.636 61.67L140.784 61.152Z" fill="white"/>
<path d="M140.784 61.152H141.183L142.31 61.243L146.65 61.607L146.573 61.719L146.314 61.194L146.706 61.635C148.698 63.913 151.22 65.6656 154.049 66.738C157.56 68.0572 161.394 68.2592 165.024 67.3164C168.655 66.3735 171.906 64.3319 174.332 61.4708C176.757 58.6097 178.24 55.069 178.576 51.3331C178.913 47.5971 178.087 43.8485 176.211 40.6L175.637 39.641L175 38.759L174.678 38.311L174.307 37.898L173.544 37.1C170.543 34.0327 166.563 32.1112 162.295 31.668C159.233 31.3776 156.147 31.8655 153.324 33.0863C150.501 34.3072 148.033 36.2215 146.147 38.6516C144.262 41.0816 143.021 43.9486 142.54 46.9864C142.059 50.0242 142.353 53.1343 143.395 56.028L141.491 59.794L140.994 60.774L140.812 61.117C140.812 61.117 140.854 61.012 140.959 60.795C141.064 60.578 141.218 60.235 141.414 59.815L143.227 56V56.063C142.157 53.2002 141.822 50.1146 142.254 47.089C142.934 42.3848 145.396 38.1222 149.132 35.1838C152.868 32.2454 157.591 30.8562 162.323 31.304C166.677 31.7501 170.739 33.7008 173.81 36.82L174.559 37.66L174.93 38.08L175.266 38.542L175.966 39.452L176.554 40.432C177.933 42.8087 178.765 45.4629 178.989 48.2015C179.213 50.9401 178.823 53.6942 177.849 56.2634C176.875 58.8327 175.34 61.1524 173.357 63.054C171.373 64.9555 168.991 66.391 166.383 67.256C162.913 68.4165 159.176 68.512 155.652 67.5302C152.127 66.5484 148.978 64.5342 146.608 61.747L146.734 61.663L146.79 61.789H146.657L142.275 61.32L141.169 61.201L140.784 61.152Z" fill="#263238"/>
<path d="M151.781 50.064L154.154 47.691L158.732 51.758L167.72 43.113L169.925 45.486L158.396 56.336L151.781 50.064Z" fill="#AEB8FE"/>
<path d="M120.827 302.456L120.239 317.891C120.239 317.891 135.73 323.666 135.905 326.529L105.938 326.466L105.861 302.386L120.827 302.456Z" fill="#263238"/>
<path d="M110.978 316.575C110.688 316.661 110.441 316.853 110.284 317.112C110.128 317.37 110.073 317.678 110.131 317.975C110.207 318.272 110.396 318.527 110.658 318.686C110.919 318.846 111.232 318.897 111.531 318.829C111.837 318.736 112.098 318.533 112.264 318.259C112.429 317.985 112.487 317.659 112.427 317.345C112.31 317.054 112.085 316.82 111.8 316.689C111.515 316.559 111.191 316.543 110.894 316.645" fill="#E0E0E0"/>
<path d="M105.938 326.466L106.022 324.044L134.722 325.01C134.722 325.01 136.052 325.591 135.905 326.529L105.938 326.466Z" fill="#455A64"/>
<path d="M120.729 317.737C120.729 317.884 119.994 317.947 119.273 318.437C118.552 318.927 118.167 319.522 118.027 319.466C117.887 319.41 118.118 318.563 119 318.01C119.882 317.457 120.757 317.604 120.729 317.737Z" fill="white"/>
<path d="M123.9 319.046C123.935 319.186 123.305 319.431 122.801 320.054C122.297 320.677 122.164 321.321 122.017 321.314C121.87 321.307 121.779 320.481 122.409 319.725C123.039 318.969 123.9 318.906 123.9 319.046Z" fill="white"/>
<path d="M125.643 322.812C125.51 322.812 125.307 322.112 125.685 321.307C126.063 320.502 126.749 320.194 126.812 320.313C126.875 320.432 126.448 320.859 126.147 321.524C125.846 322.189 125.79 322.798 125.643 322.812Z" fill="white"/>
<path d="M120.47 314.209C120.407 314.342 119.77 314.139 118.909 314.209C118.048 314.279 117.439 314.524 117.362 314.398C117.285 314.272 117.908 313.754 118.881 313.698C119.854 313.642 120.54 314.09 120.47 314.209Z" fill="white"/>
<path d="M84.147 300.356L82.523 318.969L85.484 334.068C85.5351 334.325 85.5325 334.591 85.4766 334.847C85.4206 335.104 85.3124 335.346 85.1587 335.559C85.005 335.771 84.8091 335.95 84.5833 336.084C84.3574 336.218 84.1065 336.303 83.846 336.336C83.5437 336.374 83.2366 336.339 82.9505 336.235C82.6643 336.13 82.4073 335.958 82.201 335.734C79.534 332.822 69.762 322.063 69.958 320.705C70.182 319.137 70.364 300.958 70.364 300.958L84.147 300.356Z" fill="#263238"/>
<path d="M83.846 336.336L70.035 319.445L69.986 320.236C69.9429 320.919 70.1411 321.595 70.546 322.147C71.645 323.61 74.746 327.6 82.145 335.727C82.3559 335.961 82.6218 336.14 82.9187 336.246C83.2156 336.352 83.5342 336.383 83.846 336.336Z" fill="#455A64"/>
<g opacity="0.6">
<path d="M74.249 313.677C74.4686 313.86 74.6123 314.119 74.6524 314.402C74.6925 314.685 74.6261 314.973 74.466 315.21C74.2902 315.433 74.0363 315.581 73.7556 315.624C73.4749 315.667 73.1884 315.601 72.954 315.441C72.7226 315.246 72.5717 314.972 72.5303 314.672C72.4889 314.372 72.5601 314.068 72.73 313.817C72.937 313.601 73.2198 313.474 73.5188 313.462C73.8178 313.45 74.1097 313.555 74.333 313.754" fill="white"/>
</g>
<path d="M80.108 327.915C80.5529 327.32 81.1497 326.856 81.8358 326.572C82.5218 326.287 83.2718 326.193 84.007 326.298C84.007 326.249 83.804 326.088 83.37 325.997C82.7989 325.895 82.2106 325.961 81.676 326.186C81.1432 326.408 80.6845 326.777 80.353 327.25C80.108 327.6 80.066 327.894 80.108 327.915Z" fill="white"/>
<path d="M81.277 330.498C81.8295 330.231 82.3975 329.997 82.978 329.798C83.589 329.724 84.2036 329.684 84.819 329.679C84.5419 329.483 84.2224 329.356 83.8866 329.307C83.5508 329.258 83.2083 329.29 82.887 329.399C81.767 329.651 81.2 330.442 81.277 330.498Z" fill="white"/>
<path d="M77.84 324.555C78.6591 324.074 79.5131 323.655 80.395 323.302C81.886 322.812 83.195 322.959 83.195 322.833C82.2301 322.578 81.2125 322.605 80.2624 322.91C79.3122 323.216 78.4693 323.786 77.833 324.555H77.84Z" fill="white"/>
<path d="M77.861 318.857C77.903 318.969 78.96 318.605 80.304 318.64C81.648 318.675 82.691 319.067 82.74 318.955C82.0364 318.446 81.1775 318.199 80.311 318.255C79.4488 318.158 78.5803 318.372 77.861 318.857Z" fill="white"/>
<path d="M78.197 313.376C79.0273 313.167 79.8819 313.07 80.738 313.089C82.138 313.215 83.097 313.971 83.174 313.866C83.251 313.761 83.013 313.586 82.6 313.306C82.0506 312.958 81.4271 312.745 80.78 312.683C80.1314 312.612 79.4752 312.701 78.869 312.942C78.4 313.131 78.176 313.334 78.197 313.376Z" fill="white"/>
<path d="M80.773 312.046C80.847 311.821 80.8709 311.582 80.843 311.346C80.8226 310.695 80.6726 310.055 80.402 309.463C80.2403 309.014 79.9353 308.63 79.534 308.371C79.3948 308.296 79.2355 308.266 79.0785 308.286C78.9215 308.306 78.7748 308.375 78.659 308.483C78.4438 308.705 78.3191 309 78.309 309.309C78.3113 309.938 78.5328 310.546 78.9353 311.029C79.3377 311.512 79.896 311.839 80.514 311.955C81.1281 312.058 81.7589 311.976 82.3261 311.719C82.8933 311.462 83.3712 311.042 83.699 310.513C83.7801 310.38 83.832 310.232 83.8513 310.077C83.8706 309.923 83.8569 309.766 83.811 309.617C83.7479 309.471 83.6399 309.349 83.5027 309.268C83.3655 309.188 83.2063 309.153 83.048 309.169C82.5824 309.239 82.1432 309.43 81.774 309.722C81.2393 310.104 80.777 310.578 80.409 311.122C80.2574 311.305 80.1454 311.517 80.08 311.745C80.6119 311.076 81.2365 310.487 81.935 309.995C82.2664 309.754 82.6503 309.596 83.055 309.533C83.1419 309.524 83.2294 309.543 83.3049 309.587C83.3803 309.631 83.4399 309.698 83.475 309.778C83.4973 309.878 83.4989 309.982 83.4797 310.084C83.4604 310.185 83.4207 310.281 83.363 310.366C83.0643 310.818 82.6407 311.174 82.1436 311.39C81.6466 311.606 81.0975 311.674 80.563 311.584C80.0412 311.482 79.5692 311.206 79.2236 310.802C78.878 310.398 78.6791 309.889 78.659 309.358C78.6622 309.145 78.7389 308.94 78.876 308.777C78.9389 308.716 79.019 308.676 79.1054 308.662C79.1918 308.649 79.2803 308.662 79.359 308.7C79.6969 308.921 79.9584 309.242 80.108 309.617C80.469 310.382 80.694 311.204 80.773 312.046Z" fill="white"/>
<path d="M135.261 172.354C136.707 178.752 137.195 185.329 136.71 191.87C136.395 196.014 122.395 310.737 122.395 310.737H103.495L108.808 202.937L107.261 203.266C107.261 203.266 96.95 249.256 96.103 256.704C95.347 263.396 86.653 312.004 86.653 312.004L69.384 312.2L74.9 247.884L81.319 186.2L83.734 168.238L135.261 172.354Z" fill="#263238"/>
<path d="M108.129 195.594C108.129 195.594 108.164 195.65 108.248 195.727C108.386 195.829 108.543 195.903 108.71 195.944C109.022 196.008 109.344 196.003 109.653 195.929C109.963 195.856 110.253 195.715 110.502 195.517C110.857 195.212 111.148 194.839 111.358 194.421C111.568 194.003 111.693 193.548 111.727 193.081C111.86 192.052 111.881 190.946 111.958 189.777C112.084 187.446 112.182 185.332 112.231 183.799C112.298 182.974 112.298 182.146 112.231 181.321C112.083 182.135 111.996 182.958 111.972 183.785C111.853 185.311 111.72 187.425 111.594 189.756C111.517 190.918 111.503 192.045 111.391 193.032C111.346 193.899 110.97 194.716 110.341 195.314C110.122 195.501 109.866 195.642 109.591 195.726C109.315 195.81 109.025 195.837 108.738 195.804C108.528 195.758 108.323 195.687 108.129 195.594Z" fill="#455A64"/>
<path d="M80.332 184.506C80.4962 184.601 80.6766 184.665 80.864 184.695C81.3577 184.821 81.8611 184.906 82.369 184.947C84.0662 185.096 85.7746 184.842 87.3557 184.207C88.9367 183.573 90.3459 182.574 91.469 181.293C91.8091 180.912 92.1158 180.502 92.386 180.068C92.4981 179.916 92.5834 179.745 92.638 179.564C92.582 179.564 92.162 180.208 91.28 181.118C90.1306 182.303 88.7483 183.237 87.22 183.862C85.6876 184.471 84.0447 184.752 82.397 184.688C81.116 184.639 80.346 184.443 80.332 184.506Z" fill="#455A64"/>
<path d="M127.736 179.704C127.73 180.348 127.827 180.988 128.023 181.601C128.419 183.096 129.06 184.515 129.92 185.801C130.782 187.096 131.851 188.241 133.084 189.189C133.574 189.603 134.124 189.94 134.715 190.19C134.806 190.092 132.195 188.601 130.228 185.598C129.09 183.778 128.249 181.788 127.736 179.704Z" fill="#455A64"/>
<path d="M125.923 57.456C126.78 57.4972 127.623 57.222 128.29 56.6827C128.958 56.1434 129.404 55.3776 129.544 54.5308C129.684 53.6841 129.508 52.8155 129.049 52.09C128.591 51.3646 127.882 50.8329 127.057 50.596C127.567 50.0229 127.883 49.3027 127.958 48.539C128.033 47.7752 127.864 47.0074 127.475 46.3459C127.086 45.6845 126.497 45.1635 125.793 44.858C125.089 44.5526 124.306 44.4783 123.557 44.646C123.488 43.8975 123.226 43.1797 122.797 42.5626C122.368 41.9455 121.786 41.4503 121.108 41.1252C120.431 40.8001 119.68 40.6562 118.93 40.7077C118.181 40.7592 117.457 41.0043 116.83 41.419C115.95 40.7765 114.881 40.4457 113.792 40.4786C112.703 40.5116 111.656 40.9065 110.817 41.601C110.084 41.5191 109.345 41.6706 108.703 42.0339C108.062 42.3972 107.552 42.9537 107.245 43.6241C106.939 44.2945 106.852 45.0445 106.997 45.7672C107.141 46.49 107.511 47.1485 108.052 47.649" fill="#263238"/>
<path d="M110.264 45.08L111.034 45.045C114.749 44.8643 118.395 46.0882 121.248 48.4734C124.102 50.8585 125.953 54.2302 126.434 57.918C127.365 65.037 128.303 72.912 128.45 76.748C128.744 84.693 120.862 86.324 120.862 86.324L122.01 95.83L102.711 96.187L99.288 61.677C98.189 53.473 102.032 45.976 110.264 45.08Z" fill="#AE7461"/>
<path d="M120.953 86.31C117.265 86.4933 113.602 85.6163 110.397 83.783C110.397 83.783 113.127 89.383 121.016 88.263L120.953 86.31Z" fill="#6F4439"/>
<path d="M124.53 65.24C124.549 65.5356 124.451 65.827 124.258 66.051C124.064 66.275 123.789 66.4137 123.494 66.437C123.351 66.4565 123.205 66.447 123.065 66.409C122.926 66.371 122.795 66.3053 122.682 66.2158C122.568 66.1263 122.473 66.0149 122.404 65.8881C122.334 65.7614 122.291 65.6219 122.276 65.478C122.258 65.182 122.357 64.8908 122.55 64.6661C122.743 64.4414 123.017 64.3007 123.312 64.274C123.456 64.2555 123.602 64.2659 123.741 64.3047C123.881 64.3436 124.011 64.4099 124.125 64.5C124.238 64.59 124.333 64.7019 124.402 64.829C124.472 64.9561 124.515 65.0958 124.53 65.24Z" fill="#263238"/>
<path d="M124.943 61.887C124.81 62.041 123.921 61.446 122.696 61.509C121.471 61.572 120.596 62.209 120.477 62.09C120.358 61.971 120.54 61.747 120.911 61.446C121.421 61.0548 122.04 60.83 122.682 60.802C123.318 60.7687 123.947 60.9378 124.481 61.285C124.866 61.558 125.006 61.817 124.943 61.887Z" fill="#263238"/>
<path d="M113.239 65.548C113.256 65.8432 113.158 66.1336 112.964 66.3572C112.771 66.5808 112.498 66.72 112.203 66.745C112.06 66.7637 111.916 66.754 111.777 66.7166C111.638 66.6791 111.508 66.6147 111.394 66.5269C111.28 66.4391 111.185 66.3297 111.114 66.2049C111.042 66.0802 110.996 65.9426 110.978 65.8C110.956 65.5039 111.051 65.2111 111.242 64.9837C111.433 64.7563 111.705 64.6122 112 64.582C112.145 64.5615 112.293 64.5703 112.435 64.6081C112.576 64.646 112.709 64.7119 112.825 64.802C112.94 64.8922 113.036 65.0047 113.108 65.1329C113.179 65.261 113.224 65.4022 113.239 65.548Z" fill="#263238"/>
<path d="M112.959 62.706C112.826 62.867 111.937 62.272 110.719 62.335C109.501 62.398 108.619 63.035 108.493 62.909C108.367 62.783 108.556 62.573 108.934 62.272C109.441 61.8797 110.057 61.6547 110.698 61.628C111.334 61.5912 111.965 61.7606 112.497 62.111C112.882 62.377 113.029 62.643 112.959 62.706Z" fill="#263238"/>
<path d="M117.838 71.54C118.472 71.3061 119.133 71.1532 119.805 71.085C120.113 71.036 120.407 70.959 120.449 70.742C120.454 70.4198 120.364 70.1032 120.19 69.832C119.861 69.09 119.49 68.313 119.154 67.501C117.705 64.19 116.641 61.46 116.774 61.397C116.907 61.334 118.174 63.98 119.637 67.298L120.638 69.636C120.854 70.0029 120.933 70.4343 120.862 70.854C120.823 70.9667 120.758 71.0689 120.673 71.1527C120.588 71.2364 120.485 71.2995 120.372 71.337C120.202 71.3929 120.026 71.4258 119.847 71.435C119.184 71.5533 118.509 71.5885 117.838 71.54Z" fill="#263238"/>
<path d="M113.785 57.96C113.638 58.282 112.581 57.96 111.286 58.016C109.991 58.072 108.927 58.31 108.794 58.016C108.731 57.862 108.948 57.575 109.403 57.316C109.986 56.9876 110.644 56.814 111.314 56.812C111.976 56.8036 112.628 56.9702 113.204 57.295C113.645 57.526 113.848 57.813 113.785 57.96Z" fill="#263238"/>
<path d="M124.754 56.854C124.509 57.141 123.487 56.903 122.276 56.952C121.065 57.001 120.05 57.246 119.798 56.952C119.686 56.812 119.833 56.525 120.267 56.252C120.873 55.9048 121.555 55.714 122.253 55.6969C122.951 55.6798 123.642 55.8369 124.264 56.154C124.705 56.434 124.859 56.7 124.754 56.854Z" fill="#263238"/>
<path d="M125.51 54.313C125.51 54.313 123.172 49.413 120.715 48.405C117.74 47.145 116.655 50.393 113.848 49.756C111.041 49.119 108.206 47.908 105.483 50.19C102.508 52.682 104.041 54.25 104.02 57.785C103.957 72.107 101.549 76.272 100.471 69.587C100.352 68.887 98.28 68.369 97.825 65.268C97.23 61.25 96.831 56.357 97.587 53.445C98.231 50.988 99.519 49.245 101.899 47.292C105.651 44.191 110.999 43.862 114.66 44.051C118.321 44.24 125.531 48.069 125.51 54.313Z" fill="#263238"/>
<path d="M100.968 69.342C100.944 69.0512 100.861 68.7683 100.724 68.5104C100.588 68.2525 100.4 68.0251 100.173 67.8418C99.9461 67.6586 99.6842 67.5233 99.4033 67.4443C99.1224 67.3653 98.8283 67.3441 98.539 67.382C97.062 67.599 95.459 68.516 95.739 71.582C96.18 77 101.528 75.439 101.528 75.278C101.528 75.117 101.171 71.61 100.968 69.342Z" fill="#AE7461"/>
<path d="M100.149 73.332C100.149 73.332 100.065 73.402 99.911 73.493C99.6952 73.6048 99.4447 73.6299 99.211 73.563C98.623 73.402 98.063 72.534 97.958 71.554C97.903 71.0817 97.9557 70.603 98.112 70.154C98.1497 69.9807 98.2285 69.819 98.3418 69.6825C98.4551 69.5461 98.5996 69.4389 98.763 69.37C98.87 69.3336 98.9863 69.3353 99.0922 69.3748C99.1981 69.4144 99.287 69.4893 99.344 69.587C99.428 69.734 99.4 69.839 99.428 69.846C99.456 69.853 99.54 69.748 99.477 69.531C99.4378 69.3991 99.3536 69.2851 99.239 69.209C99.1604 69.1572 99.0721 69.1219 98.9795 69.105C98.8869 69.0882 98.7918 69.0902 98.7 69.111C98.4811 69.1741 98.2819 69.2921 98.1214 69.4538C97.961 69.6155 97.8445 69.8156 97.783 70.035C97.5953 70.5228 97.5257 71.0481 97.58 71.568C97.706 72.66 98.35 73.668 99.148 73.794C99.297 73.8252 99.4511 73.8226 99.5989 73.7863C99.7468 73.7499 99.8845 73.6808 100.002 73.584C100.149 73.5 100.17 73.339 100.149 73.332Z" fill="#6F4439"/>
<path d="M100.548 58.8C101.24 59.3119 102.048 59.6438 102.9 59.766C103.326 59.8103 103.754 59.6985 104.104 59.4513C104.454 59.2042 104.703 58.8385 104.804 58.422C104.853 58.044 104.734 57.61 104.972 57.309C105.21 57.008 105.805 57.022 106.26 57.05C107.849 57.141 109.606 55.307 109.928 53.753C110.148 54.0383 110.469 54.2281 110.825 54.2829C111.18 54.3376 111.544 54.2531 111.839 54.047C112.326 53.7162 112.75 53.3014 113.092 52.822C113.288 52.515 113.557 52.2607 113.874 52.0813C114.191 51.902 114.548 51.803 114.912 51.793C115.299 51.908 115.699 51.9762 116.102 51.996C116.802 51.898 117.117 51.044 117.194 50.33C117.271 49.616 117.306 48.79 117.894 48.377C118.482 47.964 119.168 48.16 119.826 48.223C120.484 48.286 121.331 48.097 121.464 47.446C121.483 47.2729 121.468 47.0976 121.419 46.9306C121.369 46.7635 121.287 46.6079 121.177 46.473C120.707 45.839 120.036 45.3827 119.273 45.1781C118.511 44.9735 117.702 45.0327 116.977 45.346C116.666 44.4549 116.097 43.6763 115.343 43.1086C114.589 42.541 113.684 42.21 112.741 42.1575C111.799 42.105 110.862 42.3335 110.05 42.8139C109.238 43.2942 108.586 44.005 108.178 44.856C107.575 44.3619 106.862 44.0205 106.099 43.8609C105.336 43.7012 104.546 43.728 103.796 43.939C103.046 44.1499 102.358 44.5388 101.79 45.0725C101.222 45.6063 100.791 46.2692 100.534 47.005C99.86 46.8596 99.158 46.9166 98.5163 47.1687C97.8745 47.4209 97.3215 47.857 96.9267 48.4223C96.5319 48.9876 96.3128 49.6569 96.2971 50.3462C96.2813 51.0356 96.4695 51.7142 96.838 52.297C96.346 52.5738 95.9321 52.9705 95.6347 53.4503C95.3372 53.93 95.1661 54.4773 95.137 55.041C95.172 56.168 96.327 57.232 97.391 56.882C97.2466 57.3208 97.2629 57.7967 97.4372 58.2246C97.6115 58.6524 97.9324 59.0043 98.3423 59.2173C98.7523 59.4303 99.2246 59.4905 99.6749 59.3871C100.125 59.2837 100.524 59.0235 100.8 58.653" fill="#263238"/>
<path d="M117.439 46.9C117.439 46.9 117.439 46.9 117.439 47.005C117.439 47.11 117.439 47.166 117.439 47.292C117.385 47.6656 117.269 48.0276 117.096 48.363C116.82 48.8921 116.424 49.3499 115.941 49.7C115.313 50.1833 114.543 50.4465 113.75 50.449L113.834 50.323C113.929 50.5635 113.975 50.8205 113.969 51.079C113.963 51.3375 113.905 51.5921 113.799 51.828C113.585 52.3358 113.295 52.8079 112.938 53.228C112.77 53.4648 112.578 53.683 112.364 53.879C112.116 54.0689 111.825 54.194 111.517 54.243C111.199 54.3053 110.871 54.2888 110.561 54.1948C110.251 54.1009 109.969 53.9323 109.739 53.704L109.942 53.634C109.895 54.2024 109.73 54.7548 109.456 55.2552C109.182 55.7556 108.806 56.193 108.353 56.539C107.861 56.9562 107.247 57.202 106.603 57.239C105.997 57.2409 105.396 57.1391 104.825 56.938L104.965 56.868C104.716 57.5386 104.304 58.1373 103.768 58.611C103.521 58.8441 103.225 59.0196 102.902 59.1249C102.579 59.2302 102.236 59.2626 101.899 59.22C101.323 59.1252 100.788 58.864 100.358 58.4684C99.9292 58.0728 99.6252 57.5603 99.484 56.994L99.61 57.043C99.0534 57.3781 98.3976 57.5092 97.755 57.414C97.277 57.3486 96.8213 57.1711 96.425 56.896C96.1783 56.721 95.963 56.5056 95.788 56.259C95.7232 56.1762 95.6713 56.0842 95.634 55.986C95.8615 56.312 96.1461 56.5942 96.474 56.819C96.8641 57.071 97.3074 57.2292 97.769 57.281C98.3784 57.3586 98.996 57.2252 99.519 56.903L99.617 56.84V56.952C99.7481 57.4879 100.035 57.9731 100.441 58.3467C100.847 58.7204 101.354 58.9657 101.899 59.052C102.206 59.0869 102.517 59.0536 102.81 58.9543C103.103 58.8551 103.37 58.6924 103.593 58.478C104.101 58.0303 104.488 57.4623 104.72 56.826L104.762 56.728H104.867C105.412 56.9149 105.984 57.0118 106.561 57.015C107.154 56.9844 107.721 56.7635 108.178 56.385C108.607 56.0601 108.963 55.6485 109.222 55.1769C109.482 54.7053 109.639 54.1843 109.683 53.648V53.396L109.858 53.585C110.064 53.7839 110.314 53.9308 110.588 54.0136C110.862 54.0964 111.152 54.1126 111.433 54.061C111.704 54.0162 111.96 53.9083 112.182 53.746C112.383 53.5603 112.564 53.3538 112.721 53.13C113.087 52.7361 113.39 52.2873 113.617 51.8C113.715 51.5881 113.769 51.359 113.778 51.1259C113.786 50.8928 113.748 50.6603 113.666 50.442L113.617 50.316H113.757C114.514 50.316 115.251 50.0703 115.857 49.616C116.324 49.28 116.711 48.845 116.991 48.342C117.23 47.8939 117.382 47.4046 117.439 46.9Z" fill="#455A64"/>
<path d="M117.782 75.726C117.74 75.523 116.417 75.873 115.185 74.984C113.953 74.095 113.722 72.66 113.533 72.695C113.449 72.695 113.358 73.08 113.498 73.675C113.692 74.4498 114.153 75.1314 114.8 75.6C115.421 76.0527 116.195 76.246 116.956 76.139C117.523 76.048 117.81 75.817 117.782 75.726Z" fill="#263238"/>
<path d="M174.398 122.752L154.042 138.6C154.042 138.6 151.34 126.7 144.137 108.969C143.239 106.715 142.12 104.556 140.798 102.522C140.714 102.347 140.63 102.179 140.553 102.039C137.858 96.999 132.188 94.773 128.653 94.556C128.121 94.521 126.791 94.556 124.929 94.661L123.613 94.234L122.108 89.754L118.51 93.723L101.339 85.603L99.687 91.952L87.5 97.342C87.5 97.342 76.251 99.862 74.816 109.543C73.164 120.68 71.722 146.181 71.722 146.181L85.659 139.041L82.299 164.535L83.118 173.929L115.108 179.158C116.832 179.413 118.585 179.413 120.309 179.158L136.066 176.834L137.97 172.347L136.192 143.906V142.065C138.145 147.098 142.688 157.528 147.315 159.264C151.781 160.944 175.7 138.6 175.7 138.6L174.398 122.752Z" fill="#E0E0E0"/>
<path d="M101.353 85.603C101.353 85.603 103.271 86.163 108.206 88.795C113.036 91.371 118.524 93.695 118.524 93.695L118.111 101.5L99.827 92.323" fill="#E0E0E0"/>
<path d="M122.122 89.754L118.524 93.723L120.449 102.039L123.655 94.528" fill="#E0E0E0"/>
<g opacity="0.3">
<path d="M118.594 94.584C118.755 94.703 119.749 104.181 119.749 104.181L101.43 93.1L118.111 101.5L118.594 94.584Z" fill="black"/>
</g>
<path d="M118.468 129.948C118.195 122.703 119.336 104.209 119.336 104.209L121.723 103.824C124.766 116.984 126.816 130.354 127.855 143.822C128.555 152.74 128.555 163.065 128.555 163.065L123.753 173.362L118.426 163.1C118.426 163.1 118.804 138.754 118.468 129.948Z" fill="#455A64"/>
<path d="M83.888 99.561C83.888 99.596 84.385 100.002 85.127 100.772C87.0731 102.769 88.4193 105.272 89.012 107.996C89.243 109.032 89.292 109.697 89.334 109.69C89.3596 109.535 89.3596 109.376 89.334 109.221C89.3144 108.795 89.2629 108.372 89.18 107.954C88.9214 106.569 88.4491 105.232 87.78 103.992C87.1119 102.747 86.2521 101.616 85.232 100.639C84.9296 100.341 84.6069 100.065 84.266 99.813C84.1527 99.7114 84.0254 99.6265 83.888 99.561Z" fill="#263238"/>
<path d="M118.468 97.433L120.106 96.796L121.653 99.456L121.933 103.824L119.749 104.181L118.111 101.479L118.468 97.433Z" fill="#455A64"/>
<path d="M136.164 110.432C136.094 110.432 136.038 119.896 136.038 131.558C136.038 143.22 136.094 152.691 136.164 152.691C136.234 152.691 136.29 143.234 136.29 131.558C136.29 119.882 136.234 110.432 136.164 110.432Z" fill="#263238"/>
<path d="M118.356 93.66C118.321 93.66 118.706 94.269 119.287 95.242C119.868 96.215 120.631 97.573 121.387 99.134C121.45 99.26 121.506 99.393 121.562 99.512L121.674 99.757L121.793 99.512C122.387 98.2572 122.897 96.9639 123.319 95.641C123.48 95.137 123.592 94.724 123.662 94.437C123.71 94.292 123.738 94.1414 123.746 93.989C123.711 93.989 123.515 94.591 123.158 95.585C122.69 96.8825 122.157 98.1558 121.562 99.4H121.8L121.625 99.022C120.997 97.6785 120.277 96.3803 119.469 95.137C119.154 94.661 118.888 94.283 118.699 94.031C118.51 93.779 118.37 93.646 118.356 93.66Z" fill="#263238"/>
<path d="M99.701 91.952C99.7779 92.0141 99.8626 92.0658 99.953 92.106L100.695 92.491L103.425 93.891C105.728 95.088 108.885 96.796 112.378 98.665C114.478 99.799 116.522 100.849 118.279 101.724L118.44 101.808V101.626C118.44 99.351 118.482 97.426 118.496 96.026V94.5C118.512 94.3137 118.512 94.1263 118.496 93.94C118.464 94.1249 118.45 94.3124 118.454 94.5C118.454 94.892 118.419 95.417 118.391 96.068C118.356 97.468 118.307 99.372 118.244 101.668L118.412 101.57C116.662 100.674 114.653 99.617 112.525 98.483C109.025 96.614 105.861 94.934 103.537 93.772C102.375 93.191 101.437 92.736 100.737 92.428L99.974 92.085C99.8889 92.0294 99.7972 91.9847 99.701 91.952Z" fill="#263238"/>
<path d="M133.952 97.93C133.917 97.93 134.204 98.441 134.575 99.267C135.546 101.43 135.981 103.795 135.842 106.162C135.793 107.072 135.695 107.625 135.737 107.632C135.779 107.639 135.793 107.499 135.849 107.254C135.931 106.899 135.989 106.539 136.024 106.176C136.259 103.768 135.813 101.343 134.736 99.176C134.577 98.8497 134.397 98.5341 134.197 98.231C134.057 98.035 133.966 97.916 133.952 97.93Z" fill="#263238"/>
<path d="M120.148 104.461C120.19 104.524 120.603 104.328 121.079 104.027C121.555 103.726 121.905 103.432 121.87 103.376C121.835 103.32 121.415 103.509 120.939 103.81C120.463 104.111 120.113 104.405 120.148 104.461Z" fill="#263238"/>
<path d="M119.364 103.397C119.807 102.696 120.18 101.953 120.477 101.178C120.846 100.439 121.139 99.6654 121.352 98.868C120.908 99.566 120.535 100.307 120.239 101.08C119.869 101.82 119.575 102.597 119.364 103.397Z" fill="#263238"/>
<path d="M81.97 100.1C81.97 100.1 76.3 104.146 75.6 106.4C74.9 108.654 71.883 145.292 71.351 149.653C70.819 154.014 70.287 162.162 73.654 164.815C77.021 167.468 84.28 169.47 84.28 169.47L91 155.603L87.444 148.162L91 120.337L81.97 100.1Z" fill="#E0E0E0"/>
<path d="M82.656 168.98C82.7768 168.964 82.8992 168.964 83.02 168.98C83.3688 168.978 83.7171 168.955 84.063 168.91C85.3631 168.788 86.6109 168.338 87.689 167.601C89.3075 166.414 90.528 164.764 91.189 162.869C92.0484 160.473 92.4796 157.945 92.463 155.4V155.498L87.255 148.288L87.213 148.232V148.162C87.213 147.98 87.262 147.777 87.29 147.574C88.291 139.776 89.194 132.713 89.859 127.561L90.643 121.492C90.734 120.792 90.811 120.253 90.86 119.847C90.8749 119.654 90.903 119.462 90.944 119.273C90.9517 119.322 90.9517 119.371 90.944 119.42C90.944 119.518 90.944 119.658 90.944 119.854C90.909 120.26 90.86 120.813 90.797 121.506C90.657 122.948 90.419 125.006 90.097 127.589C89.495 132.72 88.627 139.804 87.626 147.623C87.626 147.819 87.577 148.022 87.556 148.204V148.078C89.383 150.626 91.14 153.062 92.743 155.302V155.344V155.4C92.7345 157.986 92.2603 160.549 91.343 162.967C90.6603 164.9 89.4023 166.578 87.738 167.776C87.0947 168.206 86.3853 168.527 85.638 168.728L85.169 168.861L84.735 168.931C84.4837 168.983 84.2284 169.013 83.972 169.022C83.6203 169.053 83.2667 169.053 82.915 169.022C82.8278 169.014 82.7412 169 82.656 168.98Z" fill="#263238"/>
<path d="M75.81 150.731C76.2456 150.302 76.7465 149.946 77.294 149.674C78.5857 148.95 79.9846 148.438 81.438 148.155C82.8908 147.871 84.3801 147.823 85.848 148.015C86.4585 148.064 87.0579 148.206 87.626 148.435C85.5946 148.153 83.5324 148.177 81.508 148.505C79.5071 148.955 77.586 149.705 75.81 150.731Z" fill="#263238"/>
<path d="M108.759 131.397C108.658 132.554 108.101 133.624 107.211 134.371C106.321 135.118 105.17 135.481 104.013 135.38C103.418 135.331 102.84 135.16 102.315 134.877C101.789 134.594 101.328 134.205 100.961 133.735C99.792 132.216 97.664 130.039 94.962 129.808C90.762 129.444 87.556 132.538 87.136 137.284C86.716 142.03 89.362 145.642 93.548 146.006C96.257 146.244 98.721 144.466 100.135 143.206C100.579 142.805 101.101 142.501 101.668 142.313C102.236 142.125 102.837 142.057 103.432 142.114C104.005 142.163 104.562 142.325 105.073 142.59C105.583 142.855 106.036 143.218 106.406 143.658C106.776 144.098 107.055 144.607 107.228 145.155C107.402 145.703 107.465 146.28 107.415 146.853L104.811 176.477L170.8 180.894L172.998 149.744C173.047 149.17 173.209 148.612 173.475 148.101C173.74 147.59 174.103 147.136 174.544 146.765C174.985 146.395 175.494 146.115 176.043 145.941C176.592 145.768 177.17 145.704 177.744 145.754C178.341 145.802 178.92 145.974 179.447 146.259C179.974 146.543 180.435 146.934 180.803 147.406C181.972 148.918 184.093 151.095 186.795 151.333C190.995 151.697 194.208 148.596 194.621 143.85C195.034 139.104 192.402 135.499 188.209 135.128C185.507 134.897 183.036 136.668 181.622 137.963C181.179 138.363 180.658 138.666 180.092 138.854C179.525 139.042 178.926 139.11 178.332 139.055C175.917 138.845 173.712 136.955 173.922 134.547L175.7 108.094L110.39 103.684L108.759 131.397Z" fill="#AEB8FE"/>
<g opacity="0.4">
<path d="M108.759 131.397C108.658 132.554 108.101 133.624 107.211 134.371C106.321 135.118 105.17 135.481 104.013 135.38C103.418 135.331 102.84 135.16 102.315 134.877C101.789 134.594 101.328 134.205 100.961 133.735C99.792 132.216 97.664 130.039 94.962 129.808C90.762 129.444 87.556 132.538 87.136 137.284C86.716 142.03 89.362 145.642 93.548 146.006C96.257 146.244 98.721 144.466 100.135 143.206C100.579 142.805 101.101 142.501 101.668 142.313C102.236 142.125 102.837 142.057 103.432 142.114C104.005 142.163 104.562 142.325 105.073 142.59C105.583 142.855 106.036 143.218 106.406 143.658C106.776 144.098 107.055 144.607 107.228 145.155C107.402 145.703 107.465 146.28 107.415 146.853L104.811 176.477L170.8 180.894L172.998 149.744C173.047 149.17 173.209 148.612 173.475 148.101C173.74 147.59 174.103 147.136 174.544 146.765C174.985 146.395 175.494 146.115 176.043 145.941C176.592 145.768 177.17 145.704 177.744 145.754C178.341 145.802 178.92 145.974 179.447 146.259C179.974 146.543 180.435 146.934 180.803 147.406C181.972 148.918 184.093 151.095 186.795 151.333C190.995 151.697 194.208 148.596 194.621 143.85C195.034 139.104 192.402 135.499 188.209 135.128C185.507 134.897 183.036 136.668 181.622 137.963C181.179 138.363 180.658 138.666 180.092 138.854C179.525 139.042 178.926 139.11 178.332 139.055C175.917 138.845 173.712 136.955 173.922 134.547L175.7 108.094L110.39 103.684L108.759 131.397Z" fill="black"/>
</g>
<path d="M104.3 131.075C104.199 132.232 103.642 133.302 102.752 134.049C101.862 134.796 100.711 135.159 99.554 135.058C98.9589 135.011 98.3802 134.84 97.8548 134.557C97.3293 134.274 96.8686 133.884 96.502 133.413C95.333 131.901 93.205 129.724 90.503 129.486C86.303 129.122 83.097 132.216 82.677 136.969C82.257 141.722 84.903 145.32 89.089 145.684C91.798 145.922 94.262 144.144 95.676 142.884C96.1203 142.484 96.6426 142.181 97.2101 141.993C97.7776 141.805 98.3778 141.736 98.973 141.792C100.13 141.893 101.2 142.45 101.947 143.34C102.694 144.23 103.057 145.38 102.956 146.538L100.352 176.155L166.327 180.6L168.532 149.443C168.581 148.87 168.743 148.313 169.008 147.802C169.273 147.292 169.636 146.839 170.076 146.469C170.516 146.099 171.025 145.82 171.573 145.647C172.121 145.473 172.698 145.41 173.271 145.46C173.867 145.507 174.447 145.678 174.973 145.961C175.5 146.244 175.962 146.634 176.33 147.105C177.499 148.617 179.62 150.794 182.322 151.032C186.522 151.396 189.735 148.302 190.148 143.549C190.561 138.796 187.929 135.198 183.736 134.834C181.034 134.596 178.563 136.374 177.149 137.634C176.706 138.034 176.185 138.337 175.619 138.525C175.052 138.713 174.453 138.781 173.859 138.726C171.444 138.516 169.239 136.626 169.449 134.225L171.234 107.765L105.924 103.355L104.3 131.075Z" fill="#AEB8FE"/>
<path d="M104.3 131.075C104.3 131.075 104.3 130.914 104.3 130.606C104.3 130.298 104.3 129.829 104.37 129.206C104.433 127.981 104.531 126.168 104.657 123.816C104.916 119.084 105.301 112.161 105.791 103.341V103.243H105.889L171.206 107.583H171.367V107.737C170.928 114.298 170.462 121.128 169.967 128.226C169.848 130.004 169.729 131.789 169.61 133.595C169.565 134.035 169.565 134.478 169.61 134.918C169.663 135.347 169.796 135.763 170.002 136.143C170.438 136.916 171.093 137.542 171.885 137.942C172.678 138.359 173.566 138.562 174.461 138.53C175.359 138.48 176.217 138.138 176.904 137.557C178.274 136.224 179.96 135.26 181.804 134.757C182.28 134.65 182.766 134.596 183.253 134.596C183.741 134.605 184.226 134.664 184.702 134.771C185.664 134.975 186.571 135.383 187.362 135.968C188.934 137.201 189.961 139 190.225 140.98C190.512 142.958 190.251 144.978 189.469 146.818C189.076 147.754 188.49 148.597 187.749 149.292C187.009 149.986 186.13 150.517 185.171 150.85C184.195 151.159 183.165 151.262 182.147 151.151C181.123 151.024 180.141 150.665 179.277 150.101C178.416 149.549 177.634 148.883 176.953 148.12C176.61 147.756 176.253 147.329 175.98 146.958C175.655 146.597 175.269 146.296 174.839 146.069C173.969 145.607 172.965 145.466 172.002 145.669C171.038 145.872 170.177 146.408 169.568 147.182C168.964 147.974 168.639 148.944 168.644 149.94C168.574 150.962 168.497 151.984 168.427 153.013C167.727 162.386 167.111 171.598 166.474 180.572V180.747H166.299L100.352 176.274H100.191V176.113C100.788 169.407 101.355 162.995 101.892 156.877C102.167 153.825 102.431 150.852 102.683 147.959C102.768 147.25 102.812 146.538 102.816 145.824C102.773 145.135 102.556 144.468 102.186 143.885C101.83 143.31 101.342 142.829 100.762 142.481C100.183 142.132 99.5286 141.928 98.854 141.883C98.1938 141.841 97.5328 141.951 96.922 142.205C96.6222 142.33 96.338 142.49 96.075 142.681C95.823 142.87 95.585 143.108 95.326 143.325C94.3338 144.188 93.2024 144.877 91.98 145.362C90.805 145.808 89.5299 145.921 88.2949 145.688C87.0599 145.456 85.9129 144.888 84.98 144.046C84.1192 143.238 83.4619 142.238 83.062 141.127C82.6905 140.068 82.5103 138.952 82.53 137.83C82.5123 135.729 83.1808 133.679 84.434 131.992C85.5365 130.589 87.1451 129.674 88.9145 129.444C90.6839 129.214 92.473 129.686 93.898 130.76C95.0225 131.617 96.0236 132.625 96.873 133.756C97.611 134.498 98.5928 134.947 99.6367 135.02C100.68 135.094 101.716 134.786 102.55 134.155C103.09 133.758 103.527 133.237 103.824 132.636C104.071 132.147 104.23 131.619 104.293 131.075L104.251 131.488C104.18 131.893 104.053 132.287 103.873 132.657C103.574 133.269 103.135 133.801 102.592 134.211C101.847 134.785 100.936 135.104 99.995 135.121C99.4022 135.132 98.8131 135.024 98.2626 134.804C97.712 134.584 97.2109 134.257 96.789 133.84C95.9408 132.721 94.942 131.725 93.821 130.879C92.427 129.833 90.6785 129.375 88.9508 129.605C87.2232 129.834 85.6543 130.731 84.581 132.104C83.3585 133.761 82.7097 135.771 82.733 137.83C82.7129 138.929 82.8932 140.023 83.265 141.057C83.6577 142.123 84.2955 143.082 85.127 143.857C86.03 144.67 87.1402 145.217 88.3348 145.438C89.5294 145.659 90.7619 145.546 91.896 145.11C93.0914 144.633 94.1969 143.956 95.165 143.108C95.417 142.898 95.648 142.66 95.928 142.457C96.2037 142.249 96.5048 142.078 96.824 141.946C97.4686 141.671 98.1691 141.554 98.868 141.603C99.5829 141.646 100.277 141.859 100.893 142.224C101.509 142.589 102.029 143.096 102.41 143.703C102.821 144.331 103.062 145.054 103.11 145.803C103.114 146.528 103.072 147.253 102.984 147.973L102.2 156.905C101.668 163.018 101.108 169.43 100.52 176.141L100.38 175.973L166.327 180.397L166.138 180.565C166.768 171.598 167.419 162.365 168.084 153.006L168.301 149.933C168.299 148.865 168.651 147.826 169.302 146.979C169.965 146.139 170.902 145.557 171.949 145.336C172.997 145.115 174.089 145.268 175.035 145.768C175.502 146.017 175.921 146.347 176.274 146.741C176.61 147.147 176.897 147.525 177.24 147.896C177.898 148.635 178.654 149.28 179.487 149.814C180.305 150.349 181.234 150.691 182.203 150.815C183.172 150.921 184.151 150.823 185.08 150.528C185.992 150.212 186.827 149.707 187.53 149.046C188.234 148.385 188.789 147.583 189.161 146.692C189.907 144.914 190.15 142.964 189.861 141.057C189.615 139.168 188.637 137.451 187.138 136.276C186.391 135.718 185.531 135.328 184.618 135.135C184.158 135.032 183.689 134.976 183.218 134.967C182.759 134.969 182.301 135.021 181.853 135.121C180.062 135.62 178.427 136.564 177.1 137.865C176.358 138.498 175.428 138.867 174.454 138.915C173.496 138.954 172.544 138.739 171.696 138.292C170.847 137.856 170.144 137.182 169.673 136.353C169.445 135.934 169.3 135.476 169.246 135.002C169.2 134.536 169.2 134.067 169.246 133.602C169.365 131.803 169.491 130.011 169.61 128.24C170.077 121.151 170.543 114.322 171.01 107.751L171.157 107.919L105.847 103.453L105.952 103.362C105.42 112.182 105.007 119.105 104.72 123.837C104.573 126.189 104.461 127.995 104.384 129.22C104.342 129.829 104.314 130.284 104.293 130.62C104.272 130.956 104.3 131.075 104.3 131.075Z" fill="#263238"/>
<path d="M96.6 161.399C96.6 161.399 98.875 159.642 100.562 159.572C102.249 159.502 104.447 160.153 104.881 159.936C105.315 159.719 106.351 158.753 106.981 159.565C107.611 160.377 108.444 163.31 104.93 164.115H102.508C102.508 164.115 102.802 166.53 103.39 167.482C103.978 168.434 112.182 178.773 112.182 178.773C112.182 178.773 113.211 179.795 112.7 180.824C112.189 181.853 109.984 181.265 109.984 181.265C109.984 181.265 108.444 182.665 106.687 181.965C105.816 181.668 104.98 181.276 104.195 180.796C103.627 181.23 102.932 181.466 102.217 181.466C101.503 181.466 100.808 181.23 100.24 180.796C98.189 179.256 91.343 170.681 91.343 170.681L93.786 161.084L96.6 161.399Z" fill="#AE7461"/>
<path d="M89.509 155.729L96.628 161.399L91.399 170.709L80.969 166.922C80.969 166.922 81.27 155.932 89.509 155.729Z" fill="#AE7461"/>
<path d="M169.911 117.53C169.911 117.53 170.275 115.045 175.511 115.892C178.794 116.417 177.079 118.545 177.079 118.545C177.324 118.757 177.514 119.025 177.633 119.327C177.752 119.628 177.795 119.954 177.76 120.277C177.725 120.599 177.612 120.908 177.431 121.177C177.251 121.446 177.007 121.667 176.722 121.821L177.065 122.073C177.065 122.073 179.676 123.382 177.422 125.706C177.65 126.122 177.743 126.598 177.689 127.07C177.635 127.541 177.437 127.984 177.121 128.338C175.994 129.458 173.18 127.96 173.18 127.96C173.18 127.96 169.204 127.897 168.98 126.847C168.907 126.527 168.946 126.191 169.09 125.896C169.234 125.6 169.474 125.363 169.771 125.223C170.696 125.047 171.631 124.935 172.571 124.887C172.571 124.887 169.071 124.845 168.777 124.187C168.217 122.969 168.364 121.73 172.571 121.884C172.571 121.884 169.442 121.821 169.071 121.184C168.7 120.547 169.155 119.518 170.275 118.993C170.942 118.679 171.673 118.528 172.41 118.552C172.41 118.552 169.463 119.105 169.911 117.53Z" fill="#AE7461"/>
</g>
<defs>
<clipPath id="clip0_36_537">
<rect width="350" height="350" fill="white"/>
</clipPath>
</defs>
</svg>
