<svg width="600" height="600" viewBox="0 0 600 600" fill="none" xmlns="http://www.w3.org/2000/svg">
<path d="M148.98 522.384C148.98 522.384 211.56 554.916 283.08 520.62C354.6 486.324 377.88 419.82 414.936 369.924C434.376 343.776 466.176 329.208 490.44 307.224C568.008 236.916 540 119.376 469.056 87.12C407.604 59.196 336.624 69.204 248.676 116.472C160.728 163.74 97.356 194.256 51.18 288.456C5.00403 382.656 71.172 476.796 148.98 522.384Z" fill="#AEB8FE"/>
<path opacity="0.8" d="M148.98 522.384C148.98 522.384 211.56 554.916 283.08 520.62C354.6 486.324 377.88 419.82 414.936 369.924C434.376 343.776 466.176 329.208 490.44 307.224C568.008 236.916 540 119.376 469.056 87.12C407.604 59.196 336.624 69.204 248.676 116.472C160.728 163.74 97.356 194.256 51.18 288.456C5.00403 382.656 71.172 476.796 148.98 522.384Z" fill="white"/>
<path d="M43.992 441.912H527.652" stroke="#263238" stroke-miterlimit="10"/>
<path d="M43.992 350.34H527.652" stroke="#263238" stroke-miterlimit="10"/>
<path d="M43.992 258.768H527.652" stroke="#263238" stroke-miterlimit="10"/>
<path d="M43.992 167.196H527.652" stroke="#263238" stroke-miterlimit="10"/>
<path d="M153.96 115.2V442.128" stroke="#263238" stroke-miterlimit="10"/>
<path d="M444.672 115.2V442.128" stroke="#263238" stroke-miterlimit="10"/>
<path d="M164.76 236.388L161.16 240.18" stroke="#263238" stroke-miterlimit="10"/>
<path d="M226.068 171.732L169.092 231.816" stroke="#263238" stroke-miterlimit="10"/>
<path d="M229.62 181.512L197.616 214.404" stroke="#263238" stroke-miterlimit="10"/>
<path d="M457.116 236.388L453.516 240.18" stroke="#263238" stroke-miterlimit="10"/>
<path d="M518.412 171.732L461.448 231.816" stroke="#263238" stroke-miterlimit="10"/>
<path d="M521.976 181.512L489.972 214.404" stroke="#263238" stroke-miterlimit="10"/>
<path d="M36.744 421.308L33.144 425.1" stroke="#263238" stroke-miterlimit="10"/>
<path d="M98.04 356.64L41.076 416.736" stroke="#263238" stroke-miterlimit="10"/>
<path d="M101.604 366.42L69.588 399.324" stroke="#263238" stroke-miterlimit="10"/>
<path d="M83.856 158.16L80.268 161.952" stroke="#263238" stroke-miterlimit="10"/>
<path d="M145.164 93.4922L88.2 153.576" stroke="#263238" stroke-miterlimit="10"/>
<path d="M148.716 103.272L116.712 136.164" stroke="#263238" stroke-miterlimit="10"/>
<path d="M350.256 158.16L346.668 161.952" stroke="#263238" stroke-miterlimit="10"/>
<path d="M411.564 93.4922L354.6 153.576" stroke="#263238" stroke-miterlimit="10"/>
<path d="M415.116 103.272L383.112 136.164" stroke="#263238" stroke-miterlimit="10"/>
<path d="M267.888 331.512L264.288 335.304" stroke="#263238" stroke-miterlimit="10"/>
<path d="M329.184 266.856L272.22 326.94" stroke="#263238" stroke-miterlimit="10"/>
<path d="M332.748 276.636L300.744 309.528" stroke="#263238" stroke-miterlimit="10"/>
<path d="M513.504 509.58C513.504 509.58 483.792 446.268 490.248 444.444C496.704 442.62 510.24 452.7 510.24 452.7C510.24 452.7 470.52 346.26 480.804 338.004C491.088 329.748 510.288 372 510.288 372C510.288 372 489.78 306.804 492.192 282C494.604 257.196 520.656 281.088 520.656 281.088C520.656 281.088 499.788 192.084 519.168 187.488C538.548 182.892 537.9 289.332 537.9 289.332C537.9 289.332 544.26 213.168 552.024 234.276C559.788 255.384 543.468 326.028 543.468 326.028C543.468 326.028 554.112 302.172 560.028 324.192C565.944 346.212 548.268 435.216 548.268 435.216C548.268 435.216 563.292 420.54 564.696 438.888C566.1 457.236 533.592 514.128 533.592 514.128L515.196 516L513.504 509.58Z" fill="#AEB8FE"/>
<path opacity="0.6" d="M513.504 509.58C513.504 509.58 483.792 446.268 490.248 444.444C496.704 442.62 510.24 452.7 510.24 452.7C510.24 452.7 470.52 346.26 480.804 338.004C491.088 329.748 510.288 372 510.288 372C510.288 372 489.78 306.804 492.192 282C494.604 257.196 520.656 281.088 520.656 281.088C520.656 281.088 499.788 192.084 519.168 187.488C538.548 182.892 537.9 289.332 537.9 289.332C537.9 289.332 544.26 213.168 552.024 234.276C559.788 255.384 543.468 326.028 543.468 326.028C543.468 326.028 554.112 302.172 560.028 324.192C565.944 346.212 548.268 435.216 548.268 435.216C548.268 435.216 563.292 420.54 564.696 438.888C566.1 457.236 533.592 514.128 533.592 514.128L515.196 516L513.504 509.58Z" fill="white"/>
<path d="M519.852 512.4C519.852 512.4 495.084 468.36 499.668 460.092C504.252 451.824 518.016 471.108 518.016 471.108C518.016 471.108 486.816 393.108 491.412 385.776C496.008 378.444 510.684 410.556 510.684 410.556C510.684 410.556 505.176 303.204 514.344 306.864C523.512 310.524 524.4 361.86 524.4 361.86C524.4 361.86 518.904 239.832 527.16 243.504C535.416 247.176 534.504 382.968 534.504 382.968C534.504 382.968 551.016 330.66 553.764 354.516C556.512 378.372 532.668 442.608 532.668 442.608C532.668 442.608 555.6 392.136 558.396 418.8C561.192 445.464 540 494.904 540 494.904C540 494.904 548.256 474.72 548.256 485.724C548.256 496.728 541.836 510.504 541.836 510.504" stroke="#263238" stroke-linecap="round" stroke-linejoin="round"/>
<path d="M451.704 375.888L485.124 448.824L464.1 454.752L439.308 423.888L451.704 375.888Z" fill="#AEB8FE"/>
<g opacity="0.1">
<path d="M445.668 399.24L444.252 404.748L472.008 452.52L475.992 451.404L445.668 399.24Z" fill="black"/>
<path d="M464.256 454.716L468.264 453.588L442.44 411.744L441.06 417.108L464.256 454.716Z" fill="black"/>
<path d="M449.1 385.956L447.636 391.644L479.508 450.408L483.444 449.292L449.1 385.956Z" fill="black"/>
</g>
<path d="M451.704 375.888L485.124 448.824L464.1 454.752L439.308 423.888L451.704 375.888Z" stroke="#263238" stroke-linecap="round" stroke-linejoin="round"/>
<path d="M385.236 355.572L341.712 375.624L364.92 469.788L357.528 509.4H440.1L431.928 466.356L451.968 375.888L406.332 357.156L385.236 355.572Z" fill="#AEB8FE"/>
<g opacity="0.1">
<path d="M385.632 509.4L387.3 471.888C387.318 471.712 387.318 471.535 387.3 471.36L370.2 362.508L365.16 364.824L381.96 471.924L380.292 509.4H385.632Z" fill="black"/>
<path d="M395.64 462.912C395.64 462.912 395.64 462.816 395.64 462.768L382.08 357.024L377.004 359.424L390.324 463.428L393.756 509.46H399.108L395.64 462.912Z" fill="black"/>
<path d="M370.536 509.4L375.336 472.788C375.378 472.517 375.378 472.242 375.336 471.972L357.036 368.592L352.032 370.896L370.032 472.5L365.232 509.4H370.536Z" fill="black"/>
<path d="M450.072 375.108L445.044 373.044L426.696 467.928C426.642 468.238 426.642 468.554 426.696 468.864L433.296 509.4H438.708L432 468.48L432.156 467.7L431.892 466.356L435.912 448.248L450.072 375.108Z" fill="black"/>
<path d="M401.976 366.348L396.648 366.504L401.076 509.4H406.404L401.976 366.348Z" fill="black"/>
<path d="M420.684 467.784L438.408 370.32L433.368 368.244L415.368 467.292C415.308 467.597 415.308 467.911 415.368 468.216L422.4 509.4H427.812L420.684 467.784Z" fill="black"/>
<path d="M411 464.472L424.476 364.596L419.376 362.508L405.672 464.088C405.643 464.303 405.643 464.521 405.672 464.736L410.64 509.4H416.004L411 464.472Z" fill="black"/>
</g>
<path d="M385.236 355.572L341.712 375.624L364.92 469.788L357.528 509.4H440.1L431.928 466.356L451.968 375.888L406.332 357.156L385.236 355.572Z" stroke="#263238" stroke-linecap="round" stroke-linejoin="round"/>
<path d="M341.712 375.624L307.428 449.868L329.316 454.488L354.108 423.624L341.712 375.624Z" fill="#AEB8FE"/>
<g opacity="0.1">
<path d="M350.724 410.52L326.844 453.972L329.316 454.488L335.028 447.372L352.176 416.172L350.724 410.52Z" fill="black"/>
<path d="M348.576 402.215L347.016 396.167L320.364 452.603L324.384 453.455L348.576 402.215Z" fill="black"/>
<path d="M311.664 450.756L315.684 451.608L345.168 389.004L343.596 382.932L311.664 450.756Z" fill="black"/>
</g>
<path d="M340.812 387.984L352.908 420.444L340.764 401.856" stroke="#263238" stroke-miterlimit="10"/>
<path d="M341.712 375.624L307.428 449.868L329.316 454.488L354.108 423.624L341.712 375.624Z" stroke="#263238" stroke-linecap="round" stroke-linejoin="round"/>
<path d="M330.888 443.412L374.148 492.744L365.748 502.236L311.232 458.82C311.232 458.82 303.756 455.22 308.244 447.9" fill="#AEB8FE"/>
<g opacity="0.1">
<path d="M369.612 496.176L373.668 492.708L351.852 467.316L330.888 443.412L325.248 444.528L369.612 496.176Z" fill="black"/>
<path d="M360.972 498.456L364.584 501.336L367.98 498.348L321.324 445.308L315.276 446.496L360.972 498.456Z" fill="black"/>
</g>
<path d="M330.888 443.412L374.148 492.744L365.748 502.236L311.232 458.82C311.232 458.82 303.756 455.22 308.244 447.9" stroke="#263238" stroke-linecap="round" stroke-linejoin="round"/>
<path d="M367.2 490.884C368.4 490.212 389.268 485.22 389.556 487.776C389.844 490.332 396.06 493.152 398.892 493.152C401.724 493.152 404.556 490.884 405.12 494.28C405.684 497.676 402.576 497.964 400.032 498.24C397.488 498.516 388.704 495.696 388.704 495.696C388.704 495.696 380.496 502.488 377.1 504.18C373.704 505.872 367.5 505.38 365.22 503.616C362.94 501.852 359.856 494.844 367.2 490.884Z" fill="white" stroke="#263238" stroke-linecap="round" stroke-linejoin="round"/>
<path d="M386.46 487.488C386.46 487.488 394.38 485.22 396.06 486.072C397.74 486.924 398.616 503.904 398.616 503.904C398.616 503.904 397.764 505.596 396.06 503.904C394.356 502.212 388.704 489.504 388.704 489.504" fill="white"/>
<path d="M386.46 487.488C386.46 487.488 394.38 485.22 396.06 486.072C397.74 486.924 398.616 503.904 398.616 503.904C398.616 503.904 397.764 505.596 396.06 503.904C394.356 502.212 388.704 489.504 388.704 489.504" stroke="#263238" stroke-linecap="round" stroke-linejoin="round"/>
<path d="M382.488 488.052C382.488 488.052 390.696 486.072 392.4 489.18C394.104 492.288 398.34 506.16 394.944 506.736C391.548 507.312 390.42 502.764 390.42 502.764L385.044 492.864L381.36 492.3" fill="white"/>
<path d="M382.488 488.052C382.488 488.052 390.696 486.072 392.4 489.18C394.104 492.288 398.34 506.16 394.944 506.736C391.548 507.312 390.42 502.764 390.42 502.764L385.044 492.864L381.36 492.3" stroke="#263238" stroke-linecap="round" stroke-linejoin="round"/>
<path d="M379.668 490.596C379.668 490.596 383.628 488.904 385.608 490.32C387.588 491.736 396.648 506.16 394.944 506.736C393.24 507.312 389.28 507.012 388.716 505.884C388.152 504.756 380.796 495.084 380.796 495.084" fill="white"/>
<path d="M379.668 490.596C379.668 490.596 383.628 488.904 385.608 490.32C387.588 491.736 396.648 506.16 394.944 506.736C393.24 507.312 389.28 507.012 388.716 505.884C388.152 504.756 380.796 495.084 380.796 495.084" stroke="#263238" stroke-linecap="round" stroke-linejoin="round"/>
<path d="M376.8 495.408C376.8 495.408 380.472 492.012 382.452 493.152C384.432 494.292 392.64 505.032 390.948 506.16C389.256 507.288 388.116 506.16 386.424 503.904C385.21 502.382 383.779 501.048 382.176 499.944L378.78 501.072" fill="white"/>
<path d="M376.8 495.408C376.8 495.408 380.472 492.012 382.452 493.152C384.432 494.292 392.64 505.032 390.948 506.16C389.256 507.288 388.116 506.16 386.424 503.904C385.21 502.382 383.779 501.048 382.176 499.944L378.78 501.072" stroke="#263238" stroke-linecap="round" stroke-linejoin="round"/>
<path d="M460.416 444.996L446.016 493.992L456.432 501.264L479.964 463.44C479.964 463.44 489.636 452.52 483.564 446.376" fill="#AEB8FE"/>
<g opacity="0.1">
<path d="M456.756 500.676L456.936 500.376L476.868 445.98L471.3 445.644L452.04 498.228L454.2 499.728L456.756 500.676Z" fill="black"/>
<path d="M446.04 494.028L450.564 497.196L469.164 445.668L468.648 445.488L463.668 445.188L446.04 494.028Z" fill="black"/>
<path d="M485.208 449.244C484.889 448.16 484.303 447.174 483.504 446.376L480.648 446.208L465.6 486.516L479.904 463.5L485.208 449.244Z" fill="black"/>
</g>
<path d="M460.416 444.996L446.016 493.992L456.432 501.264L479.964 463.44C479.964 463.44 489.636 452.52 483.564 446.376" stroke="#263238" stroke-linecap="round" stroke-linejoin="round"/>
<path d="M453.264 490.884C452.064 490.212 431.184 485.22 430.908 487.776C430.632 490.332 424.392 493.152 421.572 493.152C418.752 493.152 415.908 490.884 415.344 494.28C414.78 497.676 417.888 497.964 420.432 498.24C422.976 498.516 431.76 495.696 431.76 495.696C431.76 495.696 439.968 502.488 443.364 504.18C446.76 505.872 452.964 505.38 455.244 503.616C457.524 501.852 460.62 494.844 453.264 490.884Z" fill="white" stroke="#263238" stroke-linecap="round" stroke-linejoin="round"/>
<path d="M434.016 487.488C434.016 487.488 426.096 485.22 424.416 486.072C422.736 486.924 421.872 503.904 421.872 503.904C421.872 503.904 422.724 505.596 424.416 503.904C426.108 502.212 431.784 489.504 431.784 489.504" fill="white"/>
<path d="M434.016 487.488C434.016 487.488 426.096 485.22 424.416 486.072C422.736 486.924 421.872 503.904 421.872 503.904C421.872 503.904 422.724 505.596 424.416 503.904C426.108 502.212 431.784 489.504 431.784 489.504" stroke="#263238" stroke-linecap="round" stroke-linejoin="round"/>
<path d="M438 488.052C438 488.052 429.804 486.072 428.1 489.18C426.396 492.288 422.1 506.16 425.556 506.736C429.012 507.312 430.08 502.764 430.08 502.764L435.456 492.864L439.14 492.3" fill="white"/>
<path d="M438 488.052C438 488.052 429.804 486.072 428.1 489.18C426.396 492.288 422.1 506.16 425.556 506.736C429.012 507.312 430.08 502.764 430.08 502.764L435.456 492.864L439.14 492.3" stroke="#263238" stroke-linecap="round" stroke-linejoin="round"/>
<path d="M440.808 490.596C440.808 490.596 436.848 488.904 434.868 490.32C432.888 491.736 423.828 506.16 425.532 506.736C427.236 507.312 431.184 507.012 431.76 505.884C432.336 504.756 439.68 495.084 439.68 495.084" fill="white"/>
<path d="M440.808 490.596C440.808 490.596 436.848 488.904 434.868 490.32C432.888 491.736 423.828 506.16 425.532 506.736C427.236 507.312 431.184 507.012 431.76 505.884C432.336 504.756 439.68 495.084 439.68 495.084" stroke="#263238" stroke-linecap="round" stroke-linejoin="round"/>
<path d="M443.64 495.408C443.64 495.408 439.968 492 438 493.2C436.032 494.4 427.812 505.08 429.516 506.208C431.22 507.336 432.348 506.208 434.04 503.952C435.254 502.43 436.685 501.096 438.288 499.992L441.684 501.12" fill="white"/>
<path d="M443.64 495.408C443.64 495.408 439.968 492 438 493.2C436.032 494.4 427.812 505.08 429.516 506.208C431.22 507.336 432.348 506.208 434.04 503.952C435.254 502.43 436.685 501.096 438.288 499.992L441.684 501.12" stroke="#263238" stroke-linecap="round" stroke-linejoin="round"/>
<path d="M388.392 350.556C388.392 350.556 381.54 352.668 378.636 356.892C375.732 361.116 379.164 393.816 379.164 393.816L401.064 381.684L424.008 396.192C424.008 396.192 421.896 362.7 420.048 357.948C418.2 353.196 406.596 347.664 402.636 348.192C398.676 348.72 388.392 350.556 388.392 350.556Z" fill="#AEB8FE" stroke="#263238" stroke-linecap="round" stroke-linejoin="round"/>
<path d="M385.236 332.364V362.7L399.744 401.736L412.14 361.908V332.1L385.236 332.364Z" fill="white" stroke="#263238" stroke-linecap="round" stroke-linejoin="round"/>
<path d="M385.2 343.26C389.295 346.133 394.178 347.671 399.18 347.664C403.753 347.667 408.233 346.378 412.104 343.944V332.1L385.2 332.4V343.26Z" fill="#263238" stroke="#263238" stroke-linecap="round" stroke-linejoin="round"/>
<path d="M399.216 340.8C392.735 340.8 386.52 338.226 381.936 333.644C377.352 329.063 374.775 322.849 374.772 316.368L370.464 282C370.464 274.361 373.498 267.036 378.899 261.635C384.3 256.234 391.626 253.2 399.264 253.2C406.902 253.2 414.228 256.234 419.629 261.635C425.03 267.036 428.064 274.361 428.064 282L423.6 316.32C423.606 319.528 422.981 322.706 421.759 325.673C420.537 328.64 418.742 331.337 416.478 333.61C414.214 335.883 411.524 337.688 408.562 338.922C405.6 340.155 402.424 340.793 399.216 340.8Z" fill="white" stroke="#263238" stroke-linecap="round" stroke-linejoin="round"/>
<path d="M405.492 306.96C405.492 306.96 411.72 301.74 419.16 307.368" stroke="#263238" stroke-linecap="round" stroke-linejoin="round"/>
<path d="M394.236 306.36C392.386 305.182 390.184 304.685 388.008 304.956" stroke="#263238" stroke-linecap="round" stroke-linejoin="round"/>
<path d="M407.904 294.504C407.904 294.504 414.54 291.288 418.56 297.516" stroke="#263238" stroke-linecap="round" stroke-linejoin="round"/>
<path d="M397.2 320.832C397.2 320.832 400.02 323.04 402.432 320.832" stroke="#263238" stroke-linecap="round" stroke-linejoin="round"/>
<path d="M394.44 325.656C394.44 325.656 400.272 329.256 403.68 325.656" stroke="#263238" stroke-linecap="round" stroke-linejoin="round"/>
<path d="M411.504 278.4C411.504 278.4 387.408 300.648 380.688 316.86C373.968 333.072 379.992 350.004 383.7 354.876C387.408 359.748 389.7 360.432 389.7 360.432C389.7 360.432 376.956 365.304 368.616 352.56C360.276 339.816 362.352 325.44 364.908 315.48C367.464 305.52 366.756 276.312 372.552 266.58C378.348 256.848 386.688 249.66 400.596 251.28C414.504 252.9 421.908 260.088 426.312 269.124C430.716 278.16 428.628 293.46 430.02 300.18C431.412 306.9 437.436 327.06 438.828 339.108C440.22 351.156 423.792 359.736 421.2 360.9C419.438 361.641 417.554 362.048 415.644 362.1C415.644 362.1 421.2 334.296 422.364 318.3C423.528 302.304 423.6 292.8 423.6 292.8C423.6 292.8 412.668 279.096 411.504 278.4Z" fill="#263238"/>
<path d="M408.684 262.8C408.684 262.8 405.84 270.636 385.38 293.088C364.92 315.54 359.364 336.96 365.58 357.888" stroke="#707070" stroke-miterlimit="10"/>
<path d="M403.632 254.976C403.632 254.976 392.376 264.3 378.432 278.268C369.862 286.914 362.543 296.717 356.688 307.392" stroke="#707070" stroke-miterlimit="10"/>
<path d="M413.724 264.684C413.724 264.684 422.268 280.212 426.924 289.536C431.58 298.86 437.028 351.264 420.72 369.936" stroke="#707070" stroke-miterlimit="10"/>
<path d="M407.904 251.868L411.504 278.4" stroke="#707070" stroke-miterlimit="10"/>
<path d="M411.504 278.4C411.504 278.4 387.408 300.648 380.688 316.86C373.968 333.072 379.992 350.004 383.7 354.876C387.408 359.748 389.7 360.432 389.7 360.432C389.7 360.432 376.956 365.304 368.616 352.56C360.276 339.816 362.352 325.44 364.908 315.48C367.464 305.52 366.756 276.312 372.552 266.58C378.348 256.848 386.688 249.66 400.596 251.28C414.504 252.9 421.908 260.088 426.312 269.124C430.716 278.16 428.628 293.46 430.02 300.18C431.412 306.9 437.436 327.06 438.828 339.108C440.22 351.156 423.792 359.736 421.2 360.9C419.438 361.641 417.554 362.048 415.644 362.1C415.644 362.1 421.2 334.296 422.364 318.3C423.528 302.304 423.6 292.8 423.6 292.8C423.6 292.8 412.668 279.096 411.504 278.4Z" stroke="#263238" stroke-linecap="round" stroke-linejoin="round"/>
<path d="M368.088 293.928H364.536C362.574 293.928 360.984 295.518 360.984 297.48V311.7C360.984 313.661 362.574 315.252 364.536 315.252H368.088C370.05 315.252 371.64 313.661 371.64 311.7V297.48C371.64 295.518 370.05 293.928 368.088 293.928Z" fill="white" stroke="#263238" stroke-linecap="round" stroke-linejoin="round"/>
<path d="M433.212 293.928H429.66C427.698 293.928 426.108 295.518 426.108 297.48V311.7C426.108 313.661 427.698 315.252 429.66 315.252H433.212C435.174 315.252 436.764 313.661 436.764 311.7V297.48C436.764 295.518 435.174 293.928 433.212 293.928Z" fill="white" stroke="#263238" stroke-linecap="round" stroke-linejoin="round"/>
<path d="M432.36 293.928V282.336C432.36 273.364 428.796 264.76 422.452 258.416C416.108 252.072 407.504 248.508 398.532 248.508C389.559 248.508 380.954 252.071 374.608 258.415C368.262 264.759 364.695 273.363 364.692 282.336V293.928" stroke="#263238" stroke-width="2" stroke-linejoin="round"/>
<path d="M431.436 315.144C431.436 315.144 429.936 326.748 415.74 331.476" stroke="#263238" stroke-linecap="round" stroke-linejoin="round"/>
<path d="M415.2 330.972C415.8 332.712 414.108 334.872 411.408 335.772C408.708 336.672 406.056 336.06 405.408 334.32C404.76 332.58 406.5 330.42 409.188 329.52C411.876 328.62 414.636 329.232 415.2 330.972Z" stroke="#263238" stroke-linecap="round" stroke-linejoin="round"/>
<path d="M172.32 345.936L122.736 369.564L137.04 509.688H235.884L249.864 367.236L203.268 345.6L172.32 345.936Z" fill="#AEB8FE" stroke="#263238" stroke-linecap="round" stroke-linejoin="round"/>
<path d="M192.192 388.692C193.12 388.692 193.872 387.94 193.872 387.012C193.872 386.084 193.12 385.332 192.192 385.332C191.264 385.332 190.512 386.084 190.512 387.012C190.512 387.94 191.264 388.692 192.192 388.692Z" fill="#263238"/>
<path d="M193.872 397.092C193.872 397.424 193.773 397.749 193.589 398.025C193.404 398.302 193.142 398.517 192.835 398.644C192.528 398.771 192.19 398.805 191.864 398.74C191.538 398.675 191.239 398.515 191.004 398.28C190.769 398.045 190.609 397.746 190.544 397.42C190.479 397.094 190.513 396.756 190.64 396.449C190.767 396.142 190.982 395.88 191.259 395.695C191.535 395.511 191.86 395.412 192.192 395.412C192.638 395.412 193.065 395.589 193.38 395.904C193.695 396.219 193.872 396.647 193.872 397.092Z" fill="#263238"/>
<path d="M209.388 353.088L195.84 368.196L190.056 382.872L183.828 367.98L170.724 353.088V326.64H209.388V353.088Z" fill="white" stroke="#263238" stroke-linecap="round" stroke-linejoin="round"/>
<path d="M170.724 338.4C173.274 341.5 176.481 343.996 180.112 345.708C183.743 347.42 187.709 348.305 191.724 348.3C198.203 348.308 204.471 345.991 209.388 341.772V326.64H170.724V338.4Z" fill="#263238" stroke="#263238" stroke-linecap="round" stroke-linejoin="round"/>
<path d="M194.448 252.624H189C175.467 252.624 164.496 263.595 164.496 277.128V316.356C164.496 329.889 175.467 340.86 189 340.86H194.448C207.981 340.86 218.952 329.889 218.952 316.356V277.128C218.952 263.595 207.981 252.624 194.448 252.624Z" fill="white" stroke="#263238" stroke-linecap="round" stroke-linejoin="round"/>
<path d="M196.944 291.744L196.14 311.028C196.124 311.863 195.852 312.674 195.361 313.35C194.869 314.026 194.182 314.535 193.392 314.808C191.94 315.252 190.284 314.808 189.384 311.532" stroke="#263238" stroke-linecap="round" stroke-linejoin="round"/>
<path d="M181.2 318.636H202.8C202.8 318.636 199.02 326.868 191.688 326.868C184.356 326.868 181.2 318.636 181.2 318.636Z" fill="#263238" stroke="#263238" stroke-linecap="round" stroke-linejoin="round"/>
<path d="M182.736 321.528H200.928C201.619 320.624 202.222 319.655 202.728 318.636H181.2C181.61 319.651 182.125 320.62 182.736 321.528Z" fill="white" stroke="#263238" stroke-linecap="round" stroke-linejoin="round"/>
<path d="M180.948 300.42C181.81 300.42 182.508 298.776 182.508 296.748C182.508 294.72 181.81 293.076 180.948 293.076C180.086 293.076 179.388 294.72 179.388 296.748C179.388 298.776 180.086 300.42 180.948 300.42Z" fill="#263238"/>
<path d="M204.276 300.42C205.138 300.42 205.836 298.776 205.836 296.748C205.836 294.72 205.138 293.076 204.276 293.076C203.414 293.076 202.716 294.72 202.716 296.748C202.716 298.776 203.414 300.42 204.276 300.42Z" fill="#263238"/>
<path d="M199.392 287.076C199.392 287.076 204.72 283.74 210.732 289.08" stroke="#263238" stroke-linecap="round" stroke-linejoin="round"/>
<path d="M191.724 252.624C184.503 252.624 177.577 255.493 172.471 260.599C167.365 265.705 164.496 272.631 164.496 279.852V304.656H164.724H166.944V294.432C166.944 294.432 178.056 294.432 191.172 287.328C204.288 280.224 207.6 268.632 207.6 268.632C207.6 268.632 210.492 282.636 213.6 285.3L216.72 287.964V304.86H218.94V279.852C218.94 272.633 216.073 265.709 210.969 260.603C205.866 255.497 198.943 252.627 191.724 252.624Z" fill="#263238" stroke="#263238" stroke-linecap="round" stroke-linejoin="round"/>
<path d="M159.396 291.528H164.496V311.748H159.396C158.098 311.748 156.852 311.232 155.934 310.314C155.016 309.396 154.5 308.15 154.5 306.852V296.4C154.506 295.105 155.025 293.866 155.942 292.953C156.86 292.04 158.102 291.528 159.396 291.528Z" fill="white" stroke="#263238" stroke-linecap="round" stroke-linejoin="round"/>
<path d="M223.728 311.748H218.628V291.528H223.728C224.371 291.528 225.008 291.655 225.602 291.901C226.196 292.147 226.735 292.507 227.19 292.962C227.645 293.417 228.005 293.956 228.251 294.55C228.497 295.144 228.624 295.781 228.624 296.424V306.876C228.618 308.17 228.099 309.41 227.182 310.323C226.264 311.236 225.022 311.748 223.728 311.748Z" fill="white" stroke="#263238" stroke-linecap="round" stroke-linejoin="round"/>
<path d="M160.056 291.528V278.628C160.056 270.258 163.381 262.23 169.3 256.312C175.218 250.393 183.246 247.068 191.616 247.068V247.068C199.985 247.071 208.011 250.397 213.929 256.315C219.847 262.233 223.173 270.259 223.176 278.628V291.528" stroke="#263238" stroke-width="2" stroke-linejoin="round"/>
<path d="M223.2 311.748C223.2 311.748 221.64 323.748 206.976 328.644" stroke="#263238" stroke-linecap="round" stroke-linejoin="round"/>
<path d="M206.4 328.116C207.024 329.916 205.272 332.148 202.488 333.12C199.704 334.092 196.944 333.408 196.32 331.608C195.696 329.808 197.448 327.576 200.232 326.604C203.016 325.632 205.812 326.316 206.4 328.116Z" stroke="#263238" stroke-linecap="round" stroke-linejoin="round"/>
<path d="M122.736 369.564L80.796 458.304L98.1 473.4L129.384 434.136L122.736 369.564Z" fill="#AEB8FE" stroke="#263238" stroke-linecap="round" stroke-linejoin="round"/>
<path d="M119.292 396.768L129.48 431.136L117.384 411.396" stroke="#263238" stroke-miterlimit="10"/>
<path d="M249.864 367.236L289.8 456.432L265.176 467.088L243.204 431.808L249.864 367.236Z" fill="#AEB8FE" stroke="#263238" stroke-linecap="round" stroke-linejoin="round"/>
<path d="M103.428 456.096L139.368 489.708L129.384 501.36L77.136 468.948L83.136 452.976" fill="#AEB8FE"/>
<path d="M103.428 456.096L139.368 489.708L129.384 501.36L77.136 468.948L83.136 452.976" stroke="#263238" stroke-linecap="round" stroke-linejoin="round"/>
<path d="M133.38 487.716C134.844 486.924 159.336 481.056 159.672 484.056C160.008 487.056 167.328 490.38 170.652 490.38C173.976 490.38 177.312 487.716 177.972 491.712C178.632 495.708 174.984 496.032 171.972 496.368C168.96 496.704 158.664 493.368 158.664 493.368C158.664 493.368 149.064 501.36 145.02 503.364C140.976 505.368 133.704 504.684 131.04 502.692C128.376 500.7 124.728 492.372 133.38 487.716Z" fill="white" stroke="#263238" stroke-linecap="round" stroke-linejoin="round"/>
<path d="M156 483.72C156 483.72 165.324 481.056 167.316 482.064C169.308 483.072 170.316 503.028 170.316 503.028C170.316 503.028 169.308 505.02 167.316 503.028C165.324 501.036 158.676 486 158.676 486" fill="white"/>
<path d="M156 483.72C156 483.72 165.324 481.056 167.316 482.064C169.308 483.072 170.316 503.028 170.316 503.028C170.316 503.028 169.308 505.02 167.316 503.028C165.324 501.036 158.676 486 158.676 486" stroke="#263238" stroke-linecap="round" stroke-linejoin="round"/>
<path d="M151.356 484.392C151.356 484.392 160.956 482.064 162.996 485.724C165.036 489.384 169.992 505.692 165.996 506.352C162 507.012 160.668 501.696 160.668 501.696L154.344 490.044L150.024 489.384" fill="white"/>
<path d="M151.356 484.392C151.356 484.392 160.956 482.064 162.996 485.724C165.036 489.384 169.992 505.692 165.996 506.352C162 507.012 160.668 501.696 160.668 501.696L154.344 490.044L150.024 489.384" stroke="#263238" stroke-linecap="round" stroke-linejoin="round"/>
<path d="M148.02 487.38C148.02 487.38 152.688 485.388 155.016 487.056C157.344 488.724 168 505.692 165.996 506.4C163.992 507.108 159.336 506.736 158.676 505.404C158.016 504.072 149.352 492.756 149.352 492.756" fill="white"/>
<path d="M148.02 487.38C148.02 487.38 152.688 485.388 155.016 487.056C157.344 488.724 168 505.692 165.996 506.4C163.992 507.108 159.336 506.736 158.676 505.404C158.016 504.072 149.352 492.756 149.352 492.756" stroke="#263238" stroke-linecap="round" stroke-linejoin="round"/>
<path d="M144.696 493.044C144.696 493.044 149.028 489.048 151.356 490.38C153.684 491.712 163.356 504.36 161.34 505.692C159.324 507.024 158.004 505.692 156.012 503.028C154.586 501.235 152.904 499.662 151.02 498.36L147.024 499.692" fill="white"/>
<path d="M144.696 493.044C144.696 493.044 149.028 489.048 151.356 490.38C153.684 491.712 163.356 504.36 161.34 505.692C159.324 507.024 158.004 505.692 156.012 503.028C154.586 501.235 152.904 499.662 151.02 498.36L147.024 499.692" stroke="#263238" stroke-linecap="round" stroke-linejoin="round"/>
<path d="M259.14 447.6L238.068 492.072L251.628 499.236L291.48 457.008L280.044 444.348" fill="#AEB8FE"/>
<path d="M259.14 447.6L238.068 492.072L251.628 499.236L291.48 457.008L280.044 444.348" stroke="#263238" stroke-linecap="round" stroke-linejoin="round"/>
<path d="M248.616 487.716C247.152 486.924 222.648 481.056 222.324 484.056C222 487.056 214.668 490.38 211.332 490.38C207.996 490.38 204.684 487.716 204.012 491.712C203.34 495.708 207.012 496.032 210.012 496.368C213.012 496.704 223.32 493.368 223.32 493.368C223.32 493.368 232.92 501.36 236.964 503.364C241.008 505.368 248.28 504.684 250.944 502.692C253.608 500.7 257.268 492.372 248.616 487.716Z" fill="white" stroke="#263238" stroke-linecap="round" stroke-linejoin="round"/>
<path d="M225.984 483.72C225.984 483.72 216.66 481.056 214.668 482.064C212.676 483.072 211.668 503.028 211.668 503.028C211.668 503.028 212.664 505.02 214.668 503.028C216.672 501.036 223.32 486 223.32 486" fill="white"/>
<path d="M225.984 483.72C225.984 483.72 216.66 481.056 214.668 482.064C212.676 483.072 211.668 503.028 211.668 503.028C211.668 503.028 212.664 505.02 214.668 503.028C216.672 501.036 223.32 486 223.32 486" stroke="#263238" stroke-linecap="round" stroke-linejoin="round"/>
<path d="M230.64 484.392C230.64 484.392 221.04 482.064 218.988 485.724C216.936 489.384 212.004 505.692 216 506.4C219.996 507.108 221.316 501.744 221.316 501.744L227.64 490.092L231.972 489.432" fill="white"/>
<path d="M230.64 484.392C230.64 484.392 221.04 482.064 218.988 485.724C216.936 489.384 212.004 505.692 216 506.4C219.996 507.108 221.316 501.744 221.316 501.744L227.64 490.092L231.972 489.432" stroke="#263238" stroke-linecap="round" stroke-linejoin="round"/>
<path d="M234 487.38C234 487.38 229.344 485.388 227.016 487.056C224.688 488.724 213.996 505.692 216 506.4C218.004 507.108 222.648 506.736 223.32 505.404C223.992 504.072 232.632 492.756 232.632 492.756" fill="white"/>
<path d="M234 487.38C234 487.38 229.344 485.388 227.016 487.056C224.688 488.724 213.996 505.692 216 506.4C218.004 507.108 222.648 506.736 223.32 505.404C223.992 504.072 232.632 492.756 232.632 492.756" stroke="#263238" stroke-linecap="round" stroke-linejoin="round"/>
<path d="M237.3 493.044C237.3 493.044 232.968 489.048 230.64 490.38C228.312 491.712 218.64 504.36 220.656 505.692C222.672 507.024 223.98 505.692 225.984 503.028C227.41 501.235 229.092 499.662 230.976 498.36L234.972 499.692" fill="white"/>
<path d="M237.3 493.044C237.3 493.044 232.968 489.048 230.64 490.38C228.312 491.712 218.64 504.36 220.656 505.692C222.672 507.024 223.98 505.692 225.984 503.028C227.41 501.235 229.092 499.662 230.976 498.36L234.972 499.692" stroke="#263238" stroke-linecap="round" stroke-linejoin="round"/>
<path d="M311.592 201.852H233.592C229.975 201.852 226.507 203.288 223.948 205.844C221.39 208.4 219.951 211.868 219.948 215.484V238.284C219.939 240.08 220.284 241.86 220.964 243.522C221.644 245.184 222.645 246.696 223.91 247.97C225.176 249.244 226.68 250.256 228.337 250.948C229.995 251.639 231.772 251.997 233.568 252H243.168L230.076 269.124L259.512 252H311.592C313.384 251.995 315.157 251.638 316.811 250.948C318.464 250.258 319.966 249.249 321.229 247.978C322.493 246.708 323.494 245.201 324.175 243.544C324.857 241.887 325.205 240.112 325.2 238.32V215.52C325.206 211.904 323.777 208.432 321.225 205.869C318.673 203.307 315.209 201.862 311.592 201.852Z" fill="white" stroke="#263238" stroke-miterlimit="10"/>
<path d="M261.876 228.492C261.878 229.122 261.694 229.738 261.346 230.262C260.998 230.787 260.502 231.196 259.921 231.439C259.34 231.681 258.701 231.746 258.083 231.625C257.465 231.503 256.898 231.201 256.452 230.757C256.006 230.313 255.702 229.746 255.578 229.129C255.454 228.512 255.517 227.872 255.757 227.29C255.997 226.708 256.405 226.211 256.928 225.861C257.451 225.511 258.067 225.324 258.696 225.324C259.537 225.324 260.344 225.658 260.94 226.251C261.536 226.845 261.873 227.651 261.876 228.492Z" fill="#263238"/>
<path d="M275.748 228.492C275.75 229.122 275.566 229.739 275.217 230.263C274.869 230.788 274.372 231.198 273.79 231.44C273.209 231.682 272.569 231.746 271.951 231.624C271.333 231.501 270.765 231.198 270.319 230.753C269.874 230.307 269.571 229.74 269.449 229.122C269.326 228.504 269.39 227.863 269.632 227.282C269.875 226.7 270.284 226.204 270.809 225.855C271.334 225.507 271.95 225.322 272.58 225.324C273.42 225.324 274.226 225.658 274.82 226.252C275.414 226.846 275.748 227.652 275.748 228.492Z" fill="#263238"/>
<path d="M289.62 228.492C289.62 229.119 289.434 229.731 289.086 230.252C288.738 230.773 288.243 231.179 287.664 231.419C287.085 231.659 286.448 231.722 285.834 231.599C285.219 231.477 284.655 231.175 284.212 230.732C283.769 230.289 283.467 229.725 283.345 229.11C283.223 228.496 283.285 227.859 283.525 227.28C283.765 226.701 284.171 226.206 284.692 225.858C285.213 225.51 285.825 225.324 286.452 225.324C287.292 225.324 288.098 225.658 288.692 226.252C289.286 226.846 289.62 227.652 289.62 228.492Z" fill="#263238"/>
<path d="M470.94 506.076H325.572V511.944H470.94V506.076Z" fill="white" stroke="#263238" stroke-linecap="round" stroke-linejoin="round"/>
<path d="M493.272 506.076H366.564V511.944H493.272V506.076Z" fill="white" stroke="#263238" stroke-linecap="round" stroke-linejoin="round"/>
<path d="M495.732 495.648H374.508L387.576 403.092H508.8L495.732 495.648Z" fill="white" stroke="#263238" stroke-linecap="round" stroke-linejoin="round"/>
<path d="M500.748 495.648H379.524L392.592 403.092H513.816L500.748 495.648Z" fill="#263238" stroke="#263238" stroke-linecap="round" stroke-linejoin="round"/>
<path d="M463.596 452.628L475.764 511.932H444.48L432.324 452.628H463.596ZM442.38 470.232C442.439 470.473 442.578 470.687 442.774 470.839C442.97 470.992 443.212 471.074 443.46 471.072L461.184 470.904C461.35 470.902 461.514 470.862 461.662 470.787C461.811 470.713 461.94 470.606 462.042 470.475C462.143 470.343 462.214 470.19 462.248 470.028C462.283 469.865 462.28 469.697 462.24 469.536L460.644 462.888C460.585 462.646 460.447 462.43 460.251 462.276C460.055 462.121 459.813 462.037 459.564 462.036L441.84 462.204C441.674 462.207 441.51 462.247 441.361 462.321C441.212 462.395 441.082 462.502 440.979 462.633C440.877 462.764 440.805 462.917 440.769 463.079C440.734 463.241 440.734 463.41 440.772 463.572L442.38 470.232Z" fill="white" stroke="#263238" stroke-linecap="round" stroke-linejoin="round"/>
<path d="M255.924 506.076H110.556V511.944H255.924V506.076Z" fill="white" stroke="#263238" stroke-linecap="round" stroke-linejoin="round"/>
<path d="M278.256 506.076H151.548V511.944H278.256V506.076Z" fill="white" stroke="#263238" stroke-linecap="round" stroke-linejoin="round"/>
<path d="M280.716 495.648H159.492L172.56 403.092H293.784L280.716 495.648Z" fill="white" stroke="#263238" stroke-linecap="round" stroke-linejoin="round"/>
<path d="M285.732 495.648H164.508L177.576 403.092H298.8L285.732 495.648Z" fill="#263238" stroke="#263238" stroke-linecap="round" stroke-linejoin="round"/>
<path d="M248.592 452.628L260.748 511.932H229.464L217.308 452.628H248.592ZM227.364 470.232C227.425 470.472 227.565 470.685 227.76 470.837C227.956 470.989 228.196 471.072 228.444 471.072L246.168 470.904C246.334 470.901 246.498 470.861 246.647 470.787C246.796 470.713 246.926 470.606 247.029 470.475C247.131 470.344 247.203 470.191 247.239 470.029C247.274 469.866 247.274 469.698 247.236 469.536L245.628 462.888C245.571 462.645 245.433 462.428 245.237 462.273C245.041 462.118 244.798 462.035 244.548 462.036L226.824 462.204C226.658 462.206 226.494 462.246 226.346 462.321C226.197 462.395 226.068 462.502 225.966 462.633C225.865 462.765 225.794 462.917 225.76 463.08C225.725 463.242 225.728 463.411 225.768 463.572L227.364 470.232Z" fill="white" stroke="#263238" stroke-linecap="round" stroke-linejoin="round"/>
<path d="M552.9 511.932H35.796V517.74H552.9V511.932Z" fill="#263238" stroke="#263238" stroke-linecap="round" stroke-linejoin="round"/>
</svg>
