<svg width="1440" height="224" viewBox="0 0 1440 224" fill="none" xmlns="http://www.w3.org/2000/svg">
<path d="M0 96L20 112C40 128 80 160 120 138.7C160 117 200 43 240 32C280 21 320 75 360 96C400 117 440 107 480 112C520 117 560 139 600 122.7C640 107 680 53 720 48C760 43 800 85 840 122.7C880 160 920 192 960 176C1000 160 1040 96 1080 80C1120 64 1160 96 1200 101.3C1240 107 1280 85 1320 64C1360 43 1400 21 1420 10.7L1440 0V224H1420C1400 224 1360 224 1320 224C1280 224 1240 224 1200 224C1160 224 1120 224 1080 224C1040 224 1000 224 960 224C920 224 880 224 840 224C800 224 760 224 720 224C680 224 640 224 600 224C560 224 520 224 480 224C440 224 400 224 360 224C320 224 280 224 240 224C200 224 160 224 120 224C80 224 40 224 20 224H0V96Z" fill="#444B6E"/>
</svg>
