<svg width="1440" height="293" viewBox="0 0 1440 293" fill="none" xmlns="http://www.w3.org/2000/svg">
<g clip-path="url(#clip0_79_14950)">
<path d="M0 87.9L30 117.2C60 146.5 120 205.1 180 219.75C240 234.4 300 205.1 360 170.917C420 136.733 480 97.6667 540 78.1333C600 58.6 660 58.6 720 78.1333C780 97.6667 840 136.733 900 156.267C960 175.8 1020 175.8 1080 166.033C1140 156.267 1200 136.733 1260 151.383C1320 166.033 1380 214.867 1440 224.633C1500 234.4 1560 205.1 1620 166.033C1680 126.967 1740 78.1333 1800 73.25C1860 68.3667 1920 107.433 1980 102.55C2040 97.6667 2100 48.8333 2160 48.8333C2220 48.8333 2280 97.6667 2340 126.967C2400 156.267 2460 166.033 2520 156.267C2580 146.5 2640 117.2 2700 107.433C2760 97.6667 2820 107.433 2880 112.317C2940 117.2 3000 117.2 3060 122.083C3120 126.967 3180 136.733 3240 141.617C3300 146.5 3360 146.5 3420 151.383C3480 156.267 3540 166.033 3600 146.5C3660 126.967 3720 78.1333 3780 78.1333C3840 78.1333 3900 126.967 3960 126.967C4020 126.967 4080 78.1333 4140 92.7833C4200 107.433 4260 185.567 4290 224.633L4320 263.7V293H4290C4260 293 4200 293 4140 293C4080 293 4020 293 3960 293C3900 293 3840 293 3780 293C3720 293 3660 293 3600 293C3540 293 3480 293 3420 293C3360 293 3300 293 3240 293C3180 293 3120 293 3060 293C3000 293 2940 293 2880 293C2820 293 2760 293 2700 293C2640 293 2580 293 2520 293C2460 293 2400 293 2340 293C2280 293 2220 293 2160 293C2100 293 2040 293 1980 293C1920 293 1860 293 1800 293C1740 293 1680 293 1620 293C1560 293 1500 293 1440 293C1380 293 1320 293 1260 293C1200 293 1140 293 1080 293C1020 293 960 293 900 293C840 293 780 293 720 293C660 293 600 293 540 293C480 293 420 293 360 293C300 293 240 293 180 293C120 293 60 293 30 293H0V87.9Z" fill="url(#paint0_linear_79_14950)"/>
<path opacity="0.9" d="M0 29.3L30 58.6C60 87.9 120 146.5 180 146.5C240 146.5 300 87.9 360 87.9C420 87.9 480 146.5 540 180.683C600 214.867 660 224.633 720 209.983C780 195.333 840 156.267 900 146.5C960 136.733 1020 156.267 1080 146.5C1140 136.733 1200 97.6667 1260 87.9C1320 78.1333 1380 97.6667 1440 122.083C1500 146.5 1560 175.8 1620 180.683C1680 185.567 1740 166.033 1800 136.733C1860 107.433 1920 68.3667 1980 73.25C2040 78.1333 2100 126.967 2160 156.267C2220 185.567 2280 195.333 2340 200.217C2400 205.1 2460 205.1 2520 180.683C2580 156.267 2640 107.433 2700 97.6667C2760 87.9 2820 117.2 2880 131.85C2940 146.5 3000 146.5 3060 141.617C3120 136.733 3180 126.967 3240 136.733C3300 146.5 3360 175.8 3420 156.267C3480 136.733 3540 68.3667 3600 34.1833C3660 1.00136e-05 3720 1.00136e-05 3780 24.4167C3840 48.8333 3900 97.6667 3960 131.85C4020 166.033 4080 185.567 4140 195.333C4200 205.1 4260 205.1 4290 205.1H4320V293H4290C4260 293 4200 293 4140 293C4080 293 4020 293 3960 293C3900 293 3840 293 3780 293C3720 293 3660 293 3600 293C3540 293 3480 293 3420 293C3360 293 3300 293 3240 293C3180 293 3120 293 3060 293C3000 293 2940 293 2880 293C2820 293 2760 293 2700 293C2640 293 2580 293 2520 293C2460 293 2400 293 2340 293C2280 293 2220 293 2160 293C2100 293 2040 293 1980 293C1920 293 1860 293 1800 293C1740 293 1680 293 1620 293C1560 293 1500 293 1440 293C1380 293 1320 293 1260 293C1200 293 1140 293 1080 293C1020 293 960 293 900 293C840 293 780 293 720 293C660 293 600 293 540 293C480 293 420 293 360 293C300 293 240 293 180 293C120 293 60 293 30 293H0V29.3Z" fill="url(#paint1_linear_79_14950)"/>
<path opacity="0.8" d="M0 29.3L30 24.4167C60 19.5333 120 9.76668 180 34.1833C240 58.6 300 117.2 360 151.383C420 185.567 480 195.333 540 166.033C600 136.733 660 68.3667 720 63.4833C780 58.6 840 117.2 900 131.85C960 146.5 1020 117.2 1080 117.2C1140 117.2 1200 146.5 1260 151.383C1320 156.267 1380 136.733 1440 136.733C1500 136.733 1560 156.267 1620 170.917C1680 185.567 1740 195.333 1800 180.683C1860 166.033 1920 126.967 1980 97.6667C2040 68.3667 2100 48.8333 2160 68.3667C2220 87.9 2280 146.5 2340 151.383C2400 156.267 2460 107.433 2520 92.7833C2580 78.1333 2640 97.6667 2700 112.317C2760 126.967 2820 136.733 2880 136.733C2940 136.733 3000 126.967 3060 126.967C3120 126.967 3180 136.733 3240 136.733C3300 136.733 3360 126.967 3420 136.733C3480 146.5 3540 175.8 3600 156.267C3660 136.733 3720 68.3667 3780 34.1833C3840 1.04904e-05 3900 1.04904e-05 3960 29.3C4020 58.6 4080 117.2 4140 151.383C4200 185.567 4260 195.333 4290 200.217L4320 205.1V293H4290C4260 293 4200 293 4140 293C4080 293 4020 293 3960 293C3900 293 3840 293 3780 293C3720 293 3660 293 3600 293C3540 293 3480 293 3420 293C3360 293 3300 293 3240 293C3180 293 3120 293 3060 293C3000 293 2940 293 2880 293C2820 293 2760 293 2700 293C2640 293 2580 293 2520 293C2460 293 2400 293 2340 293C2280 293 2220 293 2160 293C2100 293 2040 293 1980 293C1920 293 1860 293 1800 293C1740 293 1680 293 1620 293C1560 293 1500 293 1440 293C1380 293 1320 293 1260 293C1200 293 1140 293 1080 293C1020 293 960 293 900 293C840 293 780 293 720 293C660 293 600 293 540 293C480 293 420 293 360 293C300 293 240 293 180 293C120 293 60 293 30 293H0V29.3Z" fill="url(#paint2_linear_79_14950)"/>
</g>
<defs>
<linearGradient id="paint0_linear_79_14950" x1="0" y1="293" x2="0" y2="48.8333" gradientUnits="userSpaceOnUse">
<stop stop-color="#AEB8FE"/>
<stop offset="1" stop-color="#444B6E"/>
</linearGradient>
<linearGradient id="paint1_linear_79_14950" x1="0" y1="293" x2="0" y2="7.17169" gradientUnits="userSpaceOnUse">
<stop stop-color="#444B6E"/>
<stop offset="1" stop-color="#AEB8FE"/>
</linearGradient>
<linearGradient id="paint2_linear_79_14950" x1="0" y1="293" x2="0" y2="7.90018" gradientUnits="userSpaceOnUse">
<stop stop-color="#444B6E"/>
<stop offset="1" stop-color="#AEB8FE"/>
</linearGradient>
<clipPath id="clip0_79_14950">
<rect width="1440" height="293" fill="white"/>
</clipPath>
</defs>
</svg>
