<svg width="70" height="70" viewBox="0 0 70 70" fill="none" xmlns="http://www.w3.org/2000/svg">
<path d="M47.76 9.47871C51.1414 9.48881 54.3814 10.8365 56.7724 13.2276C59.1635 15.6186 60.5112 18.8586 60.5213 22.24V47.76C60.5112 51.1414 59.1635 54.3814 56.7724 56.7724C54.3814 59.1635 51.1414 60.5112 47.76 60.5213H22.24C18.8586 60.5112 15.6186 59.1635 13.2276 56.7724C10.8365 54.3814 9.48881 51.1414 9.47871 47.76V22.24C9.48881 18.8586 10.8365 15.6186 13.2276 13.2276C15.6186 10.8365 18.8586 9.48881 22.24 9.47871H47.76ZM47.76 4.375H22.24C12.4141 4.375 4.375 12.4141 4.375 22.24V47.76C4.375 57.5859 12.4141 65.625 22.24 65.625H47.76C57.5859 65.625 65.625 57.5859 65.625 47.76V22.24C65.625 12.4141 57.5859 4.375 47.76 4.375Z" fill="#AEB8FE"/>
<path d="M51.5881 22.24C50.831 22.24 50.0908 22.0155 49.4613 21.5948C48.8318 21.1742 48.3411 20.5763 48.0514 19.8768C47.7616 19.1773 47.6858 18.4076 47.8335 17.665C47.9812 16.9225 48.3458 16.2403 48.8812 15.705C49.4166 15.1696 50.0987 14.805 50.8413 14.6573C51.5838 14.5096 52.3536 14.5854 53.0531 14.8751C53.7526 15.1649 54.3504 15.6555 54.7711 16.2851C55.1917 16.9146 55.4162 17.6547 55.4162 18.4119C55.4173 18.9149 55.319 19.4132 55.127 19.8781C54.935 20.343 54.6531 20.7655 54.2974 21.1212C53.9417 21.4769 53.5193 21.7588 53.0543 21.9508C52.5894 22.1428 52.0911 22.2411 51.5881 22.24ZM35 24.7912C37.0191 24.7912 38.9929 25.3899 40.6717 26.5117C42.3505 27.6334 43.659 29.2278 44.4317 31.0932C45.2044 32.9586 45.4065 35.0113 45.0126 36.9916C44.6187 38.9719 43.6464 40.7909 42.2187 42.2187C40.791 43.6464 38.972 44.6187 36.9916 45.0126C35.0113 45.4065 32.9587 45.2043 31.0933 44.4316C29.2279 43.659 27.6335 42.3505 26.5117 40.6717C25.39 38.9928 24.7912 37.0191 24.7912 35C24.7941 32.2933 25.8706 29.6983 27.7845 27.7844C29.6984 25.8706 32.2934 24.7941 35 24.7912ZM35 19.6875C31.9715 19.6875 29.011 20.5855 26.4928 22.2681C23.9747 23.9506 22.0121 26.3421 20.8531 29.1401C19.6941 31.9381 19.3909 35.0169 19.9817 37.9873C20.5726 40.9576 22.0309 43.686 24.1724 45.8275C26.3139 47.969 29.0424 49.4274 32.0127 50.0182C34.983 50.6091 38.0619 50.3058 40.8598 49.1469C43.6578 47.9879 46.0493 46.0252 47.7319 43.5071C49.4144 40.989 50.3125 38.0285 50.3125 35C50.3125 30.9388 48.6992 27.044 45.8276 24.1724C42.9559 21.3007 39.0611 19.6875 35 19.6875Z" fill="#AEB8FE"/>
</svg>
