<svg width="70" height="70" viewBox="0 0 70 70" fill="none" xmlns="http://www.w3.org/2000/svg">
<g clip-path="url(#clip0_76_12828)">
<path d="M52.9017 12.065C52.4579 11.8356 52.0258 11.5841 51.607 11.3115C50.3894 10.5065 49.273 9.558 48.2819 8.48641C45.8021 5.64903 44.8759 2.77054 44.5348 0.755184H44.5485C44.2635 -0.917655 44.3813 -2 44.3992 -2H33.1044V41.6747C33.1044 42.2611 33.1044 42.8406 33.0798 43.4133C33.0798 43.4845 33.0729 43.5503 33.0688 43.627C33.0688 43.6585 33.0688 43.6914 33.0619 43.7243V43.7489C32.9429 45.316 32.4406 46.8297 31.5991 48.1571C30.7577 49.4844 29.603 50.5846 28.2366 51.361C26.8125 52.1712 25.2018 52.5961 23.5633 52.594C18.3009 52.594 14.036 48.303 14.036 43.0036C14.036 37.7042 18.3009 33.4132 23.5633 33.4132C24.5595 33.4123 25.5495 33.5691 26.4966 33.8777L26.5103 22.3774C23.6351 22.006 20.7141 22.2345 17.9315 23.0485C15.149 23.8625 12.5654 25.2444 10.3437 27.1069C8.3969 28.7983 6.76025 30.8166 5.50736 33.0707C5.03058 33.8927 3.23169 37.196 3.01385 42.557C2.87685 45.5999 3.79068 48.7524 4.22635 50.0553V50.0827C4.50037 50.8499 5.56216 53.4681 7.29254 55.6753C8.68786 57.4458 10.3364 59.001 12.185 60.291V60.2636L12.2124 60.291C17.6803 64.0066 23.7428 63.7627 23.7428 63.7627C24.7923 63.7203 28.3078 63.7627 32.3002 61.8707C36.7282 59.7731 39.2491 56.648 39.2491 56.648C40.8596 54.7807 42.1402 52.6527 43.036 50.3553C44.058 47.6687 44.3992 44.4463 44.3992 43.1584V19.988C44.5362 20.0702 46.3611 21.2773 46.3611 21.2773C46.3611 21.2773 48.9902 22.9624 53.0922 24.0598C56.0351 24.8408 60 25.0052 60 25.0052V13.7926C58.6108 13.9434 55.7898 13.5049 52.9017 12.065V12.065Z" fill="#AEB8FE"/>
</g>
<defs>
<clipPath id="clip0_76_12828">
<rect width="70" height="70" fill="white"/>
</clipPath>
</defs>
</svg>
