<svg width="642" height="708" viewBox="0 0 642 708" fill="none" xmlns="http://www.w3.org/2000/svg">
<path d="M535.268 326.784C538.154 433.943 371.871 655.447 251.572 658.687C131.274 661.928 15.7993 564.513 12.913 457.354C10.0268 350.195 340.286 5.34554 460.585 2.10539C580.884 -1.13476 532.382 219.625 535.268 326.784Z" fill="#AEB8FE" fill-opacity="0.3"/>
<path d="M114.552 456.516L126.984 450.912C126.984 450.912 132.408 426.036 132.468 406.356C132.54 378.756 118.188 343.956 96.3 349.56C74.412 355.164 102.372 386.16 106.872 410.088C111.372 434.016 114.552 456.516 114.552 456.516Z" fill="#AEB8FE"/>
<path opacity="0.15" d="M114.552 456.516L126.984 450.912C126.984 450.912 132.408 426.036 132.468 406.356C132.54 378.756 118.188 343.956 96.3 349.56C74.412 355.164 102.372 386.16 106.872 410.088C111.372 434.016 114.552 456.516 114.552 456.516Z" fill="black"/>
<path d="M121.02 454.284C120.927 454.272 120.837 454.242 120.755 454.195C120.674 454.148 120.602 454.085 120.545 454.011C120.488 453.936 120.447 453.85 120.423 453.759C120.4 453.668 120.395 453.573 120.408 453.48C128.628 392.832 101.424 359.16 101.208 358.824C101.147 358.752 101.101 358.669 101.073 358.579C101.045 358.489 101.035 358.394 101.044 358.3C101.053 358.206 101.08 358.115 101.125 358.032C101.17 357.949 101.231 357.875 101.304 357.816C101.451 357.696 101.639 357.639 101.828 357.657C102.016 357.675 102.19 357.767 102.312 357.912C102.588 358.248 130.188 392.412 121.884 453.672C121.871 453.771 121.838 453.866 121.787 453.951C121.736 454.036 121.667 454.11 121.586 454.168C121.505 454.225 121.413 454.265 121.315 454.285C121.218 454.305 121.117 454.305 121.02 454.284Z" fill="white"/>
<path d="M106.8 459.996L115.584 456C115.584 456 118.752 438.876 112.404 417.036C106.884 398.028 90.12 381.036 80.604 383.28C71.088 385.524 70.644 392.088 74.448 399.384C78.252 406.68 103.872 425.748 106.8 459.996Z" fill="#AEB8FE"/>
<path opacity="0.2" d="M106.8 459.996L115.584 456C115.584 456 118.752 438.876 112.404 417.036C106.884 398.028 90.12 381.036 80.604 383.28C71.088 385.524 70.644 392.088 74.448 399.384C78.252 406.68 103.872 425.748 106.8 459.996Z" fill="white"/>
<path d="M111.336 458.604C111.149 458.583 110.978 458.489 110.859 458.344C110.74 458.198 110.683 458.011 110.7 457.824C114.756 419.352 81.252 389.7 80.916 389.424C80.7744 389.3 80.6879 389.125 80.6755 388.937C80.6631 388.749 80.7259 388.564 80.85 388.422C80.9741 388.28 81.1494 388.194 81.3373 388.181C81.5252 388.169 81.7104 388.232 81.852 388.356C82.2 388.656 116.256 418.8 112.128 457.956C112.119 458.051 112.091 458.143 112.047 458.227C112.002 458.311 111.941 458.385 111.867 458.445C111.794 458.505 111.709 458.55 111.617 458.578C111.526 458.605 111.431 458.614 111.336 458.604Z" fill="white"/>
<path d="M520.98 245.7C520.99 245.046 520.901 244.395 520.716 243.768L527.736 235.728L518.736 230.676C517.884 230.088 516.672 230.016 515.028 230.976L499.428 240.036L497.328 241.236C497.696 239.426 497.945 237.594 498.072 235.752C498.132 234.984 498.144 234.252 498.144 233.52L498.432 233.664L503.7 227.508L494.7 222.444C491.676 220.596 486.564 224.244 486.564 225.72C486.564 227.496 487.332 236.796 486.564 239.46C485.796 242.124 477.756 260.496 477.756 260.496V261.696V298.776L507.096 281.808C510.948 279.576 513.624 274.824 513.624 271.608C513.667 270.168 513.401 268.736 512.844 267.408C515.34 265.968 517.824 260.76 517.824 258.552C517.824 255.216 516.684 254.352 516.684 254.352C519.202 252.148 520.747 249.038 520.98 245.7Z" fill="#AEB8FE"/>
<path opacity="0.1" d="M520.98 245.7C520.99 245.046 520.901 244.395 520.716 243.768L527.736 235.728L518.736 230.676C517.884 230.088 516.672 230.016 515.028 230.976L499.428 240.036L497.328 241.236C497.696 239.426 497.945 237.594 498.072 235.752C498.132 234.984 498.144 234.252 498.144 233.52L498.432 233.664L503.7 227.508L494.7 222.444C491.676 220.596 486.564 224.244 486.564 225.72C486.564 227.496 487.332 236.796 486.564 239.46C485.796 242.124 477.756 260.496 477.756 260.496V261.696V298.776L507.096 281.808C510.948 279.576 513.624 274.824 513.624 271.608C513.667 270.168 513.401 268.736 512.844 267.408C515.34 265.968 517.824 260.76 517.824 258.552C517.824 255.216 516.684 254.352 516.684 254.352C519.202 252.148 520.747 249.038 520.98 245.7Z" fill="black"/>
<path d="M487.032 304.044L477.744 298.68L477.72 260.376L486.996 265.74L487.032 304.044Z" fill="#E0E0E0"/>
<path d="M487.032 304.044L477.744 298.68L477.72 260.376L486.996 265.74L487.032 304.044Z" fill="#AEB8FE"/>
<path opacity="0.3" d="M487.032 304.044L477.744 298.68L477.72 260.376L486.996 265.74L487.032 304.044Z" fill="black"/>
<path d="M527.436 264.54C527.436 269.484 524.616 271.224 522.12 272.664C522.663 274.004 522.921 275.443 522.876 276.888C522.876 280.08 520.212 284.856 516.372 287.064L487.032 304.032V267.36V265.74C487.032 265.74 495.096 247.368 495.852 244.692C496.608 242.016 495.852 232.692 495.852 230.976C495.852 229.26 503.136 224.328 505.452 229.416C507.768 234.504 507.96 239.688 506.652 246.456L524.388 236.196C528.132 234.036 529.668 237.132 529.668 239.556C529.668 243 528.06 246.396 525.924 247.692C525.924 247.692 530.004 247.896 530.004 252.648C529.969 254.151 529.597 255.626 528.916 256.966C528.234 258.305 527.261 259.475 526.068 260.388C526.068 260.388 527.436 261.228 527.436 264.54Z" fill="#AEB8FE"/>
<path d="M469.992 319.044L482.808 311.652L482.772 267.072L469.992 274.464V319.044Z" fill="#37474F"/>
<path d="M469.992 319.044L460.704 313.692V269.112L469.992 274.464V319.044Z" fill="#263238"/>
<path d="M473.496 261.72L482.772 267.072L469.992 274.464L460.704 269.112L473.496 261.72Z" fill="#455A64"/>
<path d="M495.804 244.692C495.048 247.368 486.984 265.74 486.984 265.74L477.72 260.52C477.72 260.52 485.76 242.136 486.528 239.484C487.296 236.832 486.528 227.484 486.528 225.744L495.816 230.976C495.804 232.8 496.584 242.04 495.804 244.692Z" fill="#AEB8FE"/>
<path opacity="0.2" d="M495.804 244.692C495.048 247.368 486.984 265.74 486.984 265.74L477.72 260.52C477.72 260.52 485.76 242.136 486.528 239.484C487.296 236.832 486.528 227.484 486.528 225.744L495.816 230.976C495.804 232.8 496.584 242.04 495.804 244.692Z" fill="black"/>
<path d="M604.692 283.62L595.86 278.112C592.596 276.024 587.628 276.24 581.988 279.312C574.188 283.476 567.3 293.988 564.324 302.904L558 298.968C554.796 296.652 550.296 296.16 545.22 298.872C544.596 299.208 544.02 299.58 543.348 299.964L542.376 300.624C542.1 300.816 541.812 300.996 541.536 301.2C541.26 301.404 540.672 301.86 540.252 302.196L539.772 302.568C539.28 302.976 538.788 303.408 538.308 303.852L538.092 304.056C537.552 304.548 537.036 305.064 536.52 305.592C534.937 307.226 533.492 308.988 532.2 310.86C528.6 316.02 526.32 321.78 526.2 326.892C525.888 336.408 531.564 342.672 538.656 346.788L545.628 351.12C549.763 353.769 554.268 355.791 558.996 357.12L570.6 360.612L582.804 344.4C594.48 328.92 608.496 307.464 608.964 293.112C609.12 288.54 607.488 285.288 604.692 283.62Z" fill="#AEB8FE"/>
<path d="M545.484 351.096L538.608 346.8C531.528 342.684 525.84 336.42 526.152 326.904C526.32 321.804 528.636 316.02 532.212 310.872L541.272 316.5C537.672 321.648 535.38 327.432 535.212 332.532C534.936 341.076 539.448 346.992 545.484 351.096Z" fill="#AEB8FE"/>
<g opacity="0.3">
<path opacity="0.3" d="M545.484 351.096L538.608 346.8C531.528 342.684 525.84 336.42 526.152 326.904C526.32 321.804 528.636 316.02 532.212 310.872L541.272 316.5C537.672 321.648 535.38 327.432 535.212 332.532C534.936 341.076 539.448 346.992 545.484 351.096Z" fill="black"/>
</g>
<path d="M604.656 283.56C601.38 281.664 596.52 281.964 591.048 284.892C581.64 289.908 573.528 304.164 572.064 313.692C571.176 305.4 563.736 299.448 554.328 304.488C549.106 307.423 544.636 311.531 541.272 316.488L532.212 310.86L532.668 310.212C532.8 310.032 532.92 309.864 533.064 309.684L534.072 308.364C535.048 307.16 536.09 306.01 537.192 304.92C537.456 304.632 537.744 304.368 538.02 304.104L538.62 303.552C540.644 301.722 542.875 300.135 545.268 298.824C547.426 297.603 549.868 296.969 552.348 296.988C554.399 297.043 556.386 297.717 558.048 298.92L564.324 302.784C567.288 293.88 574.188 283.38 582 279.216C587.64 276.192 592.596 275.976 595.86 278.016L604.656 283.56Z" fill="#AEB8FE"/>
<path opacity="0.1" d="M604.656 283.56C601.38 281.664 596.52 281.964 591.048 284.892C581.64 289.908 573.528 304.164 572.064 313.692C571.176 305.4 563.736 299.448 554.328 304.488C549.106 307.423 544.636 311.531 541.272 316.488L532.212 310.86L532.668 310.212C532.8 310.032 532.92 309.864 533.064 309.684L534.072 308.364C535.048 307.16 536.09 306.01 537.192 304.92C537.456 304.632 537.744 304.368 538.02 304.104L538.62 303.552C540.644 301.722 542.875 300.135 545.268 298.824C547.426 297.603 549.868 296.969 552.348 296.988C554.399 297.043 556.386 297.717 558.048 298.92L564.324 302.784C567.288 293.88 574.188 283.38 582 279.216C587.64 276.192 592.596 275.976 595.86 278.016L604.656 283.56Z" fill="black"/>
<path d="M461.34 191.172L452.46 185.652L449.052 192.516L453.852 197.76C453.852 197.76 454.14 198.792 456.48 196.98C458.36 195.278 459.996 193.323 461.34 191.172Z" fill="#AEB8FE"/>
<path opacity="0.3" d="M461.34 191.172L452.46 185.652L449.052 192.516L453.852 197.76C453.852 197.76 454.14 198.792 456.48 196.98C458.36 195.278 459.996 193.323 461.34 191.172Z" fill="black"/>
<path d="M454.632 203.304C454.632 214.104 451.524 227.304 445.764 239.448C439.188 253.344 429.18 266.028 416.484 272.82C409.212 276.708 402.552 277.524 397.032 275.796L388.152 270.276C393.912 268.08 399.756 263.328 404.796 256.788L399.348 253.392C397.47 252.101 396.177 250.122 395.748 247.884C397.066 247.49 398.313 246.891 399.444 246.108L395.844 243.852C393.12 242.16 391.584 238.32 391.836 233.304C393.809 233.614 395.83 233.264 397.584 232.308C397.025 232.109 396.496 231.834 396.012 231.492C391.812 228.504 391.104 220.38 394.344 211.98L403.2 217.488C408.096 218.808 414 218.328 420.24 215.4C418.716 205.884 425.136 192.504 433.44 188.064C437.136 186.096 440.412 186.348 442.644 188.376C445.73 185.914 448.514 183.094 450.936 179.976L459.816 185.496C458.678 189.967 456.636 194.157 453.816 197.808C456.546 195.907 459.047 193.697 461.268 191.22C459.474 195.464 457.251 199.513 454.632 203.304Z" fill="#AEB8FE"/>
<path d="M454.632 203.304C454.632 214.104 451.524 227.304 445.764 239.448C439.188 253.344 429.18 266.028 416.484 272.82C409.212 276.708 402.552 277.524 397.032 275.796C403.812 273.204 410.7 267.096 416.232 258.672C410.616 261.528 406.032 259.224 404.616 253.404C406.777 252.717 408.76 251.561 410.424 250.02C404.304 251.688 400.272 246.684 400.668 238.824C402.645 239.134 404.67 238.784 406.428 237.828C405.979 237.666 405.549 237.457 405.144 237.204C400.692 234.396 399.864 226.08 403.188 217.5C404.136 221.976 412.44 225.432 419.616 225.324C426.552 225.216 428.94 221.184 429.072 220.932C427.548 211.416 433.98 198.036 442.272 193.596C445.956 191.628 449.232 191.88 451.476 193.896C454.566 191.438 457.35 188.617 459.768 185.496C458.63 189.967 456.588 194.157 453.768 197.808C456.498 195.907 458.999 193.697 461.22 191.22C459.441 195.462 457.234 199.511 454.632 203.304Z" fill="#AEB8FE"/>
<path opacity="0.1" d="M459.828 185.448C457.409 188.564 454.629 191.384 451.548 193.848C450.973 193.322 450.3 192.914 449.568 192.648L442.656 188.4C445.742 185.938 448.526 183.118 450.948 180L459.828 185.448Z" fill="black"/>
<path opacity="0.3" d="M410.472 250.02C408.808 251.562 406.825 252.717 404.664 253.404L395.796 247.884C397.114 247.491 398.361 246.891 399.492 246.108L404.52 249.228L404.676 249.336L404.904 249.48C405.747 249.943 406.675 250.23 407.633 250.322C408.59 250.415 409.556 250.312 410.472 250.02Z" fill="black"/>
<path opacity="0.1" d="M429.132 220.92C428.868 221.388 426.42 225.168 419.7 225.276C412.5 225.384 404.22 221.928 403.272 217.452C404.793 217.858 406.355 218.092 407.928 218.148C412.218 218.211 416.462 217.257 420.312 215.364L429.132 220.92Z" fill="black"/>
<path opacity="0.2" d="M403.2 217.5L394.332 211.992C391.092 220.392 391.8 228.516 396 231.504L396.6 231.876L397.416 232.392L405.168 237.192C400.8 234.408 399.912 226.092 403.2 217.5Z" fill="black"/>
<path opacity="0.3" d="M406.476 237.828C404.718 238.784 402.693 239.134 400.716 238.824L391.848 233.304C393.763 233.606 395.724 233.282 397.44 232.38L405.192 237.18C405.598 237.437 406.028 237.654 406.476 237.828Z" fill="black"/>
<path opacity="0.3" d="M416.28 258.672C410.7 267.072 403.812 273.204 397.08 275.796L388.2 270.276C393.96 268.068 399.804 263.328 404.844 256.788L408.3 258.936C410.4 260.256 413.16 260.256 416.28 258.672Z" fill="black"/>
<path opacity="0.2" d="M449.628 192.708C447.612 191.88 445.08 192.12 442.332 193.584C434.04 198.024 427.608 211.404 429.132 220.92L420.264 215.4C418.74 205.884 425.16 192.504 433.464 188.064C437.16 186.096 440.436 186.348 442.668 188.376L449.628 192.708Z" fill="black"/>
<path opacity="0.2" d="M404.52 249.228L399.492 246.108L395.892 243.852C393.168 242.16 391.632 238.32 391.884 233.304L400.752 238.824C400.476 243.696 401.928 247.464 404.52 249.228Z" fill="black"/>
<path opacity="0.2" d="M408 258.768L404.796 256.8L399.348 253.416C397.466 252.124 396.172 250.139 395.748 247.896L404.616 253.416C405.039 255.559 406.246 257.467 408 258.768Z" fill="black"/>
<path d="M572.916 414.6L574.236 412.464L567.528 408.06C561.78 403.98 553.452 404.16 544.2 409.536C526.944 419.568 513 443.892 513.06 463.848C513.06 473.304 516.252 480.084 521.4 483.54L528.024 487.908L529.128 486.096C533.652 486.408 538.86 485.064 544.404 481.836C561.672 471.804 575.604 447.492 575.604 427.524C575.691 423.069 574.772 418.651 572.916 414.6Z" fill="#AEB8FE"/>
<path opacity="0.2" d="M572.916 414.6L574.236 412.464L567.528 408.06C561.78 403.98 553.452 404.16 544.2 409.536C526.944 419.568 513 443.892 513.06 463.848C513.06 473.304 516.252 480.084 521.4 483.54L528.024 487.908L529.128 486.096C533.652 486.408 538.86 485.064 544.404 481.836C561.672 471.804 575.604 447.492 575.604 427.524C575.691 423.069 574.772 418.651 572.916 414.6Z" fill="black"/>
<path d="M582.384 432C582.444 451.956 568.5 476.28 551.184 486.312C533.868 496.344 519.888 488.292 519.84 468.312C519.792 448.332 533.724 424.032 550.98 414C568.236 403.968 582.324 412.056 582.384 432Z" fill="#AEB8FE"/>
<path d="M577.2 435.048C577.2 451.68 565.632 471.948 551.256 480.312C536.88 488.676 525.168 481.956 525.12 465.324C525.072 448.692 536.688 428.424 551.076 420.06C565.464 411.696 577.128 418.404 577.2 435.048Z" fill="white"/>
<path d="M571.944 438.06C571.944 451.368 562.68 467.58 551.184 474.276C539.688 480.972 530.34 475.608 530.304 462.276C530.268 448.944 539.556 432.756 551.064 426.06C562.572 419.364 571.92 424.8 571.944 438.06Z" fill="#AEB8FE"/>
<path d="M566.76 441.096C566.76 451.08 559.812 463.236 551.16 468.264C542.508 473.292 535.56 469.248 535.488 459.276C535.416 449.304 542.424 437.124 551.088 432.108C559.752 427.092 566.724 431.124 566.76 441.096Z" fill="white"/>
<path d="M551.1 438.132C545.34 441.48 540.696 449.592 540.72 456.24C540.744 462.888 545.412 465.588 551.172 462.24C556.932 458.892 561.576 450.78 561.552 444.132C561.528 437.484 556.86 434.784 551.1 438.132Z" fill="#AEB8FE"/>
<path d="M551.112 444.156C549.598 445.154 548.34 446.494 547.44 448.068C546.54 449.642 546.022 451.405 545.928 453.216C545.928 456.54 548.268 457.884 551.148 456.216C552.665 455.22 553.925 453.88 554.828 452.306C555.731 450.732 556.25 448.968 556.344 447.156C556.332 443.832 553.992 442.488 551.112 444.156Z" fill="white"/>
<path d="M603.276 477.06L596.316 474.168L591.996 473.964V474.744L598.596 478.56L603.276 477.84V477.06Z" fill="#AEB8FE"/>
<path d="M591.996 473.964L596.316 474.168L603.276 477.06L598.596 477.78L591.996 473.964Z" fill="#AEB8FE"/>
<path opacity="0.2" d="M598.596 478.56V477.78L603.276 477.06V477.84L598.596 478.56Z" fill="black"/>
<path opacity="0.1" d="M598.596 477.78L591.996 473.964V474.744L598.596 478.56V477.78Z" fill="black"/>
<path d="M562.344 453.108L551.652 450.18V451.668L556.356 458.052L558.936 455.58L562.344 454.596V453.108Z" fill="#37474F"/>
<path d="M551.652 450.18L556.356 456.564L558.936 454.104L562.344 453.108L551.652 450.18Z" fill="#455A64"/>
<path d="M556.356 456.564V458.052L558.936 455.58V454.104L556.356 456.564Z" fill="#263238"/>
<path d="M558.936 454.104L562.344 453.108V454.596L558.936 455.58V454.104Z" fill="#263238"/>
<path d="M559.392 454.092C559.316 454.045 559.229 454.021 559.14 454.021C559.051 454.021 558.964 454.045 558.888 454.092C558.685 454.224 558.514 454.401 558.389 454.609C558.265 454.817 558.189 455.05 558.168 455.292C558.157 455.382 558.172 455.474 558.21 455.557C558.248 455.639 558.308 455.71 558.384 455.76L601.92 480.96L602.904 479.184L559.392 454.092Z" fill="#455A64"/>
<path d="M558.324 454.8C558.229 454.99 558.176 455.199 558.168 455.412C558.157 455.502 558.172 455.594 558.21 455.676C558.248 455.759 558.308 455.829 558.384 455.88L601.92 481.08L602.364 480.276L558.324 454.8Z" fill="#37474F"/>
<path d="M602.4 479.292C602.198 479.425 602.03 479.602 601.907 479.81C601.784 480.018 601.711 480.251 601.692 480.492C601.692 480.948 602.004 481.14 602.4 480.912C602.603 480.781 602.773 480.604 602.895 480.395C603.018 480.187 603.091 479.953 603.108 479.712C603.12 479.256 602.808 479.064 602.4 479.292Z" fill="#263238"/>
<path d="M598.128 478.824V478.044L591.54 474.228V475.02L591.888 477.504L596.88 481.536L598.128 478.836V478.824Z" fill="#AEB8FE"/>
<path opacity="0.2" d="M591.54 474.228L591.9 476.724L591.888 477.504L591.54 475.02V474.228Z" fill="black"/>
<path opacity="0.2" d="M598.128 478.044L596.88 480.744V481.524L598.128 478.824V478.044Z" fill="black"/>
<path opacity="0.1" d="M591.9 476.724L596.88 480.744V481.524L591.888 477.504L591.9 476.724Z" fill="black"/>
<path d="M602.988 421.74L596.028 424.632L591.72 424.836V424.056L598.308 420.24L602.988 420.96V421.74Z" fill="#AEB8FE"/>
<path d="M591.72 424.836L596.028 424.632L602.988 421.74L598.308 421.02L591.72 424.836Z" fill="#AEB8FE"/>
<path opacity="0.2" d="M598.308 420.24V421.02L602.988 421.74V420.96L598.308 420.24Z" fill="black"/>
<path opacity="0.1" d="M598.308 421.02L591.72 424.836V424.056L598.308 420.24V421.02Z" fill="black"/>
<path d="M562.056 445.692L551.376 448.62V447.132L556.068 440.76L558.648 443.22L562.056 444.204V445.692Z" fill="#37474F"/>
<path d="M551.376 448.62L556.068 442.236L558.648 444.708L562.056 445.692L551.376 448.62Z" fill="#455A64"/>
<path d="M556.068 442.236V440.76L558.648 443.22V444.708L556.068 442.236Z" fill="#263238"/>
<path d="M558.648 444.708L562.056 445.692V444.204L558.648 443.22V444.708Z" fill="#263238"/>
<path d="M559.104 444.708C559.029 444.757 558.942 444.784 558.852 444.784C558.762 444.784 558.675 444.757 558.6 444.708C558.397 444.576 558.226 444.399 558.101 444.191C557.977 443.983 557.901 443.749 557.88 443.508C557.871 443.418 557.886 443.326 557.924 443.244C557.962 443.162 558.021 443.091 558.096 443.04L601.632 417.84L602.616 419.604L559.104 444.708Z" fill="#455A64"/>
<path d="M558 444C557.895 443.813 557.837 443.602 557.832 443.388C557.823 443.297 557.838 443.206 557.876 443.124C557.914 443.042 557.973 442.971 558.048 442.92L601.584 417.72L602.028 418.512L558 444Z" fill="#37474F"/>
<path d="M602.124 419.508C601.922 419.376 601.753 419.199 601.63 418.99C601.507 418.782 601.434 418.549 601.416 418.308C601.416 417.852 601.728 417.66 602.124 417.888C602.326 418.02 602.495 418.197 602.618 418.405C602.741 418.613 602.814 418.847 602.832 419.088C602.832 419.544 602.52 419.736 602.124 419.508Z" fill="#263238"/>
<path d="M597.84 419.976V420.756L591.252 424.572V423.78L591.6 421.296L596.592 417.264L597.84 419.976Z" fill="#AEB8FE"/>
<path opacity="0.2" d="M591.252 424.572L591.612 422.076L591.6 421.296L591.252 423.78V424.572Z" fill="black"/>
<path opacity="0.2" d="M597.84 420.756L596.592 418.056V417.276L597.84 419.976V420.756Z" fill="black"/>
<path opacity="0.1" d="M591.612 422.076L596.592 418.056V417.276L591.6 421.296L591.612 422.076Z" fill="black"/>
<path d="M478.476 443.076L473.304 429.816L477.468 417.816V410.4L464.724 417.756V425.112L470.208 438.132C470.295 438.276 470.425 438.39 470.58 438.456L478.476 443.076Z" fill="#AEB8FE"/>
<path opacity="0.2" d="M478.476 443.076L473.304 429.816L477.468 417.816V410.4L464.724 417.756V425.112L470.208 438.132C470.295 438.276 470.425 438.39 470.58 438.456L478.476 443.076Z" fill="black"/>
<path d="M509.232 386.76C509.163 385.435 508.782 384.145 508.119 382.995C507.455 381.846 506.529 380.87 505.416 380.148L504 379.2C502.817 378.602 501.51 378.291 500.184 378.291C498.858 378.291 497.551 378.602 496.368 379.2L444.444 409.2C443.331 409.922 442.405 410.898 441.741 412.048C441.078 413.197 440.697 414.487 440.628 415.812V433.356C440.697 434.681 441.078 435.971 441.741 437.121C442.405 438.27 443.331 439.246 444.444 439.968L445.908 440.868C447.09 441.471 448.397 441.785 449.724 441.785C451.051 441.785 452.358 441.471 453.54 440.868L472.74 429.768L478.188 442.8C478.266 442.935 478.38 443.045 478.519 443.117C478.657 443.189 478.813 443.22 478.968 443.206C479.124 443.192 479.272 443.134 479.395 443.039C479.518 442.944 479.612 442.815 479.664 442.668L485.448 422.4L505.416 410.868C506.529 410.146 507.455 409.17 508.119 408.021C508.782 406.871 509.163 405.581 509.232 404.256V386.76Z" fill="#AEB8FE"/>
<path opacity="0.2" d="M440.58 433.38C440.649 434.705 441.03 435.995 441.693 437.144C442.357 438.294 443.283 439.27 444.396 439.992L445.86 440.892C446.936 441.435 448.115 441.743 449.319 441.797C450.522 441.851 451.724 441.649 452.844 441.204C451.044 441.876 449.676 440.868 449.676 438.684V421.2C449.718 419.869 450.103 418.571 450.792 417.432L441.696 412.128C441.008 413.264 440.624 414.557 440.58 415.884V433.38Z" fill="black"/>
<path opacity="0.5" d="M509.112 385.68C508.668 384.06 507.18 383.544 505.416 384.552L453.492 414.552C452.358 415.242 451.429 416.224 450.804 417.396L441.708 412.104C442.344 410.937 443.27 409.953 444.396 409.248L496.308 379.248C497.493 378.65 498.802 378.338 500.13 378.338C501.458 378.338 502.767 378.65 503.952 379.248L505.416 380.148C506.372 380.775 507.191 381.588 507.826 382.538C508.461 383.489 508.898 384.557 509.112 385.68Z" fill="white"/>
<path d="M456.768 432.828C456.313 433.007 455.807 433.007 455.352 432.828C455.266 432.765 455.197 432.681 455.151 432.585C455.105 432.489 455.083 432.383 455.088 432.276C455.105 431.817 455.206 431.366 455.388 430.944C455.503 430.557 455.738 430.216 456.06 429.972C456.222 429.899 456.399 429.866 456.576 429.876H457.092C457.582 429.852 458.059 429.712 458.484 429.468C458.903 429.227 459.274 428.909 459.576 428.532C459.884 428.171 460.05 427.71 460.044 427.236C460.06 426.952 459.975 426.671 459.804 426.444C459.641 426.286 459.43 426.189 459.204 426.168C458.865 426.141 458.523 426.141 458.184 426.168C457.398 426.249 456.609 426.054 455.952 425.616C455.688 425.315 455.49 424.962 455.372 424.579C455.254 424.197 455.219 423.793 455.268 423.396C455.295 422.124 455.714 420.892 456.468 419.868C457.27 418.71 458.324 417.75 459.552 417.06C460.011 416.787 460.503 416.574 461.016 416.424C461.399 416.281 461.809 416.223 462.216 416.256C462.468 416.256 462.588 416.448 462.588 416.748C462.567 417.158 462.486 417.562 462.348 417.948C462.269 418.314 462.066 418.64 461.772 418.872C461.585 418.958 461.387 419.019 461.184 419.052C460.721 419.128 460.275 419.283 459.864 419.508C459.418 419.736 459.037 420.075 458.76 420.492C458.574 420.779 458.466 421.11 458.448 421.452C458.448 421.956 458.58 422.256 458.844 422.376C459.232 422.496 459.639 422.545 460.044 422.52H460.512C461.232 422.455 461.951 422.661 462.528 423.096C462.764 423.388 462.94 423.724 463.045 424.085C463.15 424.445 463.182 424.823 463.14 425.196C463.133 426.019 462.97 426.834 462.66 427.596C462.307 428.473 461.808 429.285 461.184 429.996C460.479 430.794 459.648 431.471 458.724 432C458.11 432.359 457.453 432.637 456.768 432.828Z" fill="white"/>
<path d="M464.556 427.848V414.888C464.556 414.456 464.952 414.012 465.756 413.568L466.608 413.076C467.376 412.632 467.808 412.62 467.808 413.076V418.08L471.276 416.076V411.072C471.276 410.64 471.672 410.208 472.476 409.752L473.304 409.272C474.084 408.816 474.504 408.816 474.504 409.272V422.244C474.504 422.676 474.108 423.108 473.304 423.564L472.476 424.044C471.696 424.5 471.276 424.5 471.276 424.044V418.764L467.808 420.768V426C467.808 426.432 467.424 426.876 466.608 427.32L465.756 427.812C464.952 428.268 464.556 428.28 464.556 427.848Z" fill="white"/>
<path d="M475.596 421.68C475.602 421.546 475.622 421.413 475.656 421.284L478.776 406.596C478.872 406.164 479.28 405.744 479.976 405.324L481.296 404.556C482.04 404.136 482.496 404.076 482.496 404.4L485.616 415.476C485.616 415.656 485.616 415.764 485.616 415.824C485.616 416.124 485.316 416.436 484.74 416.772L483.672 417.396C483.024 417.768 482.664 417.828 482.592 417.588L482.064 415.416L478.992 417.192L478.44 419.976C478.44 420.3 478.068 420.624 477.492 420.96L476.436 421.56C475.92 421.944 475.596 421.98 475.596 421.68ZM481.86 413.148L480.948 409.38C480.852 408.948 480.768 408.48 480.696 407.976L480.6 408.036C480.528 408.612 480.456 409.176 480.36 409.716L479.46 414.516L481.86 413.148Z" fill="white"/>
<path d="M486.876 414.96V402.204C486.868 401.951 486.935 401.7 487.068 401.484C487.23 401.254 487.443 401.064 487.692 400.932L491.064 398.976C491.931 398.349 492.999 398.062 494.064 398.172C494.82 398.34 495.204 399.156 495.204 400.572C495.151 402.269 494.462 403.884 493.272 405.096V405.18C493.425 405.179 493.576 405.21 493.716 405.27C493.856 405.329 493.983 405.417 494.088 405.528C494.336 405.782 494.521 406.09 494.628 406.428L495.828 409.62L495.888 409.836C495.888 410.196 495.468 410.616 494.628 411.096L493.92 411.516C493.212 411.924 492.804 411.972 492.72 411.672L491.652 408.444C491.614 408.352 491.557 408.269 491.485 408.201C491.413 408.132 491.326 408.08 491.232 408.048C490.964 408.052 490.704 408.14 490.488 408.3L490.008 408.576V413.148C490.008 413.58 489.6 414.036 488.808 414.504L488.112 414.9C487.284 415.38 486.876 415.392 486.876 414.96ZM491.124 404.976C491.461 404.762 491.729 404.453 491.892 404.088C492.11 403.627 492.217 403.122 492.204 402.612C492.204 402.048 492.096 401.7 491.892 401.556C491.762 401.486 491.614 401.455 491.467 401.468C491.32 401.481 491.18 401.537 491.064 401.628L489.996 402.252V405.6L491.124 404.976Z" fill="white"/>
<path d="M497.508 409.2C497.388 409.2 497.328 408.96 497.328 408.684V396.18C497.32 395.924 497.382 395.671 497.508 395.448C497.651 395.233 497.845 395.055 498.072 394.932L504.072 391.488C504.276 391.368 504.42 391.356 504.516 391.488C504.638 391.699 504.688 391.943 504.66 392.184V392.808C504.671 393.099 504.622 393.389 504.516 393.66C504.426 393.871 504.27 394.048 504.072 394.164L500.472 396.216V399.156L503.628 397.332C503.832 397.212 503.988 397.212 504.072 397.332C504.193 397.538 504.243 397.779 504.216 398.016V398.64C504.228 398.931 504.179 399.221 504.072 399.492C503.986 399.706 503.829 399.884 503.628 399.996L500.472 401.82V405.096L504.072 403.032C504.276 402.912 504.42 402.912 504.504 403.032C504.613 403.247 504.659 403.488 504.636 403.728V404.352C504.644 404.642 504.599 404.93 504.504 405.204C504.419 405.412 504.267 405.585 504.072 405.696L498.072 409.152C497.987 409.2 497.892 409.229 497.795 409.237C497.698 409.245 497.6 409.233 497.508 409.2Z" fill="white"/>
<path d="M424.8 407.4L419.628 394.14L423.792 382.14V374.784L411.06 382.14V389.484L416.532 402.504C416.618 402.652 416.748 402.769 416.904 402.84L424.8 407.4Z" fill="#AEB8FE"/>
<path opacity="0.2" d="M424.8 407.4L419.628 394.14L423.792 382.14V374.784L411.06 382.14V389.484L416.532 402.504C416.618 402.652 416.748 402.769 416.904 402.84L424.8 407.4Z" fill="black"/>
<path d="M459.504 348.744C459.435 347.419 459.054 346.129 458.391 344.979C457.727 343.83 456.801 342.854 455.688 342.132L454.224 341.232C453.041 340.634 451.734 340.322 450.408 340.322C449.082 340.322 447.775 340.634 446.592 341.232L386.676 375.828C385.563 376.55 384.637 377.526 383.973 378.675C383.31 379.825 382.929 381.115 382.86 382.44V399.972C382.933 401.297 383.317 402.587 383.98 403.738C384.642 404.888 385.566 405.867 386.676 406.596L388.14 407.484C389.322 408.086 390.629 408.401 391.956 408.401C393.283 408.401 394.59 408.086 395.772 407.484L418.992 394.104L424.464 407.112C424.543 407.247 424.658 407.356 424.797 407.427C424.936 407.498 425.093 407.528 425.248 407.513C425.404 407.498 425.551 407.438 425.674 407.342C425.797 407.245 425.889 407.115 425.94 406.968L431.712 386.76L455.712 372.9C456.825 372.177 457.751 371.202 458.415 370.052C459.078 368.903 459.459 367.613 459.528 366.288L459.504 348.744Z" fill="#AEB8FE"/>
<path opacity="0.2" d="M382.86 399.972C382.933 401.298 383.317 402.588 383.98 403.738C384.642 404.889 385.566 405.867 386.676 406.596L388.14 407.484C389.216 408.027 390.395 408.335 391.599 408.389C392.802 408.443 394.004 408.241 395.124 407.796C393.324 408.48 391.956 407.46 391.956 405.288V387.744C392.004 386.414 392.388 385.118 393.072 383.976L384 378.672C383.316 379.814 382.932 381.11 382.884 382.44L382.86 399.972Z" fill="black"/>
<path opacity="0.5" d="M459.384 347.664C458.94 346.044 457.452 345.528 455.688 346.536L395.772 381.132C394.64 381.83 393.713 382.816 393.084 383.988L384 378.684C384.64 377.516 385.57 376.533 386.7 375.828L446.592 341.232C447.777 340.634 449.086 340.322 450.414 340.322C451.742 340.322 453.051 340.634 454.236 341.232L455.7 342.132C456.655 342.758 457.474 343.571 458.107 344.522C458.74 345.472 459.175 346.541 459.384 347.664Z" fill="white"/>
<path d="M398.172 398.316V386.832C398.163 386.6 398.221 386.371 398.34 386.172C398.469 385.978 398.641 385.818 398.844 385.704L403.86 382.812C404.04 382.704 404.172 382.704 404.256 382.812C404.366 383 404.412 383.219 404.388 383.436V384C404.395 384.262 404.35 384.523 404.256 384.768C404.175 384.955 404.036 385.11 403.86 385.212L401.016 386.856V389.52L403.692 387.972C403.872 387.864 404.004 387.864 404.1 387.972C404.204 388.158 404.246 388.372 404.22 388.584V389.148C404.232 389.409 404.191 389.671 404.1 389.916C404.015 390.107 403.872 390.266 403.692 390.372L401.016 391.92V396.72C401.016 397.104 400.656 397.5 399.96 397.92L399.228 398.34C398.52 398.688 398.172 398.7 398.172 398.316Z" fill="white"/>
<path d="M405.6 388.224C405.6 383.88 407.184 380.784 410.4 378.936C411.948 378.048 413.136 377.892 413.94 378.48C414.744 379.068 415.14 380.484 415.14 382.716C415.204 384.665 414.792 386.601 413.94 388.356C413.126 389.867 411.898 391.116 410.4 391.956C407.124 393.828 405.6 392.58 405.6 388.224ZM411.444 388.62C411.746 388.128 411.95 387.582 412.044 387.012C412.193 386.144 412.262 385.264 412.248 384.384C412.272 383.579 412.204 382.773 412.044 381.984C411.912 381.468 411.708 381.156 411.444 381.072C411.261 381.035 411.072 381.037 410.89 381.079C410.708 381.12 410.537 381.199 410.388 381.312C409.962 381.555 409.597 381.891 409.32 382.296C409.007 382.788 408.798 383.34 408.708 383.916C408.548 384.778 408.476 385.655 408.492 386.532C408.464 387.338 408.537 388.144 408.708 388.932C408.84 389.46 409.044 389.76 409.32 389.844C409.506 389.876 409.696 389.87 409.88 389.827C410.063 389.783 410.236 389.703 410.388 389.592C410.79 389.349 411.131 389.016 411.384 388.62H411.444Z" fill="white"/>
<path d="M416.964 387.828C416.856 387.828 416.796 387.624 416.796 387.372V375.888C416.796 375.504 417.156 375.096 417.864 374.688L418.584 374.256C419.292 373.848 419.64 373.848 419.64 374.256V384.084L422.364 382.512C422.556 382.404 422.7 382.392 422.784 382.512C422.887 382.703 422.929 382.921 422.904 383.136V383.7C422.915 383.961 422.874 384.222 422.784 384.468C422.698 384.662 422.551 384.823 422.364 384.924L417.48 387.744C417.24 387.852 417.072 387.888 416.964 387.828Z" fill="white"/>
<path d="M424.404 383.544C424.296 383.484 424.236 383.34 424.236 383.076V371.592C424.236 371.208 424.596 370.812 425.292 370.392L426.024 369.972C426.732 369.564 427.08 369.552 427.08 369.972V379.8L429.804 378.24C429.996 378.12 430.128 378.108 430.224 378.24C430.328 378.426 430.37 378.64 430.344 378.852V379.416C430.356 379.677 430.315 379.939 430.224 380.184C430.131 380.377 429.986 380.539 429.804 380.652L424.92 383.46C424.68 383.556 424.512 383.592 424.404 383.544Z" fill="white"/>
<path d="M430.968 373.548C430.968 369.196 432.568 366.1 435.768 364.26C437.328 363.36 438.504 363.204 439.308 363.804C440.112 364.404 440.508 365.808 440.508 368.04C440.579 369.99 440.167 371.927 439.308 373.68C438.497 375.194 437.269 376.444 435.768 377.28C432.576 379.144 430.976 377.9 430.968 373.548ZM436.824 373.932C437.128 373.441 437.332 372.894 437.424 372.324C437.568 371.46 437.633 370.584 437.616 369.708C437.644 368.903 437.58 368.098 437.424 367.308C437.292 366.78 437.088 366.48 436.824 366.384C436.638 366.353 436.448 366.359 436.265 366.402C436.081 366.446 435.908 366.525 435.756 366.636C435.334 366.875 434.973 367.207 434.7 367.608C434.39 368.107 434.178 368.661 434.076 369.24C433.916 370.098 433.844 370.971 433.86 371.844C433.832 372.65 433.905 373.456 434.076 374.244C434.22 374.772 434.424 375.084 434.7 375.168C434.884 375.2 435.072 375.193 435.254 375.15C435.435 375.107 435.606 375.027 435.756 374.916C436.176 374.673 436.533 374.337 436.8 373.932H436.824Z" fill="white"/>
<path d="M443.64 372.552C443.614 372.561 443.586 372.564 443.559 372.561C443.531 372.558 443.505 372.548 443.481 372.533C443.458 372.518 443.439 372.498 443.425 372.474C443.411 372.45 443.402 372.424 443.4 372.396L441 362.076C440.994 362.024 440.994 361.972 441 361.92C441.005 361.88 441.005 361.84 441 361.8C441 361.488 441.36 361.116 442.08 360.708L442.608 360.396C443.328 359.976 443.724 359.94 443.808 360.288L444.66 366.528L444.828 367.728L444.996 369.06L445.32 366.66C445.362 366.47 445.39 366.278 445.404 366.084L446.52 358.524C446.544 358.361 446.625 358.213 446.748 358.104C446.939 357.924 447.152 357.771 447.384 357.648L448.296 357.12C448.488 356.996 448.699 356.903 448.92 356.844C449.052 356.844 449.124 356.844 449.148 357.012L450.24 363.288L450.648 365.856L450.9 363.756L451.008 362.856L451.884 355.656C451.884 355.248 452.316 354.84 453.084 354.456L453.504 354.204C454.224 353.796 454.584 353.748 454.584 354.06C454.591 354.156 454.591 354.252 454.584 354.348L452.184 367.452C452.184 367.728 451.848 368.028 451.332 368.328L450.132 369.024C449.652 369.3 449.376 369.336 449.316 369.108L448.116 363.396L447.912 361.56L447.6 363.6L446.34 370.8C446.34 371.076 446.016 371.364 445.524 371.652L444.324 372.348C444.111 372.459 443.879 372.528 443.64 372.552Z" fill="white"/>
<path d="M317.196 315.852L367.596 286.752C367.777 286.613 367.998 286.537 368.226 286.537C368.454 286.537 368.675 286.613 368.856 286.752C369.156 286.992 372 288.492 372.312 288.72C372.5 288.889 372.646 289.099 372.738 289.335C372.83 289.57 372.865 289.824 372.84 290.076V335.436C372.83 336.088 372.668 336.728 372.366 337.305C372.063 337.882 371.63 338.381 371.1 338.76L362.256 343.872L315.996 317.172C316.271 316.633 316.685 316.177 317.196 315.852Z" fill="#AEB8FE"/>
<path opacity="0.5" d="M317.196 315.852L367.596 286.752C367.777 286.613 367.998 286.537 368.226 286.537C368.454 286.537 368.675 286.613 368.856 286.752C369.156 286.992 372 288.492 372.312 288.72C372.5 288.889 372.646 289.099 372.738 289.335C372.83 289.57 372.865 289.824 372.84 290.076V335.436C372.83 336.088 372.668 336.728 372.366 337.305C372.063 337.882 371.63 338.381 371.1 338.76L362.256 343.872L315.996 317.172C316.271 316.633 316.685 316.177 317.196 315.852Z" fill="white"/>
<path d="M319.536 367.932C319.188 367.704 316.32 366.12 316.008 365.904C315.813 365.737 315.661 365.526 315.564 365.288C315.468 365.049 315.431 364.792 315.456 364.536V319.2C315.473 318.497 315.663 317.809 316.008 317.196L362.268 343.896L320.712 367.896C320.54 368.015 320.338 368.082 320.129 368.088C319.921 368.095 319.715 368.04 319.536 367.932Z" fill="#AEB8FE"/>
<path opacity="0.2" d="M319.536 367.932C319.188 367.704 316.32 366.12 316.008 365.904C315.813 365.737 315.661 365.526 315.564 365.288C315.468 365.049 315.431 364.792 315.456 364.536V319.2C315.473 318.497 315.663 317.809 316.008 317.196L362.268 343.896L320.712 367.896C320.54 368.015 320.338 368.082 320.129 368.088C319.921 368.095 319.715 368.04 319.536 367.932Z" fill="black"/>
<path d="M320.712 367.86L371.112 338.76C371.642 338.381 372.075 337.882 372.378 337.305C372.68 336.728 372.842 336.088 372.852 335.436V290.076C372.852 288.804 372.072 288.216 371.112 288.768L320.712 317.868C320.182 318.247 319.749 318.746 319.446 319.323C319.144 319.9 318.982 320.54 318.972 321.192V366.552C318.972 367.824 319.752 368.4 320.712 367.86Z" fill="#AEB8FE"/>
<path opacity="0.2" d="M318.972 366.552V365.652L339.816 331.116L319.2 319.716L319.356 319.344L345.024 330C345.564 330.216 346.224 329.82 346.812 328.968L372.408 288.744C372.466 288.799 372.518 288.859 372.564 288.924L352.02 324.036L372.852 334.512V335.4C372.84 336.114 372.664 336.817 372.336 337.452L350.964 325.848L347.928 331.02C346.728 333.072 345.096 334.02 343.896 333.348L340.872 331.668L319.536 367.896C319.344 367.732 319.192 367.524 319.094 367.291C318.996 367.058 318.954 366.804 318.972 366.552Z" fill="black"/>
<path d="M329.712 323.208L380.112 294.108C380.296 293.972 380.519 293.898 380.748 293.898C380.977 293.898 381.2 293.972 381.384 294.108C381.672 294.36 384.528 295.86 384.84 296.076C385.029 296.247 385.175 296.46 385.266 296.697C385.358 296.935 385.393 297.191 385.368 297.444V342.804C385.356 343.455 385.192 344.094 384.89 344.671C384.588 345.248 384.156 345.747 383.628 346.128L374.772 351.228L328.524 324.528C328.798 323.992 329.208 323.537 329.712 323.208Z" fill="#AEB8FE"/>
<path opacity="0.5" d="M329.712 323.208L380.112 294.108C380.296 293.972 380.519 293.898 380.748 293.898C380.977 293.898 381.2 293.972 381.384 294.108C381.672 294.36 384.528 295.86 384.84 296.076C385.029 296.247 385.175 296.46 385.266 296.697C385.358 296.935 385.393 297.191 385.368 297.444V342.804C385.356 343.455 385.192 344.094 384.89 344.671C384.588 345.248 384.156 345.747 383.628 346.128L374.772 351.228L328.524 324.528C328.798 323.992 329.208 323.537 329.712 323.208Z" fill="white"/>
<path d="M332.04 375.288C331.704 375.072 328.836 373.476 328.524 373.272C328.328 373.103 328.175 372.89 328.079 372.65C327.983 372.409 327.946 372.15 327.972 371.892V326.532C327.993 325.829 328.182 325.142 328.524 324.528L374.772 351.228L333.228 375.228C333.056 375.35 332.853 375.421 332.643 375.432C332.432 375.442 332.223 375.393 332.04 375.288Z" fill="#AEB8FE"/>
<path opacity="0.2" d="M332.04 375.288C331.704 375.072 328.836 373.476 328.524 373.272C328.328 373.103 328.175 372.89 328.079 372.65C327.983 372.409 327.946 372.15 327.972 371.892V326.532C327.993 325.829 328.182 325.142 328.524 324.528L374.772 351.228L333.228 375.228C333.056 375.35 332.853 375.421 332.643 375.432C332.432 375.442 332.223 375.393 332.04 375.288Z" fill="black"/>
<path d="M333.228 375.228L383.628 346.128C384.156 345.747 384.588 345.248 384.89 344.671C385.192 344.094 385.356 343.455 385.368 342.804V297.444C385.368 296.16 384.588 295.572 383.628 296.124L333.228 325.224C332.7 325.605 332.268 326.104 331.966 326.681C331.664 327.258 331.501 327.897 331.488 328.548V373.908C331.488 375.192 332.268 375.78 333.228 375.228Z" fill="#AEB8FE"/>
<path opacity="0.2" d="M331.488 373.908V373.02L352.32 338.484L331.752 327.084C331.797 326.957 331.849 326.833 331.908 326.712L357.528 337.392C358.08 337.62 358.728 337.212 359.316 336.36L384.912 296.148C384.973 296.195 385.026 296.252 385.068 296.316L364.536 331.44L385.368 341.904V342.804C385.358 343.516 385.177 344.216 384.84 344.844L363.468 333.24L360.444 338.4C359.244 340.452 357.612 341.4 356.412 340.8L353.376 339.12L332.04 375.288C331.847 375.117 331.696 374.903 331.6 374.663C331.505 374.424 331.466 374.165 331.488 373.908Z" fill="black"/>
<path d="M342.216 330.576L392.616 301.476C392.799 301.338 393.022 301.263 393.252 301.263C393.482 301.263 393.705 301.338 393.888 301.476C394.176 301.716 397.02 303.216 397.332 303.444C397.523 303.611 397.67 303.821 397.762 304.057C397.854 304.293 397.888 304.548 397.86 304.8V350.16C397.853 350.812 397.692 351.453 397.389 352.031C397.087 352.609 396.652 353.107 396.12 353.484L387.276 358.596L341.016 331.896C341.291 331.357 341.705 330.901 342.216 330.576Z" fill="#AEB8FE"/>
<path opacity="0.5" d="M342.216 330.576L392.616 301.476C392.799 301.338 393.022 301.263 393.252 301.263C393.482 301.263 393.705 301.338 393.888 301.476C394.176 301.716 397.02 303.216 397.332 303.444C397.523 303.611 397.67 303.821 397.762 304.057C397.854 304.293 397.888 304.548 397.86 304.8V350.16C397.853 350.812 397.692 351.453 397.389 352.031C397.087 352.609 396.652 353.107 396.12 353.484L387.276 358.596L341.016 331.896C341.291 331.357 341.705 330.901 342.216 330.576Z" fill="white"/>
<path d="M344.556 382.656C344.208 382.428 341.34 380.844 341.028 380.628C340.833 380.461 340.681 380.25 340.584 380.012C340.488 379.773 340.451 379.516 340.476 379.26V333.9C340.493 333.197 340.683 332.509 341.028 331.896L387.288 358.596L345.732 382.596C345.563 382.719 345.362 382.79 345.153 382.8C344.944 382.811 344.737 382.761 344.556 382.656Z" fill="#AEB8FE"/>
<path opacity="0.2" d="M344.556 382.656C344.208 382.428 341.34 380.844 341.028 380.628C340.833 380.461 340.681 380.25 340.584 380.012C340.488 379.773 340.451 379.516 340.476 379.26V333.9C340.493 333.197 340.683 332.509 341.028 331.896L387.288 358.596L345.732 382.596C345.563 382.719 345.362 382.79 345.153 382.8C344.944 382.811 344.737 382.761 344.556 382.656Z" fill="black"/>
<path d="M345.732 382.584L396.132 353.484C396.664 353.107 397.099 352.609 397.401 352.031C397.704 351.453 397.865 350.812 397.872 350.16V304.8C397.872 303.528 397.104 302.94 396.132 303.492L345.732 332.592C345.202 332.971 344.769 333.469 344.466 334.047C344.164 334.624 344.002 335.264 343.992 335.916V381.276C343.992 382.548 344.772 383.136 345.732 382.584Z" fill="#AEB8FE"/>
<path opacity="0.2" d="M343.992 381.276V380.4L364.8 345.84L344.22 334.44L344.376 334.068L370.008 344.76C370.548 344.976 371.208 344.58 371.796 343.728L397.392 303.504C397.447 303.557 397.499 303.613 397.548 303.672L377.04 338.796L397.872 349.272V350.16C397.859 350.874 397.682 351.576 397.356 352.212L375.984 340.608L372.96 345.78C371.76 347.832 370.116 348.78 368.916 348.108L365.892 346.428L344.556 382.656C344.358 382.488 344.204 382.275 344.106 382.035C344.008 381.794 343.969 381.534 343.992 381.276Z" fill="black"/>
<path d="M561.972 555.408L418.356 638.316C416.086 639.627 413.52 640.341 410.899 640.392C408.278 640.442 405.687 639.827 403.368 638.604L114.228 471.6C109.668 468.972 105.972 463.092 105.972 458.4C105.972 453.708 109.668 447.9 114.216 445.26L257.316 362.76C259.873 361.47 262.696 360.798 265.56 360.798C268.424 360.798 271.247 361.47 273.804 362.76L561.972 529.2C566.532 531.828 570.228 537.708 570.228 542.34C570.228 546.972 566.532 552.78 561.972 555.408Z" fill="#AEB8FE"/>
<path opacity="0.5" d="M257.316 362.76L114.216 445.368C109.668 448.008 105.972 453.888 105.972 458.508C105.972 463.128 109.668 469.02 114.228 471.708L403.428 638.664C405.658 639.806 408.123 640.413 410.628 640.44V441.708L273.828 362.76C271.268 361.466 268.44 360.792 265.572 360.792C262.704 360.792 259.876 361.466 257.316 362.76Z" fill="black"/>
<path opacity="0.4" d="M418.356 638.316L561.972 555.408C566.532 552.78 570.228 546.9 570.228 542.28C570.228 537.66 566.532 531.768 561.972 529.14L410.544 441.708V640.38C413.286 640.407 415.985 639.694 418.356 638.316Z" fill="black"/>
<path d="M414.936 623.544C412.682 624.686 410.191 625.281 407.664 625.281C405.137 625.281 402.646 624.686 400.392 623.544L114.192 458.304C108.036 454.704 108.036 448.944 114.192 445.392L257.304 362.76C259.861 361.47 262.684 360.798 265.548 360.798C268.412 360.798 271.235 361.47 273.792 362.76L561.96 529.2C566.496 531.816 566.496 536.1 561.96 538.716L414.936 623.544Z" fill="#AEB8FE"/>
<path opacity="0.3" d="M414.936 623.544C412.682 624.686 410.191 625.281 407.664 625.281C405.137 625.281 402.646 624.686 400.392 623.544L114.192 458.304C108.036 454.704 108.036 448.944 114.192 445.392L257.304 362.76C259.861 361.47 262.684 360.798 265.548 360.798C268.412 360.798 271.235 361.47 273.792 362.76L561.96 529.2C566.496 531.816 566.496 536.1 561.96 538.716L414.936 623.544Z" fill="black"/>
<path d="M401.04 606.912C398.611 608.142 395.927 608.783 393.204 608.783C390.481 608.783 387.797 608.142 385.368 606.912L139.092 464.724C134.76 462.228 134.76 458.172 139.092 455.676L273.72 378C276.151 376.775 278.834 376.137 281.556 376.137C284.278 376.137 286.961 376.775 289.392 378L535.668 520.14C539.976 522.624 539.976 526.704 535.668 529.188L401.04 606.912Z" fill="#37474F"/>
<path d="M281.076 376.116C278.507 376.133 275.981 376.78 273.72 378L139.092 455.676C134.76 458.172 134.76 462.228 139.092 464.724L165.78 480.132L281.076 406.5V376.116Z" fill="#263238"/>
<path d="M289.488 383.832C287.058 382.607 284.374 381.969 281.652 381.969C278.93 381.969 276.247 382.607 273.816 383.832L139.2 461.556C138.422 461.981 137.724 462.537 137.136 463.2C137.71 463.801 138.369 464.314 139.092 464.724L385.368 606.912C387.797 608.142 390.481 608.783 393.204 608.783C395.927 608.783 398.611 608.142 401.04 606.912L535.668 529.2C536.429 528.775 537.114 528.228 537.696 527.58C537.138 526.965 536.486 526.443 535.764 526.032L289.488 383.832Z" fill="#455A64"/>
<path d="M188.304 419.316L212.16 405.6C213.588 404.784 213.66 403.488 212.316 402.72C211.535 402.342 210.676 402.153 209.808 402.17C208.941 402.186 208.09 402.408 207.324 402.816L183.468 416.592C182.04 417.408 181.968 418.704 183.312 419.472C184.098 419.841 184.959 420.019 185.827 419.992C186.694 419.965 187.543 419.733 188.304 419.316Z" fill="#37474F"/>
<path d="M229.272 395.7C229.564 395.601 229.818 395.413 229.998 395.162C230.178 394.911 230.275 394.611 230.275 394.302C230.275 393.993 230.178 393.693 229.998 393.442C229.818 393.191 229.564 393.003 229.272 392.904C228.527 392.531 227.705 392.337 226.872 392.337C226.039 392.337 225.217 392.531 224.472 392.904C224.18 393.003 223.926 393.191 223.746 393.442C223.566 393.693 223.469 393.993 223.469 394.302C223.469 394.611 223.566 394.911 223.746 395.162C223.926 395.413 224.18 395.601 224.472 395.7C225.217 396.073 226.039 396.267 226.872 396.267C227.705 396.267 228.527 396.073 229.272 395.7Z" fill="#37474F"/>
<path d="M238.944 390.108C239.236 390.009 239.49 389.821 239.67 389.57C239.85 389.319 239.947 389.019 239.947 388.71C239.947 388.401 239.85 388.101 239.67 387.85C239.49 387.599 239.236 387.411 238.944 387.312C238.199 386.939 237.377 386.745 236.544 386.745C235.711 386.745 234.889 386.939 234.144 387.312C233.852 387.411 233.598 387.599 233.418 387.85C233.238 388.101 233.141 388.401 233.141 388.71C233.141 389.019 233.238 389.319 233.418 389.57C233.598 389.821 233.852 390.009 234.144 390.108C234.889 390.481 235.711 390.675 236.544 390.675C237.377 390.675 238.199 390.481 238.944 390.108Z" fill="#37474F"/>
<path d="M161.568 434.784C161.86 434.685 162.114 434.497 162.294 434.246C162.474 433.995 162.571 433.694 162.571 433.386C162.571 433.077 162.474 432.776 162.294 432.526C162.114 432.275 161.86 432.087 161.568 431.988C160.823 431.615 160.001 431.421 159.168 431.421C158.335 431.421 157.513 431.615 156.768 431.988C156.476 432.087 156.222 432.275 156.042 432.526C155.862 432.776 155.765 433.077 155.765 433.386C155.765 433.694 155.862 433.995 156.042 434.246C156.222 434.497 156.476 434.685 156.768 434.784C157.513 435.157 158.335 435.351 159.168 435.351C160.001 435.351 160.823 435.157 161.568 434.784Z" fill="#37474F"/>
<path d="M171.24 429.192C171.532 429.093 171.786 428.905 171.966 428.654C172.146 428.403 172.243 428.103 172.243 427.794C172.243 427.485 172.146 427.185 171.966 426.934C171.786 426.683 171.532 426.495 171.24 426.396C170.495 426.023 169.673 425.829 168.84 425.829C168.007 425.829 167.185 426.023 166.44 426.396C166.148 426.495 165.894 426.683 165.714 426.934C165.534 427.185 165.437 427.485 165.437 427.794C165.437 428.103 165.534 428.403 165.714 428.654C165.894 428.905 166.148 429.093 166.44 429.192C167.185 429.565 168.007 429.759 168.84 429.759C169.673 429.759 170.495 429.565 171.24 429.192Z" fill="#37474F"/>
<path d="M204.924 514.56C205.66 515.018 206.277 515.644 206.726 516.387C207.174 517.129 207.441 517.967 207.504 518.832C207.532 519.124 207.481 519.418 207.356 519.684C207.232 519.95 207.038 520.178 206.796 520.344L204.984 521.388C204.683 521.519 204.353 521.569 204.027 521.533C203.701 521.497 203.389 521.377 203.124 521.184L169.596 501.816C168.86 501.357 168.243 500.731 167.794 499.989C167.346 499.246 167.079 498.409 167.016 497.544C166.989 497.263 167.035 496.98 167.148 496.722C167.262 496.463 167.439 496.238 167.664 496.068C167.988 495.864 169.212 495.168 169.524 494.988C169.827 494.857 170.159 494.807 170.487 494.843C170.815 494.879 171.128 494.999 171.396 495.192L204.924 514.56Z" fill="#AEB8FE"/>
<path opacity="0.4" d="M204.924 514.56C205.66 515.018 206.277 515.644 206.726 516.387C207.174 517.129 207.441 517.967 207.504 518.832C207.532 519.124 207.481 519.418 207.356 519.684C207.232 519.95 207.038 520.178 206.796 520.344L204.984 521.388C204.683 521.519 204.353 521.569 204.027 521.533C203.701 521.497 203.389 521.377 203.124 521.184L169.596 501.816C168.86 501.357 168.243 500.731 167.794 499.989C167.346 499.246 167.079 498.409 167.016 497.544C166.989 497.263 167.035 496.98 167.148 496.722C167.262 496.463 167.439 496.238 167.664 496.068C167.988 495.864 169.212 495.168 169.524 494.988C169.827 494.857 170.159 494.807 170.487 494.843C170.815 494.879 171.128 494.999 171.396 495.192L204.924 514.56Z" fill="black"/>
<path d="M203.124 515.592L169.596 496.236C168.168 495.408 167.016 495.996 167.016 497.544C167.079 498.409 167.346 499.246 167.794 499.989C168.243 500.731 168.86 501.357 169.596 501.816L203.124 521.184C204.552 522 205.704 521.412 205.704 519.876C205.642 519.009 205.375 518.169 204.927 517.425C204.479 516.68 203.861 516.052 203.124 515.592Z" fill="#AEB8FE"/>
<path opacity="0.3" d="M203.124 515.592L169.596 496.236C168.168 495.408 167.016 495.996 167.016 497.544C167.079 498.409 167.346 499.246 167.794 499.989C168.243 500.731 168.86 501.357 169.596 501.816L203.124 521.184C204.552 522 205.704 521.412 205.704 519.876C205.642 519.009 205.375 518.169 204.927 517.425C204.479 516.68 203.861 516.052 203.124 515.592Z" fill="black"/>
<path d="M160.044 488.64C160.777 489.103 161.392 489.732 161.838 490.476C162.284 491.22 162.549 492.059 162.612 492.924C162.644 493.215 162.595 493.509 162.47 493.774C162.345 494.039 162.149 494.264 161.904 494.424C161.592 494.592 160.428 495.3 160.104 495.48C159.801 495.606 159.471 495.652 159.146 495.614C158.82 495.576 158.51 495.456 158.244 495.264L142.44 486.132C141.704 485.673 141.087 485.047 140.638 484.305C140.19 483.563 139.923 482.725 139.86 481.86C139.833 481.579 139.879 481.296 139.992 481.038C140.106 480.78 140.283 480.554 140.508 480.384L142.368 479.304C142.669 479.172 143 479.123 143.327 479.161C143.654 479.199 143.965 479.323 144.228 479.52L160.044 488.64Z" fill="#AEB8FE"/>
<path opacity="0.4" d="M160.044 488.64C160.777 489.103 161.392 489.732 161.838 490.476C162.284 491.22 162.549 492.059 162.612 492.924C162.644 493.215 162.595 493.509 162.47 493.774C162.345 494.039 162.149 494.264 161.904 494.424C161.592 494.592 160.428 495.3 160.104 495.48C159.801 495.606 159.471 495.652 159.146 495.614C158.82 495.576 158.51 495.456 158.244 495.264L142.44 486.132C141.704 485.673 141.087 485.047 140.638 484.305C140.19 483.563 139.923 482.725 139.86 481.86C139.833 481.579 139.879 481.296 139.992 481.038C140.106 480.78 140.283 480.554 140.508 480.384L142.368 479.304C142.669 479.172 143 479.123 143.327 479.161C143.654 479.199 143.965 479.323 144.228 479.52L160.044 488.64Z" fill="black"/>
<path d="M158.244 489.684L142.44 480.552C141.012 479.736 139.86 480.312 139.86 481.86C139.923 482.725 140.19 483.562 140.638 484.305C141.087 485.047 141.704 485.673 142.44 486.132L158.244 495.264C159.672 496.092 160.824 495.504 160.824 493.956C160.761 493.091 160.494 492.253 160.046 491.511C159.597 490.768 158.98 490.142 158.244 489.684Z" fill="#AEB8FE"/>
<path opacity="0.3" d="M158.244 489.684L142.44 480.552C141.012 479.736 139.86 480.312 139.86 481.86C139.923 482.725 140.19 483.562 140.638 484.305C141.087 485.047 141.704 485.673 142.44 486.132L158.244 495.264C159.672 496.092 160.824 495.504 160.824 493.956C160.761 493.091 160.494 492.253 160.046 491.511C159.597 490.768 158.98 490.142 158.244 489.684Z" fill="black"/>
<path d="M337.404 543.336V544.308C337.447 545.148 337.687 545.967 338.104 546.699C338.52 547.43 339.103 548.054 339.804 548.52L392.016 578.664C392.77 579.048 393.605 579.249 394.452 579.249C395.299 579.249 396.134 579.048 396.888 578.664L483.348 528.744C484.051 528.279 484.634 527.656 485.051 526.924C485.468 526.193 485.707 525.373 485.748 524.532V523.56C485.705 522.719 485.465 521.9 485.048 521.169C484.632 520.437 484.049 519.813 483.348 519.348L431.136 489.204C430.382 488.819 429.547 488.619 428.7 488.619C427.853 488.619 427.018 488.819 426.264 489.204L339.804 539.124C339.101 539.588 338.518 540.211 338.101 540.943C337.684 541.675 337.445 542.495 337.404 543.336Z" fill="#AEB8FE"/>
<path d="M337.404 543.336V544.308C337.447 545.148 337.687 545.967 338.104 546.699C338.52 547.43 339.103 548.054 339.804 548.52L392.016 578.664C392.77 579.048 393.605 579.249 394.452 579.249C395.299 579.249 396.134 579.048 396.888 578.664L483.348 528.744C484.051 528.279 484.634 527.656 485.051 526.924C485.468 526.193 485.707 525.373 485.748 524.532V523.56C485.705 522.719 485.465 521.9 485.048 521.169C484.632 520.437 484.049 519.813 483.348 519.348L431.136 489.204C430.382 488.819 429.547 488.619 428.7 488.619C427.853 488.619 427.018 488.819 426.264 489.204L339.804 539.124C339.101 539.588 338.518 540.211 338.101 540.943C337.684 541.675 337.445 542.495 337.404 543.336Z" fill="#AEB8FE"/>
<path opacity="0.3" d="M483.384 519.348L431.172 489.204C430.418 488.819 429.583 488.619 428.736 488.619C427.889 488.619 427.054 488.819 426.3 489.204L394.488 507.6V579.288C395.325 579.3 396.151 579.097 396.888 578.7L483.348 528.78C484.051 528.315 484.634 527.692 485.051 526.96C485.468 526.229 485.707 525.409 485.748 524.568V523.596C485.714 522.752 485.483 521.928 485.072 521.19C484.662 520.452 484.083 519.821 483.384 519.348Z" fill="white"/>
<path opacity="0.15" d="M483.384 519.348L431.172 489.204C430.418 488.819 429.583 488.619 428.736 488.619C427.889 488.619 427.054 488.819 426.3 489.204L394.488 507.6V579.288C395.325 579.3 396.151 579.097 396.888 578.7L483.348 528.78C484.051 528.315 484.634 527.692 485.051 526.96C485.468 526.229 485.707 525.409 485.748 524.568V523.596C485.714 522.752 485.483 521.928 485.072 521.19C484.662 520.452 484.083 519.821 483.384 519.348Z" fill="black"/>
<path opacity="0.3" d="M394.488 507.6L339.84 539.16C339.137 539.624 338.554 540.247 338.137 540.979C337.72 541.711 337.481 542.53 337.44 543.372V544.344C337.483 545.184 337.723 546.003 338.14 546.735C338.556 547.466 339.139 548.09 339.84 548.556L392.052 578.7C392.788 579.098 393.615 579.301 394.452 579.288L394.488 507.6Z" fill="white"/>
<path opacity="0.2" d="M394.488 507.6L339.84 539.16C339.137 539.624 338.554 540.247 338.137 540.979C337.72 541.711 337.481 542.53 337.44 543.372V544.344C337.483 545.184 337.723 546.003 338.14 546.735C338.556 547.466 339.139 548.09 339.84 548.556L392.052 578.7C392.788 579.098 393.615 579.301 394.452 579.288L394.488 507.6Z" fill="black"/>
<path d="M383.688 567.252L339.84 541.932C339.543 541.835 339.285 541.648 339.101 541.396C338.918 541.143 338.819 540.84 338.819 540.528C338.819 540.216 338.918 539.912 339.101 539.66C339.285 539.408 339.543 539.22 339.84 539.124L426.3 489.204C427.054 488.819 427.889 488.619 428.736 488.619C429.583 488.619 430.418 488.819 431.172 489.204L483.384 519.348C483.681 519.444 483.939 519.632 484.122 519.884C484.306 520.136 484.405 520.44 484.405 520.752C484.405 521.064 484.306 521.367 484.122 521.62C483.939 521.872 483.681 522.059 483.384 522.156L469.044 530.4L464.016 533.304L396.924 572.04C396.17 572.424 395.335 572.625 394.488 572.625C393.641 572.625 392.806 572.424 392.052 572.04L387.804 569.58L383.688 567.252Z" fill="#AEB8FE"/>
<path opacity="0.3" d="M383.688 567.252L339.84 541.932C339.543 541.835 339.285 541.648 339.101 541.396C338.918 541.143 338.819 540.84 338.819 540.528C338.819 540.216 338.918 539.912 339.101 539.66C339.285 539.408 339.543 539.22 339.84 539.124L426.3 489.204C427.054 488.819 427.889 488.619 428.736 488.619C429.583 488.619 430.418 488.819 431.172 489.204L483.384 519.348C483.681 519.444 483.939 519.632 484.122 519.884C484.306 520.136 484.405 520.44 484.405 520.752C484.405 521.064 484.306 521.367 484.122 521.62C483.939 521.872 483.681 522.059 483.384 522.156L469.044 530.4L464.016 533.304L396.924 572.04C396.17 572.424 395.335 572.625 394.488 572.625C393.641 572.625 392.806 572.424 392.052 572.04L387.804 569.58L383.688 567.252Z" fill="white"/>
<path opacity="0.15" d="M423.504 525.192L483.384 519.348L424.032 522.708L431.172 489.204C430.355 488.779 429.439 488.584 428.52 488.64L417.324 534L338.856 540.468C338.849 540.791 338.939 541.109 339.115 541.38C339.29 541.652 339.543 541.865 339.84 541.992L403.2 538.248L394.476 572.664L405.6 538.116L416.4 537.48C417.736 537.414 419.008 536.888 420 535.992C420.929 535.166 421.569 534.064 421.824 532.848L423.504 525.192Z" fill="black"/>
<path opacity="0.3" d="M357.6 538.859L417.348 533.94L419.484 525.371L420.684 520.571L428.58 488.604C427.802 488.614 427.037 488.807 426.348 489.168L383.148 514.128L339.948 539.087C339.692 539.206 339.469 539.385 339.298 539.608C339.126 539.832 339.012 540.094 338.964 540.371L350.964 539.387L357.6 538.859Z" fill="white"/>
<path d="M418.8 482.052C424.26 478.896 433.116 478.896 438.576 482.052C444.036 485.208 444.036 490.32 438.576 493.464C433.116 496.608 424.26 496.62 418.8 493.464C413.34 490.308 413.388 485.208 418.8 482.052Z" fill="#F28F8F"/>
<path d="M421.824 489.6C421.676 489.595 421.534 489.544 421.416 489.456C421.371 489.427 421.337 489.385 421.317 489.335C421.298 489.286 421.295 489.231 421.308 489.18L422.124 485.58C422.124 485.496 422.124 485.388 422.22 485.256C422.274 485.113 422.382 484.997 422.52 484.932L424.512 483.732C424.648 483.656 424.801 483.619 424.956 483.624C425.111 483.618 425.265 483.655 425.4 483.732L435.996 489.852C436.048 489.871 436.093 489.905 436.125 489.95C436.157 489.995 436.175 490.048 436.176 490.104C436.172 490.158 436.153 490.21 436.121 490.255C436.089 490.299 436.046 490.334 435.996 490.356L433.848 491.556C433.712 491.631 433.559 491.668 433.404 491.664C433.249 491.669 433.095 491.632 432.96 491.556L425.76 487.428L425.28 489.408C425.28 489.504 425.184 489.588 425.052 489.648C424.904 489.708 424.744 489.733 424.584 489.72L421.824 489.6Z" fill="#FAFAFA"/>
<path d="M287.568 523.596L326.244 501.276L352.644 507.816C353.212 507.955 353.809 507.915 354.353 507.703C354.898 507.491 355.364 507.116 355.688 506.629C356.012 506.143 356.178 505.568 356.163 504.984C356.149 504.4 355.955 503.834 355.608 503.364L345.696 490.02L384.36 467.688C387.216 466.032 387.216 463.332 384.36 461.688L307.02 417C305.408 416.189 303.628 415.767 301.824 415.767C300.02 415.767 298.24 416.189 296.628 417L199.824 472.944C196.968 474.588 196.968 477.288 199.824 478.944L277.2 523.596C278.807 524.409 280.583 524.832 282.384 524.832C284.185 524.832 285.961 524.409 287.568 523.596Z" fill="#FAFAFA"/>
<path d="M239.82 464.724C242.099 463.387 244.538 462.347 247.08 461.628C249.34 460.987 251.66 460.584 254.004 460.428C256.071 460.291 258.148 460.416 260.184 460.8C261.915 461.125 263.599 461.661 265.2 462.396C266.8 463.196 268.448 464.072 270.144 465.024C271.84 465.976 273.352 466.924 274.68 467.868C275.794 468.631 276.734 469.62 277.44 470.772C278.1 471.848 278.335 473.131 278.1 474.372C277.765 475.851 277.04 477.214 276 478.32C274.435 479.998 272.602 481.406 270.576 482.484C268.312 483.816 265.894 484.867 263.376 485.616C261.131 486.269 258.821 486.671 256.488 486.816C254.42 486.949 252.344 486.82 250.308 486.432C248.573 486.113 246.884 485.581 245.28 484.848C243.68 484.048 242.036 483.172 240.348 482.22C238.66 481.268 237.144 480.316 235.8 479.364C234.687 478.608 233.75 477.622 233.052 476.472C232.394 475.395 232.159 474.112 232.392 472.872C232.726 471.387 233.432 470.012 234.444 468.876C235.986 467.195 237.804 465.791 239.82 464.724ZM264.36 472.86C263.88 472.486 263.37 472.153 262.836 471.864L260.532 470.532L258.216 469.2C257.668 468.863 257.094 468.57 256.5 468.324C255.184 467.725 253.758 467.407 252.312 467.388C250.486 467.427 248.707 467.976 247.176 468.972C245.268 470.076 244.344 471.06 244.416 471.936C244.499 472.43 244.687 472.9 244.969 473.314C245.251 473.729 245.619 474.077 246.048 474.336C246.519 474.704 247.012 475.045 247.524 475.356C248.22 475.8 248.976 476.256 249.78 476.712C250.584 477.168 251.364 477.612 252.18 478.02C252.756 478.336 253.349 478.621 253.956 478.872C255.272 479.47 256.698 479.789 258.144 479.808C259.97 479.765 261.747 479.216 263.28 478.224C265.188 477.12 266.112 476.136 266.028 475.248C265.944 474.751 265.75 474.279 265.462 473.866C265.174 473.453 264.797 473.11 264.36 472.86ZM281.436 443.076C281.373 442.556 281.452 442.03 281.664 441.552C282.086 440.916 282.676 440.409 283.368 440.088L289.284 436.668C289.954 436.266 290.703 436.016 291.48 435.936C292.129 435.86 292.785 435.981 293.364 436.284C293.486 436.367 293.596 436.468 293.688 436.584C293.793 436.722 293.867 436.882 293.904 437.052L300.708 497.256C300.762 497.772 300.679 498.293 300.468 498.768C300.059 499.413 299.471 499.926 298.776 500.244L292.86 503.664C292.19 504.064 291.44 504.309 290.664 504.384C290.016 504.469 289.358 504.352 288.78 504.048C288.649 503.966 288.535 503.86 288.444 503.736C288.344 503.594 288.271 503.436 288.228 503.268L281.436 443.076ZM312.528 457.38C314.809 456.045 317.248 455 319.788 454.272C322.046 453.625 324.368 453.223 326.712 453.072C328.779 452.935 330.856 453.06 332.892 453.444C334.623 453.769 336.307 454.305 337.908 455.04C339.508 455.84 341.156 456.712 342.852 457.656C344.548 458.6 346.06 459.552 347.388 460.512C348.501 461.271 349.441 462.257 350.148 463.404C350.806 464.481 351.041 465.763 350.808 467.004C350.474 468.491 349.749 469.862 348.708 470.976C347.14 472.651 345.308 474.058 343.284 475.14C341.023 476.474 338.604 477.523 336.084 478.26C333.845 478.92 331.538 479.322 329.208 479.46C327.141 479.596 325.064 479.471 323.028 479.088C321.294 478.76 319.606 478.224 318 477.492C316.392 476.712 314.748 475.848 313.068 474.876C311.388 473.904 309.876 472.956 308.52 472.02C307.41 471.255 306.474 470.266 305.772 469.116C305.11 468.04 304.874 466.756 305.112 465.516C305.446 464.031 306.152 462.656 307.164 461.52C308.7 459.841 310.515 458.44 312.528 457.38ZM337.068 465.504C336.587 465.135 336.077 464.806 335.544 464.52L333.24 463.2L330.924 461.868C330.373 461.533 329.799 461.236 329.208 460.98C327.888 460.392 326.464 460.074 325.02 460.044C323.192 460.096 321.413 460.643 319.872 461.628C317.976 462.732 317.052 463.728 317.124 464.604C317.207 465.098 317.395 465.568 317.677 465.983C317.959 466.397 318.327 466.745 318.756 467.004C319.224 467.375 319.713 467.72 320.22 468.036C320.928 468.48 321.684 468.936 322.488 469.392C323.292 469.848 324.072 470.292 324.888 470.7C325.704 471.108 326.256 471.384 326.664 471.552C327.983 472.141 329.407 472.459 330.852 472.488C332.677 472.434 334.453 471.882 335.988 470.892C337.896 469.8 338.808 468.804 338.736 467.928C338.653 467.426 338.461 466.948 338.173 466.529C337.885 466.11 337.507 465.76 337.068 465.504Z" fill="#AEB8FE"/>
<path d="M142.5 229.896L158.244 220.8V293.232C158.244 295.956 161.4 298.68 161.4 298.68L145.656 307.776C145.656 307.776 142.5 305.04 142.5 302.316V229.896Z" fill="#37474F"/>
<path d="M123.36 229.74L129.996 238.14V269.616C129.984 278.428 127.488 287.058 122.796 294.516L145.596 307.716C143.875 306.375 142.743 304.417 142.44 302.256V240.792L123.36 229.74Z" fill="#455A64"/>
<path d="M122.796 294.576V298.212L145.656 311.412V307.776L122.796 294.576Z" fill="#AEB8FE"/>
<path d="M145.656 311.412L161.4 302.316V298.68L145.656 307.776V311.412Z" fill="#AEB8FE"/>
<path opacity="0.1" d="M145.656 311.412L161.4 302.316V298.68L145.656 307.776V311.412Z" fill="black"/>
<path d="M141.78 191.652C139.104 190.044 135.384 190.248 131.268 192.624L131.112 192.708C122.976 197.424 116.4 208.8 116.4 218.244V218.4C116.4 223.2 118.176 226.632 121.008 228.096L132.924 235.104L152.796 198.156L141.78 191.652Z" fill="#AEB8FE"/>
<path opacity="0.8" d="M141.78 191.652C139.104 190.044 135.384 190.248 131.268 192.624L131.112 192.708C122.976 197.424 116.4 208.8 116.4 218.244V218.4C116.4 223.2 118.176 226.632 121.008 228.096L132.924 235.104L152.796 198.156L141.78 191.652Z" fill="#FAFAFA"/>
<path opacity="0.2" d="M120.984 228.12L132.9 235.128L139.5 222.876L117.744 210.312C116.889 212.871 116.436 215.546 116.4 218.244V218.4C116.4 223.284 118.152 226.656 120.984 228.12Z" fill="#AEB8FE"/>
<path d="M167.508 200.712C164.484 198.984 160.404 199.044 155.892 201.252C155.412 201.48 154.932 201.732 154.452 202.02C153.972 202.308 153.312 202.704 152.76 203.088C151.819 203.738 150.917 204.443 150.06 205.2C148.415 206.616 146.897 208.174 145.524 209.856C141.7 214.519 138.867 219.913 137.196 225.708C136.416 228.44 136.013 231.266 135.996 234.108C135.996 239.856 137.964 243.936 141.168 245.928L129.78 239.364C127.667 238.002 125.94 236.12 124.763 233.899C123.587 231.679 123 229.193 123.06 226.68C123.084 223.978 123.463 221.291 124.188 218.688C125.823 212.752 128.685 207.225 132.588 202.464C133.958 200.779 135.476 199.221 137.124 197.808C137.986 197.017 138.896 196.28 139.848 195.6C140.412 195.216 140.976 194.856 141.54 194.532C142.104 194.208 142.512 194.004 143.004 193.776C145.025 192.823 147.239 192.346 149.473 192.384C151.708 192.421 153.904 192.971 155.892 193.992L156.216 194.172L156.624 194.412L167.508 200.712Z" fill="#AEB8FE"/>
<path opacity="0.1" d="M129.756 239.292C127.643 237.93 125.916 236.049 124.739 233.828C123.563 231.607 122.976 229.121 123.036 226.608C123.06 223.906 123.439 221.219 124.164 218.616L137.172 225.696C136.392 228.428 135.989 231.254 135.972 234.096C135.972 239.844 137.94 243.924 141.144 245.916L129.756 239.292Z" fill="black"/>
<path d="M172.932 212.688C172.932 224.484 164.664 238.812 154.452 244.704C149.328 247.68 144.672 247.932 141.324 245.904L141.144 245.796C137.94 243.804 135.972 239.724 135.972 233.976C135.972 222.192 144.24 207.852 154.452 201.96C159.54 199.02 164.16 198.732 167.508 200.652C170.856 202.572 172.932 206.784 172.932 212.688Z" fill="#AEB8FE"/>
<path opacity="0.2" d="M172.932 212.688C172.932 224.484 164.664 238.812 154.452 244.704C149.328 247.68 144.672 247.932 141.324 245.904L141.144 245.796C137.94 243.804 135.972 239.724 135.972 233.976C135.972 222.192 144.24 207.852 154.452 201.96C159.54 199.02 164.16 198.732 167.508 200.652C170.856 202.572 172.932 206.784 172.932 212.688Z" fill="black"/>
<path d="M229.608 209.64C229.608 209.64 210.96 219.24 195.036 246.84C192.17 251.791 189.645 256.931 187.476 262.224C179.484 281.844 180.144 295.368 180.144 295.368C174.588 281.748 167.676 267.66 156.144 256.872C151.634 252.671 146.903 248.714 141.972 245.016C138.924 243.24 137.172 239.4 137.172 234.096C137.211 230.374 137.897 226.687 139.2 223.2C140.054 220.855 141.114 218.59 142.368 216.432C145.382 210.964 149.744 206.358 155.04 203.052C159.636 200.4 163.86 200.016 166.908 201.768C172.575 204.19 178.368 206.309 184.26 208.116C199.38 212.7 215.04 211.632 229.608 209.64Z" fill="#AEB8FE"/>
<path opacity="0.8" d="M229.608 209.64C229.608 209.64 210.96 219.24 195.036 246.84C192.17 251.791 189.645 256.931 187.476 262.224C179.484 281.844 180.144 295.368 180.144 295.368C174.588 281.748 167.676 267.66 156.144 256.872C151.634 252.671 146.903 248.714 141.972 245.016C138.924 243.24 137.172 239.4 137.172 234.096C137.211 230.374 137.897 226.687 139.2 223.2C140.054 220.855 141.114 218.59 142.368 216.432C145.382 210.964 149.744 206.358 155.04 203.052C159.636 200.4 163.86 200.016 166.908 201.768C172.575 204.19 178.368 206.309 184.26 208.116C199.38 212.7 215.04 211.632 229.608 209.64Z" fill="#FAFAFA"/>
<path opacity="0.2" d="M187.476 262.176C179.484 281.796 180.144 295.32 180.144 295.32C174.588 281.7 167.676 267.612 156.144 256.824C151.634 252.623 146.903 248.666 141.972 244.968C138.924 243.192 137.172 239.352 137.172 234.048C137.217 230.342 137.903 226.672 139.2 223.2C153.372 230.256 176.232 243.3 187.476 262.176Z" fill="#AEB8FE"/>
<path d="M264.744 236.244C264.744 248.544 260.952 261.996 254.652 274.428C246.576 290.4 234.396 304.56 220.8 312.432C196.5 326.46 176.808 315.084 176.808 287.04C176.875 280.311 177.856 273.621 179.724 267.156C184.617 250.091 193.772 234.551 206.328 222C208.048 220.312 209.812 218.712 211.62 217.2C212.376 216.576 213.144 216 213.912 215.388C215.004 214.56 216.096 213.768 217.212 212.988C218.328 212.208 219.6 211.536 220.8 210.852C245.04 196.8 264.744 208.2 264.744 236.244Z" fill="#AEB8FE"/>
<path opacity="0.1" d="M254.652 274.428C246.576 290.4 234.396 304.56 220.8 312.432C196.5 326.46 176.808 315.084 176.808 287.04C176.875 280.311 177.856 273.621 179.724 267.156C181.368 270.756 187.272 275.964 189.924 272.328C188.293 278.068 187.433 284.001 187.368 289.968C187.368 298.032 189.168 304.536 192.564 308.784C193.967 310.562 195.769 311.985 197.825 312.936C199.881 313.886 202.132 314.339 204.396 314.256C209.196 314.256 214.812 312.492 220.584 309.156C232.188 302.46 242.856 290.424 250.428 276.756C250.38 276.792 251.892 278.064 254.652 274.428Z" fill="black"/>
<path d="M261.732 237.816C261.732 250.2 257.388 264.216 250.38 276.792C242.808 290.424 232.14 302.46 220.536 309.192C214.764 312.528 209.172 314.292 204.348 314.292C202.084 314.375 199.833 313.922 197.777 312.972C195.721 312.021 193.919 310.598 192.516 308.82C189.12 304.572 187.32 298.02 187.32 290.004C187.385 284.037 188.245 278.104 189.876 272.364C190.488 270.084 191.22 267.804 192.048 265.524C193.519 261.492 195.25 257.559 197.232 253.752L198.432 251.352C199.14 250.056 199.872 248.772 200.64 247.512C203.221 243.232 206.121 239.152 209.316 235.308L209.424 235.188C211.482 232.718 213.673 230.362 215.988 228.132C217.636 226.532 219.308 225.068 221.004 223.74C221.724 223.164 222.444 222.612 223.164 222.084C224.04 221.448 224.928 220.884 225.816 220.248C226.704 219.612 227.568 219.144 228.444 218.628C234.228 215.28 239.832 213.528 244.644 213.528C255.372 213.6 261.732 222.624 261.732 237.816Z" fill="#AEB8FE"/>
<path opacity="0.3" d="M261.732 237.816C261.732 250.2 257.388 264.216 250.38 276.792C242.808 290.424 232.14 302.46 220.536 309.192C214.764 312.528 209.172 314.292 204.348 314.292C202.084 314.375 199.833 313.922 197.777 312.972C195.721 312.021 193.919 310.598 192.516 308.82C189.12 304.572 187.32 298.02 187.32 290.004C187.385 284.037 188.245 278.104 189.876 272.364C190.488 270.084 191.22 267.804 192.048 265.524C193.519 261.492 195.25 257.559 197.232 253.752L198.432 251.352C199.14 250.056 199.872 248.772 200.64 247.512C203.221 243.232 206.121 239.152 209.316 235.308L209.424 235.188C211.482 232.718 213.673 230.362 215.988 228.132C217.636 226.532 219.308 225.068 221.004 223.74C221.724 223.164 222.444 222.612 223.164 222.084C224.04 221.448 224.928 220.884 225.816 220.248C226.704 219.612 227.568 219.144 228.444 218.628C234.228 215.28 239.832 213.528 244.644 213.528C255.372 213.6 261.732 222.624 261.732 237.816Z" fill="black"/>
<path d="M224.4 244.704L208.968 273.504C204.624 271.872 197.292 269.268 191.316 267.744C191.556 266.976 191.82 266.232 192.108 265.464C193.576 261.43 195.308 257.498 197.292 253.692C197.7 252.9 198.12 252.12 198.492 251.292C199.2 249.996 199.932 248.712 200.7 247.464C203.278 243.182 206.178 239.102 209.376 235.26C209.418 235.221 209.455 235.177 209.484 235.128C209.952 234.576 210.42 234.024 210.888 233.496C215.055 237.62 219.577 241.371 224.4 244.704Z" fill="#AEB8FE"/>
<g opacity="0.6">
<path opacity="0.6" d="M224.4 244.704L208.968 273.504C204.624 271.872 197.292 269.268 191.316 267.744C191.556 266.976 191.82 266.232 192.108 265.464C193.576 261.43 195.308 257.498 197.292 253.692C197.7 252.9 198.12 252.12 198.492 251.292C199.2 249.996 199.932 248.712 200.7 247.464C203.278 243.182 206.178 239.102 209.376 235.26C209.418 235.221 209.455 235.177 209.484 235.128C209.952 234.576 210.42 234.024 210.888 233.496C215.055 237.62 219.577 241.371 224.4 244.704Z" fill="#FAFAFA"/>
</g>
<path d="M210.204 273.444C206.712 273.444 204.636 270.624 204.636 265.908V265.764C204.636 258.348 209.856 249.288 216.288 245.58L216.408 245.508C217.876 244.595 219.553 244.074 221.28 243.996C224.76 243.996 226.848 246.816 226.848 251.544V251.688C226.848 259.104 221.616 268.152 215.196 271.86L215.076 271.932C213.611 272.85 211.932 273.371 210.204 273.444Z" fill="#AEB8FE"/>
<g opacity="0.8">
<path opacity="0.8" d="M210.204 273.444C206.712 273.444 204.636 270.624 204.636 265.908V265.764C204.636 258.348 209.856 249.288 216.288 245.58L216.408 245.508C217.876 244.595 219.553 244.074 221.28 243.996C224.76 243.996 226.848 246.816 226.848 251.544V251.688C226.848 259.104 221.616 268.152 215.196 271.86L215.076 271.932C213.611 272.85 211.932 273.371 210.204 273.444Z" fill="#FAFAFA"/>
</g>
<path d="M226.8 192.288C225.88 192.288 224.998 191.923 224.348 191.272C223.697 190.622 223.332 189.74 223.332 188.82V155.22C223.332 154.3 223.697 153.418 224.348 152.768C224.998 152.117 225.88 151.752 226.8 151.752C227.72 151.752 228.602 152.117 229.252 152.768C229.903 153.418 230.268 154.3 230.268 155.22V188.82C230.268 189.74 229.903 190.622 229.252 191.272C228.602 191.923 227.72 192.288 226.8 192.288Z" fill="#E0E0E0"/>
<path d="M196.308 200.472C195.7 200.473 195.103 200.314 194.576 200.011C194.049 199.707 193.612 199.27 193.308 198.744L176.508 169.68C176.047 168.884 175.92 167.938 176.156 167.049C176.393 166.16 176.972 165.401 177.768 164.94C178.564 164.479 179.51 164.352 180.399 164.588C181.288 164.825 182.047 165.404 182.508 166.2L199.308 195.264C199.614 195.792 199.776 196.391 199.776 197.002C199.776 197.612 199.616 198.212 199.31 198.74C199.005 199.269 198.565 199.707 198.036 200.011C197.506 200.315 196.906 200.474 196.296 200.472H196.308Z" fill="#E0E0E0"/>
<path d="M164.544 362.208C163.936 362.204 163.34 362.041 162.814 361.736C162.289 361.43 161.853 360.992 161.549 360.465C161.246 359.938 161.086 359.341 161.085 358.733C161.084 358.125 161.242 357.528 161.544 357L178.344 327.936C178.561 327.522 178.86 327.156 179.222 326.861C179.584 326.565 180.002 326.345 180.451 326.215C180.9 326.085 181.37 326.048 181.834 326.104C182.298 326.16 182.746 326.31 183.151 326.544C183.555 326.778 183.909 327.091 184.189 327.465C184.47 327.839 184.672 328.266 184.783 328.72C184.895 329.174 184.913 329.645 184.838 330.107C184.762 330.568 184.594 331.009 184.344 331.404L167.544 360.468C167.24 360.995 166.803 361.433 166.276 361.738C165.75 362.044 165.153 362.205 164.544 362.208Z" fill="#E0E0E0"/>
<path d="M226.8 366.696C225.88 366.696 224.998 366.331 224.348 365.68C223.697 365.03 223.332 364.148 223.332 363.228V329.628C223.332 328.708 223.697 327.826 224.348 327.176C224.998 326.525 225.88 326.16 226.8 326.16C227.72 326.16 228.602 326.525 229.252 327.176C229.903 327.826 230.268 328.708 230.268 329.628V363.228C230.268 364.148 229.903 365.03 229.252 365.68C228.602 366.331 227.72 366.696 226.8 366.696Z" fill="#E0E0E0"/>
<path d="M274.176 335.328C273.572 335.324 272.98 335.162 272.459 334.859C271.937 334.556 271.503 334.122 271.2 333.6L254.4 304.536C253.984 303.743 253.891 302.821 254.14 301.961C254.389 301.101 254.961 300.371 255.736 299.923C256.511 299.475 257.429 299.344 258.298 299.557C259.168 299.771 259.921 300.312 260.4 301.068L277.2 330.132C277.502 330.66 277.66 331.257 277.659 331.865C277.658 332.473 277.498 333.07 277.195 333.597C276.891 334.124 276.455 334.562 275.93 334.868C275.404 335.174 274.808 335.336 274.2 335.34L274.176 335.328Z" fill="#E0E0E0"/>
<path d="M308.796 300.684C308.19 300.685 307.594 300.528 307.068 300.228L278.004 283.428C277.61 283.2 277.265 282.896 276.988 282.534C276.712 282.172 276.509 281.759 276.392 281.319C276.275 280.879 276.246 280.42 276.306 279.969C276.367 279.517 276.515 279.082 276.744 278.688C276.972 278.294 277.276 277.949 277.638 277.672C278 277.396 278.413 277.193 278.853 277.076C279.293 276.959 279.752 276.93 280.203 276.991C280.655 277.051 281.09 277.2 281.484 277.428L310.536 294.228C311.196 294.611 311.711 295.2 312.002 295.906C312.293 296.611 312.343 297.392 312.145 298.129C311.947 298.866 311.511 299.516 310.906 299.98C310.3 300.445 309.559 300.696 308.796 300.696V300.684Z" fill="#E0E0E0"/>
<path d="M321.48 253.368H287.88C286.96 253.368 286.078 253.003 285.428 252.352C284.777 251.702 284.412 250.82 284.412 249.9C284.412 248.98 284.777 248.098 285.428 247.448C286.078 246.797 286.96 246.432 287.88 246.432H321.48C322.4 246.432 323.282 246.797 323.932 247.448C324.583 248.098 324.948 248.98 324.948 249.9C324.948 250.82 324.583 251.702 323.932 252.352C323.282 253.003 322.4 253.368 321.48 253.368Z" fill="#E0E0E0"/>
<path d="M279.744 222.828C278.977 222.833 278.231 222.583 277.621 222.118C277.011 221.654 276.572 221 276.374 220.259C276.175 219.519 276.227 218.733 276.522 218.026C276.817 217.318 277.338 216.728 278.004 216.348L307.068 199.548C307.463 199.298 307.904 199.13 308.365 199.054C308.827 198.979 309.298 198.997 309.752 199.109C310.206 199.22 310.633 199.422 311.007 199.703C311.381 199.983 311.694 200.337 311.928 200.741C312.162 201.146 312.311 201.594 312.368 202.058C312.424 202.522 312.386 202.992 312.256 203.441C312.126 203.89 311.907 204.308 311.611 204.67C311.316 205.032 310.95 205.331 310.536 205.548L281.484 222.348C280.957 222.661 280.356 222.827 279.744 222.828Z" fill="#E0E0E0"/>
<path d="M257.388 200.472C256.78 200.47 256.183 200.308 255.657 200.002C255.131 199.696 254.695 199.258 254.392 198.73C254.089 198.202 253.93 197.604 253.932 196.996C253.933 196.388 254.095 195.79 254.4 195.264L271.2 166.2C271.661 165.404 272.42 164.825 273.309 164.588C274.198 164.352 275.144 164.479 275.94 164.94C276.736 165.401 277.315 166.16 277.552 167.049C277.788 167.938 277.661 168.884 277.2 169.68L260.4 198.744C260.095 199.272 259.656 199.71 259.127 200.014C258.598 200.317 257.998 200.475 257.388 200.472Z" fill="#E0E0E0"/>
</svg>
