<svg width="350" height="350" viewBox="0 0 350 350" fill="none" xmlns="http://www.w3.org/2000/svg">
<g clip-path="url(#clip0_36_657)">
<path d="M255.072 304.616C290.937 292.243 319.603 264.426 332.348 228.691C338.609 211.117 342.099 189.514 337.23 165.348C323.578 97.5685 290.862 65.0434 244.46 63.1329C198.059 61.2225 177.556 1.93531 109.363 23.5107C41.1711 45.0862 -8.37173 122.133 22.9738 197.691C54.3193 273.249 86.494 246.231 121.503 279.026C148.273 304.121 201.549 323.088 255.072 304.616Z" fill="#AEB8FE"/>
<path opacity="0.7" d="M255.072 304.616C290.937 292.243 319.603 264.426 332.348 228.691C338.609 211.117 342.099 189.514 337.23 165.348C323.578 97.5685 290.862 65.0434 244.46 63.1329C198.059 61.2225 177.556 1.93531 109.363 23.5107C41.1711 45.0862 -8.37173 122.133 22.9738 197.691C54.3193 273.249 86.494 246.231 121.503 279.026C148.273 304.121 201.549 323.088 255.072 304.616Z" fill="white"/>
<path d="M54.964 241.787C54.523 236.348 52.031 227.409 45.703 218.897C38.934 209.797 30.674 204.099 24.542 206.759C18.83 209.244 20.993 217.126 30.842 224.91C37.737 230.363 44.891 237.468 48.741 246.043L54.978 256.956L54.964 241.787Z" fill="#AEB8FE"/>
<g opacity="0.1">
<path d="M54.964 241.787C54.523 236.348 52.031 227.409 45.703 218.897C38.934 209.797 30.674 204.099 24.542 206.759C18.83 209.244 20.993 217.126 30.842 224.91C37.737 230.363 44.891 237.468 48.741 246.043L54.978 256.956L54.964 241.787Z" fill="black"/>
</g>
<path d="M54.411 245.938C54.3309 245.938 54.2528 245.913 54.1876 245.867C54.1223 245.82 54.0732 245.755 54.047 245.679C48.566 230.594 37.156 215.327 27.503 210.168C27.457 210.144 27.4162 210.111 27.3829 210.072C27.3496 210.032 27.3244 209.986 27.3088 209.937C27.2932 209.887 27.2875 209.835 27.292 209.784C27.2965 209.732 27.3111 209.682 27.335 209.636C27.3589 209.59 27.3916 209.549 27.4313 209.516C27.4709 209.483 27.5168 209.457 27.5662 209.442C27.6156 209.426 27.6676 209.421 27.7192 209.425C27.7708 209.429 27.821 209.444 27.867 209.468C37.667 214.711 49.238 230.153 54.775 245.406C54.8088 245.502 54.8035 245.607 54.7602 245.699C54.717 245.79 54.6393 245.861 54.544 245.896C54.5033 245.92 54.4579 245.934 54.411 245.938Z" fill="white"/>
<path d="M54.411 260.4C51.2444 262.89 47.4783 264.503 43.491 265.076C36.61 266.154 33.6 262.864 33.6 262.864C33.6 262.864 36.309 256.41 40.222 254.597C35.9931 255.544 31.9552 257.201 28.28 259.497C28.28 259.497 24.08 259.56 22.407 253.148C22.407 253.148 24.892 249.291 33.243 247.205C33.243 247.205 28.168 245.924 20.846 247.793C20.293 248.01 17.955 239.722 17.248 235.893C16.541 232.064 18.074 232.106 21.056 231.308C24.038 230.51 34.188 230.013 36.057 231.658C37.926 233.303 38.857 238.903 38.857 238.903C38.857 238.903 40.642 235.732 40.215 232.897C42.2956 232.303 44.5077 232.357 46.557 233.051C49.91 234.213 49.693 235.851 49.693 238.287C49.7074 240.742 49.3703 243.186 48.692 245.546C48.692 245.546 51.009 243.544 51.086 236.166C51.086 236.166 55.615 240.037 57.435 243.369C59.255 246.701 58.8 255.416 54.411 260.4Z" fill="#AEB8FE"/>
<path d="M54.411 260.771C54.3381 260.772 54.2665 260.752 54.2046 260.713C54.1426 260.675 54.0928 260.62 54.061 260.554C48.51 249.018 27.867 235.62 20.461 234.178C20.3603 234.158 20.2716 234.099 20.214 234.013C20.1564 233.928 20.1345 233.824 20.153 233.723C20.163 233.673 20.1828 233.626 20.2111 233.584C20.2394 233.542 20.2757 233.506 20.318 233.478C20.3603 233.45 20.4077 233.431 20.4574 233.421C20.5072 233.411 20.5584 233.412 20.608 233.422C28.14 234.885 49.119 248.5 54.761 260.218C54.8046 260.311 54.8099 260.417 54.7758 260.514C54.7418 260.611 54.6711 260.691 54.579 260.736C54.5266 260.761 54.469 260.773 54.411 260.771Z" fill="white"/>
<path d="M52.983 138.04V263.704L170.254 195.993V82.579L90.146 128.793L87.136 118.279L52.983 138.04Z" fill="#37474F"/>
<path d="M52.983 263.704L58.996 153.356L176.267 85.652L170.254 195.993L52.983 263.704Z" fill="#F0F0F0"/>
<path d="M52.983 263.704L63.602 156.429L180.873 88.725L170.254 195.993L52.983 263.704Z" fill="#455A64"/>
<path d="M103.747 272.699C103.418 272.699 103.369 272.321 103.369 272.097V110.649C103.394 110.229 103.516 109.821 103.726 109.456C103.937 109.091 104.229 108.781 104.58 108.549L217.882 43.183C218.01 43.1 218.157 43.0517 218.309 43.043C218.631 43.043 218.68 43.421 218.68 43.645V205.1C218.655 205.52 218.533 205.929 218.322 206.293C218.112 206.658 217.82 206.968 217.469 207.2L104.174 272.559C104.045 272.64 103.899 272.689 103.747 272.699Z" fill="#FAFAFA"/>
<path d="M218.253 43.463C218.263 43.5233 218.263 43.5848 218.253 43.645V205.1C218.224 205.447 218.119 205.783 217.944 206.084C217.77 206.386 217.531 206.645 217.245 206.843L103.971 272.209C103.917 272.242 103.858 272.265 103.796 272.279C103.79 272.218 103.79 272.158 103.796 272.097V110.649C103.823 110.302 103.926 109.966 104.1 109.664C104.273 109.363 104.511 109.104 104.797 108.906L218.085 43.533C218.137 43.502 218.194 43.4785 218.253 43.463ZM218.309 42.637C218.086 42.6425 217.868 42.7077 217.679 42.826L104.377 108.199C103.968 108.469 103.628 108.831 103.384 109.257C103.141 109.682 103.002 110.159 102.977 110.649V272.097C102.977 272.734 103.292 273.105 103.761 273.105C103.984 273.096 104.2 273.031 104.391 272.916L217.7 207.543C218.108 207.272 218.447 206.909 218.69 206.484C218.933 206.058 219.073 205.582 219.1 205.093V43.645C219.1 43.001 218.778 42.637 218.316 42.637H218.309Z" fill="#E6E6E6"/>
<path d="M112.917 114.765L146.097 95.606V133.917L112.917 153.076V114.765Z" fill="#AEB8FE"/>
<path d="M141.12 105.182V116.676L140.077 117.257V113.757C140.077 111.811 138.495 111.153 136.542 112.28L122.5 120.4C120.547 121.527 118.958 124.019 118.958 125.958V129.458L117.922 130.081V118.594L141.12 105.182Z" fill="#FAFAFA"/>
<path d="M134.722 134.477C133.014 135.464 131.635 134.428 131.635 132.174V113.736L127.4 116.06V134.638C127.4 136.892 126 139.538 124.313 140.497L121.233 142.275V143.5L137.823 133.917V132.699L134.722 134.477Z" fill="#FAFAFA"/>
<path d="M152.733 93.695C152.733 94.752 153.685 95.095 154.833 94.395L206.997 64.295C207.565 63.9679 208.05 63.5141 208.414 62.969C208.779 62.4239 209.012 61.8021 209.097 61.152C209.097 60.095 208.145 59.787 206.997 60.452L154.833 90.552C154.264 90.8779 153.778 91.3313 153.414 91.8767C153.049 92.422 152.816 93.0444 152.733 93.695Z" fill="#E0E0E0"/>
<path d="M152.733 105.182C152.733 106.246 153.685 106.582 154.833 105.882L206.997 75.782C207.565 75.4549 208.05 75.0011 208.414 74.456C208.779 73.9109 209.012 73.2891 209.097 72.639C209.097 71.582 208.145 71.239 206.997 71.939L154.833 102.039C154.264 102.365 153.778 102.818 153.414 103.364C153.049 103.909 152.816 104.531 152.733 105.182Z" fill="#E0E0E0"/>
<path d="M152.733 116.676C152.733 117.74 153.685 118.076 154.833 117.376L206.997 87.276C207.565 86.9489 208.05 86.4951 208.414 85.95C208.779 85.4049 209.012 84.7831 209.097 84.133C209.097 83.076 208.145 82.733 206.997 83.433L154.833 113.533C154.264 113.859 153.778 114.312 153.414 114.858C153.049 115.403 152.816 116.025 152.733 116.676Z" fill="#E0E0E0"/>
<path d="M152.733 128.17C152.733 129.227 153.685 129.57 154.833 128.87L206.997 98.77C207.565 98.4429 208.05 97.9891 208.414 97.444C208.779 96.8989 209.012 96.2771 209.097 95.627C209.097 94.57 208.145 94.262 206.997 94.927L154.833 125.027C154.264 125.353 153.778 125.806 153.414 126.352C153.049 126.897 152.816 127.519 152.733 128.17Z" fill="#E0E0E0"/>
<path d="M112.917 162.659C112.917 163.716 113.869 164.024 115.017 163.359L206.997 110.299C207.565 109.972 208.05 109.518 208.414 108.973C208.779 108.428 209.012 107.806 209.097 107.156C209.097 106.099 208.145 105.791 206.997 106.456L115.017 159.523C114.45 159.849 113.965 160.302 113.601 160.846C113.237 161.39 113.003 162.01 112.917 162.659Z" fill="#E0E0E0"/>
<path d="M112.917 174.153C112.917 175.21 113.869 175.553 115.017 174.853L207.018 121.8C207.586 121.473 208.071 121.019 208.435 120.474C208.8 119.929 209.033 119.307 209.118 118.657C209.118 117.6 208.166 117.292 207.018 117.957L115.038 171.01C114.466 171.335 113.977 171.787 113.609 172.333C113.241 172.878 113.004 173.501 112.917 174.153Z" fill="#E0E0E0"/>
<path d="M112.917 185.647C112.917 186.704 113.869 187.047 115.017 186.347L206.997 133.287C207.565 132.96 208.05 132.506 208.414 131.961C208.779 131.416 209.012 130.794 209.097 130.144C209.097 129.087 208.145 128.744 206.997 129.444L115.017 182.511C114.45 182.837 113.965 183.29 113.601 183.834C113.237 184.378 113.003 184.998 112.917 185.647Z" fill="#E0E0E0"/>
<path d="M112.917 197.134C112.917 198.191 113.869 198.534 115.017 197.834L206.997 144.767C207.565 144.442 208.051 143.989 208.415 143.445C208.779 142.901 209.013 142.28 209.097 141.631C209.097 140.567 208.145 140.231 206.997 140.931L115.017 193.998C114.449 194.323 113.963 194.776 113.599 195.32C113.235 195.864 113.001 196.485 112.917 197.134Z" fill="#E0E0E0"/>
<path d="M112.917 208.6C112.917 209.657 113.869 209.965 115.017 209.3L206.997 156.233C207.565 155.906 208.05 155.452 208.414 154.907C208.779 154.362 209.012 153.74 209.097 153.09C209.097 152.033 208.145 151.725 206.997 152.39L115.017 205.45C114.448 205.778 113.962 206.233 113.598 206.779C113.234 207.325 113.001 207.949 112.917 208.6Z" fill="#E0E0E0"/>
<path d="M112.917 220.122C112.917 221.179 113.869 221.522 115.017 220.822L206.997 167.762C207.565 167.435 208.05 166.981 208.414 166.436C208.779 165.891 209.012 165.269 209.097 164.619C209.097 163.562 208.145 163.219 206.997 163.919L115.038 217C114.469 217.323 113.981 217.772 113.613 218.314C113.245 218.855 113.007 219.474 112.917 220.122Z" fill="#E0E0E0"/>
<path d="M112.917 231.609C112.917 232.666 113.869 233.009 115.017 232.309L206.997 179.242C207.565 178.917 208.051 178.465 208.415 177.92C208.779 177.376 209.013 176.755 209.097 176.106C209.097 175.042 208.145 174.706 206.997 175.406L115.017 228.473C114.449 228.798 113.963 229.251 113.599 229.795C113.235 230.339 113.001 230.96 112.917 231.609Z" fill="#E0E0E0"/>
<path d="M112.917 243.103C112.917 244.16 113.869 244.468 115.017 243.803L206.997 190.736C207.565 190.409 208.05 189.955 208.414 189.41C208.779 188.865 209.012 188.243 209.097 187.593C209.097 186.536 208.145 186.193 206.997 186.893L115.017 239.953C114.448 240.281 113.962 240.736 113.598 241.282C113.234 241.828 113.001 242.452 112.917 243.103Z" fill="#E0E0E0"/>
<path d="M112.917 254.597C112.917 255.654 113.869 255.997 115.017 255.297L206.997 202.237C207.565 201.91 208.05 201.456 208.414 200.911C208.779 200.366 209.012 199.744 209.097 199.094C209.097 198.037 208.145 197.729 206.997 198.394L115.017 251.461C114.45 251.787 113.965 252.24 113.601 252.784C113.237 253.328 113.003 253.948 112.917 254.597Z" fill="#E0E0E0"/>
<path d="M254.569 171.822C254.595 167.744 255.759 163.753 257.929 160.3V153.797C257.958 153.465 257.907 153.132 257.779 152.824C257.651 152.517 257.45 152.246 257.194 152.033C257.13 151.989 257.062 151.951 256.991 151.921L235.9 139.72C235.581 139.581 235.231 139.527 234.885 139.564C234.539 139.601 234.209 139.727 233.926 139.93L217.301 149.527C216.499 150.08 215.835 150.809 215.358 151.658C214.881 152.508 214.605 153.455 214.55 154.427C214.361 159.187 212.807 168 204.4 172.851C195.993 177.702 194.418 170.597 194.243 166.061C194.173 164.255 193.06 163.527 191.499 164.43L174.867 174.027C174.049 174.567 173.369 175.292 172.883 176.143C172.396 176.994 172.117 177.948 172.067 178.927V185.43C172.067 185.43 175.427 186.368 175.427 193.074C175.427 199.78 170.233 211.939 170.233 228.816C170.233 237.265 172.914 244.321 178.542 247.562L199.675 259.756C205.275 263.06 213.857 262.556 225.666 255.71C249.172 242.137 259.854 218.463 259.854 201.593C259.854 184.723 254.569 178.5 254.569 171.822Z" fill="#AEB8FE"/>
<path d="M233.856 139.909L217.231 149.506C216.429 150.058 215.764 150.787 215.287 151.637C214.81 152.486 214.534 153.433 214.48 154.406C214.305 158.795 212.975 166.621 206.185 171.612L193.396 164.227L193.326 164.192C193.019 164.055 192.682 164.003 192.348 164.041C192.014 164.079 191.697 164.206 191.429 164.409L174.797 174.006C174.565 174.141 174.347 174.298 174.146 174.475C173.605 174.939 173.148 175.493 172.795 176.113C172.289 176.962 172.005 177.925 171.969 178.913V185.416L172.886 185.948C173.894 186.76 175.329 188.678 175.329 193.053C175.329 199.759 170.135 211.953 170.135 228.795C170.135 237.244 172.816 244.314 178.444 247.555L199.5 259.7C193.977 256.417 191.352 249.417 191.352 241.045C191.352 224.168 196.539 212.002 196.539 205.296C196.539 198.59 193.179 197.659 193.179 197.659V191.156C193.233 190.178 193.514 189.226 194 188.375C194.486 187.524 195.163 186.799 195.979 186.256L212.611 176.659C212.871 176.466 213.175 176.341 213.496 176.297C213.816 176.253 214.143 176.291 214.445 176.407H214.515C214.799 176.618 215.025 176.898 215.171 177.22C215.318 177.541 215.381 177.895 215.355 178.248C215.523 182.791 217.049 189.931 225.512 185.045C233.975 180.159 235.473 171.381 235.669 166.621C235.721 165.649 235.995 164.701 236.471 163.852C236.947 163.002 237.611 162.273 238.413 161.721L255.038 152.124C255.31 151.93 255.625 151.807 255.956 151.764C256.287 151.721 256.623 151.761 256.935 151.879L235.9 139.72C235.574 139.566 235.212 139.502 234.852 139.535C234.493 139.568 234.149 139.697 233.856 139.909Z" fill="#AEB8FE"/>
<path opacity="0.1" d="M172.9 185.941L193.2 197.652V191.149C193.232 190.159 193.518 189.195 194.033 188.349L172.795 176.12C172.288 176.969 172.004 177.932 171.969 178.92V185.423L172.9 185.941Z" fill="black"/>
<path opacity="0.4" d="M206.185 171.612L193.396 164.227L193.326 164.192C193.019 164.055 192.682 164.003 192.348 164.041C192.014 164.079 191.697 164.206 191.429 164.409L174.797 174.006C174.565 174.141 174.347 174.298 174.146 174.475C173.605 174.939 173.148 175.493 172.795 176.113L194.04 188.377C194.515 187.518 195.202 186.796 196.035 186.277L212.667 176.68C212.927 176.487 213.231 176.362 213.552 176.318C213.872 176.274 214.199 176.312 214.501 176.428L206.185 171.612Z" fill="white"/>
<path opacity="0.4" d="M256.991 151.9L235.9 139.72C235.577 139.571 235.221 139.51 234.867 139.543C234.513 139.576 234.174 139.702 233.884 139.909L217.259 149.506C216.44 150.022 215.773 150.747 215.327 151.606L236.565 163.863C237.011 163.004 237.678 162.279 238.497 161.763L255.122 152.166C255.389 151.974 255.698 151.849 256.024 151.803C256.349 151.756 256.681 151.79 256.991 151.9Z" fill="white"/>
<path opacity="0.1" d="M236.537 163.87C236.06 164.731 235.781 165.688 235.718 166.67C235.529 171.43 233.968 180.243 225.568 185.094C217.168 189.945 215.579 182.84 215.411 178.297C215.437 177.944 215.374 177.59 215.227 177.269C215.081 176.947 214.855 176.667 214.571 176.456H214.501L206.185 171.654C212.975 166.663 214.305 158.837 214.48 154.448C214.54 153.465 214.82 152.508 215.299 151.648L236.537 163.87Z" fill="black"/>
<path opacity="0.2" d="M199.5 259.7L178.416 247.541C172.816 244.3 170.107 237.23 170.107 228.781C170.107 211.911 175.301 199.745 175.301 193.039C175.301 188.699 173.901 186.781 172.886 185.948L193.186 197.659C193.186 197.659 196.546 198.597 196.546 205.296C196.546 211.995 191.359 224.196 191.359 241.045C191.38 249.424 194.005 256.424 199.5 259.7Z" fill="black"/>
<path d="M230.391 230.818L221.291 236.068L222.691 219.611C221.599 219.037 220.906 217.623 220.906 215.593C220.906 211.967 223.111 207.76 225.806 206.185C228.501 204.61 230.706 206.283 230.706 209.909C230.65 212.056 230.037 214.152 228.928 215.992L230.391 230.818Z" fill="#455A64"/>
<path d="M230.391 230.818L222.152 226.058L221.291 236.068L230.391 230.818Z" fill="#37474F"/>
<path d="M225.841 206.185C224.063 207.214 222.509 209.37 221.641 211.785L228.977 216.02C230.086 214.18 230.699 212.084 230.755 209.937C230.762 206.283 228.557 204.617 225.841 206.185Z" fill="#37474F"/>
<path d="M236.124 110.509C231.623 107.912 225.974 108.206 220.605 111.3L200.774 122.752C192.178 127.715 185.696 138.943 185.696 148.862V175.637C185.696 176.743 186.438 177.856 187.901 178.703C189.546 179.538 191.365 179.973 193.21 179.973C195.056 179.973 196.875 179.538 198.52 178.703C199.983 177.856 200.725 176.743 200.725 175.637V148.862C200.725 144.298 204.33 138.054 208.285 135.772L228.116 124.32H228.165V151.144C228.165 152.257 228.907 153.363 230.37 154.21C232.015 155.045 233.834 155.48 235.679 155.48C237.525 155.48 239.344 155.045 240.989 154.21C242.452 153.363 243.194 152.257 243.194 151.144V124.348C243.194 118.146 240.618 113.106 236.124 110.509Z" fill="#37474F"/>
<path d="M228.2 124.348V151.116C228.2 152.229 228.942 153.335 230.405 154.182C231.101 154.572 231.844 154.868 232.617 155.064V121.744L228.2 124.292V124.348Z" fill="#263238"/>
<path d="M317.954 152.411C316.792 152.075 315.854 151.417 314.181 151.081C313.016 150.936 311.904 150.511 310.94 149.842C309.68 148.995 307.209 145.355 305.256 141.729C303.214 137.606 301.888 133.165 301.336 128.597C300.881 123.088 299.607 115.717 299.278 112.497C298.746 107.415 297.234 104.797 291.361 105.154C291.361 105.154 292.936 106.946 292.481 111.538C292.026 116.13 293.349 124.138 294.343 130.354C294.826 133.364 296.401 137.494 299.348 143.01C301.399 146.86 303.261 150.108 306.124 153.398C306.901 154.294 307.258 155.155 308.546 157.045C309.029 157.858 309.633 158.592 310.338 159.222C311.247 159.959 312.259 160.561 313.341 161.007C314.709 161.579 316.206 161.77 317.674 161.56C318.471 161.457 319.233 161.169 319.9 160.72C320.573 160.25 321.054 159.555 321.258 158.76C321.3 158.602 321.3 158.435 321.258 158.277C321.174 157.99 320.887 157.822 320.628 157.675C319.083 156.965 317.576 156.175 316.113 155.309C314.965 154.518 314.265 153.804 314.531 153.734C314.797 153.664 315.448 154.175 316.631 154.329C317.814 154.483 319.004 153.93 319.032 153.279C319.06 152.628 319.116 152.747 317.954 152.411Z" fill="#9A4A4D"/>
<path d="M290.962 104.839C293.062 104.699 297.584 104.139 298.942 108.402C300.3 112.665 301.868 128.597 302.288 130.62C302.983 133.685 303.919 136.69 305.088 139.608C306.32 142.632 309.897 148.799 309.897 148.799L305.438 152.6C305.438 152.6 299.194 145.355 295.988 137.662C292.782 129.969 291.788 120.036 291.627 114.121C291.582 111.017 291.36 107.918 290.962 104.839Z" fill="#AEB8FE"/>
<path opacity="0.1" d="M290.962 104.839C293.062 104.699 297.584 104.139 298.942 108.402C300.3 112.665 301.868 128.597 302.288 130.62C302.983 133.685 303.919 136.69 305.088 139.608C306.32 142.632 309.897 148.799 309.897 148.799L305.438 152.6C305.438 152.6 299.194 145.355 295.988 137.662C292.782 129.969 291.788 120.036 291.627 114.121C291.582 111.017 291.36 107.918 290.962 104.839Z" fill="black"/>
<path d="M294.945 234.605L301.175 234.822L301.49 223.517L295.253 223.3L294.945 234.605Z" fill="#9A4A4D"/>
<path d="M271.614 242.361H277.851V231.679H271.614V242.361Z" fill="#9A4A4D"/>
<path d="M277.851 239.288V238.392C278.446 238.651 279.832 243.943 282.31 246.204C284.277 247.996 286.958 250.068 287.644 252.07C288.33 254.072 283.906 255.304 282.044 254.975C279.909 254.597 276.206 253.092 275.275 251.699C274.344 250.306 273.91 248.248 273.175 247.226C272.44 246.204 270.683 245.063 270.27 243.88C270.046 243.229 270.312 241.78 270.627 240.604C270.942 239.428 271.236 238.287 271.607 238.392V239.092C272.496 239.791 273.598 240.164 274.729 240.149C275.639 240.163 277.858 239.981 277.851 239.288Z" fill="#263238"/>
<path d="M301.245 232.897C301.567 232.897 301.833 233.366 302.547 234.136C303.612 235.217 304.852 236.109 306.215 236.775C308.553 237.951 313.096 239.75 315.147 240.674C316.435 241.248 316.372 242.774 315.049 243.684C313.726 244.594 310.513 245.203 306.649 244.342C304.549 243.873 301.826 241.941 300.097 242.046C298.368 242.151 295.141 242.123 293.867 241.241C292.593 240.359 293.097 238.49 293.461 236.873C293.853 235.116 294.413 232.421 295.001 232.54V233.093C295.75 234.234 299.572 234.696 301.217 233.856L301.245 232.897Z" fill="#263238"/>
<path d="M274.274 143.199C269.374 153.237 274.211 191.093 274.211 191.093C274.036 192.731 272.076 195.93 271.208 203.161C270.186 211.701 271.068 233.653 271.068 233.653C271.068 233.653 275.142 235.459 278.46 233.961C278.46 233.961 284.319 201.383 285.593 192.899C286.699 185.493 288.876 169.197 288.876 169.197L293.44 193.039C292.635 195.414 292.035 197.855 291.648 200.333C291.046 205.324 294.63 228.62 294.63 228.62C296.846 229.55 299.309 229.715 301.63 229.089C301.63 229.089 303.73 198.17 304.346 192.15C305.34 182.042 302.407 150.423 301.371 143.808L274.274 143.199Z" fill="#263238"/>
<path d="M280.798 105.063C279.223 105.245 275.583 105.882 275.583 105.882C273.168 106.764 273.427 108.248 272.783 110.565C271.957 113.435 272.496 118.559 273.483 121.38L278.159 134.897C276.409 139.097 274.729 140.343 273.889 143.556C281.526 149.219 297.941 148.883 301.469 144.109C301.616 143.094 300.272 131.467 299.712 126.294C302.092 121.975 303.002 118.881 301.756 115.57C299.621 109.907 293.769 104.615 290.99 104.839L280.798 105.063Z" fill="#AEB8FE"/>
<path d="M285.544 100.198H283.241C280.02 100.198 276.931 98.9184 274.653 96.6408C272.376 94.3632 271.096 91.274 271.096 88.053C271.096 84.8152 272.382 81.7101 274.672 79.4206C276.961 77.1312 280.066 75.845 283.304 75.845H285.481C288.719 75.845 291.824 77.1312 294.113 79.4206C296.403 81.7101 297.689 84.8152 297.689 88.053C297.689 91.274 296.409 94.3632 294.132 96.6408C291.854 98.9184 288.765 100.198 285.544 100.198Z" fill="#263238"/>
<path d="M264.873 105.784C265.856 105.785 266.83 105.592 267.739 105.216C268.647 104.841 269.473 104.29 270.169 103.595C270.864 102.9 271.416 102.075 271.793 101.166C272.169 100.258 272.363 99.2842 272.363 98.301V82.264C270.377 82.264 268.471 83.0531 267.067 84.4578C265.662 85.8624 264.873 87.7675 264.873 89.754V105.784Z" fill="#263238"/>
<path d="M293.713 80.276C295.176 81.144 296.989 84.833 296.807 92.561C296.66 99.106 294.532 100.723 293.468 101.192C292.404 101.661 290.346 101.374 288.344 101.038V105L287.945 109.613L280.119 106.036V96.509C280.119 96.509 278.768 98.308 276.563 96.845C274.358 95.382 274.274 91.749 275.555 90.447C276.836 89.145 279.608 89.558 280.119 91.357C280.119 91.357 281.015 89.474 285.593 87.906C290.416 86.254 292.019 83.356 293.713 80.276Z" fill="#B16668"/>
<path d="M288.764 90.916C288.765 91.0778 288.719 91.2364 288.631 91.3721C288.542 91.5078 288.416 91.6146 288.268 91.6792C288.12 91.7438 287.955 91.7635 287.796 91.7356C287.637 91.7078 287.489 91.6338 287.371 91.5227C287.253 91.4117 287.171 91.2685 287.134 91.1109C287.097 90.9534 287.107 90.7884 287.163 90.6366C287.219 90.4847 287.318 90.3526 287.448 90.2567C287.579 90.1608 287.734 90.1052 287.896 90.097C288.12 90.0914 288.336 90.1743 288.499 90.3277C288.661 90.4811 288.757 90.6926 288.764 90.916Z" fill="#263238"/>
<path d="M289.716 96.467L291.627 97.076C291.595 97.2052 291.537 97.3265 291.456 97.4325C291.375 97.5385 291.274 97.627 291.158 97.6925C291.042 97.758 290.914 97.7992 290.782 97.8136C290.649 97.8279 290.515 97.8151 290.388 97.776C290.127 97.6894 289.91 97.5037 289.784 97.2589C289.659 97.0141 289.634 96.7297 289.716 96.467Z" fill="#9A4A4D"/>
<path d="M295.512 88.382L293.846 87.227C293.916 87.1127 294.009 87.0141 294.119 86.9374C294.229 86.8607 294.353 86.8075 294.485 86.7812C294.616 86.7549 294.752 86.7561 294.883 86.7846C295.014 86.8131 295.137 86.8684 295.246 86.947C295.468 87.105 295.619 87.343 295.669 87.6107C295.719 87.8785 295.662 88.155 295.512 88.382Z" fill="#263238"/>
<path d="M295.134 90.3C295.149 90.4129 295.14 90.5275 295.108 90.6368C295.076 90.746 295.022 90.8475 294.949 90.9348C294.876 91.0222 294.785 91.0935 294.684 91.1443C294.582 91.1951 294.471 91.2243 294.357 91.2301C294.243 91.236 294.13 91.2182 294.023 91.178C293.917 91.1378 293.82 91.0761 293.738 90.9966C293.657 90.9172 293.592 90.8218 293.55 90.7163C293.507 90.6109 293.486 90.4978 293.489 90.384C293.48 90.274 293.494 90.1634 293.528 90.0586C293.563 89.9538 293.618 89.8569 293.69 89.7735C293.762 89.6902 293.851 89.622 293.949 89.573C294.048 89.524 294.156 89.4951 294.266 89.488C294.488 89.4823 294.704 89.5643 294.866 89.7162C295.029 89.8681 295.125 90.0778 295.134 90.3Z" fill="#263238"/>
<path d="M291.109 89.845L291.242 94.801L293.846 93.996L291.109 89.845Z" fill="#9A4A4D"/>
<path d="M288.344 101.038C286.244 100.765 281.911 99.519 281.232 97.804C281.502 98.6725 282.032 99.4373 282.751 99.995C284.046 101.101 288.351 102.354 288.351 102.354L288.344 101.038Z" fill="#9A4A4D"/>
<path d="M288.876 169.197L291.256 157.64C291.256 157.64 296.226 156.807 298.865 154.924C297.366 156.74 295.426 158.141 293.23 158.991L290.5 169.897L291.2 181.237L288.876 169.197Z" fill="black"/>
<path d="M279.958 83.804C279.958 83.804 289.366 90.209 295.904 87.01C302.442 83.811 293.972 79.31 293.972 79.31L279.958 83.804Z" fill="#37474F"/>
<path d="M293.902 70.378C288.302 68.81 282.233 67.802 275.177 70.378C268.121 72.954 266.581 77.308 266.581 77.308C266.581 77.308 273.763 80.15 279.608 79.191C285.453 78.232 293.902 70.378 293.902 70.378Z" fill="#AEB8FE"/>
<path opacity="0.4" d="M293.902 70.378C288.302 68.81 282.233 67.802 275.177 70.378C268.121 72.954 266.581 77.308 266.581 77.308C266.581 77.308 273.763 80.15 279.608 79.191C285.453 78.232 293.902 70.378 293.902 70.378Z" fill="white"/>
<path d="M270.508 79.947C270.508 79.947 266.917 78.239 266.581 77.294C269.375 77.6121 272.203 77.4296 274.932 76.755C279.601 75.628 284.459 71.092 289.716 70.294C294.973 69.496 297.213 72.177 297.213 72.177C297.213 72.177 296.051 75.915 294.231 78.183C294.231 78.183 292.607 81.732 286.419 82.551C280.231 83.37 270.508 79.947 270.508 79.947Z" fill="#AEB8FE"/>
<path d="M270.508 79.947L270.802 80.969C270.914 81.3149 271.096 81.634 271.337 81.9062C271.578 82.1784 271.872 82.398 272.202 82.551C276.768 84.369 281.756 84.8545 286.587 83.951C290.934 83.146 292.887 82.033 293.678 81.193C293.961 80.9444 294.174 80.6266 294.297 80.2707C294.419 79.9147 294.448 79.533 294.378 79.163L294.231 78.169C294.231 78.169 292.887 80.045 285.782 81.438C278.677 82.831 270.508 79.947 270.508 79.947Z" fill="#455A64"/>
<path d="M290.262 72.387C290.206 73.486 289.051 75.502 287.518 74.55V77.35C287.518 79.065 288.526 79.66 290.157 79.317C290.969 79.1635 291.7 78.728 292.221 78.0875C292.742 77.447 293.02 76.6427 293.006 75.817C293.006 75.292 293.006 73.437 293.006 73.437C291.802 75.061 290.241 72.8 290.262 72.387Z" fill="#FAFAFA"/>
<path d="M280.119 93.051V89.334H281.568V91.602C281.568 91.9863 281.415 92.3548 281.144 92.6266C280.872 92.8983 280.503 93.051 280.119 93.051Z" fill="#263238"/>
<path d="M287.945 109.585L280.119 103.88V102.48C280.119 102.48 278.474 102.76 278.075 105.896C279.299 108.601 281.394 110.819 284.025 112.196L285.642 109.333L287.945 109.585Z" fill="#AEB8FE"/>
<path opacity="0.1" d="M287.945 109.585L280.119 103.88V102.48C280.119 102.48 278.474 102.76 278.075 105.896C279.299 108.601 281.394 110.819 284.025 112.196L285.642 109.333L287.945 109.585Z" fill="black"/>
<path d="M288.344 102.802C289.361 102.966 290.276 103.515 290.899 104.335C291.669 105.602 291.494 110.432 291.494 110.432L289.443 108.094L287.945 109.585C288.113 107.975 288.344 104.972 288.344 104.972V102.802Z" fill="#AEB8FE"/>
<path opacity="0.1" d="M288.344 102.802C289.361 102.966 290.276 103.515 290.899 104.335C291.669 105.602 291.494 110.432 291.494 110.432L289.443 108.094L287.945 109.585C288.113 107.975 288.344 104.972 288.344 104.972V102.802Z" fill="black"/>
<path d="M281.904 160.16C280.931 159.46 280.294 158.494 278.838 157.591C277.795 157.05 276.901 156.262 276.234 155.295C275.352 154.056 274.309 149.786 273.749 145.705C273.084 140.889 273.819 134.351 274.162 131.649C274.921 126.46 275.972 121.319 277.312 116.249C277.368 116.018 276.108 108.976 274.722 107.849C274.722 107.849 273.133 107.625 271.096 111.769C269.059 115.913 268.058 125.069 267.498 131.222C267.036 135.775 267.121 140.367 267.75 144.9C268.324 149.226 268.933 152.915 270.466 157.003C270.879 158.116 270.914 159.047 271.46 161.266C271.632 162.195 271.938 163.093 272.37 163.933C272.967 164.94 273.705 165.857 274.561 166.656C275.645 167.67 276.982 168.374 278.432 168.693C279.224 168.882 280.049 168.882 280.84 168.693C281.637 168.475 282.332 167.981 282.8 167.3C282.901 167.167 282.963 167.01 282.982 166.845C282.963 166.546 282.827 166.267 282.604 166.068C281.408 164.862 280.275 163.596 279.209 162.274C278.404 161.126 277.998 160.209 278.278 160.244C278.558 160.279 278.978 160.979 280.056 161.546C281.134 162.113 282.422 162.001 282.681 161.399C282.94 160.797 282.877 160.874 281.904 160.16Z" fill="#9A4A4D"/>
<path d="M275.471 105.896C275.471 105.896 278.971 112.959 277.41 119.196C275.975 124.894 275.163 132.188 274.855 134.232C274.424 137.344 274.237 140.485 274.295 143.626C274.393 146.888 275.59 153.916 275.59 153.916L270.109 155.946C270.109 155.946 266.791 146.972 266.476 138.642C266.161 130.312 266.966 120.442 268.317 114.66C268.912 112.168 269.612 106.897 275.471 105.896Z" fill="#AEB8FE"/>
<path opacity="0.1" d="M275.471 105.896C275.471 105.896 278.971 112.959 277.41 119.196C275.975 124.894 275.163 132.188 274.855 134.232C274.424 137.344 274.237 140.485 274.295 143.626C274.393 146.888 275.59 153.916 275.59 153.916L270.109 155.946C270.109 155.946 266.791 146.972 266.476 138.642C266.161 130.312 266.966 120.442 268.317 114.66C268.912 112.168 269.612 106.897 275.471 105.896Z" fill="black"/>
<path d="M281.106 117.915C281.106 117.915 286.328 117.698 288.477 116.865V115.822C286.3 116.655 281.106 116.9 281.106 116.9V117.915Z" fill="#37474F"/>
<path d="M269.696 114.1C269.696 114.1 271.341 113.526 273.609 114.8L273.665 114.569C273.69 114.449 273.675 114.325 273.622 114.214C273.569 114.104 273.481 114.015 273.371 113.96C272.396 113.447 271.287 113.245 270.193 113.379C270.09 113.397 269.994 113.445 269.918 113.517C269.842 113.59 269.789 113.683 269.766 113.785L269.696 114.1Z" fill="#37474F"/>
<path d="M272.599 117.296C272.872 116.074 272.349 114.917 271.432 114.713C270.515 114.508 269.551 115.334 269.279 116.557C269.006 117.779 269.529 118.936 270.446 119.14C271.363 119.345 272.327 118.519 272.599 117.296Z" fill="#37474F"/>
</g>
<defs>
<clipPath id="clip0_36_657">
<rect width="350" height="350" fill="white"/>
</clipPath>
</defs>
</svg>
