<svg width="70" height="70" viewBox="0 0 70 70" fill="none" xmlns="http://www.w3.org/2000/svg">
<path d="M67.8125 14.9707C65.3508 16.0403 62.7462 16.745 60.0811 17.0625C62.882 15.4224 64.9883 12.8168 66.0051 9.7344C63.357 11.2829 60.4646 12.3693 57.452 12.9473C56.1833 11.6177 54.6576 10.56 52.9675 9.8385C51.2774 9.11696 49.4582 8.74663 47.6205 8.75002C40.1803 8.75002 34.1592 14.6836 34.1592 21.9981C34.1539 23.0155 34.2705 24.0299 34.5064 25.0196C29.1713 24.7694 23.947 23.4084 19.1679 21.0236C14.3889 18.6388 10.1602 15.2827 6.75254 11.1699C5.55704 13.1853 4.92479 15.4848 4.92188 17.8281C4.92188 22.4219 7.31855 26.4824 10.9375 28.8614C8.79338 28.8105 6.69319 28.243 4.81523 27.2071V27.3711C4.81523 33.7969 9.46367 39.1426 15.616 40.3594C14.4591 40.6678 13.2669 40.8241 12.0695 40.8242C11.2199 40.8257 10.3723 40.7433 9.53887 40.5781C11.2492 45.8418 16.2271 49.6699 22.1238 49.7793C17.3324 53.472 11.4497 55.4678 5.40039 55.4532C4.32663 55.4516 3.25386 55.3876 2.1875 55.2617C8.34146 59.1913 15.4949 61.2699 22.7965 61.25C47.5918 61.25 61.1379 41.0567 61.1379 23.543C61.1379 22.9688 61.1229 22.3946 61.0955 21.834C63.7247 19.9638 65.9993 17.6396 67.8125 14.9707Z" fill="#AEB8FE"/>
</svg>
