<svg width="1440" height="280" viewBox="0 0 1440 280" fill="none" xmlns="http://www.w3.org/2000/svg">
<path d="M0 192L34.3 186.7C68.6 181 137 171 206 176C274.3 181 343 203 411 229.3C480 256 549 288 617 277.3C685.7 267 754 213 823 213.3C891.4 213 960 267 1029 240C1097.1 213 1166 107 1234 96C1302.9 85 1371 171 1406 213.3L1440 256V0H1405.7C1371.4 0 1303 0 1234 0C1165.7 0 1097 0 1029 0C960 0 891 0 823 0C754.3 0 686 0 617 0C548.6 0 480 0 411 0C342.9 0 274 0 206 0C137.1 0 69 0 34 0H0V192Z" fill="#AEB8FE"/>
</svg>
