<svg width="30" height="30" viewBox="0 0 30 30" fill="none" xmlns="http://www.w3.org/2000/svg">
<path d="M1.87498 6.51562C2.85936 6.51562 4.35936 6.51562 5.2031 6.51562C5.62498 6.51562 5.9531 6.79688 6.09373 7.17188C6.5156 8.39063 7.45311 11.0625 8.53123 12.8906C9.98435 15.2812 10.9219 16.1719 11.5312 16.0781C12.1406 15.9375 11.9531 14.3438 11.9531 13.0781C11.9531 11.8125 12.0937 9.65625 11.4844 8.67188L10.5469 7.3125C10.3125 6.98438 10.5469 6.5625 10.9219 6.5625H16.2656C16.7812 6.5625 17.2031 6.98438 17.2031 7.5V14.2969C17.2031 14.2969 17.4375 15.5156 18.75 14.25C20.0625 12.9844 21.4687 10.6406 22.6406 8.25L23.1094 7.125C23.25 6.79688 23.5781 6.5625 23.9531 6.5625H27.4219C28.0781 6.5625 28.5469 7.21875 28.3125 7.82813L27.9375 8.8125C27.9375 8.8125 26.6719 11.3438 25.3594 13.125C24.0469 14.9531 23.7656 15.375 23.9531 15.8438C24.1406 16.3125 27.5156 19.4531 28.3594 20.9531C28.5937 21.375 28.7812 21.75 28.9687 22.0781C29.2969 22.6875 28.8281 23.4844 28.125 23.4844H24.1875C23.8594 23.4844 23.5312 23.2969 23.3906 23.0156L23.0156 22.4063C23.0156 22.4063 20.625 19.5938 19.1719 18.7031C17.6719 17.8594 17.7187 19.0781 17.7187 19.0781V21.5625C17.7187 22.5938 16.875 23.4375 15.8437 23.4375H14.9062C14.9062 23.4375 9.74998 23.4375 5.62498 17.2969C2.39061 12.5156 1.31248 9.42187 0.93748 7.64062C0.84373 7.07812 1.26561 6.51562 1.87498 6.51562Z" fill="white"/>
</svg>
