<svg width="687" height="755" viewBox="0 0 687 755" fill="none" xmlns="http://www.w3.org/2000/svg">
<path d="M525.675 307.351C558.591 412.697 489.851 659.816 369.501 697.421C249.151 735.026 122.766 548.877 89.8488 443.531C56.932 338.185 328.551 53.3212 448.901 15.7162C569.251 -21.8888 492.758 202.005 525.675 307.351Z" fill="#AEB8FE" fill-opacity="0.3"/>
<path d="M209.598 292.213C211.034 291.347 212.577 290.674 214.188 290.213L215.128 285.673L222.798 285.543L223.898 290.043C225.525 290.447 227.092 291.062 228.558 291.873L232.428 289.333L237.948 294.663L235.548 298.663C236.415 300.098 237.087 301.642 237.548 303.253L242.088 304.193L242.218 311.863L237.718 312.963C237.324 314.593 236.708 316.161 235.888 317.623L238.428 321.493L233.098 327.013L229.098 324.613C227.667 325.479 226.127 326.152 224.518 326.613L223.568 331.153L215.898 331.283L214.798 326.783C213.172 326.389 211.607 325.773 210.148 324.953L206.268 327.493L200.748 322.163L203.158 318.163C202.289 316.734 201.616 315.193 201.158 313.583L196.598 312.623L196.468 304.953L200.968 303.853C201.372 302.23 201.987 300.666 202.798 299.203L200.258 295.323L205.588 289.803L209.588 292.213H209.598ZM213.688 302.423C212.556 303.593 211.797 305.073 211.506 306.675C211.215 308.277 211.406 309.929 212.054 311.423C212.703 312.916 213.779 314.184 215.148 315.065C216.517 315.947 218.117 316.402 219.745 316.374C221.373 316.346 222.956 315.836 224.294 314.908C225.632 313.98 226.664 312.676 227.261 311.161C227.858 309.646 227.992 307.989 227.646 306.398C227.3 304.807 226.49 303.354 225.318 302.223C223.747 300.708 221.639 299.878 219.457 299.916C217.275 299.953 215.197 300.855 213.678 302.423H213.688Z" fill="#E0E0E0"/>
<path d="M142.238 366.773H126.918V414.633H142.238V366.773Z" fill="#F5F5F5"/>
<path d="M165.118 377.703H149.798V414.633H165.118V377.703Z" fill="#F5F5F5"/>
<path d="M186.298 392.703H170.978V414.633H186.298V392.703Z" fill="#F5F5F5"/>
<path d="M517.878 501.893C517.877 497.168 516.607 492.53 514.201 488.463C511.795 484.397 508.341 481.05 504.2 478.774C500.059 476.498 495.383 475.376 490.66 475.524C485.937 475.673 481.341 477.086 477.351 479.618C473.361 482.149 470.124 485.705 467.978 489.915C465.832 494.124 464.855 498.833 465.15 503.549C465.445 508.265 467.001 512.815 469.655 516.724C472.309 520.634 475.964 523.759 480.238 525.773V532.433H503.368C503.368 532.433 503.508 528.693 503.568 525.353C507.878 523.134 511.494 519.771 514.018 515.633C516.542 511.494 517.878 506.741 517.878 501.893Z" fill="#F5F5F5"/>
<path d="M501.598 536.723H481.728C481.533 536.723 481.339 536.685 481.158 536.61C480.977 536.535 480.813 536.425 480.675 536.287C480.537 536.148 480.427 535.984 480.352 535.803C480.277 535.623 480.238 535.429 480.238 535.233C480.238 535.038 480.277 534.844 480.352 534.663C480.427 534.482 480.537 534.318 480.675 534.18C480.813 534.041 480.977 533.931 481.158 533.857C481.339 533.782 481.533 533.743 481.728 533.743H501.598C501.994 533.743 502.373 533.9 502.652 534.18C502.931 534.459 503.088 534.838 503.088 535.233C503.088 535.628 502.931 536.007 502.652 536.287C502.373 536.566 501.994 536.723 501.598 536.723Z" fill="#E0E0E0"/>
<path d="M501.598 538.013H481.728C481.331 538.013 480.949 538.171 480.668 538.453C480.386 538.734 480.228 539.115 480.228 539.513C480.228 539.911 480.386 540.293 480.668 540.574C480.949 540.855 481.331 541.013 481.728 541.013H483.908L486.808 546.523C486.972 546.828 487.216 547.082 487.514 547.258C487.812 547.435 488.152 547.526 488.498 547.523H495.598C495.946 547.527 496.288 547.436 496.588 547.26C496.887 547.083 497.133 546.829 497.298 546.523L500.108 541.033H501.598C501.996 541.033 502.378 540.875 502.659 540.594C502.94 540.313 503.098 539.931 503.098 539.533C503.098 539.135 502.94 538.754 502.659 538.473C502.378 538.191 501.996 538.033 501.598 538.033V538.013Z" fill="#E0E0E0"/>
<path d="M496.928 546.953C496.928 546.953 496.408 546.773 495.568 546.533C493.367 545.896 491.021 545.962 488.858 546.723C488.421 546.913 487.973 547.08 487.518 547.223C487.892 546.912 488.319 546.671 488.778 546.513C489.861 546.064 491.017 545.817 492.188 545.783C493.361 545.746 494.531 545.925 495.638 546.313C496.104 546.445 496.542 546.662 496.928 546.953Z" fill="#FAFAFA"/>
<path d="M500.148 541.063C500.148 541.153 496.558 541.223 492.148 541.223C487.738 541.223 484.148 541.153 484.148 541.063C484.148 540.973 487.738 540.903 492.148 540.903C496.558 540.903 500.148 540.973 500.148 541.063Z" fill="#FAFAFA"/>
<path d="M498.908 543.413C498.267 543.545 497.613 543.612 496.958 543.613C495.748 543.693 494.068 543.763 492.218 543.793C490.368 543.823 488.688 543.793 487.478 543.793C486.808 543.811 486.138 543.76 485.478 543.643C486.142 543.564 486.811 543.538 487.478 543.563L492.218 543.503L496.948 543.423C497.601 543.376 498.256 543.373 498.908 543.413Z" fill="#FAFAFA"/>
<path d="M513.828 493.953C514.069 494.372 514.247 494.823 514.358 495.293C514.742 496.543 515.01 497.825 515.158 499.123C515.677 503.454 514.995 507.845 513.187 511.814C511.38 515.784 508.516 519.181 504.908 521.633C503.83 522.375 502.685 523.015 501.488 523.543C501.058 523.764 500.601 523.928 500.128 524.033C500.128 523.913 502.008 523.193 504.648 521.273C508.105 518.785 510.851 515.437 512.616 511.56C514.38 507.684 515.102 503.414 514.708 499.173C514.504 497.419 514.211 495.677 513.828 493.953Z" fill="white"/>
<path d="M496.668 481.113C496.138 479.303 494.048 478.113 491.498 478.063C487.273 478.418 483.177 479.694 479.498 481.803C477.009 483.269 474.846 485.229 473.143 487.563C471.44 489.897 470.234 492.555 469.598 495.373C469.317 496.414 469.279 497.506 469.488 498.563C469.603 499.113 469.857 499.625 470.224 500.05C470.591 500.475 471.061 500.8 471.588 500.993C472.112 501.117 472.658 501.113 473.18 500.983C473.701 500.852 474.185 500.599 474.588 500.243C475.389 499.523 476.048 498.658 476.528 497.693C477.604 495.485 478.803 493.338 480.118 491.263C481.434 489.146 483.509 487.612 485.918 486.973C487.498 486.623 488.918 486.593 490.518 486.253C492.518 485.823 493.758 485.863 495.138 485.003C495.705 484.54 496.143 483.939 496.411 483.258C496.678 482.577 496.767 481.838 496.668 481.113Z" fill="white"/>
<path d="M474.868 506.883C474.868 507.477 474.692 508.057 474.363 508.55C474.033 509.043 473.565 509.428 473.017 509.655C472.468 509.882 471.865 509.941 471.283 509.826C470.701 509.71 470.167 509.424 469.747 509.005C469.328 508.585 469.042 508.051 468.926 507.469C468.81 506.887 468.87 506.283 469.097 505.735C469.324 505.187 469.708 504.719 470.202 504.389C470.695 504.059 471.275 503.883 471.868 503.883C472.664 503.883 473.427 504.199 473.99 504.762C474.552 505.325 474.868 506.088 474.868 506.883Z" fill="white"/>
<path d="M499.668 532.513C499.668 532.513 499.598 532.163 499.508 531.513C499.418 530.863 499.278 529.763 499.128 528.513C498.798 525.833 498.348 522.093 497.798 517.513C497.558 515.173 497.168 512.673 496.968 509.883C496.939 509.128 497.208 508.391 497.718 507.833C497.995 507.529 498.373 507.335 498.781 507.289C499.19 507.243 499.601 507.348 499.938 507.583C500.557 508.081 500.961 508.797 501.068 509.583C501.154 510.376 501.051 511.178 500.768 511.923C500.161 513.465 498.972 514.708 497.458 515.383C496.669 515.743 495.807 515.916 494.94 515.888C494.073 515.86 493.223 515.633 492.458 515.223C490.88 514.386 489.681 512.976 489.108 511.283C488.801 510.422 488.692 509.503 488.788 508.593C488.85 508.117 489.021 507.662 489.288 507.263C489.435 507.054 489.628 506.88 489.851 506.756C490.075 506.631 490.323 506.558 490.578 506.543C490.832 506.543 491.083 506.596 491.315 506.697C491.547 506.799 491.756 506.947 491.928 507.133C492.265 507.465 492.533 507.859 492.718 508.293C493.056 509.135 493.222 510.036 493.208 510.943C493.253 511.831 493.113 512.718 492.798 513.549C492.483 514.381 492 515.138 491.378 515.773C490.768 516.394 489.995 516.832 489.149 517.037C488.302 517.242 487.416 517.206 486.588 516.933C485.096 516.288 483.866 515.157 483.098 513.723C482.71 513.048 482.401 512.33 482.178 511.583C481.918 510.85 481.836 510.065 481.938 509.293C482.005 508.89 482.193 508.516 482.478 508.223C482.643 508.078 482.849 507.987 483.068 507.964C483.286 507.94 483.507 507.986 483.698 508.093C484.259 508.586 484.616 509.271 484.698 510.013C485.414 512.478 485.887 515.006 486.108 517.563C486.432 521.258 486.24 524.981 485.538 528.623C485.295 529.955 484.961 531.268 484.538 532.553C484.538 532.553 484.598 532.193 484.768 531.553C484.938 530.913 485.158 529.893 485.388 528.603C486.027 524.973 486.168 521.272 485.808 517.603C485.571 515.076 485.089 512.577 484.368 510.143C484.178 509.493 483.998 508.763 483.488 508.453C483.366 508.384 483.225 508.355 483.086 508.369C482.946 508.384 482.814 508.441 482.708 508.533C482.485 508.77 482.341 509.071 482.298 509.393C482.207 510.099 482.289 510.816 482.538 511.483C482.753 512.202 483.052 512.894 483.428 513.543C484.147 514.912 485.311 515.995 486.728 516.613C487.482 516.856 488.289 516.884 489.057 516.693C489.826 516.502 490.526 516.101 491.078 515.533C491.655 514.94 492.103 514.234 492.394 513.46C492.685 512.685 492.812 511.859 492.768 511.033C492.779 510.184 492.622 509.342 492.308 508.553C491.988 507.813 491.358 507.053 490.598 507.073C489.838 507.093 489.328 507.933 489.228 508.743C489.148 509.582 489.25 510.428 489.528 511.223C490.069 512.807 491.191 514.127 492.668 514.913C493.368 515.29 494.145 515.501 494.94 515.528C495.734 515.556 496.524 515.4 497.248 515.073C498.918 515.423 499.898 513.543 500.348 511.863C500.612 511.179 500.712 510.443 500.638 509.713C500.549 509.015 500.19 508.38 499.638 507.943C499.377 507.759 499.058 507.678 498.74 507.715C498.423 507.752 498.131 507.904 497.918 508.143C497.479 508.634 497.246 509.275 497.268 509.933C497.458 512.623 497.818 515.203 498.048 517.513C498.538 522.103 498.938 525.843 499.228 528.513C499.348 529.753 499.448 530.753 499.528 531.513C499.658 532.153 499.668 532.513 499.668 532.513Z" fill="#E0E0E0"/>
<path d="M503.598 166.663L515.268 167.803C515.268 167.803 516.218 158.003 526.418 158.803C528.388 158.923 530.271 159.653 531.806 160.894C533.34 162.134 534.449 163.823 534.978 165.723C535.445 167.313 535.53 168.99 535.226 170.618C534.921 172.246 534.237 173.78 533.228 175.093C530.928 178.163 526.228 181.033 518.538 178.883L516.008 204.883L527.598 206.003L529.098 190.593C529.098 190.593 545.598 187.983 547.378 170.153C549.038 153.083 533.518 147.573 525.558 146.803C520.598 146.313 505.378 146.063 503.598 166.663Z" fill="#F5F5F5"/>
<path d="M515.458 210.288L514.393 221.227L526.097 222.366L527.162 211.428L515.458 210.288Z" fill="#F5F5F5"/>
<path d="M498.948 166.213L510.598 167.353C510.598 167.353 511.598 157.553 521.758 158.353C523.726 158.476 525.606 159.208 527.138 160.448C528.67 161.688 529.778 163.375 530.308 165.273C530.785 166.861 530.878 168.538 530.581 170.169C530.283 171.799 529.604 173.336 528.598 174.653C526.298 177.723 521.678 180.263 513.948 178.113L511.388 204.423L522.928 205.543L524.428 190.133C524.428 190.133 540.988 187.523 542.718 169.723C544.378 152.663 529.468 147.213 522.918 146.573C517.908 146.053 500.728 145.603 498.948 166.213Z" fill="#EBEBEB"/>
<path d="M510.789 209.832L509.724 220.77L521.429 221.91L522.494 210.971L510.789 209.832Z" fill="#EBEBEB"/>
<path d="M328.658 138.573C330.129 137.772 331.699 137.17 333.328 136.783L334.478 132.293L342.148 132.513L343.048 137.053C344.65 137.517 346.183 138.189 347.608 139.053L351.598 136.723L356.868 142.293L354.288 146.143C355.087 147.614 355.685 149.184 356.068 150.813L360.598 151.973L360.388 159.643L355.838 160.543C355.377 162.145 354.704 163.679 353.838 165.103L356.198 169.103L350.598 174.363L346.748 171.783C345.279 172.583 343.708 173.182 342.078 173.563L340.928 178.063L333.268 177.843L332.368 173.293C330.76 172.84 329.222 172.167 327.798 171.293L323.798 173.663L318.528 168.093L321.108 164.243C320.305 162.77 319.703 161.196 319.318 159.563L314.828 158.423L315.038 150.753L319.588 149.853C320.05 148.251 320.722 146.718 321.588 145.293L319.228 141.293L324.798 136.023L328.648 138.603L328.658 138.573ZM332.278 148.963C331.096 150.082 330.271 151.526 329.909 153.113C329.547 154.701 329.664 156.36 330.245 157.88C330.827 159.401 331.846 160.715 333.174 161.657C334.502 162.598 336.08 163.125 337.707 163.17C339.334 163.214 340.938 162.776 342.316 161.909C343.694 161.041 344.784 159.785 345.448 158.299C346.112 156.812 346.32 155.162 346.046 153.557C345.772 151.953 345.028 150.465 343.908 149.283C342.408 147.699 340.34 146.776 338.16 146.716C335.979 146.656 333.864 147.464 332.278 148.963Z" fill="#E0E0E0"/>
<path d="M283.408 132.893C284.427 132.278 285.524 131.8 286.668 131.473L287.338 128.243L292.808 128.143L293.588 131.353C294.747 131.639 295.863 132.076 296.908 132.653L299.668 130.843L303.598 134.643L301.888 137.463C302.501 138.484 302.978 139.58 303.308 140.723L306.538 141.393L306.628 146.853L303.428 147.643C303.143 148.801 302.703 149.914 302.118 150.953L303.928 153.723L300.138 157.653L297.318 155.943C296.297 156.561 295.197 157.039 294.048 157.363L293.378 160.593L287.918 160.693L287.128 157.483C285.968 157.202 284.851 156.764 283.808 156.183L281.048 157.993L277.118 154.193L278.838 151.373C278.219 150.356 277.741 149.26 277.418 148.113L274.178 147.433L274.088 141.973L277.288 141.183C277.578 140.027 278.019 138.914 278.598 137.873L276.788 135.113L280.598 131.183L283.428 132.893H283.408ZM286.318 140.173C285.513 141.007 284.973 142.061 284.767 143.202C284.561 144.343 284.698 145.519 285.16 146.583C285.623 147.646 286.39 148.548 287.366 149.174C288.341 149.801 289.481 150.124 290.64 150.103C291.799 150.082 292.926 149.718 293.878 149.056C294.83 148.395 295.564 147.466 295.988 146.386C296.412 145.307 296.506 144.127 296.259 142.994C296.011 141.861 295.434 140.828 294.598 140.023C294.045 139.489 293.392 139.069 292.676 138.787C291.961 138.505 291.196 138.367 290.427 138.381C289.658 138.395 288.899 138.56 288.194 138.868C287.489 139.176 286.852 139.619 286.318 140.173Z" fill="#F5F5F5"/>
<path d="M374.598 291.043C375.62 290.432 376.715 289.954 377.858 289.623L378.538 286.393L383.998 286.303L384.788 289.503C385.946 289.788 387.059 290.229 388.098 290.813L390.858 289.003L394.788 292.793L393.078 295.613C393.692 296.637 394.17 297.736 394.498 298.883L397.728 299.553L397.828 305.023L394.618 305.803C394.332 306.962 393.895 308.078 393.318 309.123L395.128 311.883L391.328 315.813L388.508 314.103C387.487 314.718 386.387 315.192 385.238 315.513L384.568 318.753L379.108 318.843L378.318 315.643C377.162 315.354 376.05 314.913 375.008 314.333L372.248 316.143L368.318 312.353L370.028 309.533C369.41 308.512 368.933 307.412 368.608 306.263L365.378 305.593L365.278 300.123L368.488 299.343C368.77 298.183 369.207 297.066 369.788 296.023L367.978 293.263L371.778 289.333L374.598 291.043ZM377.508 298.323C376.704 299.158 376.166 300.212 375.961 301.352C375.756 302.493 375.893 303.668 376.356 304.731C376.819 305.793 377.587 306.694 378.562 307.32C379.537 307.946 380.676 308.269 381.834 308.248C382.993 308.227 384.119 307.863 385.071 307.202C386.023 306.541 386.757 305.613 387.181 304.535C387.606 303.456 387.701 302.277 387.455 301.144C387.208 300.012 386.632 298.978 385.798 298.173C385.244 297.631 384.586 297.204 383.865 296.918C383.144 296.631 382.373 296.491 381.597 296.505C380.821 296.519 380.056 296.687 379.345 296.999C378.635 297.311 377.994 297.761 377.458 298.323H377.508Z" fill="#F5F5F5"/>
<path d="M126.548 529.594L134.188 568.234L173.908 568.204L182.298 530.234L126.548 529.594Z" fill="#AEB8FE"/>
<path d="M121.988 523.724V529.114C121.99 529.547 122.076 529.976 122.243 530.376C122.41 530.776 122.655 531.139 122.962 531.444C123.269 531.75 123.634 531.992 124.035 532.156C124.436 532.321 124.865 532.405 125.298 532.404H182.798C183.231 532.405 183.66 532.321 184.061 532.156C184.461 531.991 184.825 531.749 185.131 531.444C185.438 531.138 185.681 530.775 185.847 530.375C186.013 529.975 186.098 529.547 186.098 529.114V523.724C186.098 522.928 185.782 522.165 185.22 521.602C184.657 521.04 183.894 520.724 183.098 520.724H124.978C124.184 520.726 123.424 521.044 122.864 521.606C122.303 522.168 121.988 522.93 121.988 523.724Z" fill="#AEB8FE"/>
<g opacity="0.4">
<path opacity="0.4" d="M126.978 532.394L127.448 535.064L180.508 538.824L181.848 532.394H126.978Z" fill="black"/>
</g>
<path d="M176.998 550.813C176.998 550.953 166.718 551.073 153.998 551.073C141.278 551.073 130.998 550.953 130.998 550.813C130.998 550.673 141.268 550.553 153.998 550.553C166.728 550.553 176.998 550.663 176.998 550.813Z" fill="white"/>
<path d="M177.298 554.024C177.298 554.164 167.028 554.284 154.298 554.284C141.568 554.284 131.358 554.164 131.358 554.024C131.358 553.884 141.678 553.724 154.348 553.724C167.018 553.724 177.298 553.874 177.298 554.024Z" fill="white"/>
<path d="M130.648 520.773C130.648 520.773 108.288 495.113 110.778 494.183C113.268 493.253 133.128 507.484 133.128 507.484C133.128 507.484 116.058 469.484 119.468 466.664C122.878 463.844 140.888 500.364 140.888 500.364C140.888 500.364 138.098 447.184 140.888 446.574C143.678 445.964 153.888 499.754 153.888 499.754C153.888 499.754 169.108 450.583 173.448 450.583C177.788 450.583 168.798 497.894 168.798 497.894C168.798 497.894 186.798 467.594 189.598 471.614C192.398 475.634 176.868 508.403 176.868 508.403C176.868 508.403 199.598 489.543 200.498 492.023C201.398 494.503 175.978 520.773 175.978 520.773H130.648Z" fill="#455A64"/>
<path d="M127.528 482.123C127.678 482.053 131.648 490.523 136.378 501.033C141.108 511.543 144.838 520.123 144.678 520.193C144.518 520.263 140.558 511.793 135.828 501.283C131.098 490.773 127.368 482.193 127.528 482.123Z" fill="#263238"/>
<path d="M145.598 486.854C145.768 486.854 146.428 494.303 147.068 503.523C147.708 512.743 148.068 520.214 147.928 520.224C147.788 520.234 147.098 512.784 146.458 503.564C145.818 494.344 145.418 486.864 145.598 486.854Z" fill="#263238"/>
<path d="M170.498 463.033C170.479 463.241 170.436 463.446 170.368 463.643C170.228 464.093 170.068 464.643 169.868 465.333C169.408 466.883 168.768 468.973 168.008 471.523C166.428 476.753 164.308 484.003 162.148 492.053C159.988 500.103 158.208 507.433 156.958 512.753L155.478 519.053C155.308 519.743 155.168 520.303 155.058 520.763C155.022 520.968 154.958 521.166 154.868 521.353C154.869 521.145 154.892 520.937 154.938 520.733C155.018 520.273 155.118 519.733 155.248 519.003C155.518 517.503 155.958 515.333 156.538 512.663C157.678 507.313 159.398 499.953 161.538 491.893C163.678 483.833 165.888 476.603 167.538 471.403C168.378 468.793 169.088 466.703 169.598 465.253L170.198 463.603C170.272 463.401 170.373 463.209 170.498 463.033Z" fill="#263238"/>
<path d="M181.268 490.454C181.408 490.544 177.038 497.024 171.518 504.924C165.998 512.824 161.408 519.144 161.268 519.044C161.128 518.944 165.498 512.464 171.018 504.574C176.538 496.684 181.128 490.354 181.268 490.454Z" fill="#263238"/>
<path d="M138.188 520.233C137.46 519.866 136.787 519.398 136.188 518.843C134.698 517.616 133.276 516.307 131.928 514.923C130.576 513.552 129.301 512.106 128.108 510.593C127.563 509.998 127.112 509.324 126.768 508.593C126.908 508.483 129.228 511.283 132.368 514.483C135.508 517.683 138.308 520.093 138.188 520.233Z" fill="#263238"/>
<path d="M151.768 510.033C151.938 510.033 152.288 512.393 152.558 515.323C152.828 518.253 152.908 520.663 152.738 520.673C152.568 520.683 152.218 518.323 151.948 515.383C151.678 512.443 151.598 510.053 151.768 510.033Z" fill="#263238"/>
<path d="M126.158 171.133C127.261 165.509 129.52 160.175 132.792 155.47C136.064 150.764 140.278 146.79 145.167 143.798C150.056 140.807 155.513 138.863 161.192 138.091C166.871 137.319 172.649 137.735 178.158 139.313C200.518 145.753 213.358 170.223 205.928 192.313C203.543 199.436 199.251 205.769 193.518 210.623C193.32 210.794 193.114 210.955 192.898 211.103H192.838C183.202 217.833 171.432 220.794 159.758 219.423C155.975 218.976 152.285 217.943 148.818 216.363C140.576 212.386 133.883 205.791 129.783 197.609C125.684 189.426 124.409 180.117 126.158 171.133Z" fill="white"/>
<path d="M126.158 171.133C126.158 171.133 126.158 171.353 126.078 171.793C125.998 172.233 125.928 172.893 125.808 173.733C125.506 176.228 125.416 178.744 125.538 181.253C125.81 185.22 126.628 189.13 127.968 192.873C129.76 197.832 132.474 202.406 135.968 206.353C136.956 207.474 138.011 208.533 139.128 209.523C140.274 210.594 141.483 211.596 142.748 212.523C143.378 213.003 144.078 213.403 144.748 213.853L145.748 214.513C146.098 214.723 146.468 214.903 146.828 215.103L149.048 216.263C149.808 216.613 150.598 216.943 151.398 217.263C158.335 219.65 165.763 220.238 172.988 218.973C176.886 218.315 180.688 217.179 184.308 215.593C186.181 214.784 188.001 213.859 189.758 212.823C190.648 212.303 191.518 211.743 192.388 211.173C193.242 210.578 194.042 209.909 194.778 209.173C201.174 203.246 205.481 195.409 207.058 186.833C207.898 182.515 207.996 178.085 207.348 173.733C207.048 171.607 206.597 169.505 205.998 167.443C205.638 166.443 205.288 165.443 204.938 164.443C204.769 163.943 204.565 163.456 204.328 162.983L203.668 161.553C201.918 157.824 199.608 154.385 196.818 151.353L195.818 150.223L194.718 149.223C193.968 148.563 193.278 147.843 192.508 147.223C190.993 145.995 189.392 144.875 187.718 143.873C181.443 140.069 174.247 138.05 166.908 138.033C165.238 138.014 163.567 138.104 161.908 138.303C161.094 138.374 160.285 138.501 159.488 138.683L157.118 139.133C155.598 139.593 154.118 139.983 152.648 140.503L150.548 141.363C149.859 141.614 149.19 141.919 148.548 142.273C143.827 144.605 139.587 147.804 136.048 151.703C134.629 153.325 133.332 155.05 132.168 156.863L131.368 158.093C131.084 158.45 130.826 158.828 130.598 159.223L129.428 161.533C129.248 161.903 129.058 162.253 128.898 162.603L128.498 163.603L127.778 165.503C127.39 166.478 127.076 167.481 126.838 168.503C126.608 169.323 126.438 169.953 126.318 170.393C126.198 170.833 126.128 171.043 126.128 171.043C126.128 171.043 126.128 170.813 126.268 170.383L126.728 168.473C126.954 167.433 127.255 166.41 127.628 165.413L128.328 163.493C128.458 163.153 128.588 162.803 128.718 162.433C128.848 162.063 129.068 161.733 129.248 161.363L130.398 159.023C130.596 158.602 130.826 158.198 131.088 157.813L131.878 156.573C133.034 154.737 134.328 152.992 135.748 151.353C139.296 147.402 143.557 144.155 148.308 141.783C148.952 141.426 149.621 141.116 150.308 140.853L152.418 139.983C153.868 139.453 155.418 139.053 156.928 138.583L159.318 138.123C160.126 137.94 160.944 137.806 161.768 137.723C170.861 136.663 180.051 138.623 187.918 143.303C189.612 144.315 191.233 145.445 192.768 146.683C193.548 147.293 194.248 148.023 195.008 148.683L196.118 149.683L197.118 150.823C199.943 153.89 202.283 157.37 204.058 161.143L204.728 162.593C204.97 163.071 205.177 163.566 205.348 164.073C205.698 165.073 206.058 166.073 206.418 167.073C207.028 169.161 207.486 171.29 207.788 173.443C208.504 177.897 208.44 182.442 207.598 186.873C206.003 195.562 201.639 203.501 195.158 209.503C194.397 210.239 193.574 210.908 192.698 211.503C191.818 212.083 190.948 212.653 190.038 213.163C184.816 216.243 179.075 218.344 173.098 219.363C165.791 220.621 158.285 220.009 151.278 217.583C150.468 217.283 149.668 216.953 148.898 216.583L146.598 215.423C146.238 215.223 145.858 215.043 145.508 214.833L144.508 214.153C143.828 213.703 143.118 213.293 142.508 212.813C141.24 211.883 140.024 210.881 138.868 209.813C137.747 208.806 136.688 207.73 135.698 206.593C132.188 202.605 129.473 197.982 127.698 192.973C126.375 189.198 125.584 185.257 125.348 181.263C125.243 178.745 125.36 176.221 125.698 173.723C125.838 172.883 125.948 172.243 126.028 171.783C126.108 171.323 126.158 171.133 126.158 171.133Z" fill="#263238"/>
<path d="M198.218 219.373C198.278 219.373 198.218 218.743 198.538 217.673C198.963 216.166 199.873 214.84 201.128 213.903C202.047 213.223 203.12 212.782 204.251 212.619C205.382 212.457 206.536 212.579 207.608 212.973C208.874 213.432 209.972 214.261 210.758 215.353C211.605 216.515 212.062 217.916 212.062 219.353C212.062 220.791 211.605 222.192 210.758 223.353C210.224 224.086 209.55 224.706 208.775 225.176C207.999 225.646 207.138 225.958 206.241 226.093C205.345 226.228 204.43 226.183 203.551 225.962C202.671 225.74 201.844 225.347 201.118 224.803C199.864 223.87 198.954 222.548 198.528 221.043C198.238 219.973 198.268 219.333 198.208 219.343C198.184 219.492 198.184 219.644 198.208 219.793C198.208 220.231 198.258 220.667 198.358 221.093C198.72 222.684 199.625 224.099 200.918 225.093C202.314 226.169 204.052 226.703 205.81 226.598C207.569 226.493 209.231 225.755 210.488 224.521C211.745 223.286 212.514 221.639 212.652 219.882C212.79 218.126 212.288 216.379 211.238 214.963C210.384 213.787 209.191 212.901 207.818 212.423C206.669 212.011 205.433 211.896 204.227 212.089C203.021 212.281 201.883 212.774 200.918 213.523C199.625 214.518 198.72 215.932 198.358 217.523C198.258 217.949 198.208 218.386 198.208 218.823C198.178 219.006 198.182 219.192 198.218 219.373Z" fill="#263238"/>
<path d="M158.108 178.723C158.106 179.467 157.884 180.193 157.47 180.81C157.056 181.427 156.468 181.907 155.78 182.19C155.093 182.473 154.337 182.546 153.609 182.4C152.88 182.254 152.211 181.895 151.686 181.369C151.161 180.842 150.804 180.172 150.66 179.443C150.516 178.714 150.591 177.959 150.876 177.272C151.16 176.586 151.642 175.999 152.261 175.586C152.879 175.174 153.605 174.953 154.348 174.953C154.843 174.953 155.333 175.051 155.79 175.241C156.246 175.43 156.661 175.708 157.011 176.058C157.36 176.408 157.637 176.824 157.825 177.281C158.013 177.739 158.11 178.229 158.108 178.723Z" fill="#263238"/>
<path d="M170.488 178.723C170.488 179.469 170.267 180.198 169.853 180.818C169.439 181.438 168.85 181.921 168.161 182.206C167.472 182.492 166.714 182.566 165.983 182.421C165.252 182.275 164.58 181.916 164.053 181.389C163.525 180.862 163.166 180.19 163.021 179.459C162.875 178.728 162.95 177.97 163.235 177.281C163.521 176.592 164.004 176.003 164.624 175.589C165.244 175.174 165.973 174.953 166.718 174.953C167.214 174.952 167.705 175.049 168.163 175.238C168.621 175.427 169.037 175.704 169.387 176.055C169.738 176.405 170.015 176.821 170.204 177.279C170.393 177.737 170.49 178.228 170.488 178.723Z" fill="#263238"/>
<path d="M182.858 178.723C182.858 179.469 182.637 180.198 182.223 180.818C181.809 181.438 181.22 181.921 180.531 182.206C179.842 182.492 179.084 182.566 178.353 182.421C177.622 182.275 176.95 181.916 176.423 181.389C175.895 180.862 175.536 180.19 175.391 179.459C175.245 178.728 175.32 177.97 175.605 177.281C175.891 176.592 176.374 176.003 176.994 175.589C177.614 175.174 178.343 174.953 179.088 174.953C179.584 174.952 180.075 175.049 180.533 175.238C180.991 175.427 181.407 175.704 181.757 176.055C182.107 176.405 182.385 176.821 182.574 177.279C182.763 177.737 182.86 178.228 182.858 178.723Z" fill="#263238"/>
<path d="M541.328 404.183H447.038C441.565 404.183 437.128 408.62 437.128 414.093V441.213C437.128 446.686 441.565 451.123 447.038 451.123H541.328C546.802 451.123 551.238 446.686 551.238 441.213V414.093C551.238 408.62 546.802 404.183 541.328 404.183Z" fill="white"/>
<path d="M541.329 451.123C542.347 451.072 543.354 450.894 544.329 450.593C545.729 450.13 547.007 449.357 548.068 448.332C549.13 447.307 549.946 446.057 550.458 444.673C550.823 443.731 551.026 442.733 551.058 441.723C551.108 440.673 551.058 439.533 551.058 438.363C551.058 436.017 551.058 433.47 551.058 430.723C551.058 427.977 551.058 425.05 551.058 421.943C551.058 420.383 551.058 418.793 551.058 417.143C551.123 415.474 551.053 413.802 550.848 412.143C550.482 410.402 549.648 408.794 548.436 407.492C547.224 406.19 545.679 405.243 543.968 404.753C542.103 404.379 540.196 404.258 538.299 404.393H532.299H506.389H447.019C445.748 404.392 444.49 404.642 443.317 405.128C442.144 405.614 441.078 406.328 440.181 407.227C439.285 408.127 438.574 409.195 438.092 410.37C437.609 411.545 437.363 412.803 437.368 414.073C437.368 419.2 437.368 424.25 437.368 429.223V440.223C437.307 441.401 437.425 442.581 437.718 443.723C438.352 445.97 439.771 447.915 441.718 449.203C442.661 449.835 443.712 450.29 444.818 450.543C445.923 450.774 447.052 450.865 448.178 450.813L496.668 450.873L529.359 450.953L538.248 451.003H540.558H541.348H540.558H538.248H529.359L496.668 451.093L448.178 451.143C447.015 451.198 445.848 451.104 444.708 450.863C443.546 450.598 442.441 450.124 441.448 449.463C439.411 448.105 437.928 446.062 437.269 443.703C436.962 442.519 436.837 441.295 436.898 440.073C436.898 438.863 436.898 437.653 436.898 436.433V414.123C436.895 412.785 437.155 411.46 437.664 410.222C438.173 408.985 438.922 407.86 439.867 406.913C440.811 405.965 441.934 405.213 443.17 404.7C444.406 404.187 445.73 403.923 447.068 403.923H506.438H532.348H541.239C542.209 403.925 543.175 404.06 544.109 404.323C545.887 404.833 547.491 405.821 548.748 407.178C550.005 408.535 550.866 410.211 551.239 412.023C551.394 412.874 551.461 413.739 551.438 414.603V417.093C551.438 418.743 551.438 420.333 551.438 421.893C551.438 425 551.438 427.927 551.438 430.673C551.438 433.42 551.438 435.967 551.438 438.313C551.438 439.493 551.438 440.603 551.438 441.683C551.389 442.711 551.172 443.724 550.799 444.683C550.175 446.306 549.141 447.739 547.799 448.843C546.82 449.646 545.696 450.254 544.489 450.633C543.75 450.86 542.989 451.001 542.218 451.053C541.598 451.133 541.329 451.123 541.329 451.123Z" fill="#263238"/>
<path d="M531.488 430.723H479.238C478.308 430.723 477.415 430.354 476.757 429.695C476.098 429.037 475.728 428.144 475.728 427.213C475.731 426.284 476.102 425.394 476.76 424.738C477.418 424.082 478.309 423.713 479.238 423.713H531.488C532.418 423.713 533.309 424.082 533.967 424.738C534.625 425.394 534.996 426.284 534.998 427.213C534.998 428.144 534.629 429.037 533.97 429.695C533.312 430.354 532.419 430.723 531.488 430.723Z" fill="#E0E0E0"/>
<path d="M464.198 419.523H458.228C455.39 419.523 453.088 421.825 453.088 424.663V430.633C453.088 433.472 455.39 435.773 458.228 435.773H464.198C467.037 435.773 469.338 433.472 469.338 430.633V424.663C469.338 421.825 467.037 419.523 464.198 419.523Z" fill="#AEB8FE"/>
<path d="M455.598 427.883L457.238 426.253L460.398 429.053L465.668 423.763L467.188 425.403L460.158 432.213L455.598 427.883Z" fill="white"/>
<path d="M528.628 285.533H415.028C410.682 285.533 407.158 289.057 407.158 293.403V362.953C407.158 367.3 410.682 370.823 415.028 370.823H528.628C532.975 370.823 536.498 367.3 536.498 362.953V293.403C536.498 289.057 532.975 285.533 528.628 285.533Z" fill="white"/>
<path d="M528.598 370.833C528.688 370.827 528.779 370.827 528.868 370.833C529.133 370.823 529.397 370.796 529.658 370.754C530.701 370.623 531.703 370.272 532.598 369.724C534.058 368.84 535.192 367.506 535.829 365.924C536.659 364.054 536.308 361.644 536.368 359.034C536.368 348.504 536.368 333.284 536.288 314.484C536.288 309.784 536.288 304.854 536.288 299.724V295.834C536.346 294.528 536.293 293.22 536.128 291.924C535.858 290.624 535.255 289.416 534.379 288.419C533.502 287.422 532.383 286.669 531.128 286.234C529.814 285.838 528.437 285.692 527.068 285.804H495.938H415.028C413.287 285.818 411.6 286.417 410.239 287.504C408.893 288.599 407.959 290.118 407.588 291.814C407.435 292.668 407.378 293.537 407.418 294.404V322.954C407.418 336.484 407.418 349.534 407.418 361.954C407.293 363.465 407.569 364.983 408.218 366.354C408.887 367.686 409.93 368.794 411.218 369.544C412.492 370.282 413.948 370.646 415.418 370.594H437.008H467.778L512.318 370.684L524.428 370.734H527.578H528.658C528.658 370.734 528.288 370.734 527.578 370.734H524.428H512.318L467.778 370.814H437.008H419.868H415.418C413.865 370.869 412.326 370.488 410.978 369.714C409.609 368.92 408.503 367.741 407.799 366.324C407.121 364.886 406.829 363.298 406.948 361.714C406.948 349.273 406.948 336.224 406.948 322.714V294.394C406.905 293.49 406.965 292.584 407.128 291.694C407.523 289.877 408.526 288.25 409.972 287.083C411.418 285.915 413.22 285.277 415.078 285.274H495.989H527.118C528.535 285.166 529.959 285.322 531.318 285.734C532.64 286.193 533.821 286.987 534.744 288.039C535.668 289.09 536.303 290.363 536.588 291.734C536.755 293.06 536.809 294.398 536.748 295.734V299.724C536.748 304.854 536.748 309.784 536.748 314.484C536.748 333.284 536.689 348.484 536.669 359.034C536.669 360.344 536.669 361.594 536.669 362.754C536.693 363.859 536.492 364.958 536.079 365.984C535.425 367.592 534.258 368.938 532.758 369.814C531.844 370.363 530.82 370.704 529.758 370.814C529.373 370.851 528.985 370.858 528.598 370.833Z" fill="#263238"/>
<path d="M486.238 335.063H486.228C484.279 335.063 482.698 336.644 482.698 338.593V351.283C482.698 353.233 484.279 354.813 486.228 354.813H486.238C488.188 354.813 489.768 353.233 489.768 351.283V338.593C489.768 336.644 488.188 335.063 486.238 335.063Z" fill="#AEB8FE"/>
<path d="M427.208 332.203H427.198C425.249 332.203 423.668 333.784 423.668 335.733V351.283C423.668 353.233 425.249 354.813 427.198 354.813H427.208C429.158 354.813 430.738 353.233 430.738 351.283V335.733C430.738 333.784 429.158 332.203 427.208 332.203Z" fill="#AEB8FE"/>
<path d="M441.968 327.493H441.958C440.009 327.493 438.428 329.074 438.428 331.023V351.293C438.428 353.243 440.009 354.823 441.958 354.823H441.968C443.918 354.823 445.498 353.243 445.498 351.293V331.023C445.498 329.074 443.918 327.493 441.968 327.493Z" fill="#AEB8FE"/>
<path d="M456.718 328.983H456.708C454.759 328.983 453.178 330.564 453.178 332.513V351.283C453.178 353.233 454.759 354.813 456.708 354.813H456.718C458.668 354.813 460.248 353.233 460.248 351.283V332.513C460.248 330.564 458.668 328.983 456.718 328.983Z" fill="#AEB8FE"/>
<path d="M471.478 320.253H471.468C469.519 320.253 467.938 321.834 467.938 323.783V351.283C467.938 353.233 469.519 354.813 471.468 354.813H471.478C473.428 354.813 475.008 353.233 475.008 351.283V323.783C475.008 321.834 473.428 320.253 471.478 320.253Z" fill="#AEB8FE"/>
<path d="M500.998 320.423H500.988C499.039 320.423 497.458 322.004 497.458 323.953V351.293C497.458 353.243 499.039 354.823 500.988 354.823H500.998C502.948 354.823 504.528 353.243 504.528 351.293V323.953C504.528 322.004 502.948 320.423 500.998 320.423Z" fill="#AEB8FE"/>
<path d="M515.748 331.723C515.284 331.723 514.824 331.815 514.395 331.993C513.966 332.171 513.577 332.432 513.249 332.761C512.921 333.09 512.661 333.48 512.484 333.909C512.308 334.339 512.217 334.799 512.218 335.263V351.263C512.218 352.2 512.59 353.097 513.252 353.759C513.914 354.421 514.812 354.793 515.748 354.793C516.685 354.793 517.583 354.421 518.245 353.759C518.907 353.097 519.278 352.2 519.278 351.263V335.263C519.28 334.799 519.189 334.339 519.013 333.909C518.836 333.48 518.576 333.09 518.248 332.761C517.92 332.432 517.531 332.171 517.102 331.993C516.673 331.815 516.213 331.723 515.748 331.723Z" fill="#AEB8FE"/>
<path d="M452.068 299.344H424.788C423.176 299.344 421.868 300.651 421.868 302.264V302.894C421.868 304.506 423.176 305.814 424.788 305.814H452.068C453.681 305.814 454.988 304.506 454.988 302.894V302.264C454.988 300.651 453.681 299.344 452.068 299.344Z" fill="#E0E0E0"/>
<path d="M124.108 266.563H201.248C202.675 266.563 204.044 267.13 205.053 268.139C206.062 269.148 206.628 270.517 206.628 271.943V340.493C206.628 341.7 206.149 342.858 205.296 343.711C204.443 344.564 203.285 345.043 202.078 345.043H123.288C122.082 345.043 120.924 344.564 120.071 343.711C119.218 342.858 118.738 341.7 118.738 340.493V271.943C118.738 270.518 119.304 269.151 120.311 268.143C121.317 267.134 122.683 266.566 124.108 266.563Z" fill="white"/>
<path d="M124.108 266.563H201.248C202.675 266.563 204.044 267.13 205.053 268.139C206.062 269.148 206.628 270.517 206.628 271.943V284.453H118.738V271.943C118.738 270.518 119.304 269.151 120.311 268.143C121.317 267.134 122.683 266.566 124.108 266.563Z" fill="#E0E0E0"/>
<path d="M133.128 276.453C133.115 277.083 132.915 277.695 132.555 278.212C132.196 278.729 131.691 279.128 131.105 279.359C130.52 279.591 129.878 279.644 129.262 279.513C128.646 279.382 128.083 279.072 127.642 278.621C127.202 278.171 126.904 277.601 126.786 276.982C126.668 276.364 126.735 275.724 126.979 275.143C127.223 274.562 127.634 274.067 128.158 273.718C128.683 273.37 129.299 273.184 129.928 273.183C130.354 273.187 130.774 273.275 131.165 273.442C131.556 273.608 131.91 273.85 132.207 274.154C132.505 274.458 132.739 274.817 132.897 275.212C133.055 275.606 133.134 276.028 133.128 276.453Z" fill="white"/>
<path d="M142.959 276.453C142.945 277.083 142.745 277.695 142.386 278.212C142.026 278.729 141.521 279.128 140.935 279.359C140.35 279.591 139.708 279.644 139.092 279.513C138.476 279.382 137.913 279.072 137.472 278.621C137.032 278.171 136.734 277.601 136.616 276.982C136.498 276.364 136.565 275.724 136.809 275.143C137.053 274.562 137.464 274.067 137.988 273.718C138.513 273.37 139.129 273.184 139.759 273.183C140.184 273.187 140.604 273.275 140.995 273.442C141.386 273.608 141.74 273.85 142.037 274.154C142.335 274.458 142.569 274.817 142.727 275.212C142.885 275.606 142.964 276.028 142.959 276.453Z" fill="white"/>
<path d="M152.788 276.453C152.775 277.083 152.575 277.695 152.215 278.212C151.856 278.729 151.351 279.128 150.765 279.359C150.18 279.591 149.538 279.644 148.922 279.513C148.306 279.382 147.743 279.072 147.302 278.621C146.862 278.171 146.564 277.601 146.446 276.982C146.328 276.364 146.395 275.724 146.639 275.143C146.883 274.562 147.294 274.067 147.818 273.718C148.343 273.37 148.959 273.184 149.588 273.183C150.013 273.187 150.434 273.275 150.825 273.442C151.216 273.608 151.57 273.85 151.867 274.154C152.165 274.458 152.399 274.817 152.557 275.212C152.715 275.606 152.794 276.028 152.788 276.453Z" fill="white"/>
<path d="M184.898 293.144H140.458C137.437 293.144 134.988 295.593 134.988 298.614V330.444C134.988 333.465 137.437 335.914 140.458 335.914H184.898C187.919 335.914 190.368 333.465 190.368 330.444V298.614C190.368 295.593 187.919 293.144 184.898 293.144Z" fill="#AEB8FE"/>
<path d="M156.469 314.104V307.534C156.475 307.17 156.575 306.814 156.76 306.5C156.944 306.187 157.207 305.926 157.522 305.744C157.837 305.562 158.194 305.464 158.558 305.461C158.921 305.457 159.28 305.548 159.599 305.724L165.289 309.004L170.969 312.294C171.291 312.477 171.559 312.742 171.745 313.063C171.931 313.384 172.03 313.748 172.03 314.119C172.03 314.489 171.931 314.854 171.745 315.174C171.559 315.495 171.291 315.76 170.969 315.944L165.289 319.224L159.599 322.504C159.282 322.676 158.926 322.764 158.566 322.76C158.206 322.757 157.852 322.661 157.539 322.483C157.226 322.305 156.963 322.05 156.776 321.742C156.588 321.434 156.483 321.084 156.469 320.724V314.104Z" fill="white"/>
<path d="M202.078 345.044C202.078 345.044 202.358 345.044 202.898 344.944C203.699 344.782 204.441 344.409 205.048 343.864C205.539 343.423 205.928 342.881 206.187 342.275C206.446 341.668 206.57 341.013 206.548 340.354C206.548 338.774 206.548 336.954 206.548 334.904C206.548 326.684 206.498 314.824 206.468 300.164C206.468 292.824 206.468 284.794 206.468 276.164V272.904C206.504 272.361 206.504 271.816 206.468 271.274C206.407 270.746 206.258 270.232 206.028 269.754C205.684 269.018 205.17 268.374 204.529 267.875C203.887 267.376 203.137 267.036 202.338 266.884C201.786 266.799 201.227 266.766 200.668 266.784H186.388H155.958H125.388C124.721 266.763 124.053 266.787 123.388 266.854C122.73 266.949 122.097 267.175 121.527 267.519C120.957 267.862 120.461 268.316 120.068 268.854C119.669 269.38 119.38 269.982 119.218 270.624C119.065 271.278 119.007 271.952 119.048 272.624V280.854C119.048 286.307 119.048 291.674 119.048 296.954C119.048 307.504 119.048 317.684 119.048 327.384C119.048 329.804 119.048 332.204 119.048 334.564V339.824C119.014 340.38 119.058 340.939 119.178 341.484C119.433 342.55 120.089 343.477 121.008 344.074C121.457 344.373 121.96 344.584 122.488 344.694C123.024 344.775 123.567 344.805 124.108 344.784H130.598H154.598L189.338 344.864L198.778 344.914H201.238H202.078H201.238H198.778H189.338L154.598 345.234H130.598H124.028C123.453 345.264 122.876 345.23 122.308 345.134C121.728 345.014 121.175 344.787 120.678 344.464C119.679 343.792 118.966 342.772 118.678 341.604C118.553 341.022 118.506 340.427 118.538 339.834V327.424C118.538 317.724 118.538 307.544 118.538 296.994V272.664C118.5 271.949 118.56 271.232 118.718 270.534C118.995 269.466 119.578 268.504 120.395 267.764C121.213 267.025 122.229 266.542 123.318 266.374C124.026 266.306 124.738 266.283 125.448 266.304H200.598C201.184 266.286 201.77 266.323 202.348 266.414C202.928 266.531 203.488 266.733 204.008 267.014C205.04 267.587 205.862 268.473 206.358 269.544C206.606 270.068 206.768 270.628 206.838 271.204C206.873 271.763 206.873 272.324 206.838 272.884V276.144C206.838 284.764 206.838 292.794 206.838 300.144C206.838 314.804 206.778 326.664 206.758 334.884C206.758 336.884 206.758 338.754 206.758 340.334C206.771 341.012 206.636 341.684 206.361 342.305C206.086 342.925 205.679 343.477 205.168 343.924C204.543 344.47 203.778 344.834 202.958 344.974C202.752 344.994 202.545 344.994 202.338 344.974C202.255 345.007 202.168 345.031 202.078 345.044Z" fill="#263238"/>
<path d="M377.718 175.513H476.718C478.145 175.513 479.514 176.08 480.523 177.089C481.532 178.098 482.098 179.467 482.098 180.893V248.893C482.098 249.491 481.981 250.083 481.752 250.635C481.523 251.187 481.188 251.688 480.766 252.111C480.343 252.533 479.842 252.868 479.29 253.097C478.738 253.326 478.146 253.443 477.548 253.443H376.898C376.301 253.443 375.709 253.326 375.157 253.097C374.605 252.868 374.104 252.533 373.681 252.111C373.259 251.688 372.923 251.187 372.695 250.635C372.466 250.083 372.348 249.491 372.348 248.893V180.893C372.348 179.468 372.914 178.101 373.921 177.093C374.927 176.084 376.293 175.516 377.718 175.513Z" fill="white"/>
<path d="M377.718 175.513H476.718C478.145 175.513 479.514 176.08 480.523 177.089C481.532 178.098 482.098 179.467 482.098 180.893V193.313H372.338V180.883C372.341 179.458 372.909 178.092 373.918 177.086C374.926 176.079 376.293 175.513 377.718 175.513Z" fill="#E0E0E0"/>
<path d="M386.948 185.344C386.948 185.986 386.758 186.615 386.401 187.149C386.044 187.684 385.536 188.1 384.942 188.346C384.348 188.592 383.695 188.656 383.064 188.531C382.434 188.406 381.855 188.096 381.4 187.642C380.946 187.187 380.636 186.608 380.511 185.978C380.386 185.347 380.45 184.694 380.696 184.1C380.942 183.506 381.358 182.998 381.893 182.641C382.427 182.284 383.056 182.094 383.698 182.094C384.56 182.094 385.387 182.436 385.997 183.045C386.606 183.655 386.948 184.482 386.948 185.344Z" fill="white"/>
<path d="M396.918 185.344C396.918 185.986 396.728 186.615 396.371 187.149C396.014 187.684 395.506 188.1 394.912 188.346C394.318 188.592 393.665 188.656 393.034 188.531C392.404 188.406 391.825 188.096 391.37 187.642C390.916 187.187 390.606 186.608 390.481 185.978C390.356 185.347 390.42 184.694 390.666 184.1C390.912 183.506 391.328 182.998 391.863 182.641C392.397 182.284 393.026 182.094 393.668 182.094C394.096 182.092 394.519 182.175 394.914 182.338C395.309 182.501 395.667 182.74 395.97 183.042C396.272 183.345 396.511 183.703 396.674 184.098C396.837 184.493 396.92 184.916 396.918 185.344Z" fill="white"/>
<path d="M406.889 185.344C406.888 185.987 406.698 186.615 406.34 187.15C405.983 187.685 405.474 188.101 404.88 188.347C404.285 188.593 403.631 188.657 403.001 188.53C402.37 188.404 401.791 188.094 401.337 187.638C400.883 187.183 400.574 186.603 400.45 185.971C400.325 185.34 400.391 184.687 400.639 184.093C400.886 183.499 401.304 182.992 401.84 182.636C402.376 182.28 403.005 182.092 403.648 182.094C404.075 182.094 404.497 182.178 404.891 182.341C405.284 182.505 405.642 182.744 405.943 183.046C406.244 183.348 406.482 183.706 406.645 184.101C406.807 184.495 406.89 184.917 406.889 185.344Z" fill="white"/>
<path d="M417.828 203.333H386.158C383.955 203.333 382.168 205.12 382.168 207.323V238.993C382.168 241.197 383.955 242.983 386.158 242.983H417.828C420.032 242.983 421.818 241.197 421.818 238.993V207.323C421.818 205.12 420.032 203.333 417.828 203.333Z" fill="#AEB8FE"/>
<path d="M470.598 211.513H433.859C433.592 211.513 433.327 211.46 433.081 211.356C432.835 211.253 432.613 211.101 432.426 210.91C432.24 210.719 432.094 210.493 431.996 210.244C431.899 209.996 431.852 209.73 431.859 209.463C431.859 208.933 432.069 208.424 432.444 208.049C432.819 207.674 433.328 207.463 433.859 207.463H470.598C471.134 207.463 471.648 207.672 472.031 208.046C472.414 208.42 472.635 208.928 472.648 209.463C472.648 210.007 472.432 210.528 472.048 210.913C471.664 211.297 471.142 211.513 470.598 211.513Z" fill="#E0E0E0"/>
<path d="M470.598 220.884H433.858C433.328 220.884 432.819 220.673 432.444 220.298C432.069 219.923 431.858 219.414 431.858 218.884C431.858 218.353 432.069 217.844 432.444 217.469C432.819 217.094 433.328 216.884 433.858 216.884H470.598C471.134 216.883 471.648 217.092 472.031 217.466C472.414 217.84 472.635 218.349 472.648 218.884C472.635 219.419 472.414 219.927 472.031 220.301C471.648 220.675 471.134 220.884 470.598 220.884Z" fill="#E0E0E0"/>
<path d="M470.598 230.253H433.859C433.592 230.253 433.327 230.2 433.081 230.096C432.835 229.993 432.613 229.841 432.426 229.65C432.24 229.459 432.094 229.233 431.996 228.984C431.899 228.736 431.852 228.47 431.859 228.203C431.859 227.673 432.069 227.164 432.444 226.789C432.819 226.414 433.328 226.203 433.859 226.203H470.598C471.134 226.203 471.648 226.412 472.031 226.786C472.414 227.16 472.635 227.668 472.648 228.203C472.648 228.747 472.432 229.268 472.048 229.653C471.664 230.037 471.142 230.253 470.598 230.253Z" fill="#E0E0E0"/>
<path d="M452.598 239.623H433.859C433.592 239.624 433.327 239.57 433.081 239.467C432.835 239.363 432.613 239.211 432.426 239.02C432.24 238.829 432.094 238.603 431.996 238.354C431.899 238.106 431.852 237.84 431.859 237.573C431.859 237.043 432.069 236.534 432.444 236.159C432.819 235.784 433.328 235.573 433.859 235.573H452.598C453.129 235.573 453.638 235.784 454.013 236.159C454.388 236.534 454.598 237.043 454.598 237.573C454.605 237.84 454.558 238.106 454.461 238.354C454.363 238.603 454.217 238.829 454.031 239.02C453.844 239.211 453.622 239.363 453.376 239.467C453.13 239.57 452.865 239.624 452.598 239.623Z" fill="#E0E0E0"/>
<path d="M477.598 253.403C477.911 253.376 478.221 253.333 478.528 253.273C479.431 253.072 480.25 252.601 480.878 251.923C481.336 251.424 481.677 250.83 481.878 250.183C482.072 249.389 482.139 248.569 482.078 247.753C482.078 245.967 482.078 243.91 482.078 241.583C482.078 232.293 482.028 218.863 481.998 202.283C481.998 198.133 481.998 193.783 481.998 189.283C481.998 187.01 481.998 184.7 481.998 182.353C482.11 181.195 481.974 180.025 481.598 178.923C481.264 178.111 480.726 177.399 480.036 176.856C479.345 176.313 478.527 175.957 477.658 175.823C477.058 175.749 476.453 175.726 475.848 175.753H379.278C378.501 175.728 377.723 175.748 376.948 175.813C375.819 175.98 374.777 176.519 373.989 177.345C373.201 178.171 372.711 179.237 372.598 180.373C372.598 181.103 372.598 181.923 372.598 182.693V210.223C372.598 222.163 372.598 233.683 372.598 244.653C372.768 247.313 371.928 250.413 374.108 252.123C374.588 252.541 375.156 252.845 375.768 253.013C376.395 253.153 377.037 253.207 377.678 253.173H396.678H423.828L463.128 253.263H473.808H476.588H477.538C477.538 253.263 477.218 253.263 476.588 253.263H473.808L463.128 253.313L423.828 253.393H396.678H381.558H377.638C376.967 253.428 376.294 253.371 375.638 253.223C374.958 253.031 374.33 252.69 373.798 252.223C373.261 251.762 372.831 251.187 372.541 250.541C372.251 249.895 372.106 249.192 372.118 248.483C372.118 247.123 372.118 245.763 372.118 244.393C372.118 233.393 372.118 221.903 372.118 209.963V192.013C372.118 188.923 372.118 185.823 372.118 182.693C372.118 181.903 372.118 181.153 372.118 180.323C372.248 179.081 372.785 177.917 373.646 177.012C374.507 176.107 375.644 175.514 376.878 175.323C377.679 175.246 378.484 175.223 379.288 175.253H413.868H448.288H475.758C476.386 175.226 477.015 175.253 477.638 175.333C478.581 175.483 479.468 175.874 480.215 176.468C480.961 177.062 481.541 177.839 481.898 178.723C482.134 179.297 482.272 179.905 482.308 180.523C482.308 181.143 482.308 181.713 482.308 182.313C482.308 184.66 482.308 186.97 482.308 189.243C482.308 193.763 482.308 198.113 482.308 202.243C482.308 218.823 482.238 232.243 482.218 241.543C482.218 243.863 482.218 245.92 482.218 247.713C482.276 248.543 482.202 249.377 481.998 250.183C481.781 250.843 481.423 251.446 480.948 251.953C480.298 252.637 479.453 253.105 478.528 253.293C478.225 253.371 477.912 253.408 477.598 253.403Z" fill="#263238"/>
<g opacity="0.3">
<path opacity="0.3" d="M382.168 231.723V239.123C382.168 240.142 382.573 241.119 383.293 241.839C384.013 242.559 384.99 242.964 386.008 242.964H417.908C418.945 242.964 419.94 242.552 420.673 241.818C421.407 241.085 421.818 240.09 421.818 239.053V227.163L412.598 218.573C412.348 218.342 412.055 218.163 411.734 218.047C411.414 217.931 411.074 217.88 410.733 217.898C410.393 217.916 410.06 218.001 409.753 218.15C409.447 218.299 409.173 218.507 408.948 218.763L401.718 227.053L394.598 223.723C393.963 223.424 393.254 223.318 392.56 223.417C391.865 223.517 391.214 223.818 390.688 224.283L382.168 231.723Z" fill="black"/>
</g>
<g opacity="0.3">
<path opacity="0.3" d="M400.108 217.423C402.086 217.423 403.688 215.821 403.688 213.843C403.688 211.866 402.086 210.263 400.108 210.263C398.131 210.263 396.528 211.866 396.528 213.843C396.528 215.821 398.131 217.423 400.108 217.423Z" fill="black"/>
</g>
<path d="M248.278 304.173C250.948 301.873 254.738 301.233 257.458 298.993C260.178 296.753 261.458 293.143 261.658 289.623C261.673 286.096 261.157 282.587 260.128 279.213L289.218 315.723C286.908 319.723 284.418 323.803 280.798 326.723C277.178 329.643 272.158 331.193 267.798 329.613C263.438 328.033 260.478 322.613 262.488 318.463C258.578 322.093 251.788 322.163 247.978 318.463C244.168 314.763 244.228 307.653 248.278 304.173Z" fill="#263238"/>
<path d="M332.338 197.503C339.388 202.663 340.558 207.793 340.838 210.503C340.918 211.313 340.778 212.333 340.008 212.583C339.624 212.67 339.222 212.635 338.858 212.483L315.258 205.313" fill="#263238"/>
<path d="M267.128 289.563C261.828 280.043 256.538 270.433 252.948 260.143C249.358 249.853 247.508 238.753 249.258 227.993C249.518 226.353 252.328 215.213 253.978 215.053C255.148 214.943 254.058 225.053 254.838 225.923C262.288 234.383 266.058 245.583 267.338 256.783C268.494 267.684 268.423 278.679 267.128 289.563Z" fill="#263238"/>
<path d="M278.338 347.423L258.038 248.963C251.888 222.323 262.268 196.533 289.038 191.123L291.548 190.773C303.709 189.043 316.075 191.957 326.184 198.934C336.293 205.911 343.403 216.44 346.098 228.423C351.298 251.543 356.758 277.153 358.378 289.723C361.738 315.723 336.378 323.463 336.378 323.463C336.378 323.463 341.128 349.723 342.538 357.293L303.288 362.293L293.838 363.143L278.338 347.423Z" fill="#FFBF9D"/>
<path d="M336.368 323.463C336.368 323.463 320.128 326.753 301.128 318.263C301.128 318.263 312.028 336.643 337.618 330.623L336.368 323.463Z" fill="#FF9A6C"/>
<path d="M341.348 253.723C341.498 254.683 341.268 255.662 340.708 256.455C340.149 257.249 339.302 257.793 338.348 257.973C337.882 258.079 337.399 258.089 336.928 258.005C336.457 257.92 336.008 257.742 335.607 257.481C335.207 257.22 334.862 256.881 334.594 256.485C334.327 256.089 334.141 255.643 334.048 255.173C333.901 254.213 334.132 253.234 334.691 252.44C335.25 251.645 336.095 251.099 337.048 250.913C337.516 250.808 337.999 250.798 338.471 250.883C338.942 250.968 339.392 251.147 339.793 251.409C340.193 251.671 340.538 252.011 340.805 252.409C341.072 252.806 341.257 253.253 341.348 253.723Z" fill="#263238"/>
<path d="M342.228 240.723C341.838 241.273 338.738 239.593 334.748 240.173C330.758 240.753 328.118 243.173 327.608 242.733C327.368 242.543 327.708 241.603 328.858 240.493C330.417 239.053 332.384 238.13 334.488 237.853C336.544 237.545 338.644 237.895 340.488 238.853C341.888 239.613 342.428 240.423 342.228 240.723Z" fill="#263238"/>
<path d="M306.948 258.603C307.095 259.562 306.865 260.541 306.305 261.333C305.746 262.126 304.901 262.671 303.948 262.853C303.481 262.957 302.998 262.966 302.527 262.881C302.056 262.795 301.607 262.616 301.207 262.354C300.806 262.092 300.462 261.753 300.194 261.356C299.927 260.959 299.741 260.513 299.648 260.043C299.506 259.078 299.744 258.094 300.313 257.301C300.882 256.508 301.738 255.967 302.698 255.793C303.162 255.697 303.64 255.694 304.105 255.783C304.57 255.872 305.013 256.053 305.408 256.314C305.803 256.575 306.143 256.912 306.407 257.305C306.671 257.698 306.855 258.139 306.948 258.603Z" fill="#263238"/>
<path d="M303.238 247.153C302.848 247.703 299.738 246.023 295.748 246.593C291.758 247.163 289.118 249.593 288.618 249.153C288.368 248.973 288.708 248.033 289.858 246.923C291.417 245.481 293.384 244.556 295.488 244.273C297.544 243.963 299.645 244.313 301.488 245.273C302.888 246.083 303.428 246.903 303.238 247.153Z" fill="#263238"/>
<path d="M321.908 275.793C321.858 275.563 324.278 274.793 328.218 273.703C329.218 273.453 330.158 273.113 330.218 272.393C330.278 271.673 329.768 270.583 329.108 269.473L324.988 262.133C319.238 251.673 314.918 243.023 315.338 242.793C315.758 242.563 320.768 250.853 326.528 261.313L330.528 268.713C331.078 269.813 331.928 271.033 331.628 272.633C331.53 273.014 331.347 273.368 331.092 273.667C330.838 273.967 330.518 274.205 330.158 274.363C329.618 274.598 329.05 274.763 328.468 274.853C324.458 275.643 321.948 276.013 321.908 275.793Z" fill="#263238"/>
<path d="M302.758 234.483C302.358 235.583 298.338 235.053 293.608 235.623C288.878 236.193 285.048 237.483 284.418 236.493C284.138 236.023 284.808 234.993 286.348 233.933C288.411 232.627 290.744 231.81 293.171 231.545C295.598 231.28 298.053 231.573 300.348 232.403C302.058 233.103 302.928 233.963 302.758 234.483Z" fill="#263238"/>
<path d="M341.828 234.133C341.148 235.133 337.758 234.743 333.828 235.313C329.898 235.883 326.718 237.053 325.828 236.223C325.418 235.813 325.828 234.823 327.108 233.743C328.939 232.399 331.08 231.539 333.332 231.246C335.584 230.952 337.874 231.233 339.988 232.063C341.528 232.773 342.128 233.633 341.828 234.133Z" fill="#263238"/>
<path d="M262.888 267.893C262.418 267.763 244.298 265.143 247.378 282.823C250.458 300.503 267.598 293.723 267.518 293.243C267.438 292.763 262.888 267.893 262.888 267.893Z" fill="#FFBF9D"/>
<path d="M260.948 287.493C260.868 287.443 260.678 287.763 260.198 288.093C259.522 288.534 258.7 288.692 257.908 288.533C255.908 288.183 253.828 285.483 253.188 282.313C252.886 280.805 252.916 279.249 253.278 277.753C253.351 277.174 253.563 276.62 253.895 276.139C254.228 275.659 254.671 275.266 255.188 274.993C255.529 274.826 255.918 274.786 256.285 274.881C256.652 274.977 256.973 275.201 257.188 275.513C257.518 275.973 257.458 276.343 257.558 276.353C257.658 276.363 257.888 275.993 257.618 275.283C257.445 274.858 257.131 274.505 256.728 274.283C256.178 274 255.538 273.946 254.948 274.133C253.598 274.463 252.598 275.933 252.208 277.433C251.727 279.095 251.659 280.849 252.008 282.543C252.738 286.083 255.148 289.103 257.828 289.393C258.329 289.444 258.835 289.38 259.308 289.207C259.781 289.034 260.209 288.756 260.558 288.393C260.998 287.923 261.018 287.513 260.948 287.493Z" fill="#FF9A6C"/>
<path d="M329.338 201.283C331.908 199.183 321.638 191.503 314.028 189.613C302.538 186.723 285.798 186.723 276.518 191.323C265.358 196.833 256.648 204.483 252.708 216.323C248.768 228.163 248.838 241.023 251.428 253.193C252.218 256.913 253.318 260.733 255.888 263.523C259.068 266.973 262.948 268.253 265.038 273.983C265.718 275.863 266.248 277.843 267.858 279.033C271.718 281.873 275.078 277.923 276.298 274.353C278.908 266.723 277.828 258.353 276.708 250.413C275.918 244.733 275.088 238.943 272.508 233.833C271.108 231.053 269.208 228.523 267.968 225.663C266.728 222.803 266.188 219.403 267.598 216.663C267.932 216.059 268.32 215.487 268.758 214.953C270.826 212.352 273.549 210.348 276.647 209.148C279.746 207.947 283.108 207.594 286.388 208.123C296.968 209.813 314.908 211.943 318.718 207.763C324.208 201.763 325.148 198.293 325.148 198.293L329.338 201.283Z" fill="#263238"/>
<path d="M309.918 280.533C310.518 280.383 311.288 284.433 315.298 286.653C319.308 288.873 323.528 287.653 323.668 288.173C323.768 288.413 322.858 289.173 321.038 289.533C318.68 290.029 316.221 289.675 314.098 288.533C312.064 287.428 310.539 285.573 309.848 283.363C309.368 281.653 309.598 280.563 309.918 280.533Z" fill="#263238"/>
<path d="M250.498 269.403C250.108 269.163 249.598 269.193 249.228 268.943C224.738 252.943 237.798 230.793 236.988 224.863C235.858 216.643 227.988 228.743 224.808 218.233C220.528 204.313 234.588 195.453 252.128 185.913C259.478 181.913 278.518 177.613 295.988 178.053C311.578 178.453 323.538 187.273 330.718 194.433C330.718 194.433 334.528 195.493 335.658 196.893C339.188 201.303 338.358 203.533 338.358 203.533C338.358 203.533 302.038 192.383 278.358 220.123C254.678 247.863 263.358 266.463 256.028 268.053L250.498 269.403Z" fill="#455A64"/>
<path d="M260.478 196.893C260.05 197.218 259.599 197.512 259.128 197.773C258.678 198.043 258.128 198.373 257.538 198.773C256.948 199.173 256.218 199.633 255.538 200.203C253.783 201.48 252.113 202.87 250.538 204.363C248.635 206.207 246.867 208.185 245.248 210.283C243.658 212.399 242.224 214.628 240.958 216.953C239.936 218.86 239.038 220.831 238.268 222.853C237.908 223.713 237.678 224.513 237.438 225.203C237.198 225.893 237.018 226.503 236.878 227.003C236.758 227.53 236.591 228.046 236.378 228.543C236.441 228.007 236.541 227.476 236.678 226.953C236.788 226.443 236.938 225.823 237.158 225.123C237.378 224.423 237.588 223.593 237.928 222.723C238.652 220.663 239.524 218.658 240.538 216.723C243.02 211.971 246.29 207.673 250.208 204.013C251.806 202.522 253.507 201.146 255.298 199.893C256.048 199.343 256.778 198.893 257.398 198.523C258.018 198.153 258.578 197.813 259.048 197.523C259.506 197.272 259.984 197.061 260.478 196.893Z" fill="#263238"/>
<path d="M331.698 194.723C331.586 194.716 331.476 194.696 331.368 194.663L330.368 194.463C329.528 194.263 328.288 194.023 326.688 193.713C325.088 193.403 323.118 193.113 320.808 192.903C318.204 192.635 315.585 192.538 312.968 192.613C306.151 192.79 299.412 194.105 293.028 196.503C289.281 197.906 285.673 199.654 282.248 201.723C278.562 203.967 275.115 206.581 271.958 209.523C268.811 212.476 265.985 215.755 263.528 219.303C261.279 222.637 259.344 226.172 257.748 229.863C255.111 236.153 253.212 242.727 252.088 249.453C251.088 255.193 250.648 259.893 250.368 263.133C250.238 264.733 250.138 265.993 250.068 266.883C250.068 267.283 249.998 267.603 249.978 267.883C249.989 267.993 249.989 268.104 249.978 268.213C249.96 268.104 249.96 267.993 249.978 267.883C249.978 267.633 249.978 267.313 249.978 266.883C249.978 266.023 250.068 264.763 250.178 263.133C250.408 259.873 250.788 255.133 251.748 249.393C252.822 242.641 254.689 236.039 257.308 229.723C258.899 225.997 260.841 222.431 263.108 219.073C265.576 215.485 268.423 212.173 271.598 209.193C277.752 203.44 284.999 198.982 292.908 196.083C299.349 193.688 306.148 192.4 313.018 192.273C315.647 192.222 318.276 192.345 320.888 192.643C323.198 192.883 325.168 193.243 326.778 193.543C328.388 193.843 329.608 194.163 330.438 194.393L331.378 194.643C331.488 194.655 331.596 194.682 331.698 194.723Z" fill="#263238"/>
<path d="M260.248 258.593C258.691 259.192 256.986 259.293 255.368 258.883C253.721 258.649 252.183 257.92 250.958 256.793C252.412 257.454 253.921 257.983 255.468 258.373C257.052 258.591 258.652 258.664 260.248 258.593Z" fill="#263238"/>
<path d="M266.668 241.243C266.04 241.345 265.398 241.321 264.778 241.173C263.267 240.927 261.807 240.43 260.458 239.703C259.107 238.982 257.884 238.043 256.838 236.923C256.376 236.489 256.002 235.97 255.738 235.393C258.618 238.52 262.469 240.582 266.668 241.243Z" fill="#263238"/>
<path d="M279.118 219.033C277.83 217.511 276.437 216.081 274.948 214.753C273.357 213.558 271.687 212.472 269.948 211.503C271.933 212.014 273.767 212.991 275.298 214.353C276.93 215.583 278.24 217.189 279.118 219.033Z" fill="#263238"/>
<path d="M293.648 208.083C292.89 206.427 292.039 204.814 291.098 203.253C290.014 201.792 288.852 200.39 287.618 199.053C290.729 201.143 292.886 204.379 293.618 208.053L293.648 208.083Z" fill="#263238"/>
<path d="M317.428 202.113C317.357 200.297 316.957 198.508 316.248 196.833C315.394 195.232 314.248 193.804 312.868 192.623C312.868 192.563 313.488 192.813 314.288 193.463C315.309 194.329 316.136 195.399 316.715 196.605C317.293 197.811 317.612 199.126 317.648 200.463C317.709 201.023 317.634 201.589 317.428 202.113Z" fill="#263238"/>
<path d="M332.598 202.923C332.58 201.508 332.477 200.096 332.288 198.693C331.92 197.335 331.473 195.999 330.948 194.693C331.871 195.828 332.504 197.17 332.792 198.604C333.079 200.038 333.013 201.521 332.598 202.923Z" fill="#263238"/>
<path d="M309.908 362.373C309.858 362.373 309.908 361.593 309.858 360.173C309.772 358.183 309.504 356.205 309.058 354.263C308.382 351.382 307.466 348.562 306.318 345.833C305.058 342.733 303.448 339.413 301.858 335.833C300.38 332.669 299.146 329.396 298.168 326.043V325.853L298.338 325.763C300.463 324.66 302.334 323.124 303.828 321.253L303.928 321.123L304.078 321.203C305.64 322.063 307.396 322.511 309.178 322.503H309.268V322.583C309.861 323.633 310.561 324.619 311.358 325.523C311.908 326.163 312.238 326.523 312.218 326.523C312.198 326.523 312.118 326.463 311.948 326.323C311.778 326.183 311.538 325.953 311.248 325.653C310.39 324.777 309.642 323.8 309.018 322.743L309.148 322.823C307.303 322.874 305.477 322.443 303.848 321.573H304.098C302.596 323.518 300.693 325.118 298.518 326.263L298.638 325.983C299.639 329.301 300.875 332.542 302.338 335.683C303.928 339.213 305.528 342.543 306.768 345.683C307.908 348.441 308.798 351.296 309.428 354.213C309.846 356.186 310.06 358.197 310.068 360.213C310.073 360.761 310.049 361.308 309.998 361.853C309.994 362.03 309.963 362.205 309.908 362.373Z" fill="#FF9A6C"/>
<path d="M230.268 364.893L271.028 340.423C271.028 340.423 302.648 361.253 323.278 353.613C337.208 348.463 337.208 329.613 337.208 329.613L377.258 329.753L412.708 438.293L421.778 568.183H244.388L237.238 415.723L230.268 364.893Z" fill="#AEB8FE"/>
<g opacity="0.3">
<path opacity="0.3" d="M242.748 536.333C255.138 546.833 271.328 551.983 287.478 553.653C303.628 555.323 319.908 553.743 336.068 552.173C363.968 549.453 392.438 550.173 420.338 547.493C419.548 540.493 418.848 523.113 418.058 516.143L242.748 528.723V536.333Z" fill="black"/>
</g>
<path d="M228.218 483.853C228.218 483.853 224.378 482.003 222.478 483.923C221.162 485.359 220.058 486.975 219.198 488.723C219.198 488.723 213.028 486.873 210.468 491.993C210.468 491.993 205.858 494.903 208.588 500.623C208.588 500.623 203.658 507.503 207.588 513.453C208.028 514.166 208.57 514.81 209.198 515.363C209.198 515.363 211.048 522.533 213.518 523.733C215.988 524.933 224.808 527.623 225.108 523.583C225.408 519.543 223.828 519.913 223.828 519.913C223.828 519.913 234.258 525.563 238.878 529.723C243.498 533.883 255.638 540.043 263.128 540.023C270.618 540.003 267.418 523.903 267.418 523.903L228.218 483.853Z" fill="#FFBF9D"/>
<path d="M395.398 407.523C394.908 409.973 394.508 423.193 394.508 423.193L403.158 477.903C386.088 481.443 302.158 498.463 302.158 498.463L294.328 539.723C294.328 539.723 426.328 537.283 441.048 523.563C455.768 509.843 448.298 454.343 448.298 448.953C448.298 443.563 444.668 407.893 444.668 407.893L395.398 407.523Z" fill="#FFBF9D"/>
<path d="M211.878 501.473C212.34 501.609 212.789 501.787 213.218 502.003L216.798 503.633L222.078 506.103L223.598 506.823L224.388 507.193C224.722 507.323 224.999 507.568 225.168 507.883C225.213 507.984 225.236 508.093 225.236 508.203C225.236 508.314 225.213 508.423 225.168 508.523C225.083 508.707 224.943 508.861 224.768 508.963C224.464 509.141 224.121 509.244 223.768 509.263C223.132 509.352 222.489 509.375 221.848 509.333C219.258 509.163 216.958 508.333 214.848 507.993C213.861 507.772 212.836 507.772 211.848 507.993C211.43 508.105 211.038 508.299 210.694 508.563C210.351 508.828 210.064 509.157 209.848 509.533C209.24 510.67 208.969 511.958 209.068 513.243C209.103 513.723 209.103 514.204 209.068 514.683C208.943 514.216 208.869 513.737 208.848 513.253C208.678 511.916 208.912 510.558 209.518 509.353C209.744 508.93 210.051 508.556 210.421 508.252C210.792 507.949 211.219 507.721 211.678 507.583C212.728 507.343 213.819 507.343 214.868 507.583C217.058 507.913 219.368 508.723 221.868 508.883C222.476 508.924 223.085 508.904 223.688 508.823C224.258 508.823 224.838 508.473 224.688 508.153C224.538 507.833 223.858 507.603 223.368 507.343L221.858 506.603L216.598 503.963L213.088 502.193C212.663 501.993 212.258 501.752 211.878 501.473Z" fill="#FF9A6C"/>
<path d="M228.418 498.463C227.564 498.049 226.732 497.589 225.928 497.083C221.934 494.855 217.594 493.313 213.088 492.523C212.146 492.406 211.212 492.235 210.288 492.013C211.244 491.944 212.205 491.994 213.148 492.163C215.442 492.46 217.698 493 219.878 493.773C222.057 494.547 224.146 495.553 226.108 496.773C226.949 497.233 227.726 497.801 228.418 498.463Z" fill="#FF9A6C"/>
<path d="M227.398 491.353C226.007 490.951 224.649 490.439 223.338 489.823C222.398 489.45 221.428 489.156 220.438 488.943C220.016 488.901 219.6 488.811 219.198 488.673C219.198 488.603 219.688 488.503 220.498 488.573C221.529 488.686 222.539 488.942 223.498 489.333C224.895 489.8 226.211 490.482 227.398 491.353Z" fill="#FF9A6C"/>
<path d="M224.698 520.343C224.095 520.431 223.481 520.404 222.888 520.263C221.451 520.021 220.046 519.619 218.698 519.063C217.352 518.527 216.04 517.909 214.768 517.213C214.212 516.957 213.696 516.62 213.238 516.213C213.318 516.053 215.778 517.273 218.888 518.543C220.214 519.075 221.574 519.516 222.958 519.863C223.552 519.971 224.134 520.132 224.698 520.343Z" fill="#FF9A6C"/>
<path d="M217.828 518.193C217.958 518.193 217.718 519.193 216.828 520.063C215.938 520.933 214.928 521.063 214.898 520.943C214.868 520.823 215.688 520.433 216.478 519.683C217.268 518.933 217.688 518.133 217.828 518.193Z" fill="#FF9A6C"/>
<path d="M376.168 329.723C376.168 329.723 407.348 328.453 423.248 350.353C438.658 371.593 450.758 415.723 450.758 415.723L391.228 423.653L382.408 366.253L376.168 329.723Z" fill="#AEB8FE"/>
<path d="M426.318 502.963C426.218 502.963 425.808 501.013 424.578 498.043C424.249 497.232 423.879 496.437 423.468 495.663C423.058 494.813 422.528 493.953 421.988 493.043C420.755 491.101 419.349 489.274 417.788 487.583C416.199 485.918 414.465 484.395 412.608 483.033C411.728 482.433 410.908 481.843 410.078 481.393C409.335 480.93 408.567 480.506 407.778 480.123C404.888 478.703 402.948 478.173 402.988 478.063C403.452 478.138 403.907 478.255 404.348 478.413C404.881 478.56 405.406 478.737 405.918 478.943C406.518 479.183 407.208 479.423 407.918 479.793C408.727 480.157 409.515 480.564 410.278 481.013C411.128 481.463 411.968 482.013 412.858 482.643C416.703 485.329 419.945 488.785 422.378 492.793C422.908 493.723 423.438 494.603 423.828 495.473C424.229 496.263 424.587 497.075 424.898 497.903C425.218 498.653 425.418 499.363 425.618 499.983C425.818 500.603 425.948 501.133 426.048 501.573C426.19 502.025 426.28 502.492 426.318 502.963Z" fill="#FF9A6C"/>
<path d="M382.408 366.233C382.408 366.233 382.538 366.493 382.748 366.983C382.958 367.473 383.268 368.263 383.648 369.183C384.378 371.103 385.348 373.913 386.348 377.453C388.832 386.703 390.798 396.085 392.238 405.553C394.028 416.623 395.298 426.693 396.238 433.983C396.678 437.583 397.038 440.523 397.238 442.613C397.348 443.613 397.438 444.383 397.498 444.963C397.545 445.234 397.565 445.509 397.558 445.783C397.48 445.519 397.427 445.248 397.398 444.973L397.038 442.643C396.748 440.553 396.328 437.643 395.828 434.023C394.828 426.753 393.498 416.693 391.708 405.633C389.918 394.573 387.928 384.633 385.978 377.553C385.038 374.013 384.118 371.183 383.448 369.253L382.638 367.023C382.539 366.767 382.462 366.503 382.408 366.233Z" fill="#263238"/>
<path d="M276.528 375.543L270.458 439.933L261.158 423.533L213.238 429.233C213.728 431.683 230.788 491.603 238.138 508.233C245.488 524.863 266.048 554.463 289.068 543.833C312.088 533.203 310.598 449.483 310.598 439.933C310.598 430.383 305.988 373.423 305.988 373.423" fill="#FFBF9D"/>
<path d="M306.008 373.423C306.008 373.423 306.058 373.823 306.128 374.603C306.198 375.383 306.298 376.553 306.428 378.073C306.678 381.133 307.048 385.633 307.528 391.413C308.008 397.193 308.528 404.303 309.148 412.533C309.442 416.653 309.748 421.05 310.068 425.723C310.358 430.393 310.728 435.333 310.798 440.533C310.888 450.933 310.798 462.323 310.058 474.533C309.448 487.538 307.877 500.48 305.358 513.253C304.018 520.19 301.825 526.935 298.828 533.333C297.267 536.665 295.045 539.645 292.298 542.093C291.575 542.687 290.798 543.212 289.978 543.663C289.148 544.092 288.293 544.473 287.418 544.803C286.548 545.153 285.638 545.383 284.738 545.653C283.822 545.877 282.894 546.048 281.958 546.163C280.072 546.398 278.165 546.398 276.278 546.163C274.383 545.906 272.519 545.45 270.718 544.803C267.111 543.435 263.738 541.516 260.718 539.113C254.618 534.134 249.364 528.201 245.158 521.543C242.762 517.895 240.62 514.086 238.748 510.143C236.918 506.213 235.428 502.143 234.018 498.143C231.198 490.143 228.658 482.143 226.218 474.303C223.778 466.463 221.478 458.793 219.278 451.303C217.078 443.813 214.928 436.473 213.028 429.303L212.968 429.053H213.228L261.148 423.383H261.278L261.348 423.493L270.598 439.843L270.258 439.923C272.178 419.923 273.718 403.853 274.788 392.743C275.328 387.203 275.788 382.903 276.038 379.983C276.188 378.533 276.298 377.423 276.378 376.663C276.458 375.903 276.508 375.543 276.508 375.543C276.508 375.543 276.508 375.923 276.428 376.673C276.348 377.423 276.268 378.533 276.138 379.983C275.878 382.913 275.488 387.213 274.988 392.763C273.988 403.873 272.468 419.973 270.618 439.953V440.523L270.328 440.023L261.008 423.633L261.208 423.733L213.298 429.463L213.498 429.183C215.388 436.313 217.558 443.663 219.758 451.183C221.958 458.703 224.278 466.383 226.758 474.183C229.238 481.983 231.758 489.983 234.558 497.993C235.968 501.993 237.458 505.993 239.268 509.933C241.116 513.854 243.231 517.643 245.598 521.273C249.766 527.882 254.973 533.774 261.018 538.723C263.997 541.097 267.327 542.993 270.888 544.343C272.655 544.973 274.481 545.419 276.338 545.673C278.185 545.903 280.052 545.903 281.898 545.673C282.81 545.56 283.715 545.397 284.608 545.183C285.488 544.913 286.388 544.683 287.238 544.353C288.092 544.03 288.927 543.66 289.738 543.243C290.527 542.801 291.276 542.292 291.978 541.723C294.67 539.318 296.847 536.392 298.378 533.123C301.363 526.767 303.55 520.066 304.888 513.173C307.407 500.417 308.981 487.492 309.598 474.503C310.318 462.313 310.468 450.923 310.398 440.503C310.348 435.313 309.978 430.373 309.708 425.703C309.438 421.033 309.098 416.633 308.828 412.513C308.228 404.283 307.718 397.193 307.288 391.393C306.858 385.593 306.528 381.103 306.288 378.043C306.178 376.523 306.088 375.363 306.038 374.573C305.988 373.783 306.008 373.423 306.008 373.423Z" fill="#FF9A6C"/>
<path d="M270.318 438.263C270.327 438.521 270.31 438.779 270.268 439.033C270.198 439.523 270.168 440.273 269.988 441.203C269.552 443.864 268.882 446.48 267.988 449.023C266.653 452.79 265.028 456.448 263.128 459.963C261.028 463.963 258.488 468.193 255.858 472.663C253.357 476.842 251.099 481.163 249.098 485.603C247.472 489.225 246.226 493.005 245.378 496.883C244.82 499.514 244.532 502.194 244.518 504.883C244.518 505.833 244.568 506.563 244.568 507.063C244.588 507.32 244.588 507.577 244.568 507.833C244.506 507.585 244.472 507.33 244.468 507.073C244.468 506.573 244.308 505.833 244.318 504.883C244.259 502.199 244.494 499.517 245.018 496.883C245.818 492.963 247.038 489.141 248.658 485.483C250.639 481.015 252.893 476.674 255.408 472.483C258.038 468.003 260.588 463.773 262.708 459.813C264.605 456.302 266.24 452.656 267.598 448.903C268.519 446.388 269.238 443.803 269.748 441.173C269.958 440.243 270.028 439.513 270.118 439.013C270.163 438.758 270.23 438.507 270.318 438.263Z" fill="#FF9A6C"/>
<path d="M230.268 364.893C228.958 365.153 206.478 375.543 206.628 410.173C206.748 436.023 213.678 460.823 213.678 460.823L267.838 435.323L230.268 364.893Z" fill="#AEB8FE"/>
<path d="M306.008 373.423C306.008 373.423 312.388 366.833 312.388 358.223C312.209 352.347 311.091 346.537 309.078 341.013C309.078 341.013 308.008 332.013 307.328 328.463L310.238 322.973C310.238 322.973 318.178 326.453 319.498 321.323L314.828 314.923C313.781 313.493 312.285 312.454 310.578 311.973L303.578 309.973C302.357 309.629 301.074 309.555 299.821 309.755C298.567 309.955 297.372 310.426 296.318 311.133L288.058 316.723L293.188 306.133L301.798 304.313C301.798 304.313 314.038 309.603 316.358 302.653L306.098 296.653L286.568 296.993C286.568 296.993 282.098 302.453 281.108 304.103C280.118 305.753 276.888 311.453 276.888 311.453L271.998 298.813C271.998 298.813 272.148 290.743 271.998 284.023C271.788 276.603 267.428 274.123 262.998 276.603C262.558 276.843 260.568 296.713 261.558 301.353C262.548 305.993 271.098 340.423 271.098 340.423C271.098 340.423 274.098 348.263 275.248 350.573C276.92 353.996 277.756 357.765 277.688 361.573C277.888 365.233 276.498 376.573 276.498 376.573" fill="#FFBF9D"/>
<path d="M276.428 376.633C276.428 376.633 276.428 376.413 276.428 375.993C276.428 375.573 276.538 374.913 276.628 374.093C276.798 372.423 277.058 369.953 277.288 366.743C277.447 364.965 277.501 363.178 277.448 361.393C277.442 359.264 277.187 357.143 276.688 355.073C276.416 353.929 276.052 352.809 275.598 351.723C275.078 350.623 274.508 349.463 274.008 348.253C273.008 345.823 272.008 343.253 270.918 340.493C269.508 334.783 267.918 328.493 266.288 321.683C265.448 318.27 264.582 314.743 263.688 311.103C263.238 309.273 262.788 307.423 262.318 305.543C262.088 304.593 261.858 303.653 261.628 302.693C261.508 302.213 261.378 301.743 261.278 301.253C261.178 300.763 261.148 300.253 261.108 299.743C260.98 295.633 261.103 291.519 261.478 287.423C261.638 285.323 261.818 283.203 262.048 281.053C262.168 279.983 262.288 278.913 262.458 277.823C262.458 277.553 262.538 277.283 262.598 277.003C262.595 276.933 262.595 276.863 262.598 276.793V276.683V276.613L262.678 276.493C262.709 276.446 262.755 276.41 262.808 276.393H262.908L263.098 276.303C263.6 276.042 264.13 275.84 264.678 275.703C265.807 275.399 267.003 275.469 268.088 275.903C269.162 276.382 270.058 277.187 270.648 278.203C271.749 280.251 272.267 282.562 272.148 284.883C272.148 289.47 272.148 294.137 272.148 298.883V298.783C273.698 302.783 275.358 307.073 277.038 311.433H276.568L280.848 304.003C282.508 301.543 284.398 299.273 286.278 296.933L286.348 296.843H286.598L290.258 296.773L306.128 296.513H306.208H306.268L316.528 302.513L316.708 302.623L316.598 302.723C316.377 303.419 316.009 304.06 315.519 304.601C315.029 305.143 314.429 305.573 313.758 305.863C312.438 306.373 311.019 306.578 309.608 306.463C306.885 306.252 304.213 305.6 301.698 304.533H301.848L293.238 306.353L293.408 306.223L288.268 316.813L287.918 316.503L296.358 310.863C297.788 309.956 299.445 309.471 301.138 309.463C301.966 309.468 302.789 309.579 303.588 309.793L305.888 310.443L310.418 311.723C311.952 312.112 313.341 312.935 314.418 314.093C316.318 316.513 317.968 318.913 319.678 321.213L319.738 321.293V321.393C319.5 322.347 318.902 323.172 318.068 323.693C317.247 324.157 316.311 324.379 315.368 324.333C313.587 324.271 311.833 323.874 310.198 323.163L310.438 323.083C309.438 325.083 308.438 326.823 307.528 328.563V328.443C308.308 332.933 308.778 337.133 309.248 341.013C310.914 345.603 311.976 350.39 312.408 355.253C312.614 357.221 312.57 359.207 312.278 361.163C312.001 362.787 311.542 364.373 310.908 365.893C310.039 367.971 308.91 369.93 307.548 371.723C307.078 372.333 306.708 372.773 306.448 373.063C306.32 373.211 306.183 373.351 306.038 373.483L306.408 373.033C306.668 372.743 307.018 372.283 307.478 371.673C308.801 369.864 309.902 367.904 310.758 365.833C311.368 364.316 311.811 362.737 312.078 361.123C312.346 359.184 312.377 357.22 312.168 355.273C311.703 350.443 310.625 345.691 308.958 341.133C308.468 337.253 307.958 333.053 307.188 328.593V328.533V328.473L310.088 322.983L310.168 322.833L310.328 322.903C311.915 323.573 313.608 323.952 315.328 324.023C316.197 324.059 317.058 323.855 317.818 323.433C318.561 322.959 319.094 322.218 319.308 321.363V321.543C317.598 319.253 315.898 316.803 314.058 314.463C313.038 313.366 311.722 312.588 310.268 312.223L305.738 310.953C304.245 310.428 302.688 310.108 301.108 310.003C299.5 310.012 297.927 310.473 296.568 311.333L288.158 316.983L287.428 317.473L287.808 316.683L292.938 306.083V305.973H293.058L301.658 304.143H301.738H301.818C304.299 305.15 306.926 305.751 309.598 305.923C310.931 306.036 312.271 305.844 313.518 305.363C314.122 305.102 314.663 304.714 315.105 304.226C315.547 303.738 315.879 303.16 316.078 302.533L316.188 302.843L305.928 296.843H306.058L290.188 297.113L286.528 297.183L286.728 297.083C284.868 299.403 282.948 301.713 281.338 304.083C279.888 306.613 278.458 309.083 277.068 311.503L276.798 311.973L276.608 311.463L271.728 298.823V298.773C271.728 294.033 271.728 289.367 271.728 284.773C271.85 282.536 271.356 280.309 270.298 278.333C269.765 277.4 268.949 276.661 267.968 276.223C266.982 275.83 265.894 275.766 264.868 276.043C264.351 276.169 263.85 276.357 263.378 276.603L263.198 276.693H263.108C263.188 276.873 262.948 276.453 263.018 276.573C263.088 276.693 263.128 276.713 263.128 276.693V276.773C263.124 276.837 263.124 276.9 263.128 276.963C263.068 277.223 263.028 277.493 262.988 277.753C262.828 278.823 262.708 279.903 262.588 280.973C262.348 283.103 262.158 285.223 261.998 287.323C261.627 291.395 261.497 295.486 261.608 299.573C261.634 300.06 261.691 300.544 261.778 301.023C261.868 301.503 261.998 302.023 262.108 302.463C262.348 303.463 262.578 304.363 262.808 305.303C263.255 307.197 263.705 309.05 264.158 310.863C265.038 314.517 265.895 318.047 266.728 321.453C268.378 328.253 269.908 334.553 271.288 340.273C272.288 343.013 273.288 345.613 274.288 348.033C274.788 349.253 275.338 350.383 275.868 351.513C276.35 352.616 276.742 353.757 277.038 354.923C277.531 357.011 277.776 359.149 277.768 361.293C277.809 363.089 277.742 364.886 277.568 366.673C277.298 369.873 277.018 372.343 276.818 374.013C276.712 374.833 276.632 375.463 276.578 375.903C276.468 376.423 276.428 376.633 276.428 376.633Z" fill="#FF9A6C"/>
<path d="M308.408 312.253C307.653 312.429 306.924 312.701 306.238 313.063C304.667 314.111 303.176 315.274 301.778 316.543C300.058 317.963 298.488 319.223 297.338 320.113C296.744 320.64 296.094 321.1 295.398 321.483C295.901 320.871 296.471 320.317 297.098 319.833C298.188 318.833 299.728 317.563 301.448 316.133C302.867 314.844 304.416 313.705 306.068 312.733C306.766 312.299 307.596 312.129 308.408 312.253Z" fill="#FF9A6C"/>
<path d="M252.478 390.723C252.618 390.673 256.238 400.653 260.568 413.013C264.898 425.373 268.308 435.423 268.168 435.473C268.028 435.523 264.418 425.543 260.078 413.183C255.738 400.823 252.348 390.723 252.478 390.723Z" fill="#263238"/>
</svg>
