<svg width="360" height="170" viewBox="0 0 360 170" fill="none" xmlns="http://www.w3.org/2000/svg">
<g clip-path="url(#clip0_79_14942)">
<path d="M360 153L350 136C340 119 320 85 300 82.1829C280 79.1714 260 107.829 240 116.183C220 124.829 200 113.171 180 99.1829C160 85 140 68 120 76.5C100 85 80 119 60 119C40 119 20 85 0 62.3171C-20 39.8286 -40 28.1714 -60 34C-80 39.8286 -100 62.1714 -120 62.3171C-140 62.1714 -160 39.8286 -180 45.3171C-200 51 -220 85 -240 107.683C-260 130.171 -280 141.829 -300 144.5C-320 147.171 -340 141.829 -360 119C-380 96.1714 -400 56.8286 -420 39.6829C-440 22.8286 -460 28.1714 -480 34C-500 39.8286 -520 45.1714 -540 59.5C-560 73.8286 -580 96.1714 -600 110.5C-620 124.829 -640 130.171 -660 119C-680 107.829 -700 79.1714 -720 85C-740 90.8286 -760 130.171 -780 141.683C-800 153 -820 136 -840 119C-860 102 -880 85 -900 79.3171C-920 73.8286 -940 79.1714 -960 96.3171C-980 113.171 -1000 141.829 -1020 136C-1040 130.171 -1060 90.8286 -1070 70.8171L-1080 51V0H-1070C-1060 0 -1040 0 -1020 0C-1000 0 -980 0 -960 0C-940 0 -920 0 -900 0C-880 0 -860 0 -840 0C-820 0 -800 0 -780 0C-760 0 -740 0 -720 0C-700 0 -680 0 -660 0C-640 0 -620 0 -600 0C-580 0 -560 0 -540 0C-520 0 -500 0 -480 0C-460 0 -440 0 -420 0C-400 0 -380 0 -360 0C-340 0 -320 0 -300 0C-280 0 -260 0 -240 0C-220 0 -200 0 -180 0C-160 0 -140 0 -120 0C-100 0 -80 0 -60 0C-40 0 -20 0 0 0C20 0 40 0 60 0C80 0 100 0 120 0C140 0 160 0 180 0C200 0 220 0 240 0C260 0 280 0 300 0C320 0 340 0 350 0H360V153Z" fill="url(#paint0_linear_79_14942)"/>
<path opacity="0.9" d="M360 119L350 116.183C340 113.171 320 107.829 300 107.683C280 107.829 260 113.171 240 124.683C220 136 200 153 180 138.817C160 124.829 140 79.1714 120 53.8171C100 28.1714 80 22.8286 60 45.3171C40 68 20 119 0 136C-20 153 -40 136 -60 127.5C-80 119 -100 119 -120 107.683C-140 96.1714 -160 73.8286 -180 56.6828C-200 39.8286 -220 28.1714 -240 36.8171C-260 45.1714 -280 73.8286 -300 73.6828C-320 73.8286 -340 45.1714 -360 36.8171C-380 28.1714 -400 39.8286 -420 65.1828C-440 90.8286 -460 130.171 -480 144.5C-500 158.829 -520 147.171 -540 124.683C-560 102 -580 68 -600 51C-620 34 -640 34 -660 45.3171C-680 56.8286 -700 79.1714 -720 99.1828C-740 119 -760 136 -780 130.317C-800 124.829 -820 96.1714 -840 76.5C-860 56.8286 -880 45.1714 -900 59.5C-920 73.8286 -940 113.171 -960 133.183C-980 153 -1000 153 -1020 130.317C-1040 107.829 -1060 62.1714 -1070 39.6829L-1080 17V0H-1070C-1060 0 -1040 0 -1020 0C-1000 0 -980 0 -960 0C-940 0 -920 0 -900 0C-880 0 -860 0 -840 0C-820 0 -800 0 -780 0C-760 0 -740 0 -720 0C-700 0 -680 0 -660 0C-640 0 -620 0 -600 0C-580 0 -560 0 -540 0C-520 0 -500 0 -480 0C-460 0 -440 0 -420 0C-400 0 -380 0 -360 0C-340 0 -320 0 -300 0C-280 0 -260 0 -240 0C-220 0 -200 0 -180 0C-160 0 -140 0 -120 0C-100 0 -80 0 -60 0C-40 0 -20 0 0 0C20 0 40 0 60 0C80 0 100 0 120 0C140 0 160 0 180 0C200 0 220 0 240 0C260 0 280 0 300 0C320 0 340 0 350 0H360V119Z" fill="url(#paint1_linear_79_14942)"/>
<path opacity="0.8" d="M360 85L350 96.3171C340 107.829 320 130.171 300 119C280 107.829 260 62.1714 240 45.3171C220 28.1714 200 39.8286 180 65.1829C160 90.8286 140 130.171 120 141.683C100 153 80 136 60 136C40 136 20 153 0 155.817C-20 158.829 -40 147.171 -60 130.317C-80 113.171 -100 90.8286 -120 70.8171C-140 51 -160 34 -180 25.5C-200 17 -220 17 -240 34C-260 51 -280 85 -300 102C-320 119 -340 119 -360 116.183C-380 113.171 -400 107.829 -420 102C-440 96.1714 -460 90.8286 -480 93.5C-500 96.1714 -520 107.829 -540 102C-560 96.1714 -580 73.8286 -600 65.1829C-620 56.8286 -640 62.1714 -660 56.6829C-680 51 -700 34 -720 45.3171C-740 56.8286 -760 96.1714 -780 121.817C-800 147.171 -820 158.829 -840 144.5C-860 130.171 -880 90.8286 -900 70.8171C-920 51 -940 51 -960 65.1829C-980 79.1714 -1000 107.829 -1020 116.183C-1040 124.829 -1060 113.171 -1070 107.683L-1080 102V0H-1070C-1060 0 -1040 0 -1020 0C-1000 0 -980 0 -960 0C-940 0 -920 0 -900 0C-880 0 -860 0 -840 0C-820 0 -800 0 -780 0C-760 0 -740 0 -720 0C-700 0 -680 0 -660 0C-640 0 -620 0 -600 0C-580 0 -560 0 -540 0C-520 0 -500 0 -480 0C-460 0 -440 0 -420 0C-400 0 -380 0 -360 0C-340 0 -320 0 -300 0C-280 0 -260 0 -240 0C-220 0 -200 0 -180 0C-160 0 -140 0 -120 0C-100 0 -80 0 -60 0C-40 0 -20 0 0 0C20 0 40 0 60 0C80 0 100 0 120 0C140 0 160 0 180 0C200 0 220 0 240 0C260 0 280 0 300 0C320 0 340 0 350 0H360V85Z" fill="url(#paint2_linear_79_14942)"/>
</g>
<defs>
<linearGradient id="paint0_linear_79_14942" x1="360" y1="0" x2="360" y2="153" gradientUnits="userSpaceOnUse">
<stop stop-color="#F36A3E"/>
<stop offset="1" stop-color="#FFB30B"/>
</linearGradient>
<linearGradient id="paint1_linear_79_14942" x1="360" y1="0" x2="360" y2="150.789" gradientUnits="userSpaceOnUse">
<stop stop-color="#F36A3E"/>
<stop offset="1" stop-color="#FFB30B"/>
</linearGradient>
<linearGradient id="paint2_linear_79_14942" x1="360" y1="0" x2="360" y2="156.292" gradientUnits="userSpaceOnUse">
<stop stop-color="#F36A3E"/>
<stop offset="1" stop-color="#FFB30B"/>
</linearGradient>
<clipPath id="clip0_79_14942">
<rect width="360" height="170" fill="white" transform="translate(360 170) rotate(-180)"/>
</clipPath>
</defs>
</svg>
