<svg width="414" height="440" viewBox="0 0 414 440" fill="none" xmlns="http://www.w3.org/2000/svg">
<path d="M18.01 384.521L0.039978 408.921L30.3 431.441C32.3 428.441 20.93 410.961 20.93 410.961L33.09 395.801L18.01 384.521Z" fill="#455A64"/>
<path d="M12.59 402.701C12.2342 402.571 11.8429 402.578 11.492 402.721C11.141 402.863 10.8553 403.13 10.69 403.471C10.5494 403.823 10.5488 404.216 10.6882 404.57C10.8276 404.923 11.0965 405.209 11.44 405.371C11.817 405.504 12.2298 405.492 12.599 405.339C12.9682 405.186 13.2678 404.902 13.44 404.541C13.5505 404.158 13.508 403.746 13.3215 403.394C13.135 403.041 12.819 402.775 12.44 402.651" fill="white"/>
<path d="M0 408.981L1.91 406.361L30.18 429.121C30.18 429.121 31.08 430.721 30.18 431.551L0 408.981Z" fill="#263238"/>
<path d="M21.59 411.181C21.48 411.331 20.69 410.851 19.59 410.781C18.49 410.711 17.66 411.051 17.59 410.891C17.52 410.731 18.36 410.041 19.66 410.141C20.96 410.241 21.67 411.071 21.59 411.181Z" fill="#263238"/>
<path d="M23.74 414.861C23.66 415.031 22.84 414.801 21.87 415.051C20.9 415.301 20.27 415.861 20.12 415.741C19.97 415.621 20.51 414.741 21.72 414.431C22.93 414.121 23.84 414.721 23.74 414.861Z" fill="#263238"/>
<path d="M22.71 420.001C22.55 419.931 22.9 419.001 23.88 418.511C24.86 418.021 25.79 418.181 25.76 418.351C25.73 418.521 24.98 418.631 24.19 419.081C23.4 419.531 22.87 420.091 22.71 420.001Z" fill="#263238"/>
<path d="M23.93 407.421C23.76 407.511 23.24 406.801 22.36 406.241C21.48 405.681 20.64 405.451 20.65 405.241C20.66 405.031 21.65 404.991 22.71 405.671C23.77 406.351 24.09 407.361 23.93 407.421Z" fill="#263238"/>
<path d="M91.17 282.381C91.71 285.441 92.57 311.471 93.12 325.201C93.67 338.931 92.3 345.681 90.73 348.761C89.16 351.841 29.95 395.471 25.44 405.921L10.44 393.831C10.44 393.831 32.44 354.341 41.82 347.161C51.2 339.981 69.25 333.391 69.25 333.391L64.12 258.201L88.71 256.861L91.17 282.381Z" fill="#263238"/>
<path d="M36.14 408.651L35.88 438.921L73.59 439.441C73.42 435.841 54.01 428.331 54.01 428.331L55.01 408.921L36.14 408.651Z" fill="#455A64"/>
<path d="M42.37 426.581C42.0062 426.686 41.6938 426.922 41.4927 427.243C41.2917 427.564 41.2159 427.947 41.28 428.321C41.3728 428.689 41.6024 429.007 41.922 429.212C42.2416 429.416 42.6272 429.491 43 429.421C43.3843 429.307 43.713 429.055 43.9233 428.713C44.1336 428.372 44.2108 427.965 44.14 427.571C44.006 427.197 43.7318 426.89 43.3753 426.714C43.0188 426.539 42.6081 426.509 42.23 426.631" fill="white"/>
<path d="M35.87 439.031V435.781L72.12 437.661C72.12 437.661 73.78 438.431 73.57 439.611L35.87 439.031Z" fill="#263238"/>
<path d="M54.59 428.191C54.59 428.381 53.66 428.451 52.75 429.031C51.84 429.611 51.34 430.371 51.17 430.301C51 430.231 51.29 429.161 52.41 428.481C53.53 427.801 54.67 428.021 54.59 428.191Z" fill="#263238"/>
<path d="M58.59 429.921C58.59 430.101 57.82 430.401 57.19 431.171C56.56 431.941 56.36 432.771 56.19 432.751C56.02 432.731 55.9 431.701 56.71 430.751C57.52 429.801 58.59 429.711 58.59 429.921Z" fill="#263238"/>
<path d="M60.74 434.651C60.57 434.651 60.33 433.761 60.81 432.761C61.29 431.761 62.17 431.371 62.24 431.521C62.31 431.671 61.78 432.211 61.39 433.041C61 433.871 60.92 434.631 60.74 434.651Z" fill="#263238"/>
<path d="M54.35 423.741C54.27 423.911 53.43 423.641 52.35 423.741C51.27 423.841 50.49 424.111 50.35 423.951C50.21 423.791 51.04 423.151 52.27 423.101C53.5 423.051 54.44 423.601 54.35 423.741Z" fill="#263238"/>
<path d="M93.89 253.751C93.89 255.521 96.76 300.331 82.11 332.751C82.11 332.751 77.04 342.891 76.11 347.321C75.18 351.751 56.23 425.231 56.23 425.231L34.33 424.431C34.33 424.431 30.83 387.621 34.33 366.311C37.83 345.001 44.33 347.501 44.33 333.741C44.33 319.981 41.06 291.451 41.06 291.451C41.06 291.451 36.28 283.661 34.65 268.551C33.32 256.281 39.1 243.131 39.1 243.131L44.81 233.021L93.12 230.491L93.89 253.751Z" fill="#263238"/>
<path d="M93.89 253.751C93.89 253.751 93.89 253.231 93.89 252.221C93.89 251.211 93.83 249.711 93.79 247.741C93.7 243.791 93.55 237.971 93.37 230.451V230.341H93.25L44.94 232.801H44.84L44.78 232.891C43.01 236.031 41.06 239.461 39.06 243.001C37.5725 246.589 36.4111 250.304 35.59 254.101C34.6828 258.098 34.2763 262.193 34.38 266.291C34.6844 270.57 35.3535 274.815 36.38 278.981C37.3702 283.354 38.9267 287.58 41.01 291.551V291.451C41.84 298.911 42.61 306.641 43.26 314.601C43.58 318.601 43.86 322.601 44.06 326.711C44.16 328.711 44.24 330.811 44.25 332.881C44.25 333.881 44.25 334.951 44.19 335.981C44.1188 337.014 43.992 338.042 43.81 339.061C43.4006 341.114 42.6753 343.09 41.66 344.921C40.66 346.791 39.66 348.641 38.66 350.591C36.8489 354.548 35.5291 358.713 34.73 362.991C32.99 371.591 32.64 380.531 32.54 389.541C32.54 401.431 33.1 413.111 34.08 424.401V424.641H34.31L56.21 425.441H56.42L56.47 425.231C62.82 400.621 68.74 377.621 73.96 356.941L75.85 349.291C76.18 348.021 76.39 346.761 76.78 345.561C77.17 344.361 77.61 343.171 78.07 342.011C79.01 339.691 80.07 337.441 81.07 335.251L81.85 333.621C82.127 333.088 82.3741 332.541 82.59 331.981C83.04 330.871 83.49 329.781 83.94 328.691C87.0499 320.626 89.3642 312.276 90.85 303.761C92.9916 291.63 94.0956 279.339 94.15 267.021C94.21 258.401 93.86 253.721 93.86 253.721C93.86 253.721 93.86 254.011 93.86 254.581C93.86 255.151 93.86 256.021 93.92 257.141C93.98 259.391 94.02 262.711 93.92 267.021C93.8275 279.329 92.7136 291.607 90.59 303.731C89.0699 312.219 86.7254 320.538 83.59 328.571L82.25 331.841C82.03 332.401 81.78 332.931 81.51 333.471C81.24 334.011 80.98 334.561 80.72 335.111C79.72 337.301 78.66 339.551 77.72 341.881C77.25 343.051 76.8 344.241 76.41 345.461C76.02 346.681 75.79 347.971 75.47 349.211C74.84 351.731 74.21 354.271 73.56 356.861C68.25 377.521 62.34 400.521 56.01 425.131L56.27 424.941L34.37 424.131L34.63 424.371C33.63 413.101 33.05 401.431 33.09 389.561C33.19 380.561 33.54 371.661 35.27 363.121C36.0666 358.882 37.3728 354.756 39.16 350.831C40.06 348.901 41.16 347.071 42.16 345.171C43.1686 343.291 43.8836 341.267 44.28 339.171C44.4696 338.129 44.5998 337.077 44.67 336.021C44.67 335.021 44.77 333.921 44.73 332.891C44.73 330.811 44.64 328.741 44.54 326.691C44.34 322.591 44.05 318.551 43.72 314.571C43.0533 306.571 42.2966 298.848 41.45 291.401V291.341C39.366 287.421 37.8028 283.246 36.8 278.921C35.7793 274.785 35.1102 270.57 34.8 266.321C34.6923 262.261 35.0887 258.203 35.98 254.241C36.7857 250.482 37.9201 246.801 39.37 243.241L45.07 233.121L44.91 233.221L93.22 230.611L93.09 230.501C93.33 238.011 93.51 243.831 93.63 247.781C93.7 249.781 93.75 251.241 93.79 252.261C93.83 253.281 93.89 253.751 93.89 253.751Z" fill="#455A64"/>
<path d="M78.18 161.991C78.18 161.991 65.18 159.691 66.39 176.421C67.15 186.421 70.09 203.581 71.72 214.531C72.28 218.321 73.52 225.101 78.53 229.081L114.43 253.921L125.76 240.371L93.7 209.841L88.7 179.641L78.18 161.991Z" fill="#455A64"/>
<path d="M79.71 101.691C81.7706 103.35 83.4009 105.482 84.4627 107.905C85.5246 110.328 85.9867 112.971 85.81 115.611C85.61 118.171 84.9 121.081 86.57 123.031C88.24 124.981 91.44 124.911 93.02 126.891C94.87 129.231 93.32 132.711 94.02 135.621C94.3768 136.98 95.2055 138.168 96.3579 138.972C97.5102 139.777 98.9111 140.145 100.31 140.011C97.0282 142.696 93.0701 144.426 88.87 145.011L85.59 140.921C86.81 142.361 86.48 144.651 85.31 146.121C84.039 147.489 82.4001 148.461 80.59 148.921C76.282 150.246 71.7261 150.559 67.2772 149.836C62.8283 149.113 58.6063 147.373 54.94 144.751" fill="#263238"/>
<path d="M31.68 124.261C32.32 122.261 33.4 120.491 33.83 118.481C34.75 114.151 32.64 109.271 34.74 105.371C36.24 102.601 39.42 101.241 42.44 100.311C45.46 99.3808 48.68 98.6008 50.93 96.3908C52.57 94.7708 53.51 92.5308 55.15 90.9108C57.49 88.5908 60.95 87.8008 64.23 87.6008C67.6169 87.2735 71.0309 87.8281 74.14 89.2108C75.6838 89.9152 77.0404 90.9728 78.1001 92.2982C79.1597 93.6237 79.8928 95.1798 80.24 96.8408C80.5 98.4608 80.3 100.171 80.82 101.741C81.38 103.461 82.73 104.801 83.57 106.411C84.4113 108.14 84.6547 110.099 84.2619 111.982C83.8692 113.864 82.8625 115.562 81.4 116.811L58.22 146.751C53.35 148.591 41.55 146.371 37.79 142.751C34.03 139.131 30.07 129.211 31.68 124.261Z" fill="#263238"/>
<path d="M80.79 113.011C79.79 106.211 74.66 98.1808 67.91 99.4208L47.07 106.421C45.07 106.801 46.49 110.151 46.69 112.221L51.22 159.221C51.22 159.221 48.4 161.221 47.4 160.841C47.3431 160.821 47.2814 160.819 47.2234 160.836C47.1655 160.853 47.1143 160.887 47.0769 160.935C47.0394 160.982 47.0177 161.04 47.0147 161.1C47.0117 161.16 47.0275 161.22 47.06 161.271C49.59 164.921 61.38 180.791 73.59 175.921C76.31 174.831 73.3 166.261 73.59 163.091L73.23 154.981C72.96 150.841 72.83 149.141 72.83 149.181C72.83 149.221 81.45 147.061 82.38 135.531C82.85 129.821 81.85 120.561 80.79 113.011Z" fill="#FFBF9D"/>
<path d="M79.34 123.471C79.371 123.851 79.2527 124.229 79.01 124.524C78.7674 124.819 78.4195 125.008 78.04 125.051C77.8552 125.08 77.6662 125.073 77.4844 125.028C77.3026 124.984 77.1316 124.903 76.9815 124.791C76.8313 124.679 76.7052 124.538 76.6105 124.377C76.5158 124.215 76.4544 124.036 76.43 123.851C76.399 123.47 76.5174 123.092 76.76 122.798C77.0027 122.503 77.3506 122.314 77.73 122.271C77.9149 122.241 78.1038 122.249 78.2856 122.293C78.4675 122.338 78.6385 122.419 78.7886 122.531C78.9387 122.642 79.0649 122.783 79.1596 122.945C79.2543 123.106 79.3156 123.285 79.34 123.471Z" fill="#263238"/>
<path d="M65.14 124.361C65.1738 124.74 65.0577 125.118 64.8167 125.413C64.5757 125.709 64.2287 125.898 63.85 125.941C63.6653 125.969 63.4769 125.96 63.2956 125.915C63.1143 125.87 62.9438 125.789 62.794 125.678C62.6442 125.566 62.5181 125.426 62.423 125.265C62.3279 125.104 62.2657 124.926 62.24 124.741C62.209 124.36 62.3274 123.982 62.57 123.688C62.8127 123.393 63.1605 123.204 63.54 123.161C63.7243 123.131 63.9127 123.139 64.0939 123.184C64.2751 123.228 64.4454 123.309 64.5948 123.421C64.7441 123.533 64.8693 123.674 64.963 123.836C65.0567 123.997 65.1169 124.176 65.14 124.361Z" fill="#263238"/>
<path d="M79.86 118.651C79.7 118.921 78.34 118.061 76.64 118.311C74.94 118.561 73.85 119.721 73.64 119.511C73.43 119.301 73.64 118.951 74.13 118.421C74.7453 117.73 75.5865 117.281 76.5029 117.155C77.4192 117.028 78.3506 117.233 79.13 117.731C79.69 118.121 79.94 118.531 79.86 118.651Z" fill="#263238"/>
<path d="M64.59 119.921C64.39 120.171 63.06 119.201 61.23 119.281C59.4 119.361 58.1 120.391 57.89 120.161C57.68 119.931 57.98 119.621 58.55 119.161C59.2982 118.543 60.2303 118.191 61.2 118.161C62.165 118.123 63.1152 118.408 63.9 118.971C64.47 119.381 64.68 119.801 64.59 119.921Z" fill="#263238"/>
<path d="M70.32 130.691C71.1274 130.361 71.9747 130.139 72.84 130.031C73.23 129.961 73.61 129.851 73.65 129.571C73.6552 129.153 73.5293 128.744 73.29 128.401C72.84 127.461 72.37 126.471 71.87 125.401C69.87 121.171 68.42 117.691 68.59 117.611C68.76 117.531 70.51 120.891 72.49 125.111C72.97 126.161 73.43 127.111 73.86 128.111C74.1525 128.575 74.2695 129.128 74.19 129.671C74.1442 129.817 74.0654 129.951 73.9596 130.062C73.8538 130.173 73.7239 130.258 73.58 130.311C73.3633 130.385 73.1383 130.432 72.91 130.451C72.0592 130.633 71.1898 130.714 70.32 130.691Z" fill="#263238"/>
<path d="M72.83 149.201C67.4749 149.692 62.0885 148.689 57.27 146.301C57.27 146.301 61.72 154.001 73.03 152.061L72.83 149.201Z" fill="#FF9A6C"/>
<path d="M65.53 135.271C65.7084 134.876 65.9835 134.532 66.33 134.271C66.754 134.069 67.2354 134.023 67.69 134.141C68.3653 134.239 68.9902 134.555 69.47 135.041C69.7054 135.286 69.8713 135.589 69.9504 135.92C70.0295 136.25 70.019 136.596 69.92 136.921C69.74 137.581 68.76 137.921 68.09 138.061C67.3959 138.162 66.6882 138.017 66.09 137.651C65.8298 137.532 65.6026 137.352 65.4282 137.125C65.2539 136.899 65.1378 136.633 65.09 136.351C65.1343 135.957 65.2866 135.583 65.53 135.271Z" fill="#FF9A6C"/>
<path d="M65.85 133.061C66.1 133.061 66.24 134.731 67.79 135.831C69.34 136.931 71.14 136.601 71.17 136.831C71.2 137.061 70.8 137.191 70.03 137.271C69.0309 137.362 68.0317 137.097 67.21 136.521C66.4172 135.974 65.8713 135.137 65.69 134.191C65.59 133.501 65.73 133.061 65.85 133.061Z" fill="#263238"/>
<path d="M64.45 113.771C64.32 114.201 62.74 114.121 60.91 114.491C59.08 114.861 57.63 115.491 57.36 115.101C57.24 114.931 57.46 114.511 58.03 114.051C58.7935 113.482 59.6775 113.096 60.6137 112.923C61.5499 112.749 62.5134 112.793 63.43 113.051C64.13 113.251 64.5 113.561 64.45 113.771Z" fill="#263238"/>
<path d="M78.89 112.921C78.6 113.301 77.34 113.031 75.89 113.131C74.44 113.231 73.16 113.581 72.84 113.231C72.7 113.061 72.84 112.681 73.39 112.301C74.1131 111.824 74.9544 111.558 75.82 111.531C76.6802 111.469 77.5403 111.653 78.3 112.061C78.82 112.361 79.02 112.721 78.89 112.921Z" fill="#263238"/>
<path d="M42.46 108.061C43.46 106.441 45.4 105.611 47.2 104.921C54.9738 101.919 63.0776 99.8546 71.34 98.7708C72.34 100.461 71.42 102.771 69.87 104.001C68.32 105.231 66.32 105.721 64.47 106.411C62.62 107.101 60.71 108.181 59.94 110.011C59.17 111.841 59.82 114.251 59.1 116.231C57.87 119.651 53.1 120.751 51.91 124.161C50.99 126.751 52.49 129.501 52.91 132.221C53.102 133.601 52.9974 135.007 52.6031 136.344C52.2088 137.68 51.534 138.918 50.6235 139.973C49.713 141.028 48.5879 141.877 47.3233 142.463C46.0587 143.049 44.6837 143.359 43.29 143.371C42.73 133.577 42.1667 123.791 41.6 114.011C41.43 111.971 41.35 109.771 42.46 108.061Z" fill="#263238"/>
<path d="M22.74 132.791C24.29 131.401 26.23 130.201 26.84 128.221C27.74 125.331 25.42 121.941 26.92 119.311C28.28 116.911 32.29 117.041 33.56 114.591C34.56 112.671 33.41 110.981 33.78 109.301C34.15 107.621 36.55 106.151 38.25 106.351L51.59 125.721C52.83 132.221 54.08 135.721 52.69 139.481C51.7706 141.505 51.0765 143.625 50.62 145.801C50.32 148.001 50.89 150.491 52.68 151.801C44.68 152.431 37.2 148.251 30.28 144.201L22.99 139.921C22.192 139.539 21.5038 138.961 20.99 138.241C19.9 136.461 21.2 134.171 22.74 132.791Z" fill="#263238"/>
<path d="M30.11 142.231C30.3891 142.321 30.6777 142.378 30.97 142.401C31.8042 142.481 32.6459 142.42 33.46 142.221C34.7595 141.91 35.9554 141.265 36.93 140.351C38.2172 139.112 39.0249 137.458 39.21 135.681C39.3302 134.65 39.2418 133.606 38.95 132.611C38.5914 131.55 38.0937 130.541 37.47 129.611C36.8086 128.667 36.2929 127.628 35.94 126.531C35.7526 125.97 35.6939 125.374 35.7683 124.787C35.8428 124.2 36.0484 123.637 36.37 123.141C37.09 122.141 38.44 121.931 39.7 121.431C40.3805 121.186 40.9725 120.744 41.4 120.161C41.7936 119.537 41.9857 118.807 41.95 118.071C41.777 116.659 41.4724 115.266 41.04 113.911C40.8865 113.253 40.8865 112.569 41.04 111.911C41.2161 111.247 41.6241 110.669 42.19 110.281C43.4068 109.579 44.7854 109.207 46.19 109.201C47.6436 109.153 49.0612 108.736 50.31 107.991C51.5251 107.25 52.5115 106.188 53.16 104.921C53.6922 103.705 54.0297 102.412 54.16 101.091C54.2987 99.8677 54.56 98.6616 54.94 97.4908C55.3612 96.426 56.0017 95.4618 56.82 94.6608C58.3293 93.2286 60.2778 92.3478 62.35 92.1608C64.0778 92.0131 65.8119 92.3599 67.35 93.1608C68.5068 93.7528 69.5496 94.545 70.43 95.5008C71.1657 96.3351 71.8032 97.2511 72.33 98.2308C72.33 98.2308 72.33 98.1608 72.26 98.0208C72.1779 97.8222 72.0844 97.6286 71.98 97.4408C71.5982 96.7149 71.1316 96.0368 70.59 95.4208C69.7103 94.4266 68.6606 93.597 67.49 92.9708C65.9358 92.1165 64.1697 91.7244 62.4 91.8408C60.2283 91.9998 58.1772 92.9001 56.59 94.3908C55.7155 95.2355 55.0333 96.2587 54.59 97.3908C54.1935 98.5833 53.9188 99.8129 53.77 101.061C53.6312 102.339 53.2938 103.587 52.77 104.761C52.1602 105.941 51.2407 106.933 50.11 107.631C48.9185 108.33 47.5706 108.718 46.19 108.761C44.6852 108.758 43.2072 109.158 41.91 109.921C41.261 110.362 40.7925 111.022 40.59 111.781C40.4147 112.521 40.4147 113.291 40.59 114.031C41.0135 115.361 41.3147 116.726 41.49 118.111C41.5312 118.754 41.3704 119.394 41.03 119.941C40.6437 120.448 40.1195 120.834 39.52 121.051C38.93 121.301 38.29 121.471 37.67 121.731C37.0244 121.975 36.455 122.385 36.02 122.921C35.6668 123.473 35.4405 124.097 35.3575 124.747C35.2745 125.397 35.3368 126.058 35.54 126.681C35.9144 127.814 36.4535 128.885 37.14 129.861C37.7491 130.745 38.2368 131.707 38.59 132.721C38.8733 133.666 38.9685 134.659 38.87 135.641C38.7061 137.351 37.949 138.95 36.73 140.161C35.7969 141.064 34.6465 141.712 33.39 142.041C32.3199 142.32 31.2051 142.385 30.11 142.231Z" fill="#455A64"/>
<path d="M19.45 128.461C19.3192 128.657 19.2306 128.878 19.19 129.111C19.057 129.797 19.1778 130.507 19.53 131.111C19.774 131.542 20.1167 131.908 20.53 132.181C21.0452 132.492 21.638 132.652 22.24 132.641C22.9716 132.625 23.6847 132.408 24.3018 132.015C24.9189 131.622 25.4164 131.067 25.74 130.411C26.1204 129.658 26.3158 128.825 26.31 127.981C26.2858 127.074 26.096 126.179 25.75 125.341C25.12 123.611 23.96 121.921 23.94 119.901C23.9022 119.403 23.9651 118.904 24.1249 118.431C24.2847 117.959 24.5381 117.523 24.87 117.151C25.6808 116.481 26.7226 116.158 27.77 116.251C28.9355 116.336 30.107 116.214 31.23 115.891C31.8185 115.651 32.3157 115.231 32.65 114.691C32.9719 114.154 33.1732 113.553 33.24 112.931C33.2976 111.737 33.2001 110.54 32.95 109.371C32.771 108.273 32.8358 107.15 33.14 106.081C33.7068 104.039 35.0346 102.293 36.85 101.201C38.5733 100.323 40.4864 99.8834 42.42 99.9208C44.1385 99.9247 45.8466 99.6547 47.48 99.1208C48.8081 98.6335 50.0253 97.8855 51.06 96.9208C51.8524 96.1888 52.527 95.3387 53.06 94.4008C53.5291 93.6228 53.8511 92.7652 54.01 91.8708C53.7123 92.7151 53.3409 93.5316 52.9 94.3108C51.6402 96.4134 49.6996 98.0223 47.4 98.8708C45.7802 99.3663 44.0938 99.6092 42.4 99.5908C40.4101 99.5348 38.4375 99.9746 36.66 100.871C34.7509 101.99 33.3415 103.797 32.72 105.921C32.4 107.049 32.3284 108.233 32.51 109.391C32.7441 110.522 32.8414 111.677 32.8 112.831C32.7763 113.38 32.6025 113.911 32.2975 114.368C31.9924 114.825 31.5678 115.189 31.07 115.421C30.0014 115.724 28.8876 115.836 27.78 115.751C26.6202 115.649 25.467 116.009 24.57 116.751C24.2037 117.168 23.9262 117.655 23.7542 118.183C23.5823 118.711 23.5196 119.268 23.57 119.821C23.6142 120.859 23.8622 121.878 24.3 122.821C24.69 123.721 25.12 124.561 25.45 125.401C25.7856 126.197 25.9753 127.047 26.01 127.911C26.0237 128.699 25.8524 129.48 25.51 130.191C25.2198 130.804 24.7672 131.326 24.2012 131.699C23.6353 132.073 22.9777 132.285 22.3 132.311C21.7441 132.331 21.1936 132.196 20.71 131.921C20.296 131.679 19.9516 131.335 19.71 130.921C19.3595 130.364 19.2144 129.703 19.3 129.051C19.35 128.691 19.48 128.471 19.45 128.461Z" fill="#263238"/>
<path d="M103.68 133.231C103.918 133.907 103.918 134.644 103.68 135.321C103.548 135.709 103.33 136.063 103.043 136.355C102.756 136.648 102.406 136.872 102.02 137.011C101.506 137.163 100.959 137.168 100.441 137.027C99.924 136.885 99.4561 136.603 99.09 136.211C98.6701 135.749 98.4258 135.154 98.4 134.531C98.3808 133.851 98.4859 133.173 98.71 132.531C99.13 131.181 100 129.711 99.87 127.941C99.8069 127.043 99.5573 126.169 99.1371 125.374C98.717 124.578 98.1356 123.879 97.43 123.321C96.6912 122.729 95.846 122.285 94.94 122.011C94.0146 121.754 93.0602 121.617 92.1 121.601C91.1695 121.593 90.2419 121.496 89.33 121.311C88.4788 121.135 87.7171 120.664 87.18 119.981C86.7044 119.28 86.4374 118.458 86.41 117.611C86.3655 116.786 86.4328 115.958 86.61 115.151C87.049 113.628 87.2909 112.055 87.33 110.471C87.2495 109.064 86.7516 107.713 85.9 106.591C85.1799 105.7 84.2977 104.954 83.3 104.391C82.5711 103.959 81.8728 103.478 81.21 102.951C80.6665 102.485 80.2241 101.914 79.91 101.271C79.91 101.271 79.91 101.271 79.91 101.411C79.9495 101.546 80.0031 101.677 80.07 101.801C80.3194 102.287 80.6588 102.721 81.07 103.081C81.7182 103.645 82.4104 104.157 83.14 104.611C84.0941 105.178 84.9349 105.917 85.62 106.791C86.4127 107.867 86.8654 109.155 86.92 110.491C86.8607 112.039 86.6087 113.575 86.17 115.061C85.9766 115.906 85.8992 116.774 85.94 117.641C85.9773 118.574 86.2752 119.478 86.8 120.251C87.3962 121.022 88.2466 121.557 89.2 121.761C90.1382 121.953 91.0924 122.057 92.05 122.071C92.9756 122.083 93.8961 122.211 94.79 122.451C95.6386 122.715 96.4316 123.131 97.13 123.681C97.7873 124.199 98.3301 124.848 98.7242 125.586C99.1184 126.324 99.3553 127.136 99.42 127.971C99.56 129.581 98.76 130.971 98.32 132.421C98.0889 133.116 97.9872 133.849 98.02 134.581C98.0636 135.28 98.3501 135.941 98.83 136.451C99.2408 136.881 99.7644 137.187 100.341 137.334C100.917 137.481 101.524 137.462 102.09 137.281C102.504 137.12 102.876 136.868 103.177 136.542C103.479 136.216 103.702 135.826 103.83 135.401C104.011 134.88 104.039 134.317 103.91 133.781C103.867 133.585 103.789 133.399 103.68 133.231Z" fill="#263238"/>
<path d="M94.12 211.561V200.501C95.36 194.291 94.77 186.931 91.88 181.261C89.7835 177.606 87.4658 174.083 84.94 170.711L73.94 156.421C67.88 160.831 58.39 157.641 50.25 154.681C50.25 154.681 42.25 159.131 38.47 163.311C34.54 167.711 47.98 222.761 47.98 222.761C41.89 234.941 34.03 245.761 32.84 256.861L96.44 259.311L93.74 230.151L94.12 211.561Z" fill="#455A64"/>
<path d="M93.24 230.461C93.1767 230.047 93.16 229.628 93.19 229.211C93.19 228.301 93.19 227.211 93.19 225.821C93.24 222.821 93.3 218.951 93.37 214.641C93.44 210.331 93.57 206.321 93.71 203.461C93.78 202.031 93.85 200.871 93.91 200.071C93.9169 199.656 93.9706 199.244 94.07 198.841C94.1104 199.253 94.1104 199.668 94.07 200.081C94.07 200.991 94.07 202.081 94.07 203.471C94.02 206.471 93.95 210.341 93.88 214.651C93.81 218.961 93.69 222.971 93.55 225.831C93.48 227.261 93.41 228.421 93.34 229.221C93.3556 229.637 93.322 230.053 93.24 230.461Z" fill="#263238"/>
<path d="M122.29 240.521C122.29 240.521 128.49 240.861 132.29 243.261C136.09 245.661 142.29 249.401 144.84 254.031C146.01 256.161 142.68 256.611 141.03 255.381C139.38 254.151 136.87 251.811 135.62 251.531L134.37 251.241C135.511 253.824 136.783 256.347 138.18 258.801C139.47 260.801 140.59 264.121 136.71 264.271C136.71 264.271 134.1 267.671 131.46 265.151C131.46 265.151 129.4 268.241 126.08 263.961C126.08 263.961 124.14 266.411 123.34 265.471C122.54 264.531 119.89 263.051 119.12 259.991C117.965 256.429 116.63 252.928 115.12 249.501L122.29 240.521Z" fill="#FFBF9D"/>
<path d="M261.1 154.581C261.79 154.581 290.18 151.581 290.18 151.581C290.18 151.581 292.59 140.041 292.46 137.041C292.33 134.041 290.31 114.191 290.31 114.191L300.94 109.191C300.94 109.191 315.15 157.111 312.05 161.091C308.95 165.071 303.12 168.641 302.62 168.661C302.12 168.681 275.11 180.661 256.32 174.431C237.53 168.201 261.1 154.581 261.1 154.581Z" fill="#FFBF9D"/>
<path d="M236.22 180.451C240.4 184.601 247.6 188.051 259.62 185.051C283.38 179.111 301.19 174.051 308.27 170.251C315.35 166.451 312.59 149.471 313.19 148.701C314.98 146.381 313.01 141.401 310.46 140.621C303.19 138.421 290.54 139.291 289.9 139.951C286.17 143.871 289.57 148.631 289.57 148.631L258.24 152.741C254.388 152.56 250.528 152.805 246.73 153.471" fill="#455A64"/>
<path d="M246.73 153.471L247.48 153.311C247.98 153.221 248.72 153.091 249.7 152.971C252.535 152.614 255.395 152.493 258.25 152.611L289.57 148.411L289.42 148.761C288.391 147.247 287.885 145.439 287.98 143.611C288.065 142.665 288.374 141.754 288.88 140.951C289.134 140.547 289.422 140.166 289.74 139.811C289.865 139.718 290.003 139.644 290.15 139.591L290.51 139.501C290.75 139.441 290.98 139.421 291.21 139.371C295.09 138.923 299.004 138.843 302.9 139.131C304.945 139.255 306.978 139.536 308.98 139.971C309.48 140.081 309.98 140.231 310.5 140.361C311.033 140.531 311.522 140.818 311.93 141.201C312.725 141.956 313.331 142.888 313.7 143.921C314.097 144.955 314.237 146.07 314.11 147.171C314.018 147.744 313.803 148.289 313.48 148.771C313.39 148.871 313.4 149.141 313.39 149.401V150.201C313.46 152.351 313.56 154.541 313.5 156.741C313.516 159.864 313.005 162.967 311.99 165.921C311.468 167.4 310.573 168.72 309.39 169.751C308.777 170.23 308.105 170.626 307.39 170.931C306.73 171.281 306.03 171.551 305.39 171.871C302.65 173.041 299.9 174.001 297.19 174.871C294.48 175.741 291.82 176.581 289.19 177.351C278.73 180.351 269.19 182.781 261.25 184.771C259.353 185.272 257.43 185.67 255.49 185.961C253.751 186.203 251.995 186.297 250.24 186.241C247.421 186.181 244.64 185.576 242.05 184.461C240.426 183.744 238.911 182.801 237.55 181.661C237.071 181.273 236.623 180.849 236.21 180.391C236.21 180.391 236.67 180.831 237.62 181.581C238.998 182.68 240.519 183.588 242.14 184.281C244.714 185.343 247.466 185.91 250.25 185.951C251.986 185.992 253.722 185.885 255.44 185.631C257.367 185.327 259.276 184.92 261.16 184.411C269.16 182.411 278.62 179.951 289.05 176.891C291.66 176.121 294.32 175.301 297.05 174.401C299.78 173.501 302.49 172.551 305.2 171.401C305.86 171.091 306.55 170.821 307.2 170.471C307.868 170.177 308.496 169.801 309.07 169.351C310.186 168.381 311.031 167.137 311.52 165.741C312.505 162.826 312.995 159.767 312.97 156.691C313.03 154.501 312.97 152.331 312.86 150.171V149.351C312.86 149.211 312.86 149.071 312.86 148.921C312.852 148.841 312.852 148.761 312.86 148.681C312.882 148.619 312.909 148.559 312.94 148.501L312.99 148.421C313.271 148.011 313.456 147.542 313.53 147.051C313.647 146.034 313.513 145.004 313.14 144.051C312.804 143.096 312.249 142.233 311.52 141.531C311.166 141.199 310.742 140.949 310.28 140.801C309.78 140.671 309.28 140.531 308.79 140.411C306.814 139.982 304.808 139.705 302.79 139.581C298.935 139.286 295.061 139.36 291.22 139.801C290.99 139.801 290.76 139.861 290.54 139.921L290.22 139.991C290.15 140.018 290.083 140.052 290.02 140.091C289.719 140.419 289.448 140.774 289.21 141.151C288.734 141.887 288.445 142.728 288.37 143.601C288.283 145.32 288.753 147.02 289.71 148.451L289.91 148.761H289.56L258.22 152.761C255.381 152.617 252.536 152.697 249.71 153.001C248.71 153.101 247.98 153.211 247.48 153.281C246.98 153.351 246.73 153.471 246.73 153.471Z" fill="#263238"/>
<path d="M161.903 186.039L149.142 163.111L390.513 28.7657C393.293 27.2179 396.575 26.8381 399.636 27.71C402.697 28.582 405.286 30.634 406.834 33.4149L407.928 35.3809C409.476 38.1618 409.856 41.4436 408.984 44.5045C408.112 47.5653 406.06 50.1544 403.279 51.7022L161.908 186.047L161.903 186.039Z" fill="#444B6E"/>
<path d="M364.304 64.7831L334.749 11.684C334.606 11.4269 334.515 11.1442 334.481 10.852C334.447 10.5598 334.471 10.2638 334.552 9.98089C334.633 9.69798 334.768 9.43372 334.951 9.20319C335.134 8.97266 335.36 8.78038 335.617 8.63732L349.178 1.08939C349.435 0.946333 349.718 0.855287 350.01 0.821479C350.302 0.78767 350.598 0.81174 350.881 0.892329C351.164 0.972917 351.428 1.10845 351.659 1.29116C351.889 1.47388 352.081 1.70021 352.225 1.95724L381.779 55.0564L364.304 64.7831Z" fill="#444B6E"/>
<path d="M306.163 40.0573L327.703 78.7566C328.573 80.3202 330.546 80.8822 332.109 80.012L343.923 73.4367C345.486 72.5665 346.048 70.5935 345.178 69.0299L323.638 30.3306C322.768 28.7671 320.795 28.205 319.232 29.0753L307.418 35.6505C305.855 36.5208 305.293 38.4938 306.163 40.0573Z" fill="#444B6E"/>
<path d="M325.181 37.7973L338.516 61.7561L365.655 46.6505L352.32 22.6917L325.181 37.7973Z" fill="#444B6E"/>
<path d="M386.98 30.7808C387.05 30.9008 339.68 57.4008 281.2 89.9608C222.72 122.521 175.2 148.821 175.2 148.691C175.2 148.561 222.49 122.071 280.99 89.5008C339.49 56.9308 386.91 30.6508 386.98 30.7808Z" fill="#263238"/>
<path d="M64.15 230.331C81.95 262.331 119.48 275.331 147.98 259.481C176.48 243.631 185.18 204.831 167.38 172.871C149.58 140.911 112.06 127.871 83.55 143.721C55.04 159.571 46.36 198.371 64.15 230.331ZM151.94 181.471C164.41 203.871 158.32 231.041 138.34 242.151C118.36 253.261 92.07 244.151 79.6 221.731C67.13 199.311 73.22 172.161 93.19 161.041C113.16 149.921 139.47 159.071 151.94 181.471Z" fill="#444B6E"/>
<path d="M189.772 140.22L202.942 163.881C204.693 167.028 208.664 168.159 211.81 166.408L212.876 165.814C216.022 164.063 217.153 160.093 215.402 156.946L202.232 133.285C200.481 130.138 196.511 129.007 193.364 130.759L192.298 131.352C189.152 133.103 188.021 137.073 189.772 140.22Z" fill="#444B6E"/>
<path d="M215.065 126.141L228.235 149.803C229.986 152.949 233.957 154.08 237.103 152.329L238.169 151.735C241.315 149.984 242.446 146.014 240.695 142.867L227.525 119.206C225.774 116.059 221.804 114.928 218.657 116.68L217.591 117.273C214.445 119.024 213.314 122.995 215.065 126.141Z" fill="#444B6E"/>
<path d="M201.95 132.921C202.08 132.851 205.13 138.221 208.78 144.921C212.43 151.621 215.28 157.081 215.15 157.151C215.02 157.221 211.97 151.861 208.32 145.151C204.67 138.441 201.82 132.921 201.95 132.921Z" fill="#263238"/>
<path d="M190.34 141.171C190.47 141.101 193.45 146.231 197.01 152.611C200.57 158.991 203.34 164.241 203.22 164.311C203.1 164.381 200.11 159.251 196.59 152.921C193.07 146.591 190.22 141.241 190.34 141.171Z" fill="#263238"/>
<path d="M227.4 118.991C227.53 118.921 230.64 124.261 234.35 130.921C238.06 137.581 240.96 143.051 240.83 143.121C240.7 143.191 237.6 137.841 233.89 131.181C230.18 124.521 227.28 119.061 227.4 118.991Z" fill="#263238"/>
<path d="M215.19 126.361C215.31 126.291 218.36 131.601 221.98 138.221C225.6 144.841 228.45 150.221 228.32 150.331C228.19 150.441 225.16 145.091 221.53 138.471C217.9 131.851 215.06 126.431 215.19 126.361Z" fill="#263238"/>
<path d="M287.72 90.2908C288.884 90.4279 290.058 90.1267 291.013 89.446C291.967 88.7652 292.634 87.7535 292.884 86.6079C293.133 85.4624 292.948 84.2649 292.363 83.2488C291.778 82.2326 290.836 81.4705 289.72 81.1108C290.441 80.3723 290.912 79.4255 291.065 78.4047C291.219 77.3838 291.047 76.3405 290.575 75.4226C290.103 74.5046 289.354 73.7584 288.434 73.2897C287.514 72.821 286.47 72.6534 285.45 72.8108C285.408 71.7955 285.104 70.8083 284.568 69.9451C284.031 69.082 283.281 68.3724 282.389 67.8852C281.497 67.398 280.494 67.1499 279.478 67.1649C278.462 67.1799 277.467 67.4575 276.59 67.9708C275.446 67.0358 274.023 66.5102 272.546 66.4775C271.069 66.4449 269.624 66.9072 268.44 67.7908C267.445 67.6009 266.416 67.7367 265.505 68.1779C264.593 68.6191 263.848 69.3423 263.38 70.2402C262.912 71.1381 262.746 72.163 262.906 73.1628C263.066 74.1626 263.545 75.0842 264.27 75.7908" fill="#263238"/>
<path d="M267.43 72.4508H268.43C273.472 72.4551 278.328 74.3579 282.03 77.7805C285.733 81.2032 288.01 85.8946 288.41 90.9208C289.16 100.611 289.86 111.321 289.78 116.521C289.59 127.321 278.85 128.921 278.85 128.921L279.72 141.861L253.59 141.011L251.42 94.1108C250.5 82.9208 256.23 73.0708 267.43 72.4508Z" fill="#FFBF9D"/>
<path d="M278.94 128.921C273.941 128.907 269.051 127.46 264.85 124.751C264.85 124.751 268.31 132.901 279.05 131.961L278.94 128.921Z" fill="#FF9A6C"/>
<path d="M282.5 101.071C282.503 101.471 282.348 101.857 282.07 102.145C281.791 102.433 281.411 102.6 281.01 102.611C280.815 102.624 280.619 102.599 280.433 102.536C280.248 102.474 280.077 102.375 279.93 102.246C279.783 102.116 279.663 101.959 279.577 101.783C279.491 101.607 279.441 101.416 279.43 101.221C279.43 100.82 279.585 100.434 279.863 100.145C280.14 99.8565 280.519 99.6863 280.92 99.6708C281.116 99.6573 281.313 99.6829 281.499 99.7462C281.685 99.8095 281.856 99.9093 282.003 100.04C282.151 100.17 282.27 100.328 282.355 100.505C282.441 100.682 282.49 100.875 282.5 101.071Z" fill="#263238"/>
<path d="M286.08 96.2108C285.89 96.4108 284.72 95.5508 283.08 95.5508C281.44 95.5508 280.21 96.3708 280.03 96.1708C279.85 95.9708 280.14 95.7208 280.67 95.3308C281.387 94.8379 282.24 94.5793 283.11 94.5908C283.97 94.5872 284.808 94.8607 285.5 95.3708C286 95.7608 286.17 96.1308 286.08 96.2108Z" fill="#263238"/>
<path d="M267.59 100.351C267.598 100.758 267.445 101.151 267.164 101.445C266.883 101.739 266.497 101.91 266.09 101.921C265.895 101.934 265.699 101.909 265.513 101.846C265.328 101.784 265.157 101.685 265.01 101.556C264.863 101.426 264.743 101.269 264.657 101.093C264.572 100.917 264.521 100.726 264.51 100.531C264.507 100.129 264.661 99.7423 264.94 99.4528C265.218 99.1632 265.599 98.9938 266 98.9808C266.195 98.9658 266.39 98.9894 266.575 99.0502C266.761 99.1111 266.932 99.2079 267.08 99.3352C267.228 99.4625 267.349 99.6178 267.436 99.7921C267.524 99.9664 267.576 100.156 267.59 100.351Z" fill="#263238"/>
<path d="M269.82 96.4708C269.63 96.6708 268.46 95.8108 266.82 95.8108C265.18 95.8108 263.95 96.6308 263.77 96.4308C263.59 96.2308 263.88 95.9808 264.41 95.5908C265.127 95.0979 265.98 94.8393 266.85 94.8508C267.71 94.8472 268.548 95.1207 269.24 95.6308C269.74 96.0208 269.91 96.3808 269.82 96.4708Z" fill="#263238"/>
<path d="M275.78 108.761C276.653 108.487 277.557 108.325 278.47 108.281C278.89 108.281 279.29 108.161 279.37 107.871C279.405 107.435 279.308 107 279.09 106.621L277.85 103.401C276.13 98.8108 274.85 95.0408 275.07 94.9808C275.29 94.9208 276.8 98.5708 278.52 103.151C278.93 104.281 279.33 105.361 279.71 106.391C279.969 106.903 280.044 107.49 279.92 108.051C279.857 108.199 279.762 108.331 279.64 108.437C279.519 108.542 279.375 108.619 279.22 108.661C278.99 108.729 278.75 108.763 278.51 108.761C277.604 108.874 276.687 108.874 275.78 108.761Z" fill="#263238"/>
<path d="M271.27 90.1108C271.05 90.5308 269.64 90.1108 267.89 90.0108C266.14 89.9108 264.68 90.2408 264.52 89.8008C264.45 89.5908 264.76 89.2208 265.39 88.8808C266.203 88.4793 267.105 88.2934 268.01 88.3408C268.907 88.3726 269.78 88.6418 270.54 89.1208C271.11 89.5108 271.37 89.9208 271.27 90.1108Z" fill="#263238"/>
<path d="M286.18 89.4008C285.83 89.7708 284.46 89.4008 282.82 89.4008C281.18 89.4008 279.82 89.6508 279.47 89.2508C279.33 89.0608 279.55 88.6808 280.16 88.3308C281 87.8903 281.942 87.6799 282.89 87.7208C283.833 87.7335 284.755 87.9994 285.56 88.4908C286.14 88.8308 286.33 89.2108 286.18 89.4008Z" fill="#263238"/>
<path d="M287.39 86.0208C287.39 86.0208 284.57 79.2708 281.32 77.6908C277.39 75.7708 275.69 80.0808 271.94 79.0208C268.19 77.9608 264.44 76.1308 260.6 79.0208C256.4 82.1808 258.36 84.4108 258.08 89.1908C256.98 108.551 253.42 114.011 252.45 104.891C252.34 103.891 249.57 103.091 249.17 98.8908C248.65 93.4208 248.46 86.7708 249.7 82.8908C250.7 79.6208 252.61 77.3608 255.96 74.8908C261.26 70.9708 268.52 70.8908 273.45 71.4208C278.38 71.9508 287.86 77.5808 287.39 86.0208Z" fill="#263238"/>
<path d="M253.13 104.591C253.119 104.196 253.028 103.807 252.862 103.448C252.696 103.089 252.46 102.768 252.166 102.503C251.872 102.239 251.528 102.037 251.154 101.909C250.78 101.781 250.384 101.731 249.99 101.761C247.99 101.951 245.74 103.081 245.86 107.231C246.07 114.591 253.42 112.861 253.43 112.641C253.44 112.421 253.25 107.671 253.13 104.591Z" fill="#FFBF9D"/>
<path d="M251.74 109.921C251.74 109.921 251.62 110.021 251.4 110.121C251.101 110.258 250.761 110.276 250.45 110.171C249.964 109.884 249.564 109.471 249.292 108.977C249.019 108.483 248.884 107.925 248.9 107.361C248.862 106.733 248.964 106.104 249.2 105.521C249.263 105.29 249.382 105.079 249.546 104.904C249.71 104.73 249.914 104.598 250.14 104.521C250.287 104.476 250.444 104.485 250.585 104.545C250.726 104.606 250.841 104.714 250.91 104.851C251.01 105.051 250.97 105.201 251.01 105.211C251.05 105.221 251.16 105.081 251.09 104.781C251.05 104.598 250.943 104.438 250.79 104.331C250.689 104.257 250.574 104.203 250.452 104.174C250.33 104.145 250.204 104.14 250.08 104.161C249.779 104.229 249.5 104.373 249.271 104.579C249.041 104.786 248.869 105.048 248.77 105.341C248.473 105.985 248.339 106.693 248.38 107.401C248.47 108.881 249.27 110.251 250.38 110.531C250.578 110.583 250.786 110.589 250.987 110.55C251.187 110.51 251.377 110.425 251.54 110.301C251.74 110.101 251.77 109.921 251.74 109.921Z" fill="#FF9A6C"/>
<path d="M253.32 90.3308C254.22 91.0647 255.289 91.563 256.43 91.7808C257.003 91.8706 257.589 91.7499 258.08 91.4411C258.571 91.1323 258.933 90.6562 259.1 90.1008C259.19 89.5908 259.1 88.9908 259.4 88.6008C259.7 88.2108 260.55 88.2808 261.16 88.3508C263.3 88.5808 265.81 86.2208 266.36 84.1408C266.638 84.5397 267.057 84.8176 267.533 84.918C268.009 85.0183 268.505 84.9335 268.92 84.6808C269.6 84.2652 270.203 83.7339 270.7 83.1108C270.99 82.7141 271.371 82.3933 271.812 82.1756C272.252 81.958 272.739 81.85 273.23 81.8608C273.748 82.0397 274.285 82.1572 274.83 82.2108C275.83 82.1308 276.27 81.0008 276.42 80.0408C276.57 79.0808 276.69 77.9708 277.51 77.4508C278.352 77.1211 279.282 77.0963 280.14 77.3808C281.03 77.5208 282.14 77.3108 282.41 76.4408C282.447 76.2083 282.436 75.9708 282.38 75.7424C282.323 75.5139 282.221 75.2992 282.08 75.1108C281.485 74.2189 280.606 73.5539 279.586 73.2235C278.566 72.8932 277.465 72.9169 276.46 73.2908C276.106 72.0601 275.394 70.9626 274.414 70.1381C273.434 69.3136 272.231 68.7994 270.958 68.6611C269.685 68.5227 268.399 68.7664 267.265 69.3612C266.131 69.956 265.2 70.8749 264.59 72.0008C263.811 71.2875 262.871 70.7732 261.851 70.5015C260.83 70.2299 259.759 70.2092 258.729 70.441C257.698 70.6728 256.739 71.1503 255.933 71.8328C255.127 72.5154 254.498 73.3827 254.1 74.3608C253.2 74.1207 252.249 74.1506 251.365 74.4469C250.482 74.7431 249.705 75.2926 249.132 76.027C248.558 76.7613 248.214 77.6481 248.14 78.577C248.067 79.5058 248.269 80.4357 248.72 81.2508C248.035 81.5892 247.447 82.0962 247.011 82.7242C246.576 83.3521 246.307 84.0805 246.23 84.8408C246.23 86.3608 247.68 87.8408 249.15 87.4808C248.845 88.0798 248.781 88.7727 248.971 89.4174C249.161 90.062 249.591 90.6095 250.172 90.9473C250.753 91.2852 251.441 91.3878 252.095 91.2341C252.75 91.0804 253.32 90.682 253.69 90.1208" fill="#263238"/>
<path d="M277 75.4508C277 75.4508 277 75.4508 277 75.5908C277 75.7308 277 75.8108 276.95 75.9808C276.847 76.4799 276.664 76.9592 276.41 77.4008C276.004 78.0928 275.447 78.6842 274.78 79.1308C273.899 79.7319 272.846 80.0302 271.78 79.9808L271.9 79.8208C272.116 80.4811 272.062 81.2001 271.75 81.8208C271.42 82.4788 270.995 83.0851 270.49 83.6208C270.245 83.9332 269.966 84.2182 269.66 84.4708C269.116 84.8287 268.463 84.9819 267.816 84.9032C267.17 84.8244 266.572 84.5188 266.13 84.0408L266.4 83.9608C266.297 84.725 266.034 85.4589 265.629 86.1152C265.225 86.7715 264.687 87.3355 264.05 87.7708C263.351 88.2907 262.501 88.568 261.63 88.5608C260.813 88.5162 260.009 88.3372 259.25 88.0308L259.45 87.9408C259.065 88.8313 258.463 89.6116 257.7 90.2108C257.352 90.5092 256.941 90.726 256.498 90.8454C256.055 90.9648 255.591 90.9837 255.14 90.9008C254.367 90.7326 253.659 90.342 253.105 89.777C252.551 89.212 252.173 88.4973 252.02 87.7208L252.19 87.8008C251.412 88.2038 250.52 88.3307 249.66 88.1608C249.02 88.0387 248.417 87.7681 247.9 87.3708C247.578 87.1186 247.301 86.8144 247.08 86.4708C246.999 86.3515 246.938 86.2198 246.9 86.0808C247.179 86.5407 247.542 86.9442 247.97 87.2708C248.48 87.6394 249.069 87.8826 249.69 87.9808C250.507 88.1354 251.352 88.0011 252.08 87.6008L252.22 87.5208V87.6808C252.371 88.4035 252.73 89.0665 253.252 89.5886C253.774 90.1107 254.437 90.4694 255.16 90.6208C255.572 90.6928 255.995 90.6718 256.399 90.5594C256.802 90.4469 257.175 90.2458 257.49 89.9708C258.206 89.4012 258.77 88.6624 259.13 87.8208L259.19 87.6908H259.33C260.054 87.9819 260.821 88.1509 261.6 88.1908C262.406 88.1973 263.193 87.9411 263.84 87.4608C264.439 87.0495 264.946 86.5178 265.328 85.8997C265.711 85.2816 265.96 84.5906 266.06 83.8708V83.5208L266.29 83.7908C266.55 84.0781 266.877 84.2975 267.241 84.4299C267.605 84.5624 267.996 84.6039 268.38 84.5508C268.738 84.5031 269.081 84.373 269.38 84.1708C269.669 83.9381 269.931 83.673 270.16 83.3808C270.655 82.8706 271.072 82.2912 271.4 81.6608C271.547 81.3801 271.637 81.0728 271.665 80.7569C271.692 80.441 271.657 80.1228 271.56 79.8208L271.5 79.6408H271.69C272.711 79.7042 273.726 79.434 274.58 78.8708C275.236 78.4483 275.79 77.8846 276.2 77.2208C276.569 76.6827 276.84 76.0835 277 75.4508Z" fill="#455A64"/>
<path d="M275.76 114.251C275.7 113.981 273.91 114.421 272.25 113.201C270.59 111.981 270.32 110.021 270.07 110.071C269.82 110.121 269.82 110.591 270 111.401C270.246 112.458 270.859 113.393 271.73 114.041C272.562 114.661 273.601 114.933 274.63 114.801C275.4 114.681 275.8 114.371 275.76 114.251Z" fill="#263238"/>
<path d="M331.22 394.041L338.32 418.231C338.32 418.231 365.32 419.131 367.05 423.481L320.59 438.921L307.97 401.671L331.22 394.041Z" fill="#455A64"/>
<path d="M323.3 421.001C322.899 421.286 322.617 421.709 322.509 422.188C322.4 422.668 322.471 423.171 322.71 423.601C322.979 424.012 323.395 424.305 323.873 424.418C324.352 424.531 324.855 424.457 325.28 424.211C325.705 423.908 326.003 423.458 326.115 422.948C326.228 422.438 326.148 421.905 325.89 421.451C325.564 421.05 325.096 420.791 324.583 420.727C324.071 420.664 323.554 420.801 323.14 421.111" fill="#E0E0E0"/>
<path d="M364.43 421.731C364.43 421.731 366.8 421.941 367.05 423.481L320.59 438.921L319.47 435.111L364.39 421.711" fill="#263238"/>
<path d="M338.99 417.741C339.06 417.971 337.99 418.451 337.09 419.551C336.19 420.651 335.94 421.801 335.7 421.781C335.46 421.761 335.37 420.341 336.45 419.031C337.53 417.721 338.97 417.521 338.99 417.741Z" fill="white"/>
<path d="M344.53 418.131C344.66 418.341 343.81 419.051 343.35 420.261C342.89 421.471 343.02 422.571 342.79 422.631C342.56 422.691 341.99 421.461 342.58 419.961C343.17 418.461 344.46 417.921 344.53 418.131Z" fill="white"/>
<path d="M349.24 423.041C349.05 423.161 348.36 422.131 348.53 420.701C348.7 419.271 349.59 418.411 349.75 418.571C349.91 418.731 349.47 419.571 349.35 420.791C349.23 422.011 349.46 422.921 349.24 423.041Z" fill="white"/>
<path d="M336.76 412.411C336.76 412.651 335.59 412.681 334.34 413.191C333.09 413.701 332.22 414.441 332.04 414.291C331.86 414.141 332.55 413.011 334.04 412.421C335.53 411.831 336.82 412.191 336.76 412.411Z" fill="white"/>
<path d="M222.88 394.251L212.77 417.351C212.77 417.351 232.86 435.351 231.41 439.831L185.91 421.831L200.18 385.191L222.88 394.251Z" fill="#455A64"/>
<path d="M199.48 409.821C198.991 409.782 198.504 409.925 198.113 410.222C197.722 410.519 197.454 410.949 197.36 411.431C197.304 411.919 197.436 412.41 197.73 412.804C198.023 413.198 198.456 413.465 198.94 413.551C199.459 413.589 199.975 413.435 200.388 413.118C200.801 412.801 201.083 412.343 201.18 411.831C201.18 410.831 200.27 409.691 199.29 409.831" fill="#E0E0E0"/>
<path d="M230.52 436.811C230.52 436.811 232.2 438.501 231.41 439.811L185.91 421.811L187.5 418.181L230.5 436.781" fill="#263238"/>
<path d="M213.59 417.411C213.5 417.631 212.35 417.291 210.97 417.571C209.59 417.851 208.64 418.571 208.47 418.391C208.3 418.211 209.14 417.071 210.81 416.761C212.48 416.451 213.73 417.221 213.59 417.411Z" fill="white"/>
<path d="M217.59 421.271C217.59 421.501 216.45 421.501 215.32 422.141C214.19 422.781 213.59 423.691 213.32 423.601C213.05 423.511 213.46 422.191 214.87 421.421C216.28 420.651 217.67 421.061 217.59 421.271Z" fill="white"/>
<path d="M218.05 428.051C217.83 428.051 217.96 426.791 219.05 425.801C220.14 424.811 221.33 424.731 221.35 424.951C221.37 425.171 220.47 425.571 219.62 426.401C218.77 427.231 218.28 428.121 218.05 428.051Z" fill="white"/>
<path d="M215.32 411.921C215.15 412.081 214.25 411.381 212.96 410.921C211.67 410.461 210.54 410.521 210.5 410.291C210.46 410.061 211.71 409.631 213.22 410.131C214.73 410.631 215.5 411.761 215.32 411.921Z" fill="white"/>
<path d="M239.91 267.351L223.97 332.011C223.97 332.011 195.22 380.411 190.35 404.631L216.65 414.971C216.65 414.971 235.78 368.321 241.39 359.761C243.914 355.925 246.815 352.35 250.05 349.091C252.153 347.004 253.662 344.395 254.42 341.531L266.49 295.401L239.91 267.351Z" fill="#263238"/>
<path d="M233.12 257.011C233.12 257.011 235.34 274.331 252.01 282.011L287.13 339.211C287.13 339.211 289.88 357.811 295.13 373.481C300.38 389.151 310.99 419.351 310.99 419.351L339.88 408.551L321.47 345.611L318.47 323.781L289.81 250.781L265.19 236.021L233.12 257.011Z" fill="#263238"/>
<path d="M233.12 257.011L233.65 256.651L235.24 255.591L241.48 251.471L265.14 235.921L265.22 235.871L265.3 235.921L289.94 250.651V250.711L318.66 323.641V323.691C319.61 330.591 320.66 337.981 321.66 345.521C326.66 362.521 331.96 380.711 337.44 399.451C338.327 402.471 339.207 405.471 340.08 408.451L340.15 408.681L339.92 408.761L311.03 419.561L310.78 419.651L310.7 419.401C305.7 404.891 300.86 390.921 296.29 377.671C295.14 374.361 294.01 371.081 293.07 367.801C292.13 364.521 291.28 361.261 290.51 358.041C288.99 351.601 287.77 345.311 286.81 339.211V339.291L251.89 282.071L251.95 282.121C247.726 280.146 243.975 277.288 240.95 273.741C238.732 271.137 236.913 268.218 235.55 265.081C234.707 263.144 234.037 261.136 233.55 259.081C233.38 258.401 233.28 257.871 233.22 257.511C233.16 257.151 233.15 256.971 233.15 256.971C233.15 256.971 233.15 257.151 233.26 257.501C233.37 257.851 233.43 258.381 233.62 259.071C234.136 261.099 234.825 263.08 235.68 264.991C237.06 268.096 238.886 270.983 241.1 273.561C244.136 277.071 247.886 279.894 252.1 281.841L287.29 339.001V339.051C288.29 345.131 289.49 351.411 291.01 357.841C291.78 361.051 292.62 364.301 293.57 367.571C294.52 370.841 295.64 374.101 296.79 377.411C301.38 390.661 306.21 404.631 311.23 419.131L310.9 418.981L339.79 408.181L339.63 408.491C338.763 405.511 337.883 402.511 336.99 399.491L321.23 345.551C320.23 338.011 319.17 330.621 318.23 323.721V323.781L289.62 250.781L289.7 250.871L265.1 236.081H265.25L241.59 251.561L235.29 255.621L233.67 256.671L233.12 257.011Z" fill="#455A64"/>
<path d="M248.59 133.441C248.59 133.441 240.17 139.921 236.08 147.161C231.18 155.831 230.65 168.681 230.5 188.641C230.35 207.101 233.11 212.231 232.05 219.191C229.96 232.781 228.41 278.391 228.41 278.391C228.41 278.391 255.41 268.021 260.65 263.391L265.92 258.811L299.71 269.981L292.89 228.461L288.21 176.711L282.21 149.261L281.21 138.491L252.19 126.831L248.59 133.441Z" fill="#455A64"/>
<path d="M280.12 137.921C280.47 137.991 279.29 140.361 277.21 143.841L277.12 143.981L276.96 143.921C274.03 142.781 270.15 141.351 265.91 139.801C261.13 138.061 256.81 136.441 253.72 135.181C252.17 134.551 250.93 134.021 250.08 133.631C249.629 133.456 249.194 133.242 248.78 132.991C249.255 133.097 249.717 133.251 250.16 133.451L253.85 134.841L266.09 139.311C270.33 140.861 274.2 142.311 277.09 143.551L276.85 143.631C279.03 140.221 280.32 137.971 280.12 137.921Z" fill="#263238"/>
<path d="M315.04 116.361C315.04 116.361 312.9 113.031 310.88 109.961C308.86 106.891 305.8 105.381 305.31 103.781C304.82 102.181 302.13 95.0508 301.7 93.2808C301.326 91.5666 301.152 89.815 301.18 88.0608C301.18 88.0608 303.39 87.1208 304.45 90.2808C305.09 92.1808 307.13 98.6308 307.57 98.9508C308.01 99.2708 308.57 98.8008 308.57 98.8008C307.662 96.3858 306.877 93.9259 306.22 91.4308C306.12 90.2608 306.53 82.5008 306.53 82.5008C307.078 82.3903 307.648 82.4798 308.136 82.7531C308.624 83.0265 308.998 83.4655 309.19 83.9908C310.24 85.9908 310.28 90.9908 310.28 90.9908L311.87 96.5708L311.31 91.0508L312.11 80.9008C312.887 81.0116 313.611 81.359 314.184 81.8957C314.756 82.4325 315.149 83.1326 315.31 83.9008C315.98 86.6408 315.09 90.4608 315.54 91.2708C315.99 92.0808 316.48 96.9808 316.48 96.9808C316.48 96.9808 317.03 85.0808 318.3 84.7408C319.57 84.4008 320.61 85.6608 320.43 88.0608C320.25 90.4608 320.2 95.5408 320.86 97.7808C321.52 100.021 328.29 108.781 327.74 112.621C327.403 114.941 327.193 117.278 327.11 119.621H315.51L315.04 116.361Z" fill="#FFBF9D"/>
<path d="M274.35 146.331C275 146.581 302.71 153.441 302.71 153.441C302.71 153.441 308.9 143.441 309.81 140.541C310.72 137.641 315.59 118.321 315.59 118.321L327.3 117.221C327.3 117.221 324.3 167.111 320.06 169.801C315.82 172.491 309.06 173.851 308.62 173.701C308.18 173.551 278.67 175.601 263.12 163.351C247.57 151.101 274.35 146.331 274.35 146.331Z" fill="#FFBF9D"/>
<g opacity="0.3">
<path d="M254.49 172.741C257.464 176.107 261.432 178.44 265.82 179.401C273.17 181.021 288.82 183.891 288.82 183.891L288.06 176.211L254.06 172.571" fill="black"/>
</g>
<path d="M242.15 162.181C244.67 167.501 250.27 173.181 262.58 174.471C286.95 176.991 305.4 178.331 313.37 177.131C321.34 175.931 324.51 159.061 325.37 158.541C327.85 156.981 327.69 151.621 325.55 150.021C319.47 145.471 307.28 142.021 306.46 142.391C301.61 144.801 303.19 150.441 303.19 150.441L272.29 143.621C268.731 142.14 265.018 141.061 261.22 140.401" fill="#455A64"/>
<path d="M261.22 140.401C261.22 140.401 261.48 140.401 261.98 140.501C262.48 140.601 263.23 140.721 264.19 140.931C266.977 141.563 269.706 142.426 272.35 143.511L303.23 150.231L302.97 150.511C302.513 148.739 302.653 146.865 303.37 145.181C303.765 144.318 304.362 143.564 305.11 142.981C305.489 142.685 305.894 142.424 306.32 142.201C306.466 142.157 306.617 142.134 306.77 142.131H307.14C307.39 142.131 307.61 142.211 307.85 142.251C311.65 143.149 315.356 144.405 318.92 146.001C320.798 146.819 322.613 147.775 324.35 148.861C324.78 149.141 325.21 149.451 325.64 149.751C326.085 150.089 326.447 150.523 326.7 151.021C327.188 152.003 327.441 153.084 327.44 154.181C327.465 155.29 327.218 156.389 326.72 157.381C326.444 157.892 326.054 158.334 325.58 158.671C325.46 158.731 325.38 158.991 325.28 159.231L325.02 159.981C324.36 161.981 323.7 164.121 322.9 166.181C321.852 169.135 320.318 171.893 318.36 174.341C317.65 175.271 316.745 176.034 315.709 176.577C314.672 177.12 313.529 177.428 312.36 177.481C311.61 177.591 310.86 177.611 310.12 177.671C307.12 177.851 304.24 177.811 301.39 177.731C298.54 177.651 295.75 177.501 293.04 177.331C282.17 176.631 272.42 175.641 264.24 174.791C262.286 174.62 260.343 174.339 258.42 173.951C256.713 173.586 255.041 173.077 253.42 172.431C250.793 171.411 248.387 169.897 246.33 167.971C245.046 166.742 243.942 165.338 243.05 163.801C242.731 163.273 242.453 162.722 242.22 162.151C242.22 162.151 242.5 162.721 243.14 163.751C244.064 165.25 245.184 166.618 246.47 167.821C248.525 169.705 250.921 171.178 253.53 172.161C255.153 172.787 256.826 173.279 258.53 173.631C260.448 173.998 262.384 174.262 264.33 174.421C272.51 175.231 282.26 176.181 293.11 176.861C295.83 177.021 298.61 177.161 301.45 177.231C304.29 177.301 307.2 177.341 310.14 177.171C310.87 177.101 311.62 177.081 312.35 176.971C313.079 176.932 313.799 176.794 314.49 176.561C315.872 176.028 317.091 175.146 318.03 174.001C319.946 171.6 321.446 168.896 322.47 166.001C323.27 164.001 323.92 161.891 324.58 159.831L324.86 159.051C324.86 158.931 324.96 158.801 325.02 158.661C325.056 158.584 325.1 158.51 325.15 158.441C325.188 158.393 325.232 158.349 325.28 158.311L325.35 158.251C325.765 157.964 326.107 157.583 326.35 157.141C326.817 156.212 327.044 155.18 327.01 154.141C327.013 153.129 326.784 152.13 326.34 151.221C326.122 150.791 325.811 150.416 325.43 150.121C325 149.831 324.59 149.521 324.16 149.251C322.448 148.173 320.656 147.227 318.8 146.421C315.276 144.832 311.61 143.58 307.85 142.681C307.62 142.681 307.39 142.581 307.17 142.561H306.84H306.62C306.226 142.771 305.851 143.015 305.5 143.291C304.803 143.816 304.244 144.502 303.87 145.291C303.207 146.873 303.071 148.625 303.48 150.291L303.57 150.641L303.22 150.561L272.39 143.661C269.77 142.559 267.069 141.663 264.31 140.981C263.31 140.751 262.62 140.591 262.12 140.491C261.62 140.391 261.22 140.401 261.22 140.401Z" fill="#263238"/>
<path d="M313.37 160.091C312.659 159.915 311.983 159.621 311.37 159.221C309.837 158.365 308.424 157.309 307.17 156.081C305.909 154.857 304.807 153.479 303.89 151.981C303.473 151.367 303.152 150.692 302.94 149.981C304.311 152.001 305.846 153.904 307.53 155.671C309.341 157.316 311.295 158.795 313.37 160.091Z" fill="#263238"/>
<path d="M95.81 242.451C95.81 242.451 102.01 242.781 105.81 245.191C109.61 247.601 115.81 251.321 118.36 255.961C119.53 258.091 116.2 258.541 114.56 257.301C112.92 256.061 110.39 253.741 109.14 253.451L107.89 253.171C109.03 255.751 110.301 258.271 111.7 260.721C112.99 262.721 114.11 266.041 110.24 266.201C110.24 266.201 107.62 269.601 104.98 267.081C104.98 267.081 102.92 270.161 99.6 265.891C99.6 265.891 97.67 268.331 96.86 267.401C96.05 266.471 93.41 264.981 92.64 261.921C91.4911 258.357 90.1559 254.855 88.64 251.431L95.81 242.451Z" fill="#FFBF9D"/>
<path d="M43.05 160.921C39.8719 161.944 37.1289 164.004 35.26 166.771C32.88 170.431 32.15 176.771 32.83 181.491C34.27 191.441 38.83 208.231 41.4 219.011C42.28 222.731 44.09 229.391 49.4 232.921L87.29 255.641L97.42 240.641L62.88 212.491L56.05 173.911L43.05 160.921Z" fill="#455A64"/>
<path d="M36.5 198.841C36.5519 198.967 36.5921 199.097 36.62 199.231L36.94 200.401C37.21 201.461 37.59 202.981 38.09 204.931C39.09 208.931 40.51 214.611 42.28 221.681C43.3076 225.532 45.4843 228.978 48.52 231.561C50.2541 232.949 52.1081 234.181 54.06 235.241L60.15 238.921L87.44 255.401L87.09 255.481L90.74 250.071L97.22 240.441L97.27 240.791L63.04 212.601H62.98V212.531C60.72 203.021 59.08 195.231 58.04 189.811C57.53 187.101 57.17 184.991 56.94 183.551C56.84 182.851 56.76 182.301 56.7 181.911C56.64 181.521 56.63 181.351 56.63 181.351C56.6843 181.531 56.7277 181.715 56.76 181.901C56.83 182.291 56.93 182.831 57.05 183.531C57.32 184.961 57.71 187.071 58.27 189.771C59.36 195.171 61.06 202.941 63.37 212.441L63.3 212.331L97.59 240.391L97.77 240.541L97.64 240.731L91.16 250.361L87.51 255.771L87.38 255.971L87.16 255.851L59.91 239.321L53.83 235.631C51.8651 234.56 49.998 233.318 48.25 231.921C45.1618 229.276 42.9594 225.747 41.94 221.811C40.23 214.721 38.86 208.991 37.94 205.021C37.49 203.021 37.13 201.531 36.88 200.471L36.59 199.241C36.5507 199.11 36.5206 198.976 36.5 198.841Z" fill="#263238"/>
<path d="M37.12 166.251C37.3552 166.096 37.6159 165.985 37.89 165.921C38.6159 165.697 39.3581 165.529 40.11 165.421C42.6182 165.034 45.1848 165.381 47.5 166.421C49.7377 167.587 51.6383 169.309 53.02 171.421C53.4389 172.059 53.775 172.748 54.02 173.471C54.1274 173.728 54.1883 174.002 54.2 174.281C53.7678 173.363 53.2699 172.477 52.71 171.631C51.2866 169.66 49.4241 168.048 47.27 166.921C45.0358 165.931 42.5788 165.551 40.15 165.821C38.28 165.971 37.15 166.341 37.12 166.251Z" fill="#263238"/>
</svg>
