<svg width="360" height="170" viewBox="0 0 360 170" fill="none" xmlns="http://www.w3.org/2000/svg">
<g clip-path="url(#clip0_79_14934)">
<path d="M0 51L7.5 68C15 85 30 119 45 127.5C60 136 75 119 90 99.1667C105 79.3333 120 56.6667 135 45.3333C150 34 165 34 180 45.3333C195 56.6667 210 79.3333 225 90.6667C240 102 255 102 270 96.3333C285 90.6667 300 79.3333 315 87.8333C330 96.3333 345 124.667 360 130.333C375 136 390 119 405 96.3333C420 73.6667 435 45.3333 450 42.5C465 39.6667 480 62.3333 495 59.5C510 56.6667 525 28.3333 540 28.3333C555 28.3333 570 56.6667 585 73.6667C600 90.6667 615 96.3333 630 90.6667C645 85 660 68 675 62.3333C690 56.6667 705 62.3333 720 65.1667C735 68 750 68 765 70.8333C780 73.6667 795 79.3333 810 82.1667C825 85 840 85 855 87.8333C870 90.6667 885 96.3333 900 85C915 73.6667 930 45.3333 945 45.3333C960 45.3333 975 73.6667 990 73.6667C1005 73.6667 1020 45.3333 1035 53.8333C1050 62.3333 1065 107.667 1072.5 130.333L1080 153V170H1072.5C1065 170 1050 170 1035 170C1020 170 1005 170 990 170C975 170 960 170 945 170C930 170 915 170 900 170C885 170 870 170 855 170C840 170 825 170 810 170C795 170 780 170 765 170C750 170 735 170 720 170C705 170 690 170 675 170C660 170 645 170 630 170C615 170 600 170 585 170C570 170 555 170 540 170C525 170 510 170 495 170C480 170 465 170 450 170C435 170 420 170 405 170C390 170 375 170 360 170C345 170 330 170 315 170C300 170 285 170 270 170C255 170 240 170 225 170C210 170 195 170 180 170C165 170 150 170 135 170C120 170 105 170 90 170C75 170 60 170 45 170C30 170 15 170 7.5 170H0V51Z" fill="url(#paint0_linear_79_14934)"/>
<path opacity="0.9" d="M0 17L7.5 34C15 51 30 85 45 85C60 85 75 51 90 51C105 51 120 85 135 104.833C150 124.667 165 130.333 180 121.833C195 113.333 210 90.6667 225 85C240 79.3333 255 90.6667 270 85C285 79.3333 300 56.6667 315 51C330 45.3333 345 56.6667 360 70.8333C375 85 390 102 405 104.833C420 107.667 435 96.3333 450 79.3333C465 62.3333 480 39.6667 495 42.5C510 45.3333 525 73.6667 540 90.6667C555 107.667 570 113.333 585 116.167C600 119 615 119 630 104.833C645 90.6667 660 62.3333 675 56.6667C690 51 705 68 720 76.5C735 85 750 85 765 82.1667C780 79.3333 795 73.6667 810 79.3333C825 85 840 102 855 90.6667C870 79.3333 885 39.6667 900 19.8333C915 -2.86102e-06 930 -2.86102e-06 945 14.1667C960 28.3333 975 56.6667 990 76.5C1005 96.3333 1020 107.667 1035 113.333C1050 119 1065 119 1072.5 119H1080V170H1072.5C1065 170 1050 170 1035 170C1020 170 1005 170 990 170C975 170 960 170 945 170C930 170 915 170 900 170C885 170 870 170 855 170C840 170 825 170 810 170C795 170 780 170 765 170C750 170 735 170 720 170C705 170 690 170 675 170C660 170 645 170 630 170C615 170 600 170 585 170C570 170 555 170 540 170C525 170 510 170 495 170C480 170 465 170 450 170C435 170 420 170 405 170C390 170 375 170 360 170C345 170 330 170 315 170C300 170 285 170 270 170C255 170 240 170 225 170C210 170 195 170 180 170C165 170 150 170 135 170C120 170 105 170 90 170C75 170 60 170 45 170C30 170 15 170 7.5 170H0V17Z" fill="url(#paint1_linear_79_14934)"/>
<path opacity="0.8" d="M0 17L7.5 14.1667C15 11.3333 30 5.66666 45 19.8333C60 34 75 68 90 87.8333C105 107.667 120 113.333 135 96.3333C150 79.3333 165 39.6667 180 36.8333C195 34 210 68 225 76.5C240 85 255 68 270 68C285 68 300 85 315 87.8333C330 90.6667 345 79.3333 360 79.3333C375 79.3333 390 90.6667 405 99.1667C420 107.667 435 113.333 450 104.833C465 96.3333 480 73.6667 495 56.6667C510 39.6667 525 28.3333 540 39.6667C555 51 570 85 585 87.8333C600 90.6667 615 62.3333 630 53.8333C645 45.3333 660 56.6667 675 65.1667C690 73.6667 705 79.3333 720 79.3333C735 79.3333 750 73.6667 765 73.6667C780 73.6667 795 79.3333 810 79.3333C825 79.3333 840 73.6667 855 79.3333C870 85 885 102 900 90.6667C915 79.3333 930 39.6667 945 19.8333C960 -4.29153e-06 975 -4.29153e-06 990 17C1005 34 1020 68 1035 87.8333C1050 107.667 1065 113.333 1072.5 116.167L1080 119V170H1072.5C1065 170 1050 170 1035 170C1020 170 1005 170 990 170C975 170 960 170 945 170C930 170 915 170 900 170C885 170 870 170 855 170C840 170 825 170 810 170C795 170 780 170 765 170C750 170 735 170 720 170C705 170 690 170 675 170C660 170 645 170 630 170C615 170 600 170 585 170C570 170 555 170 540 170C525 170 510 170 495 170C480 170 465 170 450 170C435 170 420 170 405 170C390 170 375 170 360 170C345 170 330 170 315 170C300 170 285 170 270 170C255 170 240 170 225 170C210 170 195 170 180 170C165 170 150 170 135 170C120 170 105 170 90 170C75 170 60 170 45 170C30 170 15 170 7.5 170H0V17Z" fill="url(#paint2_linear_79_14934)"/>
</g>
<defs>
<linearGradient id="paint0_linear_79_14934" x1="0" y1="170" x2="0" y2="28.3333" gradientUnits="userSpaceOnUse">
<stop stop-color="#AEB8FE"/>
<stop offset="1" stop-color="#444B6E"/>
</linearGradient>
<linearGradient id="paint1_linear_79_14934" x1="0" y1="170" x2="0" y2="4.16104" gradientUnits="userSpaceOnUse">
<stop stop-color="#444B6E"/>
<stop offset="1" stop-color="#AEB8FE"/>
</linearGradient>
<linearGradient id="paint2_linear_79_14934" x1="0" y1="170" x2="0" y2="4.58371" gradientUnits="userSpaceOnUse">
<stop stop-color="#444B6E"/>
<stop offset="1" stop-color="#AEB8FE"/>
</linearGradient>
<clipPath id="clip0_79_14934">
<rect width="360" height="170" fill="white"/>
</clipPath>
</defs>
</svg>
