<svg width="30" height="30" viewBox="0 0 30 30" fill="none" xmlns="http://www.w3.org/2000/svg">
<path d="M20.4686 4.0623C21.9177 4.06663 23.3063 4.64423 24.331 5.66896C25.3558 6.69369 25.9334 8.08227 25.9377 9.53145V20.4686C25.9334 21.9177 25.3558 23.3063 24.331 24.331C23.3063 25.3558 21.9177 25.9334 20.4686 25.9377H9.53145C8.08227 25.9334 6.69369 25.3558 5.66896 24.331C4.64423 23.3063 4.06663 21.9177 4.0623 20.4686V9.53145C4.06663 8.08227 4.64423 6.69369 5.66896 5.66896C6.69369 4.64423 8.08227 4.06663 9.53145 4.0623H20.4686ZM20.4686 1.875H9.53145C5.32031 1.875 1.875 5.32031 1.875 9.53145V20.4686C1.875 24.6797 5.32031 28.125 9.53145 28.125H20.4686C24.6797 28.125 28.125 24.6797 28.125 20.4686V9.53145C28.125 5.32031 24.6797 1.875 20.4686 1.875Z" fill="white"/>
<path d="M22.1092 9.53125C21.7847 9.53125 21.4675 9.43503 21.1977 9.25476C20.9279 9.07448 20.7176 8.81825 20.5934 8.51847C20.4693 8.21868 20.4368 7.88881 20.5001 7.57056C20.5634 7.25231 20.7196 6.95997 20.9491 6.73053C21.1785 6.50108 21.4709 6.34483 21.7891 6.28152C22.1074 6.21822 22.4372 6.25071 22.737 6.37489C23.0368 6.49906 23.293 6.70934 23.4733 6.97914C23.6536 7.24894 23.7498 7.56614 23.7498 7.89063C23.7503 8.10621 23.7081 8.31975 23.6259 8.51901C23.5436 8.71827 23.4228 8.89932 23.2703 9.05176C23.1179 9.20419 22.9368 9.32502 22.7376 9.40731C22.5383 9.48959 22.3248 9.53171 22.1092 9.53125ZM15 10.6246C15.8653 10.6246 16.7112 10.8812 17.4307 11.362C18.1502 11.8427 18.711 12.526 19.0422 13.3255C19.3733 14.125 19.4599 15.0047 19.2911 15.8534C19.1223 16.7021 18.7056 17.4817 18.0937 18.0935C17.4819 18.7054 16.7023 19.1221 15.8536 19.2909C15.0049 19.4597 14.1252 19.3731 13.3257 19.042C12.5262 18.7108 11.8429 18.15 11.3622 17.4305C10.8814 16.711 10.6248 15.8651 10.6248 14.9998C10.626 13.8398 11.0874 12.7277 11.9076 11.9074C12.7279 11.0872 13.84 10.6259 15 10.6246ZM15 8.43731C13.7021 8.43731 12.4333 8.82219 11.3541 9.54329C10.2749 10.2644 9.43374 11.2893 8.93704 12.4884C8.44034 13.6876 8.31038 15.0071 8.5636 16.2801C8.81682 17.5531 9.44183 18.7224 10.3596 19.6402C11.2774 20.558 12.4467 21.183 13.7197 21.4362C14.9927 21.6894 16.3122 21.5595 17.5114 21.0628C18.7105 20.5661 19.7354 19.7249 20.4565 18.6457C21.1776 17.5665 21.5625 16.2977 21.5625 14.9998C21.5625 13.2593 20.8711 11.5901 19.6404 10.3594C18.4097 9.12871 16.7405 8.43731 15 8.43731Z" fill="white"/>
</svg>
