<svg width="350" height="350" viewBox="0 0 350 350" fill="none" xmlns="http://www.w3.org/2000/svg">
<path d="M334.964 155.141C339.255 117.446 326.508 79.59 299.754 52.689C286.594 39.466 268.604 27.006 244.699 20.986C177.653 4.095 134.204 19.6 112.483 60.648C90.762 101.696 28.427 94.647 18.508 165.48C8.58897 236.313 56.763 314.223 138.453 318.5C220.143 322.777 209.629 282.1 254.31 264.642C288.491 251.3 328.566 211.4 334.964 155.141Z" fill="#AEB8FE"/>
<path opacity="0.7" d="M334.964 155.141C339.255 117.446 326.508 79.59 299.754 52.689C286.594 39.466 268.604 27.006 244.699 20.986C177.653 4.095 134.204 19.6 112.483 60.648C90.762 101.696 28.427 94.647 18.508 165.48C8.58897 236.313 56.763 314.223 138.453 318.5C220.143 322.777 209.629 282.1 254.31 264.642C288.491 251.3 328.566 211.4 334.964 155.141Z" fill="white"/>
<path d="M285.502 195.258L285.145 193.109H242.2L241.843 195.258C241.843 195.258 239.162 217.252 241.143 231.56C243.124 245.868 245.966 257.313 245.966 258.209C245.966 259.105 247.625 274.309 249.725 284.144C250.635 288.4 254.016 317.233 254.016 317.233C254.016 317.233 252.049 323.666 249.543 326.711C247.037 329.756 245.434 331.534 246.687 332.255C247.94 332.976 261.709 332.255 261.709 332.255C261.709 332.255 262.409 330.855 262.409 327.243C262.409 323.631 261.513 318.479 261.513 315.623C261.513 312.767 262.948 261.429 262.948 261.429L263.305 217.434V215.775L264.005 217.434L264.362 261.429C264.362 261.429 265.797 312.76 265.797 315.623C265.797 318.486 264.901 323.666 264.901 327.243C264.901 330.82 265.601 332.255 265.601 332.255C265.601 332.255 279.37 332.955 280.623 332.255C281.876 331.555 280.266 329.749 277.767 326.711C275.268 323.673 273.294 317.233 273.294 317.233C273.294 317.233 276.829 288.435 277.585 284.144C279.601 273 281.4 259.105 281.4 258.209C281.4 257.313 284.263 245.868 286.23 231.56C288.197 217.252 285.502 195.258 285.502 195.258Z" fill="white" stroke="#263238" stroke-linecap="round" stroke-linejoin="round"/>
<path d="M285.145 193.109H242.2L241.843 195.258C241.843 195.258 239.162 217.252 241.143 231.56C243.124 245.868 245.966 257.313 245.966 258.209C245.966 259.105 247.625 274.309 249.725 284.144C250.152 286.139 251.125 293.552 252.035 300.853H261.884C262.311 284.753 262.962 261.429 262.962 261.429L263.319 217.434V215.775L264.019 217.434L264.376 261.429C264.376 261.429 265.027 284.774 265.454 300.853H275.366C276.29 293.559 277.256 286.153 277.613 284.144C279.601 273 281.4 259.105 281.4 258.209C281.4 257.313 284.263 245.868 286.23 231.56C288.197 217.252 285.53 195.258 285.53 195.258L285.145 193.109Z" fill="#AEB8FE" stroke="#263238" stroke-linecap="round" stroke-linejoin="round"/>
<path d="M262.437 327.243C262.437 325.556 262.234 323.505 262.024 321.51L259.602 326.711H249.557C247.058 329.749 245.448 331.534 246.701 332.255C247.954 332.976 261.723 332.255 261.723 332.255C261.723 332.255 262.437 330.82 262.437 327.243Z" fill="#263238" stroke="#263238" stroke-linecap="round" stroke-linejoin="round"/>
<path d="M264.985 327.243C264.985 325.556 265.188 323.505 265.398 321.51L267.82 326.711H277.9C280.399 329.749 282.009 331.534 280.763 332.255C279.517 332.976 265.734 332.255 265.734 332.255C265.734 332.255 264.985 330.82 264.985 327.243Z" fill="#263238" stroke="#263238" stroke-linecap="round" stroke-linejoin="round"/>
<path d="M262.773 87.738C262.773 87.738 249.347 96.362 249.2 98.623C249.053 100.884 252.147 105.791 252.147 105.791L247.352 121.541C247.352 121.541 255.815 124.495 261.121 125.93C265.896 127.141 270.812 127.706 275.737 127.61C278.537 127.456 287.287 125.006 287.287 125.006C287.287 125.006 283.787 112.371 283.395 110.705C283.003 109.039 283.395 98.343 282.877 95.305C282.359 92.267 275.177 89.264 274.078 88.676C272.979 88.088 267.113 83.93 262.773 87.738Z" fill="#263238" stroke="#263238" stroke-linecap="round" stroke-linejoin="round"/>
<path d="M257.054 119.973L256.928 131.537L252.028 133.042V195.622H277.662L275.527 132.538L270.62 130.907L270.249 120.099L257.054 119.973Z" fill="#BABABA" stroke="#263238" stroke-linecap="round" stroke-linejoin="round"/>
<path d="M257.054 119.973L256.928 131.537L254.702 132.223L262.829 145.733L273.623 131.908L270.62 130.907L270.249 120.099L257.054 119.973Z" fill="white" stroke="#263238" stroke-linecap="round" stroke-linejoin="round"/>
<path d="M270.291 121.471L261.443 121.912L259.826 127.463L269.031 132.125L273.623 131.908L270.62 130.907L270.291 121.471Z" fill="#263238" stroke="#263238" stroke-linecap="round" stroke-linejoin="round"/>
<path d="M269.584 95.473L254.282 103.95C254.282 103.95 252.819 115.808 253.358 116.984C253.897 118.16 258.615 126.861 259.826 127.484C261.24 128.08 262.775 128.334 264.306 128.226C265.076 128.037 273.938 121.31 273.938 121.31L275.205 116.494C275.205 116.494 277.067 116.9 278.313 113.974C279.559 111.048 278.656 109.711 278.166 109.55C277.676 109.389 276.255 109.774 273.441 107.149C270.627 104.524 268.59 98.42 269.584 95.473Z" fill="white" stroke="#263238" stroke-linecap="round" stroke-linejoin="round"/>
<path d="M255.675 105.448C255.675 105.448 257.173 104.048 258.783 105.952L260.288 109.221L258.132 115.605L260.848 116.305" stroke="#263238" stroke-linecap="round" stroke-linejoin="round"/>
<path d="M263.095 105.7C263.095 105.7 265.895 104.923 267.68 106.701" stroke="#263238" stroke-linecap="round" stroke-linejoin="round"/>
<path d="M257.803 108.773C257.74 109.529 257.299 110.117 256.816 110.075C256.333 110.033 255.983 109.375 256.046 108.626C256.109 107.877 256.55 107.282 257.033 107.324C257.516 107.366 257.859 108.01 257.803 108.773Z" fill="#263238"/>
<path d="M265.692 109.403C265.629 110.166 265.188 110.754 264.705 110.712C264.222 110.67 263.879 110.012 263.935 109.263C263.991 108.514 264.439 107.919 264.929 107.954C265.419 107.989 265.755 108.647 265.692 109.403Z" fill="#263238"/>
<path d="M258.727 119.182L261.59 119.665" stroke="#263238" stroke-linecap="round" stroke-linejoin="round"/>
<path d="M239.582 136.689L235.9 179.781L230.461 210.651C230.461 210.651 228.494 219.548 228.613 219.898C228.732 220.248 229.313 226.947 229.313 226.947C229.313 226.947 228.613 232.729 229.082 233.31C229.551 233.891 231.049 235.851 231.623 236.201C232.197 236.551 232.897 236.544 232.785 235.62C232.521 234.353 232.131 233.115 231.623 231.924C231.28 231.112 232.085 227.297 232.085 226.604C232.177 225.744 232.334 224.892 232.554 224.056L233.709 228.452C233.709 228.452 233.247 231.952 234.283 231.805C235.319 231.658 235.326 230.531 235.557 229.705C235.788 228.879 235.788 223.573 235.788 223.111C235.788 222.649 233.261 214.9 233.261 214.9L239.967 198.709L247.8 179.2L247.219 165.445L239.582 136.689Z" fill="white" stroke="#263238" stroke-linecap="round" stroke-linejoin="round"/>
<path d="M243.383 190.239L247.828 179.2L247.247 165.445L239.582 136.689L235.914 179.781L234.801 186.123L243.383 190.239Z" fill="#263238" stroke="#263238" stroke-linecap="round" stroke-linejoin="round"/>
<path d="M256.9 131.537L255.64 201.404C253.307 201.695 250.956 201.821 248.605 201.782C245.734 201.763 242.876 201.382 240.1 200.648C240.1 200.648 245 176.022 245.252 174.51C245.504 172.998 239.596 136.71 239.596 136.71C239.596 136.71 256.298 131.285 256.9 131.537Z" fill="#263238" stroke="#263238" stroke-linecap="round" stroke-linejoin="round"/>
<path d="M270.746 131.166L272.006 201.404C274.339 201.695 276.69 201.821 279.041 201.782C281.927 201.766 284.799 201.383 287.588 200.641C287.588 200.641 282.688 175.882 282.436 174.37C282.184 172.858 288.092 136.346 288.092 136.346C288.092 136.346 271.376 130.9 270.746 131.166Z" fill="#263238" stroke="#263238" stroke-linecap="round" stroke-linejoin="round"/>
<path d="M288.092 136.346C288.092 136.346 299.159 177.933 299.159 179.746C299.159 181.559 296.73 181.482 294.301 180.901C291.872 180.32 285.285 170.149 285.285 170.149L284.011 162.169L288.092 136.346Z" fill="#263238" stroke="#263238" stroke-linecap="round" stroke-linejoin="round"/>
<path d="M293.118 168.98L263.837 156.8C263.837 156.8 262.955 153.3 262.703 152.782C262.451 152.264 260.82 150.143 260.19 149.009C259.56 147.875 258.559 146.748 257.929 147.609C257.299 148.47 258.433 149.24 258.559 149.744C258.685 150.248 259.441 153.636 259.441 153.636L251.923 148.239C251.767 148.129 251.575 148.082 251.386 148.107C251.197 148.131 251.024 148.226 250.901 148.371C250.778 148.517 250.714 148.704 250.722 148.894C250.73 149.085 250.809 149.266 250.943 149.401L256.298 154.644L248.136 150.332C247.97 150.252 247.779 150.241 247.604 150.302C247.43 150.362 247.286 150.488 247.205 150.654C247.149 150.791 247.138 150.941 247.174 151.085C247.209 151.228 247.288 151.357 247.401 151.452L253.659 156.527L248.416 154.077C248.264 153.968 248.075 153.925 247.89 153.956C247.706 153.986 247.541 154.089 247.433 154.241C247.324 154.394 247.28 154.583 247.311 154.767C247.342 154.952 247.445 155.116 247.597 155.225L250.803 157.71L251.202 158.165L248.997 156.926C248.913 156.879 248.82 156.854 248.724 156.852C248.628 156.85 248.534 156.872 248.448 156.916C248.363 156.96 248.29 157.024 248.236 157.102C248.181 157.181 248.147 157.272 248.136 157.367C248.125 157.476 248.145 157.587 248.193 157.686C248.242 157.784 248.316 157.868 248.409 157.927L254.569 161.735C254.947 161.861 261.702 163.191 261.702 163.191C261.702 163.191 283.192 178.143 285.579 179.522C287.966 180.901 298.648 185.934 299.523 184.177C299.964 183.295 299.18 179.711 298.284 176.351" fill="#263238"/>
<path d="M293.118 168.98L263.837 156.8C263.837 156.8 262.955 153.3 262.703 152.782C262.451 152.264 260.82 150.143 260.19 149.009C259.56 147.875 258.559 146.748 257.929 147.609C257.299 148.47 258.433 149.24 258.559 149.744C258.685 150.248 259.441 153.636 259.441 153.636L251.923 148.239C251.767 148.129 251.575 148.082 251.386 148.107C251.197 148.131 251.024 148.226 250.901 148.371C250.778 148.517 250.714 148.704 250.722 148.894C250.73 149.085 250.809 149.266 250.943 149.401L256.298 154.644L248.136 150.332C247.97 150.252 247.779 150.241 247.604 150.302C247.43 150.362 247.286 150.488 247.205 150.654C247.149 150.791 247.138 150.941 247.174 151.085C247.209 151.228 247.288 151.357 247.401 151.452L253.659 156.527L248.416 154.077C248.264 153.968 248.075 153.925 247.89 153.956C247.706 153.986 247.541 154.089 247.433 154.241C247.324 154.394 247.28 154.583 247.311 154.767C247.342 154.952 247.445 155.116 247.597 155.225L250.803 157.71L251.202 158.165L248.997 156.926C248.913 156.879 248.82 156.854 248.724 156.852C248.628 156.85 248.534 156.872 248.448 156.916C248.363 156.96 248.29 157.024 248.236 157.102C248.181 157.181 248.147 157.272 248.136 157.367C248.125 157.476 248.145 157.587 248.193 157.686C248.242 157.784 248.316 157.868 248.409 157.927L254.569 161.735C254.947 161.861 261.702 163.191 261.702 163.191C261.702 163.191 283.192 178.143 285.579 179.522C287.966 180.901 298.648 185.934 299.523 184.177C299.964 183.295 299.18 179.711 298.284 176.351" stroke="#263238" stroke-linecap="round" stroke-linejoin="round"/>
<path d="M287.819 166.775L263.837 156.8C263.837 156.8 262.955 153.3 262.703 152.782C262.451 152.264 260.82 150.143 260.19 149.009C259.56 147.875 258.559 146.748 257.929 147.609C257.299 148.47 258.433 149.24 258.559 149.744C258.685 150.248 259.441 153.636 259.441 153.636L251.923 148.239C251.767 148.129 251.575 148.082 251.386 148.107C251.197 148.131 251.024 148.226 250.901 148.371C250.778 148.517 250.714 148.704 250.722 148.894C250.73 149.085 250.809 149.266 250.943 149.401L256.298 154.644L248.136 150.332C247.97 150.252 247.779 150.241 247.604 150.302C247.43 150.362 247.286 150.488 247.205 150.654C247.149 150.791 247.138 150.941 247.174 151.085C247.209 151.228 247.288 151.357 247.401 151.452L253.659 156.527L248.416 154.077C248.264 153.968 248.075 153.925 247.89 153.956C247.706 153.986 247.541 154.089 247.433 154.241C247.324 154.394 247.28 154.583 247.311 154.767C247.342 154.952 247.445 155.116 247.597 155.225L250.803 157.71L251.202 158.165L248.997 156.926C248.913 156.879 248.82 156.854 248.724 156.852C248.628 156.85 248.534 156.872 248.448 156.916C248.363 156.96 248.29 157.024 248.236 157.102C248.181 157.181 248.147 157.272 248.136 157.367C248.125 157.476 248.145 157.587 248.193 157.686C248.242 157.784 248.316 157.868 248.409 157.927L254.569 161.735C254.947 161.861 261.702 163.191 261.702 163.191C261.702 163.191 279.657 175.686 284.564 178.885L287.819 166.775Z" fill="white" stroke="#263238" stroke-linecap="round" stroke-linejoin="round"/>
<path d="M296.366 30.093H240.149V64.722H261.177L267.582 73.269L273.28 64.722H296.366V30.093Z" fill="#263238"/>
<path d="M293.776 27.503H237.559V62.132H258.587L264.992 70.679L270.69 62.132H293.776V27.503Z" fill="white"/>
<path d="M293.776 39.473L237.559 59.654V62.132H258.587L264.992 70.679L270.69 62.132H293.776V39.473Z" fill="#C7C7C7"/>
<path d="M293.776 27.503H237.559V62.132H258.587L264.992 70.679L270.69 62.132H293.776V27.503Z" stroke="#263238" stroke-linecap="round" stroke-linejoin="round"/>
<path d="M255.738 46.179C256.929 46.179 257.894 45.2137 257.894 44.023C257.894 42.8323 256.929 41.867 255.738 41.867C254.547 41.867 253.582 42.8323 253.582 44.023C253.582 45.2137 254.547 46.179 255.738 46.179Z" fill="#263238"/>
<path d="M265.664 46.179C266.855 46.179 267.82 45.2137 267.82 44.023C267.82 42.8323 266.855 41.867 265.664 41.867C264.473 41.867 263.508 42.8323 263.508 44.023C263.508 45.2137 264.473 46.179 265.664 46.179Z" fill="#263238"/>
<path d="M275.59 46.179C276.781 46.179 277.746 45.2137 277.746 44.023C277.746 42.8323 276.781 41.867 275.59 41.867C274.399 41.867 273.434 42.8323 273.434 44.023C273.434 45.2137 274.399 46.179 275.59 46.179Z" fill="#263238"/>
<path d="M155.61 315.28L153.622 321.636C153.622 321.636 146.272 327.005 146.468 328.195C146.574 329.651 146.574 331.114 146.468 332.57H171.5C171.5 332.57 171.696 329.189 171.696 327.404C171.748 325.878 171.682 324.349 171.5 322.833C171.304 321.839 170.905 319.851 170.905 319.851L155.61 315.28Z" fill="#AEB8FE" stroke="#263238" stroke-linecap="round" stroke-linejoin="round"/>
<path d="M171.5 332.57C171.5 332.57 171.598 330.974 171.654 329.392H146.552C146.552 330.792 146.468 332.57 146.468 332.57H171.5Z" fill="white" stroke="#263238" stroke-linecap="round" stroke-linejoin="round"/>
<path d="M199.738 315.28L201.726 321.636C201.726 321.636 209.083 327.005 208.887 328.195C208.781 329.651 208.781 331.114 208.887 332.57H183.841C183.841 332.57 183.638 329.189 183.638 327.404C183.585 325.877 183.652 324.349 183.841 322.833C184.037 321.839 184.436 319.851 184.436 319.851L199.738 315.28Z" fill="#AEB8FE" stroke="#263238" stroke-linecap="round" stroke-linejoin="round"/>
<path d="M183.841 332.57C183.841 332.57 183.743 330.974 183.687 329.392H208.803C208.803 330.792 208.887 332.57 208.887 332.57H183.841Z" fill="white" stroke="#263238" stroke-linecap="round" stroke-linejoin="round"/>
<path d="M201.327 275.52C202.923 263.004 204.708 193.431 204.708 193.431L178.5 191.044V191.296L176.911 191.044L150.668 193.431C150.668 193.431 152.46 263.004 154.049 275.52C155.638 288.036 155.449 310.905 155.449 310.905L153.86 313.887L154.854 317.464L170.954 319.851C170.954 319.851 172.543 312.095 172.942 309.113C173.341 306.131 172.543 299.775 172.347 298.613C172.165 297.528 176.127 230.629 176.813 219.03L178.507 216.587V217.287C178.507 217.287 183.274 297.395 183.078 298.585C182.882 299.775 182.084 306.138 182.483 309.085C182.882 312.032 184.471 319.823 184.471 319.823L200.571 317.436L201.565 313.859L199.976 310.877C199.976 310.877 199.738 288.043 201.327 275.52Z" fill="#263238" stroke="#263238" stroke-linecap="round" stroke-linejoin="round"/>
<path d="M166.922 108.5L166.796 120.4L157.395 124.355L162.715 194.6H191.898L194.747 123.9C194.747 123.9 186.088 120.813 185.717 120.813C185.346 120.813 184.849 106.708 184.849 106.708L166.922 108.5Z" fill="#BABABA" stroke="#263238" stroke-linecap="round" stroke-linejoin="round"/>
<path d="M185.717 120.841C185.346 120.841 184.849 106.736 184.849 106.736L166.922 108.5L166.796 120.4L164.486 121.373C166.628 124.257 174.671 134.82 177.555 134.498C180.068 134.218 184.961 125.601 187.229 121.359C186.735 121.158 186.23 120.985 185.717 120.841Z" fill="white" stroke="#263238" stroke-linecap="round" stroke-linejoin="round"/>
<path d="M169.792 108.192L166.922 108.472L166.796 120.344L164.486 121.317L179.165 116.382L169.792 108.192Z" fill="#263238" stroke="#263238" stroke-linecap="round" stroke-linejoin="round"/>
<path d="M168.525 79.282C168.525 79.282 166.054 79.163 165.557 79.779C165.06 80.395 159.6 88.9 159.992 90.412C160.604 92.1171 161.348 93.7718 162.218 95.361L163.702 100.681L164.815 91.777L170.877 85.841L184.478 89.922L185.843 97.09L186.83 97.342C186.83 97.342 187.327 94.248 187.446 93.751C187.565 93.254 189.798 85.351 189.182 83.615C188.566 81.879 174.832 76.069 172.487 76.314C170.142 76.559 168.525 79.282 168.525 79.282Z" fill="#263238" stroke="#263238" stroke-linecap="round" stroke-linejoin="round"/>
<path d="M163.702 98.945C163.702 98.945 161.476 94.864 160.86 99.071C160.244 103.278 164.444 105.133 164.444 105.133L163.702 98.945Z" fill="white" stroke="#263238" stroke-linecap="round" stroke-linejoin="round"/>
<path d="M185.843 97.09C185.843 97.09 187.943 94.864 188.559 97.587C189.175 100.31 186.459 103.649 186.459 103.649L185.843 97.09Z" fill="white" stroke="#263238" stroke-linecap="round" stroke-linejoin="round"/>
<path d="M163.212 92.519C163.212 92.519 164.815 106.617 165.067 107.73C165.319 108.843 173.971 116.13 174.461 116.508C174.951 116.886 177.961 117.376 179.165 116.389C180.369 115.402 186.214 106.988 186.459 106.246C186.704 105.504 185.591 88.186 185.591 88.186L178.668 85.099C178.668 85.099 180.278 87.073 179.039 87.199C177.8 87.325 170.751 83.244 170.751 83.244L163.212 92.519Z" fill="white" stroke="#263238" stroke-linecap="round" stroke-linejoin="round"/>
<path d="M172.858 91.28C172.858 91.28 169.638 89.796 167.412 92.393" stroke="#263238" stroke-linecap="round" stroke-linejoin="round"/>
<path d="M177.184 91.525C177.907 90.8387 178.873 90.4668 179.87 90.4904C180.867 90.514 181.814 90.9313 182.504 91.651" stroke="#263238" stroke-linecap="round" stroke-linejoin="round"/>
<path d="M177.058 92.89C177.058 92.89 177.31 97.832 177.429 98.49C177.548 99.148 178.913 99.603 177.926 100.716C176.939 101.829 175.084 102.319 174.342 101.206" stroke="#263238" stroke-linecap="round" stroke-linejoin="round"/>
<path d="M170.751 103.523C170.751 103.523 173.348 106.246 176.197 105.875C179.046 105.504 181.02 102.781 181.02 102.781" stroke="#263238" stroke-linecap="round" stroke-linejoin="round"/>
<path d="M170.38 96.964C170.859 96.964 171.248 96.356 171.248 95.606C171.248 94.856 170.859 94.248 170.38 94.248C169.901 94.248 169.512 94.856 169.512 95.606C169.512 96.356 169.901 96.964 170.38 96.964Z" fill="#263238"/>
<path d="M180.649 96.964C181.128 96.964 181.517 96.356 181.517 95.606C181.517 94.856 181.128 94.248 180.649 94.248C180.17 94.248 179.781 94.856 179.781 95.606C179.781 96.356 180.17 96.964 180.649 96.964Z" fill="#263238"/>
<path d="M166.796 120.344C166.796 120.344 167.783 211.862 167.783 212.233C167.803 212.428 167.784 212.625 167.726 212.813C167.668 213 167.573 213.174 167.446 213.324C167.319 213.474 167.163 213.596 166.988 213.684C166.812 213.772 166.621 213.824 166.425 213.836C165.067 214.088 144.41 201.936 144.41 201.236C144.41 200.536 147.259 182.686 147.259 182.686L133.154 172.053C133.154 172.053 144.907 128.765 145.649 128.52C146.391 128.275 166.796 120.344 166.796 120.344Z" fill="#AEB8FE" stroke="#263238" stroke-linecap="round" stroke-linejoin="round"/>
<path d="M136.374 169.127C138.171 168.479 140.006 167.944 141.869 167.524C143.472 167.3 148.736 172.333 148.736 172.333" stroke="#263238" stroke-linecap="round" stroke-linejoin="round"/>
<path d="M141.869 164.549C141.869 164.549 146.223 165.011 148.281 167.986" stroke="#263238" stroke-linecap="round" stroke-linejoin="round"/>
<path d="M152.082 184.779L155.169 186.263L151.459 194.67L149.359 191.947L152.082 184.779Z" fill="white" stroke="#263238" stroke-linecap="round" stroke-linejoin="round"/>
<path d="M134.638 167.832C134.638 167.832 130.438 178.591 130.557 179.088C130.676 179.585 148.12 195.188 148.988 194.796C149.856 194.404 153.685 184.296 153.811 183.785C153.937 183.274 145.152 170.8 145.152 170.8" fill="#AEB8FE"/>
<path d="M134.638 167.832C134.638 167.832 130.438 178.591 130.557 179.088C130.676 179.585 148.12 195.188 148.988 194.796C149.856 194.404 153.685 184.296 153.811 183.785C153.937 183.274 145.152 170.8 145.152 170.8" stroke="#263238" stroke-linecap="round" stroke-linejoin="round"/>
<path d="M149.485 176.736L150.472 146.811" stroke="#263238" stroke-linecap="round" stroke-linejoin="round"/>
<path d="M156.905 182.798L149.478 199.122L151.711 200.851L159.005 183.785L156.905 182.798Z" fill="#AEB8FE" stroke="#263238" stroke-linecap="round" stroke-linejoin="round"/>
<path d="M144.571 199.927C144.473 200.627 144.41 201.117 144.41 201.222C144.41 201.964 165.067 214.088 166.425 213.822C166.697 213.803 166.958 213.708 167.18 213.548C167.401 213.389 167.573 213.171 167.678 212.919L144.571 199.927Z" fill="#AEB8FE" stroke="#263238" stroke-linecap="round" stroke-linejoin="round"/>
<path d="M166.796 120.344L167.041 165.732C167.041 165.732 159.502 133.203 158.508 131.474C157.514 129.745 152.208 125.909 152.698 125.041C153.188 124.173 165.809 118.118 166.796 120.344Z" fill="white" stroke="#263238" stroke-linecap="round" stroke-linejoin="round"/>
<path d="M185.836 120.344C185.836 120.344 184.849 211.862 184.849 212.233C184.829 212.428 184.848 212.625 184.906 212.813C184.964 213 185.059 213.174 185.186 213.324C185.313 213.474 185.469 213.596 185.644 213.684C185.82 213.772 186.011 213.824 186.207 213.836C187.572 214.088 208.222 201.936 208.222 201.236C208.222 200.536 205.38 182.7 205.38 182.7L219.478 172.067C219.478 172.067 207.725 128.779 206.983 128.534C206.241 128.289 185.836 120.344 185.836 120.344Z" fill="#AEB8FE" stroke="#263238" stroke-linecap="round" stroke-linejoin="round"/>
<path d="M216.72 165.697C216.72 165.697 211.911 165.697 210.077 166.614C208.243 167.531 204.589 170.499 204.589 170.499" stroke="#263238" stroke-linecap="round" stroke-linejoin="round"/>
<path d="M204.358 167.524C204.358 167.524 209.391 163.408 210.77 162.722H213.969" stroke="#263238" stroke-linecap="round" stroke-linejoin="round"/>
<path d="M200.557 184.779L197.463 186.263L201.173 194.67L203.273 191.947L200.557 184.779Z" fill="white" stroke="#263238" stroke-linecap="round" stroke-linejoin="round"/>
<path d="M217.994 167.832C217.994 167.832 222.194 178.591 222.075 179.088C221.956 179.585 204.512 195.188 203.644 194.796C202.776 194.404 198.947 184.296 198.821 183.785C198.695 183.274 207.48 170.8 207.48 170.8" fill="#AEB8FE"/>
<path d="M217.994 167.832C217.994 167.832 222.194 178.591 222.075 179.088C221.956 179.585 204.512 195.188 203.644 194.796C202.776 194.404 198.947 184.296 198.821 183.785C198.695 183.274 207.48 170.8 207.48 170.8" stroke="#263238" stroke-linecap="round" stroke-linejoin="round"/>
<path d="M203.154 176.736L202.16 146.811" stroke="#263238" stroke-linecap="round" stroke-linejoin="round"/>
<path d="M195.734 182.798L203.154 199.122L200.928 200.851L193.627 183.785L195.734 182.798Z" fill="#AEB8FE" stroke="#263238" stroke-linecap="round" stroke-linejoin="round"/>
<path d="M208.061 199.927C208.159 200.627 208.222 201.117 208.222 201.222C208.222 201.964 187.572 214.088 186.207 213.822C185.935 213.804 185.675 213.709 185.454 213.55C185.234 213.39 185.063 213.171 184.961 212.919L208.061 199.927Z" fill="#AEB8FE" stroke="#263238" stroke-linecap="round" stroke-linejoin="round"/>
<path d="M185.836 120.344L185.591 165.732C185.591 165.732 193.137 133.203 194.124 131.474C195.111 129.745 200.424 125.909 199.934 125.041C199.444 124.173 186.83 118.118 185.836 120.344Z" fill="white" stroke="#263238" stroke-linecap="round" stroke-linejoin="round"/>
<path d="M204.925 40.208C204.926 34.8786 203.411 29.6587 200.559 25.1571C197.706 20.6554 193.632 17.0574 188.813 14.7824C183.994 12.5075 178.627 11.6494 173.338 12.3081C168.05 12.9669 163.057 15.1154 158.943 18.5031C154.829 21.8909 151.763 26.3783 150.101 31.4422C148.44 36.5061 148.253 41.9379 149.561 47.1043C150.869 52.2707 153.619 56.9589 157.489 60.6222C161.36 64.2856 166.192 66.7732 171.423 67.795L177.023 75.068L182.427 67.753C188.777 66.4587 194.486 63.01 198.586 57.9904C202.685 52.9709 204.925 46.689 204.925 40.208Z" fill="#263238"/>
<path d="M203.63 37.625C203.632 32.2949 202.119 27.074 199.267 22.5711C196.415 18.0683 192.342 14.469 187.522 12.193C182.702 9.91698 177.335 9.05809 172.046 9.71645C166.756 10.3748 161.763 12.5233 157.649 15.9114C153.534 19.2994 150.467 23.7875 148.806 28.8521C147.145 33.9167 146.958 39.3492 148.267 44.5161C149.576 49.683 152.326 54.3714 156.198 58.0344C160.07 61.6975 164.904 64.1844 170.135 65.205L175.735 72.478L181.139 65.163C187.487 63.8675 193.193 60.4192 197.291 55.4013C201.389 50.3833 203.629 44.1038 203.63 37.625Z" fill="#AEB8FE"/>
<path opacity="0.2" d="M170.135 65.205L175.735 72.478L181.139 65.163C187.487 63.8675 193.193 60.4192 197.291 55.4013C201.389 50.3833 203.629 44.1039 203.63 37.625C203.629 36.1223 203.509 34.622 203.273 33.138L151.354 51.961C153.375 55.3672 156.092 58.3079 159.329 60.5903C162.566 62.8728 166.248 64.4453 170.135 65.205Z" fill="black"/>
<path d="M203.63 37.625C203.632 32.2949 202.119 27.074 199.267 22.5711C196.415 18.0683 192.342 14.469 187.522 12.193C182.702 9.91698 177.335 9.05809 172.046 9.71645C166.756 10.3748 161.763 12.5233 157.649 15.9114C153.534 19.2994 150.467 23.7875 148.806 28.8521C147.145 33.9167 146.958 39.3492 148.267 44.5161C149.576 49.683 152.326 54.3714 156.198 58.0344C160.07 61.6975 164.904 64.1844 170.135 65.205L175.735 72.478L181.139 65.163C187.487 63.8675 193.193 60.4192 197.291 55.4013C201.389 50.3833 203.629 44.1038 203.63 37.625V37.625Z" stroke="#263238" stroke-linecap="round" stroke-linejoin="round"/>
<path d="M166.236 40.831C167.427 40.831 168.392 39.8657 168.392 38.675C168.392 37.4843 167.427 36.519 166.236 36.519C165.045 36.519 164.08 37.4843 164.08 38.675C164.08 39.8657 165.045 40.831 166.236 40.831Z" fill="#263238"/>
<path d="M176.162 40.831C177.353 40.831 178.318 39.8657 178.318 38.675C178.318 37.4843 177.353 36.519 176.162 36.519C174.971 36.519 174.006 37.4843 174.006 38.675C174.006 39.8657 174.971 40.831 176.162 40.831Z" fill="#263238"/>
<path d="M186.088 40.831C187.279 40.831 188.244 39.8657 188.244 38.675C188.244 37.4843 187.279 36.519 186.088 36.519C184.897 36.519 183.932 37.4843 183.932 38.675C183.932 39.8657 184.897 40.831 186.088 40.831Z" fill="#263238"/>
<path d="M67.543 316.806L67.067 319.354C67.067 319.354 61.334 326.522 60.2 327.635C59.066 328.748 58.8 332.57 58.8 332.57H81.417C81.417 332.57 82.691 327.635 82.53 326.2C82.369 324.765 82.369 320.6 82.369 320.6L67.543 316.806Z" fill="#AEB8FE" stroke="#263238" stroke-linecap="round" stroke-linejoin="round"/>
<path d="M59.318 329.546C59.0633 330.538 58.8901 331.55 58.8 332.57H81.417C81.417 332.57 81.795 331.107 82.117 329.546H59.318Z" fill="white" stroke="#263238" stroke-linecap="round" stroke-linejoin="round"/>
<path d="M113.89 316.806L114.366 319.354C114.366 319.354 120.099 326.522 121.219 327.635C122.339 328.748 122.619 332.57 122.619 332.57H100.009C100.009 332.57 98.735 327.635 98.889 326.2C99.043 324.765 99.05 320.6 99.05 320.6L113.89 316.806Z" fill="#AEB8FE" stroke="#263238" stroke-linecap="round" stroke-linejoin="round"/>
<path d="M122.122 329.546C122.377 330.538 122.553 331.55 122.647 332.57H100.037C100.037 332.57 99.659 331.107 99.337 329.546H122.122Z" fill="white" stroke="#263238" stroke-linecap="round" stroke-linejoin="round"/>
<path d="M112.616 271.096L114.205 205.002L91.273 200.2H90.16L67.2 205.002L68.789 271.096L69.587 312.662L67.361 314.573L67.515 316.806L82.355 320.6C82.355 320.6 82.677 314.706 82.831 313.908C82.985 313.11 82.355 309.771 82.355 309.134C82.355 308.497 87.297 254.191 87.297 254.191L89.208 224.091L90.72 223.713L92.232 224.091L94.143 254.191C94.143 254.191 99.043 308.497 99.043 309.134C99.043 309.771 98.406 313.11 98.567 313.908C98.728 314.706 99.043 320.6 99.043 320.6L113.855 316.778L114.016 314.545L111.783 312.634L112.616 271.096Z" fill="#263238" stroke="#263238" stroke-linecap="round" stroke-linejoin="round"/>
<path d="M55.923 157.549L54.327 164.073L44.296 152.6C44.296 152.6 43.498 147.189 42.861 146.552C42.224 145.915 39.837 144.795 38.241 144.004C36.645 143.213 34.419 142.604 33.621 141.295C32.823 139.986 31.234 140.497 32.347 142.408C33.1498 143.658 34.2424 144.695 35.532 145.432C35.532 145.432 30.121 145.278 29.323 144.956C28.525 144.634 24.423 141.456 23.429 142.73C22.435 144.004 24.549 145.593 25.025 146.713C25.501 147.833 29.799 150.689 33.621 152.922C36.1381 154.362 38.7452 155.638 41.426 156.744C41.426 156.744 54.026 177.443 56.077 179.2C58.128 180.957 61.334 183.022 62.447 181.3C63.56 179.578 65.947 173.81 65.947 173.81L66.423 161.392L55.923 157.549Z" fill="white" stroke="#263238" stroke-linecap="round" stroke-linejoin="round"/>
<path d="M41.3 153.727C41.3 153.727 38.752 150.227 37.8 149.744C36.848 149.261 27.608 146.244 27.608 146.244" stroke="#263238" stroke-linecap="round" stroke-linejoin="round"/>
<path d="M54.327 164.073L62.132 169.169" stroke="#263238" stroke-linecap="round" stroke-linejoin="round"/>
<path d="M120.316 154.7L122.332 175.154L124.719 211.141C124.719 211.141 126.63 219.583 126.819 220.241C127.008 220.899 126.497 230.118 126.182 231.07C125.703 232.207 124.933 233.197 123.949 233.94C123.312 234.255 121.401 233.94 121.884 233.142C122.367 232.344 123.284 231.392 123.284 230.755V226.611C123.284 225.498 121.373 222.474 121.373 222.474C121.373 222.474 121.534 227.409 121.534 228.522C121.534 229.635 121.534 230.118 120.736 229.957C119.938 229.796 119.147 229.481 119.147 228.207C119.147 226.933 118.51 223.748 118.349 222.607C118.188 221.466 117.551 220.696 117.712 219.737C117.873 218.778 119.945 211.617 119.945 211.617L112.777 187.25L111.181 164.318L120.316 154.7Z" fill="white" stroke="#263238" stroke-linecap="round" stroke-linejoin="round"/>
<path d="M77.735 123.144L57.575 132.825L53.851 155.477L64.358 161.21L66.115 206.598L87.29 211.372L90.797 205.485L93.345 211.855L114.842 206.122L113.89 160.412L122.969 154.364L117.887 131.607L98.441 122.031L77.735 123.144Z" fill="#BABABA" stroke="#263238" stroke-linecap="round" stroke-linejoin="round"/>
<path d="M88.886 129.038L90.797 203.728" stroke="#263238" stroke-linecap="round" stroke-linejoin="round"/>
<path d="M113.89 160.412L112.455 142.576" stroke="#263238" stroke-linecap="round" stroke-linejoin="round"/>
<path d="M64.358 161.21L63.567 140.028" stroke="#263238" stroke-linecap="round" stroke-linejoin="round"/>
<path d="M92.4 144.487C92.4 144.677 92.3438 144.862 92.2384 145.02C92.133 145.178 91.9832 145.3 91.808 145.373C91.6328 145.446 91.4399 145.465 91.2539 145.428C91.0679 145.391 90.897 145.299 90.7629 145.165C90.6288 145.031 90.5374 144.86 90.5004 144.674C90.4634 144.488 90.4824 144.295 90.555 144.12C90.6276 143.945 90.7505 143.795 90.9082 143.69C91.0659 143.584 91.2513 143.528 91.441 143.528C91.6953 143.528 91.9393 143.629 92.1191 143.809C92.299 143.989 92.4 144.233 92.4 144.487V144.487Z" stroke="#263238" stroke-linecap="round" stroke-linejoin="round"/>
<path d="M92.4 169.015C92.4 169.205 92.3438 169.39 92.2384 169.548C92.133 169.706 91.9832 169.828 91.808 169.901C91.6328 169.974 91.4399 169.993 91.2539 169.956C91.0679 169.919 90.897 169.827 90.7629 169.693C90.6288 169.559 90.5374 169.388 90.5004 169.202C90.4634 169.016 90.4824 168.823 90.555 168.648C90.6276 168.473 90.7505 168.323 90.9082 168.218C91.0659 168.112 91.2513 168.056 91.441 168.056C91.6953 168.056 91.9393 168.157 92.1191 168.337C92.299 168.517 92.4 168.761 92.4 169.015V169.015Z" stroke="#263238" stroke-linecap="round" stroke-linejoin="round"/>
<path d="M93.506 193.536C93.5074 193.726 93.4523 193.912 93.3478 194.071C93.2433 194.229 93.094 194.353 92.9189 194.427C92.7438 194.501 92.5507 194.521 92.3642 194.484C92.1777 194.448 92.0062 194.357 91.8714 194.224C91.7366 194.09 91.6445 193.919 91.607 193.733C91.5694 193.546 91.588 193.353 91.6603 193.178C91.7327 193.002 91.8556 192.852 92.0135 192.746C92.1713 192.64 92.357 192.584 92.547 192.584C92.8001 192.584 93.043 192.684 93.2226 192.862C93.4023 193.041 93.5041 193.283 93.506 193.536V193.536Z" stroke="#263238" stroke-linecap="round" stroke-linejoin="round"/>
<path d="M54.012 151.333L52.094 157.703L64.358 163.282L64.519 158.34L54.012 151.333Z" fill="white" stroke="#263238" stroke-linecap="round" stroke-linejoin="round"/>
<path d="M113.89 156.429V163.282L124.719 155.316L121.849 151.018L113.89 156.429Z" fill="white" stroke="#263238" stroke-linecap="round" stroke-linejoin="round"/>
<path d="M80.605 114.387L81.564 121.87L88.886 129.038L97.328 119.959L97.167 113.274L92.708 116.298L80.605 112.315V114.387Z" fill="white" stroke="#263238" stroke-linecap="round" stroke-linejoin="round"/>
<path d="M94.416 120.232L87.283 114.513L80.605 112.315V114.387L81.564 121.87L83.454 123.725L94.416 120.232Z" fill="#263238" stroke="#263238" stroke-linecap="round" stroke-linejoin="round"/>
<path d="M88.886 129.038L85.064 136.045L76.622 123.466L80.927 119.322L88.886 129.038Z" fill="white" stroke="#263238" stroke-linecap="round" stroke-linejoin="round"/>
<path d="M88.886 129.038L93.506 135.408L100.828 122.829L97.328 119.959L88.886 129.038Z" fill="white" stroke="#263238" stroke-linecap="round" stroke-linejoin="round"/>
<path d="M75.411 90.188L76.286 101.178C76.286 101.178 74.018 99.435 74.018 102.928C74.018 106.421 74.543 109.382 75.761 109.732C76.5638 109.955 77.3797 110.128 78.204 110.25C78.204 110.25 78.729 114.618 79.954 115.661C81.179 116.704 87.801 120.561 89.054 121.261C90.307 121.961 94.108 121.436 94.983 121.086C95.858 120.736 98.994 115.15 99.694 113.582C100.394 112.014 100.912 106.078 100.912 106.078C100.912 106.078 100.212 95.578 100.212 92.645C100.212 89.712 100.387 86.891 98.987 84.791C97.587 82.691 91.833 79.562 85.904 80.78C79.975 81.998 74.9 83.209 75.411 90.188Z" fill="white" stroke="#263238" stroke-linecap="round" stroke-linejoin="round"/>
<path d="M100.1 88.578C100.049 87.2337 99.6533 85.925 98.952 84.777C97.552 82.677 91.798 79.548 85.869 80.766C79.94 81.984 74.879 83.209 75.369 90.188L76.244 101.178L78.512 101.003L77.987 97.167C77.987 97.167 80.43 96.817 80.43 95.767C80.43 94.717 77.294 88.963 79.73 87.738C82.166 86.513 83.391 86.17 84.959 86.338C86.527 86.506 89.159 88.956 92.659 88.081C96.159 87.206 97.72 85.638 97.72 85.638L100.1 88.578Z" fill="#263238" stroke="#263238" stroke-linecap="round" stroke-linejoin="round"/>
<path d="M93.212 99.785L94.43 108.332L90.944 108.682" stroke="#263238" stroke-linecap="round" stroke-linejoin="round"/>
<path d="M89.719 98.735C89.719 98.735 86.058 97.335 83.09 99.785" stroke="#263238" stroke-linecap="round" stroke-linejoin="round"/>
<path d="M94.605 98.392C94.605 98.392 97.573 96.467 99.316 98.392" stroke="#263238" stroke-linecap="round" stroke-linejoin="round"/>
<path d="M88.151 102.053C88.151 102.823 87.682 103.453 87.101 103.453C86.52 103.453 86.058 102.83 86.058 102.053C86.058 101.276 86.527 100.653 87.101 100.653C87.675 100.653 88.151 101.283 88.151 102.053Z" fill="#263238"/>
<path d="M97.573 103.446C98.1529 103.446 98.623 102.822 98.623 102.053C98.623 101.284 98.1529 100.66 97.573 100.66C96.9931 100.66 96.523 101.284 96.523 102.053C96.523 102.822 96.9931 103.446 97.573 103.446Z" fill="#263238"/>
<path d="M92.512 114.443C93.0919 114.443 93.562 114.13 93.562 113.743C93.562 113.356 93.0919 113.043 92.512 113.043C91.9321 113.043 91.462 113.356 91.462 113.743C91.462 114.13 91.9321 114.443 92.512 114.443Z" fill="#263238"/>
<path d="M119.42 30.093H63.21V64.722H84.231L90.643 73.269L96.341 64.722H119.42V30.093Z" fill="#263238"/>
<path d="M116.837 27.503H60.62V62.132H81.641L88.053 70.679L93.751 62.132H116.837V27.503Z" fill="white"/>
<path d="M116.837 39.473L60.62 59.654V62.132H81.641L88.053 70.679L93.751 62.132H116.837V39.473Z" fill="#C7C7C7"/>
<path d="M116.837 27.503H60.62V62.132H81.641L88.053 70.679L93.751 62.132H116.837V27.503Z" stroke="#263238" stroke-linecap="round" stroke-linejoin="round"/>
<path d="M78.799 46.179C79.9897 46.179 80.955 45.2137 80.955 44.023C80.955 42.8323 79.9897 41.867 78.799 41.867C77.6083 41.867 76.643 42.8323 76.643 44.023C76.643 45.2137 77.6083 46.179 78.799 46.179Z" fill="#263238"/>
<path d="M88.725 46.179C89.9157 46.179 90.881 45.2137 90.881 44.023C90.881 42.8323 89.9157 41.867 88.725 41.867C87.5342 41.867 86.569 42.8323 86.569 44.023C86.569 45.2137 87.5342 46.179 88.725 46.179Z" fill="#263238"/>
<path d="M98.651 46.179C99.8417 46.179 100.807 45.2137 100.807 44.023C100.807 42.8323 99.8417 41.867 98.651 41.867C97.4603 41.867 96.495 42.8323 96.495 44.023C96.495 45.2137 97.4603 46.179 98.651 46.179Z" fill="#263238"/>
</svg>
