<svg width="25" height="25" viewBox="0 0 25 25" fill="none" xmlns="http://www.w3.org/2000/svg">
<path d="M16.328 17.526L17.4999 16.3542L13.3593 12.1875V6.95312H11.7968V12.8125L16.328 17.526ZM12.4999 22.9167C11.0763 22.9167 9.73082 22.6432 8.46346 22.0963C7.1961 21.5495 6.08933 20.8029 5.14315 19.8568C4.19697 18.9106 3.45044 17.8038 2.90356 16.5365C2.35669 15.2691 2.08325 13.9236 2.08325 12.5C2.08325 11.0764 2.35669 9.7309 2.90356 8.46354C3.45044 7.19618 4.19697 6.08941 5.14315 5.14322C6.08933 4.19704 7.1961 3.45052 8.46346 2.90364C9.73082 2.35677 11.0763 2.08333 12.4999 2.08333C13.9235 2.08333 15.269 2.35677 16.5364 2.90364C17.8037 3.45052 18.9105 4.19704 19.8567 5.14322C20.8029 6.08941 21.5494 7.19618 22.0963 8.46354C22.6431 9.7309 22.9166 11.0764 22.9166 12.5C22.9166 13.9236 22.6431 15.2691 22.0963 16.5365C21.5494 17.8038 20.8029 18.9106 19.8567 19.8568C18.9105 20.8029 17.8037 21.5495 16.5364 22.0963C15.269 22.6432 13.9235 22.9167 12.4999 22.9167ZM12.4999 21.3542C14.9305 21.3542 17.0138 20.4861 18.7499 18.75C20.486 17.0139 21.3541 14.9306 21.3541 12.5C21.3541 10.0694 20.486 7.98611 18.7499 6.25C17.0138 4.51388 14.9305 3.64583 12.4999 3.64583C10.0694 3.64583 7.98603 4.51388 6.24992 6.25C4.51381 7.98611 3.64575 10.0694 3.64575 12.5C3.64575 14.9306 4.51381 17.0139 6.24992 18.75C7.98603 20.4861 10.0694 21.3542 12.4999 21.3542Z" fill="black"/>
</svg>
