<svg width="70" height="70" viewBox="0 0 70 70" fill="none" xmlns="http://www.w3.org/2000/svg">
<path d="M4.37501 15.2031C6.67188 15.2031 10.1719 15.2031 12.1406 15.2031C13.125 15.2031 13.8906 15.8594 14.2188 16.7344C15.2031 19.5781 17.3906 25.8125 19.9063 30.0781C23.2969 35.6562 25.4844 37.7344 26.9063 37.5156C28.3281 37.1875 27.8906 33.4688 27.8906 30.5156C27.8906 27.5625 28.2188 22.5313 26.7969 20.2344L24.6094 17.0625C24.0625 16.2969 24.6094 15.3125 25.4844 15.3125H37.9531C39.1563 15.3125 40.1406 16.2969 40.1406 17.5V33.3594C40.1406 33.3594 40.6875 36.2031 43.75 33.25C46.8125 30.2969 50.0938 24.8281 52.8281 19.25L53.9219 16.625C54.25 15.8594 55.0156 15.3125 55.8906 15.3125H63.9844C65.5156 15.3125 66.6094 16.8438 66.0625 18.2656L65.1875 20.5625C65.1875 20.5625 62.2344 26.4688 59.1719 30.625C56.1094 34.8906 55.4531 35.875 55.8906 36.9688C56.3281 38.0625 64.2031 45.3906 66.1719 48.8906C66.7188 49.875 67.1563 50.75 67.5938 51.5156C68.3594 52.9375 67.2656 54.7969 65.625 54.7969H56.4375C55.6719 54.7969 54.9063 54.3594 54.5781 53.7031L53.7031 52.2812C53.7031 52.2812 48.125 45.7188 44.7344 43.6406C41.2344 41.6719 41.3438 44.5156 41.3438 44.5156V50.3125C41.3438 52.7188 39.375 54.6875 36.9688 54.6875H34.7813C34.7813 54.6875 22.75 54.6875 13.125 40.3594C5.57813 29.2031 3.06251 21.9844 2.18751 17.8281C1.96876 16.5156 2.95313 15.2031 4.37501 15.2031Z" fill="#AEB8FE"/>
</svg>
