<svg width="70" height="70" viewBox="0 0 70 70" fill="none" xmlns="http://www.w3.org/2000/svg">
<g clip-path="url(#clip0_4_2199)">
<path d="M69.5406 20.3424C69.5406 14.19 65.0152 9.24082 59.4234 9.24082C51.8492 8.88672 44.1246 8.75 36.2305 8.75H33.7695C25.8945 8.75 18.1563 8.88672 10.582 9.24219C5.00391 9.24219 0.478523 14.2188 0.478523 20.3711C0.136726 25.2369 -0.0081957 30.1041 7.42305e-06 34.9713C-0.0136645 39.8385 0.141283 44.7102 0.464851 49.5865C0.464851 55.7389 4.99024 60.7291 10.5684 60.7291C18.5254 61.0982 26.6875 61.2623 34.9863 61.2486C43.2988 61.276 51.4382 61.1028 59.4043 60.7291C64.9961 60.7291 69.5215 55.7389 69.5215 49.5865C69.8496 44.7057 70 39.8385 69.9863 34.9576C70.0173 30.0904 69.8688 25.2187 69.5406 20.3424ZM28.3008 48.3834V21.5182L48.125 34.9439L28.3008 48.3834Z" fill="#AEB8FE"/>
</g>
<defs>
<clipPath id="clip0_4_2199">
<rect width="70" height="70" fill="white"/>
</clipPath>
</defs>
</svg>
