<svg width="30" height="30" viewBox="0 0 30 30" fill="none" xmlns="http://www.w3.org/2000/svg">
<g clip-path="url(#clip0_18_15)">
<path d="M29.8031 8.71816C29.8031 6.08144 27.8637 3.96035 25.4672 3.96035C22.2211 3.80859 18.9105 3.75 15.5273 3.75H14.4726C11.0976 3.75 7.78124 3.80859 4.53515 3.96094C2.14452 3.96094 0.205068 6.09375 0.205068 8.73047C0.0585839 10.8158 -0.00352552 12.9018 -9.89763e-06 14.9877C-0.00586927 17.0736 0.060537 19.1615 0.199209 21.2514C0.199209 23.8881 2.13866 26.0268 4.52929 26.0268C7.93944 26.185 11.4375 26.2553 14.9941 26.2494C18.5566 26.2611 22.0449 26.1869 25.459 26.0268C27.8555 26.0268 29.7949 23.8881 29.7949 21.2514C29.9355 19.1596 30 17.0736 29.9941 14.9818C30.0074 12.8959 29.9437 10.808 29.8031 8.71816ZM12.1289 20.7357V9.22207L20.625 14.976L12.1289 20.7357Z" fill="white"/>
</g>
<defs>
<clipPath id="clip0_18_15">
<rect width="30" height="30" fill="white"/>
</clipPath>
</defs>
</svg>
