<svg width="20" height="20" viewBox="0 0 20 20" fill="none" xmlns="http://www.w3.org/2000/svg">
<path d="M13.1547 6.28906L5.86834 9.50585C5.45936 9.69335 5.59686 10.3133 6.04686 10.3133H9.53123C9.57267 10.3133 9.61241 10.3297 9.64172 10.359C9.67102 10.3883 9.68748 10.4281 9.68748 10.4695V13.9531C9.68748 14.4031 10.3125 14.5391 10.4992 14.1312L13.7109 6.84531C13.7469 6.76746 13.7581 6.68045 13.743 6.59603C13.728 6.51161 13.6874 6.43384 13.6268 6.37321C13.5661 6.31257 13.4884 6.27199 13.4039 6.25695C13.3195 6.2419 13.2325 6.25311 13.1547 6.28906Z" fill="#515151"/>
<path d="M17.5 10C17.5 5.85938 14.1406 2.5 10 2.5C5.85938 2.5 2.5 5.85938 2.5 10C2.5 14.1406 5.85938 17.5 10 17.5C14.1406 17.5 17.5 14.1406 17.5 10Z" stroke="#515151" stroke-miterlimit="10"/>
</svg>
