<svg width="30" height="30" viewBox="0 0 30 30" fill="none" xmlns="http://www.w3.org/2000/svg">
<path d="M15 20.6875C17.1667 18.9375 18.8021 17.2552 19.9062 15.6406C21.0104 14.026 21.5625 12.5208 21.5625 11.125C21.5625 9.89583 21.3385 8.85417 20.8906 8C20.4427 7.14583 19.8906 6.44792 19.2344 5.90625C18.5781 5.36458 17.8646 4.97396 17.0938 4.73438C16.3229 4.49479 15.625 4.375 15 4.375C14.375 4.375 13.6771 4.49479 12.9062 4.73438C12.1354 4.97396 11.4219 5.36458 10.7656 5.90625C10.1094 6.44792 9.55729 7.14583 9.10938 8C8.66146 8.85417 8.4375 9.89583 8.4375 11.125C8.4375 12.5208 8.98958 14.026 10.0937 15.6406C11.1979 17.2552 12.8333 18.9375 15 20.6875ZM15 23.0625C12.1458 20.9167 10.026 18.8646 8.64062 16.9062C7.25521 14.9479 6.5625 13.0208 6.5625 11.125C6.5625 9.70833 6.81771 8.46354 7.32813 7.39062C7.83854 6.31771 8.5 5.41667 9.3125 4.6875C10.125 3.95833 11.0312 3.41146 12.0312 3.04688C13.0312 2.68229 14.0208 2.5 15 2.5C15.9792 2.5 16.9688 2.68229 17.9688 3.04688C18.9688 3.41146 19.875 3.95833 20.6875 4.6875C21.5 5.41667 22.1615 6.31771 22.6719 7.39062C23.1823 8.46354 23.4375 9.70833 23.4375 11.125C23.4375 13.0208 22.7448 14.9479 21.3594 16.9062C19.974 18.8646 17.8542 20.9167 15 23.0625ZM15 13.125C15.6042 13.125 16.1198 12.9115 16.5469 12.4844C16.974 12.0573 17.1875 11.5417 17.1875 10.9375C17.1875 10.3333 16.974 9.81771 16.5469 9.39062C16.1198 8.96354 15.6042 8.75 15 8.75C14.3958 8.75 13.8802 8.96354 13.4531 9.39062C13.026 9.81771 12.8125 10.3333 12.8125 10.9375C12.8125 11.5417 13.026 12.0573 13.4531 12.4844C13.8802 12.9115 14.3958 13.125 15 13.125ZM6.5625 27.5V25.625H23.4375V27.5H6.5625Z" fill="black"/>
</svg>
