<svg width="30" height="30" viewBox="0 0 30 30" fill="none" xmlns="http://www.w3.org/2000/svg">
<path d="M11.0312 20.3125C10.1771 20.3125 9.45833 20.0208 8.875 19.4375C8.29167 18.8542 8 18.1354 8 17.2812C8 16.4271 8.29167 15.7083 8.875 15.125C9.45833 14.5417 10.1771 14.25 11.0312 14.25C11.8854 14.25 12.6042 14.5417 13.1875 15.125C13.7708 15.7083 14.0625 16.4271 14.0625 17.2812C14.0625 18.1354 13.7708 18.8542 13.1875 19.4375C12.6042 20.0208 11.8854 20.3125 11.0312 20.3125ZM5.625 27.5C5.125 27.5 4.6875 27.3125 4.3125 26.9375C3.9375 26.5625 3.75 26.125 3.75 25.625V6.25C3.75 5.75 3.9375 5.3125 4.3125 4.9375C4.6875 4.5625 5.125 4.375 5.625 4.375H7.65625V2.5H9.6875V4.375H20.3125V2.5H22.3438V4.375H24.375C24.875 4.375 25.3125 4.5625 25.6875 4.9375C26.0625 5.3125 26.25 5.75 26.25 6.25V25.625C26.25 26.125 26.0625 26.5625 25.6875 26.9375C25.3125 27.3125 24.875 27.5 24.375 27.5H5.625ZM5.625 25.625H24.375V12.1875H5.625V25.625ZM5.625 10.3125H24.375V6.25H5.625V10.3125ZM5.625 10.3125V6.25V10.3125Z" fill="black"/>
</svg>
