<svg width="30" height="30" viewBox="0 0 30 30" fill="none" xmlns="http://www.w3.org/2000/svg">
<path d="M4.375 25C3.875 25 3.4375 24.8125 3.0625 24.4375C2.6875 24.0625 2.5 23.625 2.5 23.125V6.875C2.5 6.375 2.6875 5.9375 3.0625 5.5625C3.4375 5.1875 3.875 5 4.375 5H25.625C26.125 5 26.5625 5.1875 26.9375 5.5625C27.3125 5.9375 27.5 6.375 27.5 6.875V23.125C27.5 23.625 27.3125 24.0625 26.9375 24.4375C26.5625 24.8125 26.125 25 25.625 25H4.375ZM15 15.5625L4.375 8.59375V23.125H25.625V8.59375L15 15.5625ZM15 13.6875L25.5 6.875H4.53125L15 13.6875ZM4.375 8.59375V6.875V8.59375V23.125V8.59375Z" fill="black"/>
</svg>
